%TF.FileFunction,Copper,L1,Top,Signal*%
%FSLAX46Y46*%
G04 Gerber Fmt 4.6, Leading zero omitted, Abs format (unit mm)*
G04 Created by KiCad (PCBNEW (2014-10-02 BZR 5161)-product) date 2/13/2015 2:51:55 PM*
%MOMM*%
G01*
G04 APERTURE LIST*
%ADD10C,0.100000*%
%ADD11C,1.524000*%
%ADD12O,3.500120X1.400000*%
%ADD13R,3.500120X1.400000*%
%ADD14R,2.286000X1.574800*%
%ADD15O,2.286000X1.574800*%
%ADD16C,2.000000*%
%ADD17C,1.397000*%
%ADD18C,1.778000*%
%ADD19R,1.778000X1.778000*%
%ADD20C,1.700000*%
%ADD21C,1.501140*%
%ADD22R,1.574800X2.286000*%
%ADD23O,1.574800X2.286000*%
%ADD24C,4.064000*%
%ADD25C,3.000000*%
%ADD26C,1.500000*%
%ADD27C,0.889000*%
%ADD28C,0.254000*%
G04 APERTURE END LIST*
D10*
D11*
X67050000Y-132144000D03*
X80050000Y-132144000D03*
X65750000Y-110244000D03*
X52750000Y-110244000D03*
X85150000Y-118044000D03*
X85150000Y-105044000D03*
X66150000Y-125444000D03*
X53150000Y-125444000D03*
D12*
X79550000Y-109094000D03*
X79550000Y-107394000D03*
X79550000Y-110794000D03*
D13*
X79550000Y-105694000D03*
D12*
X79550000Y-112494000D03*
X79550000Y-122344000D03*
X79550000Y-120644000D03*
X79550000Y-124044000D03*
D13*
X79550000Y-118944000D03*
D12*
X79550000Y-125744000D03*
X69550000Y-109094000D03*
X69550000Y-107394000D03*
X69550000Y-110794000D03*
D13*
X69550000Y-105694000D03*
D12*
X69550000Y-112494000D03*
X69550000Y-122344000D03*
X69550000Y-120644000D03*
X69550000Y-124044000D03*
D13*
X69550000Y-118944000D03*
D12*
X69550000Y-125744000D03*
D14*
X117170000Y-124624000D03*
D15*
X117170000Y-122084000D03*
X117170000Y-119544000D03*
X117170000Y-117004000D03*
X117170000Y-114464000D03*
X117170000Y-111924000D03*
X117170000Y-109384000D03*
X117170000Y-106844000D03*
X109550000Y-106844000D03*
X109550000Y-109384000D03*
X109550000Y-111924000D03*
X109550000Y-114464000D03*
X109550000Y-117004000D03*
X109550000Y-119544000D03*
X109550000Y-122084000D03*
X109550000Y-124624000D03*
D16*
X51150000Y-120644000D03*
X66150000Y-120644000D03*
X65750000Y-105444000D03*
X50750000Y-105444000D03*
D17*
X92540000Y-126444000D03*
X100160000Y-126444000D03*
X87440000Y-124044000D03*
X95060000Y-124044000D03*
X94940000Y-106544000D03*
X102560000Y-106544000D03*
X92740000Y-108944000D03*
X100360000Y-108944000D03*
X124760000Y-104244000D03*
X117140000Y-104244000D03*
D18*
X127300000Y-110794000D03*
D19*
X125050000Y-110794000D03*
D18*
X122800000Y-110794000D03*
D20*
X61550000Y-115244000D03*
X63550000Y-115244000D03*
X52750000Y-115244000D03*
X50750000Y-115244000D03*
D21*
X74750000Y-106594000D03*
X74750000Y-109094000D03*
X74750000Y-112494000D03*
X74750000Y-114994000D03*
X103050000Y-114394000D03*
X103050000Y-111894000D03*
X103050000Y-119494000D03*
X103050000Y-116994000D03*
X74750000Y-119894000D03*
X74750000Y-122394000D03*
X74750000Y-125694000D03*
X74750000Y-128194000D03*
X123950000Y-116994000D03*
X123950000Y-114494000D03*
D17*
X120360000Y-114464000D03*
X120360000Y-117004000D03*
X124780000Y-108044000D03*
X127320000Y-108044000D03*
X97780000Y-122344000D03*
X100320000Y-122344000D03*
X106660000Y-114454000D03*
X106660000Y-111914000D03*
X106660000Y-119554000D03*
X106660000Y-117014000D03*
X106650000Y-106814000D03*
X106650000Y-104274000D03*
X106630000Y-124484000D03*
X104090000Y-124484000D03*
X90050000Y-106074000D03*
X90050000Y-108614000D03*
D22*
X90050000Y-119594000D03*
D23*
X92590000Y-119594000D03*
X95130000Y-119594000D03*
X97670000Y-119594000D03*
X97670000Y-111974000D03*
X95130000Y-111974000D03*
X92590000Y-111974000D03*
X90050000Y-111974000D03*
D24*
X73250000Y-134644000D03*
X58050000Y-105344000D03*
X124150000Y-122444000D03*
D25*
X63600000Y-135444000D03*
X50100000Y-135444000D03*
D26*
X60250000Y-132444000D03*
X53450000Y-132444000D03*
X60250000Y-129944000D03*
X53450000Y-129944000D03*
D25*
X56850000Y-136244000D03*
X94800000Y-135444000D03*
X81300000Y-135444000D03*
D26*
X91450000Y-132444000D03*
X84650000Y-132444000D03*
X91450000Y-129944000D03*
X84650000Y-129944000D03*
D25*
X88050000Y-136244000D03*
X128600000Y-135444000D03*
X115100000Y-135444000D03*
D26*
X120950000Y-129944000D03*
X120550000Y-132444000D03*
X123150000Y-132444000D03*
X125250000Y-132444000D03*
X118450000Y-132444000D03*
X125250000Y-129944000D03*
X123150000Y-129944000D03*
X118450000Y-129944000D03*
D25*
X121850000Y-136244000D03*
X111600000Y-135444000D03*
X98100000Y-135444000D03*
D26*
X108250000Y-132444000D03*
X101450000Y-132444000D03*
X108250000Y-129944000D03*
X101450000Y-129944000D03*
D25*
X104850000Y-136244000D03*
D27*
X91450000Y-115144000D03*
X91350000Y-122344000D03*
X86950000Y-122344000D03*
X86950000Y-118044000D03*
D28*
X92800000Y-130944000D02*
X92800000Y-137044000D01*
X92800000Y-137044000D02*
X93950000Y-138194000D01*
X93950000Y-138194000D02*
X123050000Y-138194000D01*
X91800000Y-129944000D02*
X92800000Y-130944000D01*
X127300000Y-133944000D02*
X127300000Y-110794000D01*
X123050000Y-138194000D02*
X127300000Y-133944000D01*
X91450000Y-129944000D02*
X91800000Y-129944000D01*
X91450000Y-129944000D02*
X91450000Y-129894000D01*
X91450000Y-129894000D02*
X93850000Y-127494000D01*
X93850000Y-117644000D02*
X93850000Y-127494000D01*
X80775000Y-137869000D02*
X83525000Y-137869000D01*
X83525000Y-137869000D02*
X91450000Y-129944000D01*
X127320000Y-108044000D02*
X127320000Y-110774000D01*
X127320000Y-110774000D02*
X127300000Y-110794000D01*
X70693400Y-125744000D02*
X75220000Y-125744000D01*
X69550000Y-125744000D02*
X70693400Y-125744000D01*
X70980800Y-112494000D02*
X75470000Y-112494000D01*
X69550000Y-112494000D02*
X70980800Y-112494000D01*
X109540000Y-114454000D02*
X109550000Y-114464000D01*
X106660000Y-114454000D02*
X109540000Y-114454000D01*
X102560000Y-114454000D02*
X106660000Y-114454000D01*
X90050000Y-111974000D02*
X90050000Y-108614000D01*
X97040000Y-114454000D02*
X93850000Y-117644000D01*
X102560000Y-114454000D02*
X97040000Y-114454000D01*
X93850000Y-117544000D02*
X91450000Y-115144000D01*
X93850000Y-117644000D02*
X93850000Y-117544000D01*
X86950000Y-119644000D02*
X91450000Y-115144000D01*
X83950000Y-119644000D02*
X86950000Y-119644000D01*
X79550000Y-115244000D02*
X83950000Y-119644000D01*
X79550000Y-112494000D02*
X79550000Y-115244000D01*
X79550000Y-127544000D02*
X77850000Y-129244000D01*
X77850000Y-129244000D02*
X77850000Y-134944000D01*
X79550000Y-125744000D02*
X79550000Y-127544000D01*
X74750000Y-112494000D02*
X79550000Y-112494000D01*
X79500000Y-125694000D02*
X79550000Y-125744000D01*
X74750000Y-125694000D02*
X79500000Y-125694000D01*
X77850000Y-134944000D02*
X80775000Y-137869000D01*
X79540000Y-109104000D02*
X80495800Y-109104000D01*
X79540000Y-109104000D02*
X79550000Y-109094000D01*
X79530000Y-109114000D02*
X79540000Y-109104000D01*
X109550000Y-117004000D02*
X106670000Y-117004000D01*
X106670000Y-117004000D02*
X106660000Y-117014000D01*
X69570000Y-109114000D02*
X69550000Y-109094000D01*
X75300000Y-122364000D02*
X69570000Y-122364000D01*
X69570000Y-122364000D02*
X69550000Y-122344000D01*
X79530000Y-122364000D02*
X79550000Y-122344000D01*
X102560000Y-117014000D02*
X106660000Y-117014000D01*
X97670000Y-122444000D02*
X97800000Y-122574000D01*
X97780000Y-119704000D02*
X97670000Y-119594000D01*
X97670000Y-122234000D02*
X97780000Y-122344000D01*
X97670000Y-119594000D02*
X97670000Y-122234000D01*
X82250000Y-122944000D02*
X81650000Y-122344000D01*
X81650000Y-122344000D02*
X79550000Y-122344000D01*
X82250000Y-126244000D02*
X82250000Y-122944000D01*
X78550000Y-129944000D02*
X82250000Y-126244000D01*
X78550000Y-133044000D02*
X78550000Y-129944000D01*
X78900000Y-133394000D02*
X78550000Y-133044000D01*
X81100000Y-133394000D02*
X78900000Y-133394000D01*
X84510000Y-129984000D02*
X81100000Y-133394000D01*
X82750000Y-122344000D02*
X82250000Y-122844000D01*
X82250000Y-122844000D02*
X82250000Y-122944000D01*
X86950000Y-122344000D02*
X82750000Y-122344000D01*
X91350000Y-122344000D02*
X86950000Y-122344000D01*
X100680000Y-117014000D02*
X99250000Y-118444000D01*
X99250000Y-118444000D02*
X99250000Y-120874000D01*
X99250000Y-120874000D02*
X97780000Y-122344000D01*
X102560000Y-117014000D02*
X100680000Y-117014000D01*
X86950000Y-113844000D02*
X86950000Y-118044000D01*
X82200000Y-109094000D02*
X86950000Y-113844000D01*
X79550000Y-109094000D02*
X82200000Y-109094000D01*
X79500000Y-122394000D02*
X79550000Y-122344000D01*
X74750000Y-122394000D02*
X79500000Y-122394000D01*
X74750000Y-109094000D02*
X69550000Y-109094000D01*
X74750000Y-109094000D02*
X79550000Y-109094000D01*
X76750000Y-120644000D02*
X79550000Y-120644000D01*
X76250000Y-121144000D02*
X76750000Y-120644000D01*
X73250000Y-121144000D02*
X76250000Y-121144000D01*
X72750000Y-120644000D02*
X73250000Y-121144000D01*
X69550000Y-120644000D02*
X72750000Y-120644000D01*
X89000000Y-120644000D02*
X90050000Y-119594000D01*
X79550000Y-120644000D02*
X89000000Y-120644000D01*
X69550000Y-124044000D02*
X79550000Y-124044000D01*
X67550000Y-124044000D02*
X66150000Y-125444000D01*
X69550000Y-124044000D02*
X67550000Y-124044000D01*
X66150000Y-131244000D02*
X67050000Y-132144000D01*
X66150000Y-125444000D02*
X66150000Y-131244000D01*
X69550000Y-107394000D02*
X73100000Y-107394000D01*
X76200000Y-107394000D02*
X79550000Y-107394000D01*
X75750000Y-107844000D02*
X76200000Y-107394000D01*
X73550000Y-107844000D02*
X75750000Y-107844000D01*
X73100000Y-107394000D02*
X73550000Y-107844000D01*
X92590000Y-113104000D02*
X92590000Y-111974000D01*
X81800000Y-107394000D02*
X88450000Y-114044000D01*
X88450000Y-114044000D02*
X91650000Y-114044000D01*
X91650000Y-114044000D02*
X92590000Y-113104000D01*
X79550000Y-107394000D02*
X81800000Y-107394000D01*
X69550000Y-110794000D02*
X66300000Y-110794000D01*
X66300000Y-110794000D02*
X65750000Y-110244000D01*
X69550000Y-110794000D02*
X79550000Y-110794000D01*
X82600000Y-110794000D02*
X85150000Y-113344000D01*
X79550000Y-110794000D02*
X82600000Y-110794000D01*
X85150000Y-113344000D02*
X85150000Y-118044000D01*
X69500000Y-110844000D02*
X69550000Y-110794000D01*
X106770000Y-124624000D02*
X106630000Y-124484000D01*
X109550000Y-124624000D02*
X106770000Y-124624000D01*
X104090000Y-128384000D02*
X105690000Y-129984000D01*
X105690000Y-129984000D02*
X108260000Y-129984000D01*
X104090000Y-124484000D02*
X104090000Y-128384000D01*
X109550000Y-106844000D02*
X106770000Y-106844000D01*
X106770000Y-106844000D02*
X106630000Y-106984000D01*
X108850000Y-134344000D02*
X112350000Y-130844000D01*
X112350000Y-130844000D02*
X112350000Y-107244000D01*
X109380000Y-104274000D02*
X112350000Y-107244000D01*
X106650000Y-104274000D02*
X109380000Y-104274000D01*
X101650000Y-134344000D02*
X108850000Y-134344000D01*
X100250000Y-132944000D02*
X101650000Y-134344000D01*
X100250000Y-130944000D02*
X100250000Y-132944000D01*
X101210000Y-129984000D02*
X100250000Y-130944000D01*
X101460000Y-129984000D02*
X101210000Y-129984000D01*
X117170000Y-122084000D02*
X118710000Y-122084000D01*
X118710000Y-122084000D02*
X119360000Y-122734000D01*
X119360000Y-122734000D02*
X119360000Y-129084000D01*
X119360000Y-129084000D02*
X118460000Y-129984000D01*
X117170000Y-119544000D02*
X118920000Y-119544000D01*
X118920000Y-119544000D02*
X120960000Y-121584000D01*
X120960000Y-121584000D02*
X120960000Y-129984000D01*
X125260000Y-132484000D02*
X125260000Y-132584000D01*
X125260000Y-132584000D02*
X124110000Y-133734000D01*
X124110000Y-133734000D02*
X117610000Y-133734000D01*
X117610000Y-133734000D02*
X115210000Y-131334000D01*
X115210000Y-131334000D02*
X115210000Y-113884000D01*
X115210000Y-113884000D02*
X117170000Y-111924000D01*
X92590000Y-126314000D02*
X92560000Y-126344000D01*
X92590000Y-119594000D02*
X92590000Y-126314000D01*
X83350000Y-126444000D02*
X80050000Y-129744000D01*
X80050000Y-129744000D02*
X80050000Y-132144000D01*
X92540000Y-126444000D02*
X83350000Y-126444000D01*
X94940000Y-111784000D02*
X95130000Y-111974000D01*
X94940000Y-106544000D02*
X94940000Y-111784000D01*
X92340000Y-103944000D02*
X94940000Y-106544000D01*
X85950000Y-103944000D02*
X92340000Y-103944000D01*
X85150000Y-104744000D02*
X85950000Y-103944000D01*
X85150000Y-105044000D02*
X85150000Y-104744000D01*
X53150000Y-125444000D02*
X53150000Y-123644000D01*
X53150000Y-123644000D02*
X61550000Y-115244000D01*
X66150000Y-120644000D02*
X66150000Y-117844000D01*
X66150000Y-117844000D02*
X63550000Y-115244000D01*
X66050000Y-120644000D02*
X66150000Y-120644000D01*
X60200000Y-126494000D02*
X66050000Y-120644000D01*
X60200000Y-130044000D02*
X60200000Y-126494000D01*
X52750000Y-115244000D02*
X52750000Y-110244000D01*
X53050000Y-110844000D02*
X53050000Y-110444000D01*
X50750000Y-115244000D02*
X50750000Y-115344000D01*
X50750000Y-115344000D02*
X48950000Y-117144000D01*
X50750000Y-105444000D02*
X50750000Y-115244000D01*
X51750000Y-130044000D02*
X48950000Y-127244000D01*
X48950000Y-127244000D02*
X48950000Y-117144000D01*
X53400000Y-130044000D02*
X51750000Y-130044000D01*
X118460000Y-132484000D02*
X117860000Y-132484000D01*
X117860000Y-132484000D02*
X117170000Y-131794000D01*
X117170000Y-131794000D02*
X117170000Y-124624000D01*
X117170000Y-106844000D02*
X117170000Y-104004000D01*
X117170000Y-104004000D02*
X117150000Y-103984000D01*
X117170000Y-106844000D02*
X116500000Y-106844000D01*
X116500000Y-106844000D02*
X114660000Y-108684000D01*
X114660000Y-108684000D02*
X114660000Y-131784000D01*
X114660000Y-131784000D02*
X117160000Y-134284000D01*
X117160000Y-134284000D02*
X125810000Y-134284000D01*
X125810000Y-134284000D02*
X126610000Y-133484000D01*
X126610000Y-133484000D02*
X126610000Y-131334000D01*
X126610000Y-131334000D02*
X125260000Y-129984000D01*
X101850000Y-124044000D02*
X103550000Y-122344000D01*
X103550000Y-122344000D02*
X106750000Y-122344000D01*
X106750000Y-122344000D02*
X109550000Y-119544000D01*
X95060000Y-124044000D02*
X101850000Y-124044000D01*
X95060000Y-119664000D02*
X95130000Y-119594000D01*
X95060000Y-124044000D02*
X95060000Y-119664000D01*
X109550000Y-111924000D02*
X109550000Y-111644000D01*
X97670000Y-109824000D02*
X98550000Y-108944000D01*
X98550000Y-108944000D02*
X100360000Y-108944000D01*
X97670000Y-111974000D02*
X97670000Y-109824000D01*
X106850000Y-108944000D02*
X109550000Y-111644000D01*
X100360000Y-108944000D02*
X106850000Y-108944000D01*
X108260000Y-132484000D02*
X108410000Y-132484000D01*
X108410000Y-132484000D02*
X111150000Y-129744000D01*
X111150000Y-123684000D02*
X109550000Y-122084000D01*
X111150000Y-129744000D02*
X111150000Y-123684000D01*
X108435000Y-132484000D02*
X108610000Y-132484000D01*
X108260000Y-132484000D02*
X108435000Y-132484000D01*
X102720000Y-133744000D02*
X101460000Y-132484000D01*
X109550000Y-109384000D02*
X111750000Y-111584000D01*
X111750000Y-130644000D02*
X111750000Y-111584000D01*
X108650000Y-133744000D02*
X111750000Y-130644000D01*
X108650000Y-133744000D02*
X102720000Y-133744000D01*
X120360000Y-117004000D02*
X122300000Y-117004000D01*
X117170000Y-117004000D02*
X120360000Y-117004000D01*
X122300000Y-117004000D02*
X124360000Y-117004000D01*
X122800000Y-110794000D02*
X122800000Y-112794000D01*
X122800000Y-112794000D02*
X122300000Y-113294000D01*
X122300000Y-113294000D02*
X122300000Y-117004000D01*
X122800000Y-110794000D02*
X122800000Y-105954000D01*
X122800000Y-105954000D02*
X124770000Y-103984000D01*
X123940000Y-117004000D02*
X123950000Y-116994000D01*
X120360000Y-117004000D02*
X123940000Y-117004000D01*
M02*
