M48
;DRILL file {pcbnew (2014-10-02 BZR 5161)-product} date 2/13/2015 2:51:58 PM
;FORMAT={-:-/ absolute / inch / decimal}
FMAT,2
INCH,TZ
T1C0.025
T2C0.030
T3C0.032
T4C0.032
T5C0.035
T6C0.039
T7C0.045
T8C0.087
T9C0.120
%
G90
G05
M72
T1
X3.4232Y-4.6474
X3.4232Y-4.8167
X3.5965Y-4.8167
X3.6004Y-4.5332
T2
X2.0768Y-4.3403
X2.0925Y-4.9387
X2.5886Y-4.3403
X2.6043Y-4.9387
X2.6398Y-5.2025
X3.1516Y-5.2025
X3.3524Y-4.1356
X3.3524Y-4.6474
T3
X1.998Y-4.5372
X2.0768Y-4.5372
X2.4232Y-4.5372
X2.502Y-4.5372
X2.9429Y-4.1966
X2.9429Y-4.295
X2.9429Y-4.4289
X2.9429Y-4.5273
X2.9429Y-4.7202
X2.9429Y-4.8187
X2.9429Y-4.9486
X2.9429Y-5.047
X4.0571Y-4.4053
X4.0571Y-4.5037
X4.0571Y-4.6061
X4.0571Y-4.7045
X4.8799Y-4.5076
X4.8799Y-4.6061
T4
X3.4425Y-4.8836
X3.5453Y-4.1761
X3.5453Y-4.2761
X3.5453Y-4.4084
X3.5453Y-4.7084
X3.6433Y-4.9781
X3.6453Y-4.4084
X3.6453Y-4.7084
X3.6512Y-4.2891
X3.7378Y-4.1946
X3.7425Y-4.8836
X3.7453Y-4.4084
X3.7453Y-4.7084
X3.8453Y-4.4084
X3.8453Y-4.7084
X3.8496Y-4.8167
X3.9433Y-4.9781
X3.9496Y-4.8167
X3.9512Y-4.2891
X4.0378Y-4.1946
X4.098Y-4.9009
X4.198Y-4.9009
X4.1988Y-4.1053
X4.1988Y-4.2053
X4.1992Y-4.4061
X4.1992Y-4.5061
X4.1992Y-4.6069
X4.1992Y-4.7069
X4.313Y-4.2065
X4.313Y-4.3065
X4.313Y-4.4065
X4.313Y-4.5065
X4.313Y-4.6065
X4.313Y-4.7065
X4.313Y-4.8065
X4.313Y-4.9065
X4.6118Y-4.1041
X4.613Y-4.2065
X4.613Y-4.3065
X4.613Y-4.4065
X4.613Y-4.5065
X4.613Y-4.6065
X4.613Y-4.7065
X4.613Y-4.8065
X4.613Y-4.9065
X4.7386Y-4.5065
X4.7386Y-4.6065
X4.9118Y-4.1041
X4.9126Y-4.2537
X5.0126Y-4.2537
T5
X2.1043Y-5.1159
X2.1043Y-5.2143
X2.372Y-5.1159
X2.372Y-5.2143
X3.3327Y-5.1159
X3.3327Y-5.2143
X3.6004Y-5.1159
X3.6004Y-5.2143
X3.9941Y-5.1159
X3.9941Y-5.2143
X4.2618Y-5.1159
X4.2618Y-5.2143
X4.6634Y-5.1159
X4.6634Y-5.2143
X4.7461Y-5.2143
X4.7618Y-5.1159
X4.8484Y-5.1159
X4.8484Y-5.2143
X4.9311Y-5.1159
X4.9311Y-5.2143
T6
X1.998Y-4.1513
X2.0138Y-4.7498
X2.5886Y-4.1513
X2.6043Y-4.7498
T7
X2.7382Y-4.1612
X2.7382Y-4.2281
X2.7382Y-4.295
X2.7382Y-4.362
X2.7382Y-4.4289
X2.7382Y-4.6828
X2.7382Y-4.7498
X2.7382Y-4.8167
X2.7382Y-4.8836
X2.7382Y-4.9506
X3.1319Y-4.1612
X3.1319Y-4.2281
X3.1319Y-4.295
X3.1319Y-4.362
X3.1319Y-4.4289
X3.1319Y-4.6828
X3.1319Y-4.7498
X3.1319Y-4.8167
X3.1319Y-4.8836
X3.1319Y-4.9506
X4.8346Y-4.362
X4.9232Y-4.362
X5.0118Y-4.362
T8
X1.9724Y-5.3324
X2.2382Y-5.3639
X2.5039Y-5.3324
X3.2008Y-5.3324
X3.4665Y-5.3639
X3.7323Y-5.3324
X3.8622Y-5.3324
X4.128Y-5.3639
X4.3937Y-5.3324
X4.5315Y-5.3324
X4.7972Y-5.3639
X5.063Y-5.3324
T9
X2.2854Y-4.1474
X2.8839Y-5.3009
X4.8878Y-4.8206
T0
M30
