%TF.FileFunction,Soldermask,Bot*%
%FSLAX46Y46*%
G04 Gerber Fmt 4.6, Leading zero omitted, Abs format (unit mm)*
G04 Created by KiCad (PCBNEW (2014-08-05 BZR 5054)-product) date Mon 22 Sep 2014 09:28:56 AM PDT*
%MOMM*%
G01*
G04 APERTURE LIST*
%ADD10C,0.100000*%
%ADD11C,1.397000*%
%ADD12R,1.574800X2.286000*%
%ADD13O,1.574800X2.286000*%
%ADD14R,1.998980X1.998980*%
%ADD15C,1.998980*%
%ADD16R,2.032000X1.727200*%
%ADD17O,2.032000X1.727200*%
%ADD18O,3.500120X1.699260*%
%ADD19O,3.500120X1.524000*%
%ADD20R,3.500120X1.524000*%
%ADD21R,1.727200X1.727200*%
%ADD22O,1.727200X1.727200*%
%ADD23C,1.727200*%
G04 APERTURE END LIST*
D10*
D11*
X47942500Y-59499500D03*
X47942500Y-56959500D03*
X50482500Y-56959500D03*
X50482500Y-59499500D03*
X77089000Y-38608000D03*
X74549000Y-38608000D03*
X77089000Y-43688000D03*
X74549000Y-43688000D03*
X58102500Y-57975500D03*
X55562500Y-57975500D03*
X77089000Y-68072000D03*
X74549000Y-68072000D03*
X77089000Y-62992000D03*
X74549000Y-62992000D03*
X40322500Y-57975500D03*
X42862500Y-57975500D03*
D12*
X58102500Y-45783500D03*
D13*
X55562500Y-45783500D03*
X53022500Y-45783500D03*
X50482500Y-45783500D03*
X47942500Y-45783500D03*
X45402500Y-45783500D03*
X42862500Y-45783500D03*
X40322500Y-45783500D03*
X40322500Y-53403500D03*
X42862500Y-53403500D03*
X45402500Y-53403500D03*
X47942500Y-53403500D03*
X50482500Y-53403500D03*
X53022500Y-53403500D03*
X55562500Y-53403500D03*
X58102500Y-53403500D03*
D12*
X75311000Y-49403000D03*
D13*
X72771000Y-49403000D03*
X70231000Y-49403000D03*
X67691000Y-49403000D03*
X67691000Y-57023000D03*
X70231000Y-57023000D03*
X72771000Y-57023000D03*
X75311000Y-57023000D03*
D11*
X67691000Y-43688000D03*
X67691000Y-36068000D03*
X70231000Y-38354000D03*
X70231000Y-45974000D03*
X65151000Y-36068000D03*
X65151000Y-43688000D03*
X67691000Y-62992000D03*
X67691000Y-70612000D03*
X70231000Y-67818000D03*
X70231000Y-60198000D03*
X65151000Y-70612000D03*
X65151000Y-62992000D03*
D14*
X44831000Y-42164000D03*
D15*
X44831000Y-39624000D03*
D14*
X50419000Y-42164000D03*
D15*
X50419000Y-39624000D03*
D11*
X54991000Y-42164000D03*
X54991000Y-39624000D03*
D14*
X44450000Y-65024000D03*
D15*
X44450000Y-62484000D03*
D14*
X50038000Y-65024000D03*
D15*
X50038000Y-62484000D03*
D11*
X54610000Y-65024000D03*
X54610000Y-62484000D03*
D14*
X44450000Y-70739000D03*
D15*
X44450000Y-68199000D03*
D14*
X50038000Y-70739000D03*
D15*
X50038000Y-68199000D03*
D11*
X54610000Y-70739000D03*
X54610000Y-68199000D03*
D16*
X38989000Y-37084000D03*
D17*
X38989000Y-39624000D03*
X38989000Y-42164000D03*
D16*
X38862000Y-64135000D03*
D17*
X38862000Y-66675000D03*
X38862000Y-69215000D03*
D18*
X81407000Y-62992000D03*
D19*
X81407000Y-60452000D03*
D18*
X81407000Y-65532000D03*
D20*
X81407000Y-57912000D03*
D19*
X81407000Y-68072000D03*
D18*
X81407000Y-43688000D03*
D19*
X81407000Y-46228000D03*
D18*
X81407000Y-41148000D03*
D20*
X81407000Y-48768000D03*
D19*
X81407000Y-38608000D03*
D21*
X44069000Y-29718000D03*
D22*
X44069000Y-32258000D03*
D21*
X74549000Y-77978000D03*
D22*
X66929000Y-77978000D03*
D21*
X64389000Y-77978000D03*
X61849000Y-77978000D03*
X61849000Y-80518000D03*
D22*
X56769000Y-80518000D03*
X54229000Y-77978000D03*
X51689000Y-77978000D03*
X51689000Y-80518000D03*
D21*
X49149000Y-77978000D03*
D22*
X49149000Y-80518000D03*
X46609000Y-77978000D03*
X46609000Y-80518000D03*
X44069000Y-77978000D03*
X44069000Y-80518000D03*
X41529000Y-77978000D03*
D23*
X41529000Y-80518000D03*
D22*
X54229000Y-80518000D03*
D21*
X56769000Y-77978000D03*
D22*
X59309000Y-80518000D03*
X59309000Y-77978000D03*
D21*
X64389000Y-80518000D03*
D22*
X66929000Y-80518000D03*
D21*
X69469000Y-80518000D03*
D22*
X69469000Y-77978000D03*
X72009000Y-80518000D03*
X72009000Y-77978000D03*
X74549000Y-80518000D03*
X77089000Y-80518000D03*
X77089000Y-77978000D03*
D21*
X79629000Y-80518000D03*
D22*
X79629000Y-77978000D03*
X82169000Y-80518000D03*
X82169000Y-77978000D03*
X38989000Y-32258000D03*
X38989000Y-29718000D03*
X41529000Y-32258000D03*
X41529000Y-29718000D03*
X46609000Y-32258000D03*
X46609000Y-29718000D03*
D21*
X49149000Y-32258000D03*
D22*
X49149000Y-29718000D03*
D21*
X51689000Y-32258000D03*
D22*
X51689000Y-29718000D03*
X54229000Y-32258000D03*
D21*
X54229000Y-29718000D03*
X56769000Y-32258000D03*
D22*
X56769000Y-29718000D03*
D21*
X59309000Y-32258000D03*
D22*
X59309000Y-29718000D03*
X61849000Y-32258000D03*
D21*
X61849000Y-29718000D03*
D22*
X64389000Y-32258000D03*
X64389000Y-29718000D03*
X66929000Y-32258000D03*
X66929000Y-29718000D03*
X69469000Y-32258000D03*
D21*
X69469000Y-29718000D03*
D22*
X72009000Y-32258000D03*
X72009000Y-29718000D03*
D21*
X74549000Y-32258000D03*
D22*
X74549000Y-29718000D03*
D21*
X77089000Y-32258000D03*
D22*
X77089000Y-29718000D03*
X79629000Y-32258000D03*
D21*
X79629000Y-29718000D03*
D22*
X82169000Y-32258000D03*
X82169000Y-29718000D03*
D21*
X38989000Y-80518000D03*
X38989000Y-77978000D03*
D16*
X88773000Y-49784000D03*
D17*
X88773000Y-52324000D03*
X88773000Y-54864000D03*
X88773000Y-57404000D03*
M02*
