%TF.FileFunction,Copper,L2,Bot,Signal*%
%FSLAX46Y46*%
G04 Gerber Fmt 4.6, Leading zero omitted, Abs format (unit mm)*
G04 Created by KiCad (PCBNEW (2014-10-02 BZR 5161)-product) date 2/13/2015 2:51:55 PM*
%MOMM*%
G01*
G04 APERTURE LIST*
%ADD10C,0.100000*%
%ADD11C,1.524000*%
%ADD12O,3.500120X1.400000*%
%ADD13R,3.500120X1.400000*%
%ADD14R,2.286000X1.574800*%
%ADD15O,2.286000X1.574800*%
%ADD16C,2.000000*%
%ADD17C,1.397000*%
%ADD18C,1.778000*%
%ADD19R,1.778000X1.778000*%
%ADD20C,1.700000*%
%ADD21C,1.501140*%
%ADD22R,1.574800X2.286000*%
%ADD23O,1.574800X2.286000*%
%ADD24C,4.064000*%
%ADD25C,3.000000*%
%ADD26C,1.500000*%
%ADD27C,0.889000*%
%ADD28C,0.254000*%
G04 APERTURE END LIST*
D10*
D11*
X67050000Y-132144000D03*
X80050000Y-132144000D03*
X65750000Y-110244000D03*
X52750000Y-110244000D03*
X85150000Y-118044000D03*
X85150000Y-105044000D03*
X66150000Y-125444000D03*
X53150000Y-125444000D03*
D12*
X79550000Y-109094000D03*
X79550000Y-107394000D03*
X79550000Y-110794000D03*
D13*
X79550000Y-105694000D03*
D12*
X79550000Y-112494000D03*
X79550000Y-122344000D03*
X79550000Y-120644000D03*
X79550000Y-124044000D03*
D13*
X79550000Y-118944000D03*
D12*
X79550000Y-125744000D03*
X69550000Y-109094000D03*
X69550000Y-107394000D03*
X69550000Y-110794000D03*
D13*
X69550000Y-105694000D03*
D12*
X69550000Y-112494000D03*
X69550000Y-122344000D03*
X69550000Y-120644000D03*
X69550000Y-124044000D03*
D13*
X69550000Y-118944000D03*
D12*
X69550000Y-125744000D03*
D14*
X117170000Y-124624000D03*
D15*
X117170000Y-122084000D03*
X117170000Y-119544000D03*
X117170000Y-117004000D03*
X117170000Y-114464000D03*
X117170000Y-111924000D03*
X117170000Y-109384000D03*
X117170000Y-106844000D03*
X109550000Y-106844000D03*
X109550000Y-109384000D03*
X109550000Y-111924000D03*
X109550000Y-114464000D03*
X109550000Y-117004000D03*
X109550000Y-119544000D03*
X109550000Y-122084000D03*
X109550000Y-124624000D03*
D16*
X51150000Y-120644000D03*
X66150000Y-120644000D03*
X65750000Y-105444000D03*
X50750000Y-105444000D03*
D17*
X92540000Y-126444000D03*
X100160000Y-126444000D03*
X87440000Y-124044000D03*
X95060000Y-124044000D03*
X94940000Y-106544000D03*
X102560000Y-106544000D03*
X92740000Y-108944000D03*
X100360000Y-108944000D03*
X124760000Y-104244000D03*
X117140000Y-104244000D03*
D18*
X127300000Y-110794000D03*
D19*
X125050000Y-110794000D03*
D18*
X122800000Y-110794000D03*
D20*
X61550000Y-115244000D03*
X63550000Y-115244000D03*
X52750000Y-115244000D03*
X50750000Y-115244000D03*
D21*
X74750000Y-106594000D03*
X74750000Y-109094000D03*
X74750000Y-112494000D03*
X74750000Y-114994000D03*
X103050000Y-114394000D03*
X103050000Y-111894000D03*
X103050000Y-119494000D03*
X103050000Y-116994000D03*
X74750000Y-119894000D03*
X74750000Y-122394000D03*
X74750000Y-125694000D03*
X74750000Y-128194000D03*
X123950000Y-116994000D03*
X123950000Y-114494000D03*
D17*
X120360000Y-114464000D03*
X120360000Y-117004000D03*
X124780000Y-108044000D03*
X127320000Y-108044000D03*
X97780000Y-122344000D03*
X100320000Y-122344000D03*
X106660000Y-114454000D03*
X106660000Y-111914000D03*
X106660000Y-119554000D03*
X106660000Y-117014000D03*
X106650000Y-106814000D03*
X106650000Y-104274000D03*
X106630000Y-124484000D03*
X104090000Y-124484000D03*
X90050000Y-106074000D03*
X90050000Y-108614000D03*
D22*
X90050000Y-119594000D03*
D23*
X92590000Y-119594000D03*
X95130000Y-119594000D03*
X97670000Y-119594000D03*
X97670000Y-111974000D03*
X95130000Y-111974000D03*
X92590000Y-111974000D03*
X90050000Y-111974000D03*
D24*
X73250000Y-134644000D03*
X58050000Y-105344000D03*
X124150000Y-122444000D03*
D25*
X63600000Y-135444000D03*
X50100000Y-135444000D03*
D26*
X60250000Y-132444000D03*
X53450000Y-132444000D03*
X60250000Y-129944000D03*
X53450000Y-129944000D03*
D25*
X56850000Y-136244000D03*
X94800000Y-135444000D03*
X81300000Y-135444000D03*
D26*
X91450000Y-132444000D03*
X84650000Y-132444000D03*
X91450000Y-129944000D03*
X84650000Y-129944000D03*
D25*
X88050000Y-136244000D03*
X128600000Y-135444000D03*
X115100000Y-135444000D03*
D26*
X120950000Y-129944000D03*
X120550000Y-132444000D03*
X123150000Y-132444000D03*
X125250000Y-132444000D03*
X118450000Y-132444000D03*
X125250000Y-129944000D03*
X123150000Y-129944000D03*
X118450000Y-129944000D03*
D25*
X121850000Y-136244000D03*
X111600000Y-135444000D03*
X98100000Y-135444000D03*
D26*
X108250000Y-132444000D03*
X101450000Y-132444000D03*
X108250000Y-129944000D03*
X101450000Y-129944000D03*
D25*
X104850000Y-136244000D03*
D27*
X91450000Y-115144000D03*
X91350000Y-122344000D03*
X86950000Y-122344000D03*
X86950000Y-118044000D03*
D28*
X91450000Y-115144000D02*
X90050000Y-113744000D01*
X90050000Y-113744000D02*
X90050000Y-111974000D01*
X79550000Y-105694000D02*
X78100000Y-105694000D01*
X78100000Y-105694000D02*
X77350000Y-106444000D01*
X77350000Y-106444000D02*
X77350000Y-108744000D01*
X77350000Y-108744000D02*
X77700000Y-109094000D01*
X77700000Y-109094000D02*
X79550000Y-109094000D01*
X69550000Y-105694000D02*
X70800000Y-105694000D01*
X70800000Y-105694000D02*
X71750000Y-106644000D01*
X71750000Y-106644000D02*
X71750000Y-108644000D01*
X71750000Y-108644000D02*
X71300000Y-109094000D01*
X71300000Y-109094000D02*
X69550000Y-109094000D01*
X97780000Y-122344000D02*
X91350000Y-122344000D01*
X86950000Y-118044000D02*
X86950000Y-122344000D01*
X71450000Y-122344000D02*
X69550000Y-122344000D01*
X71950000Y-121844000D02*
X71450000Y-122344000D01*
X71950000Y-119744000D02*
X71950000Y-121844000D01*
X71150000Y-118944000D02*
X71950000Y-119744000D01*
X69550000Y-118944000D02*
X71150000Y-118944000D01*
X77850000Y-122344000D02*
X79550000Y-122344000D01*
X77350000Y-121844000D02*
X77850000Y-122344000D01*
X77350000Y-119744000D02*
X77350000Y-121844000D01*
X78150000Y-118944000D02*
X77350000Y-119744000D01*
X79550000Y-118944000D02*
X78150000Y-118944000D01*
G36*
X129265000Y-138659000D02*
X123992723Y-138659000D01*
X123992723Y-136627813D01*
X123976497Y-135778613D01*
X123682739Y-135069418D01*
X123363970Y-134909635D01*
X123184365Y-135089240D01*
X123184365Y-134730030D01*
X123024582Y-134411261D01*
X122233813Y-134101277D01*
X121384613Y-134117503D01*
X120675418Y-134411261D01*
X120515635Y-134730030D01*
X121850000Y-136064395D01*
X123184365Y-134730030D01*
X123184365Y-135089240D01*
X122029605Y-136244000D01*
X123363970Y-137578365D01*
X123682739Y-137418582D01*
X123992723Y-136627813D01*
X123992723Y-138659000D01*
X123184365Y-138659000D01*
X123184365Y-137757970D01*
X121850000Y-136423605D01*
X121670395Y-136603210D01*
X121670395Y-136244000D01*
X120336030Y-134909635D01*
X120017261Y-135069418D01*
X119707277Y-135860187D01*
X119723503Y-136709387D01*
X120017261Y-137418582D01*
X120336030Y-137578365D01*
X121670395Y-136244000D01*
X121670395Y-136603210D01*
X120515635Y-137757970D01*
X120675418Y-138076739D01*
X121466187Y-138386723D01*
X122315387Y-138370497D01*
X123024582Y-138076739D01*
X123184365Y-137757970D01*
X123184365Y-138659000D01*
X117242723Y-138659000D01*
X117242723Y-135827813D01*
X117226497Y-134978613D01*
X116932739Y-134269418D01*
X116613970Y-134109635D01*
X115279605Y-135444000D01*
X116613970Y-136778365D01*
X116932739Y-136618582D01*
X117242723Y-135827813D01*
X117242723Y-138659000D01*
X114177000Y-138659000D01*
X114177000Y-137375359D01*
X114716187Y-137586723D01*
X115565387Y-137570497D01*
X116274582Y-137276739D01*
X116434365Y-136957970D01*
X115100000Y-135623605D01*
X115085857Y-135637747D01*
X114906252Y-135458142D01*
X114920395Y-135444000D01*
X114906252Y-135429857D01*
X115085857Y-135250252D01*
X115100000Y-135264395D01*
X116434365Y-133930030D01*
X116274582Y-133611261D01*
X115483813Y-133301277D01*
X114634613Y-133317503D01*
X114177000Y-133507052D01*
X114177000Y-103129000D01*
X116369445Y-103129000D01*
X116010173Y-103487647D01*
X115806732Y-103977587D01*
X115806269Y-104508086D01*
X116008854Y-104998380D01*
X116383647Y-105373827D01*
X116589666Y-105459373D01*
X116235238Y-105529874D01*
X115773778Y-105838211D01*
X115465441Y-106299671D01*
X115357167Y-106844000D01*
X115465441Y-107388329D01*
X115773778Y-107849789D01*
X116169198Y-108113999D01*
X115773778Y-108378211D01*
X115465441Y-108839671D01*
X115357167Y-109384000D01*
X115465441Y-109928329D01*
X115773778Y-110389789D01*
X116169198Y-110653999D01*
X115773778Y-110918211D01*
X115465441Y-111379671D01*
X115357167Y-111924000D01*
X115465441Y-112468329D01*
X115773778Y-112929789D01*
X116168829Y-113193753D01*
X116152738Y-113198475D01*
X115718809Y-113548014D01*
X115451673Y-114037004D01*
X115434990Y-114116940D01*
X115557148Y-114337000D01*
X117043000Y-114337000D01*
X117043000Y-114317000D01*
X117297000Y-114317000D01*
X117297000Y-114337000D01*
X118782852Y-114337000D01*
X118905010Y-114116940D01*
X118888327Y-114037004D01*
X118621191Y-113548014D01*
X118187262Y-113198475D01*
X118171170Y-113193753D01*
X118566222Y-112929789D01*
X118874559Y-112468329D01*
X118982833Y-111924000D01*
X118874559Y-111379671D01*
X118566222Y-110918211D01*
X118170801Y-110653999D01*
X118566222Y-110389789D01*
X118874559Y-109928329D01*
X118982833Y-109384000D01*
X118874559Y-108839671D01*
X118566222Y-108378211D01*
X118170801Y-108113999D01*
X118566222Y-107849789D01*
X118874559Y-107388329D01*
X118982833Y-106844000D01*
X118874559Y-106299671D01*
X118566222Y-105838211D01*
X118104762Y-105529874D01*
X117709966Y-105451344D01*
X117894380Y-105375146D01*
X118269827Y-105000353D01*
X118473268Y-104510413D01*
X118473731Y-103979914D01*
X118271146Y-103489620D01*
X117911154Y-103129000D01*
X123989445Y-103129000D01*
X123630173Y-103487647D01*
X123426732Y-103977587D01*
X123426269Y-104508086D01*
X123628854Y-104998380D01*
X124003647Y-105373827D01*
X124493587Y-105577268D01*
X125024086Y-105577731D01*
X125514380Y-105375146D01*
X125889827Y-105000353D01*
X126093268Y-104510413D01*
X126093731Y-103979914D01*
X125891146Y-103489620D01*
X125531154Y-103129000D01*
X129265000Y-103129000D01*
X129265000Y-133411503D01*
X128983813Y-133301277D01*
X128824264Y-133304325D01*
X128824264Y-110492188D01*
X128592738Y-109931851D01*
X128164404Y-109502769D01*
X127724027Y-109319908D01*
X128074380Y-109175146D01*
X128449827Y-108800353D01*
X128653268Y-108310413D01*
X128653731Y-107779914D01*
X128451146Y-107289620D01*
X128076353Y-106914173D01*
X127586413Y-106710732D01*
X127055914Y-106710269D01*
X126565620Y-106912854D01*
X126190173Y-107287647D01*
X126056686Y-107609118D01*
X125949800Y-107351071D01*
X125714188Y-107289417D01*
X125534583Y-107469022D01*
X125534583Y-107109812D01*
X125472929Y-106874200D01*
X124972520Y-106698073D01*
X124442801Y-106726852D01*
X124087071Y-106874200D01*
X124025417Y-107109812D01*
X124780000Y-107864395D01*
X125534583Y-107109812D01*
X125534583Y-107469022D01*
X124959605Y-108044000D01*
X125714188Y-108798583D01*
X125949800Y-108736929D01*
X126048083Y-108457688D01*
X126188854Y-108798380D01*
X126563647Y-109173827D01*
X126896153Y-109311895D01*
X126437851Y-109501262D01*
X126435567Y-109503541D01*
X126298699Y-109366673D01*
X126065310Y-109270000D01*
X125812691Y-109270000D01*
X125337250Y-109270000D01*
X125472929Y-109213800D01*
X125534583Y-108978188D01*
X124780000Y-108223605D01*
X124600395Y-108403210D01*
X124600395Y-108044000D01*
X123845812Y-107289417D01*
X123610200Y-107351071D01*
X123434073Y-107851480D01*
X123462852Y-108381199D01*
X123610200Y-108736929D01*
X123845812Y-108798583D01*
X124600395Y-108044000D01*
X124600395Y-108403210D01*
X124025417Y-108978188D01*
X124087071Y-109213800D01*
X124246745Y-109270000D01*
X124034690Y-109270000D01*
X123801301Y-109366673D01*
X123664804Y-109503170D01*
X123664404Y-109502769D01*
X123104472Y-109270265D01*
X122498188Y-109269736D01*
X121937851Y-109501262D01*
X121508769Y-109929596D01*
X121276265Y-110489528D01*
X121275736Y-111095812D01*
X121507262Y-111656149D01*
X121935596Y-112085231D01*
X122495528Y-112317735D01*
X123101812Y-112318264D01*
X123662149Y-112086738D01*
X123664432Y-112084458D01*
X123801301Y-112221327D01*
X124034690Y-112318000D01*
X124287309Y-112318000D01*
X124764250Y-112318000D01*
X124923000Y-112159250D01*
X124923000Y-110921000D01*
X124903000Y-110921000D01*
X124903000Y-110667000D01*
X124923000Y-110667000D01*
X124923000Y-110647000D01*
X125177000Y-110647000D01*
X125177000Y-110667000D01*
X125197000Y-110667000D01*
X125197000Y-110921000D01*
X125177000Y-110921000D01*
X125177000Y-112159250D01*
X125335750Y-112318000D01*
X125812691Y-112318000D01*
X126065310Y-112318000D01*
X126298699Y-112221327D01*
X126435195Y-112084829D01*
X126435596Y-112085231D01*
X126995528Y-112317735D01*
X127601812Y-112318264D01*
X128162149Y-112086738D01*
X128591231Y-111658404D01*
X128823735Y-111098472D01*
X128824264Y-110492188D01*
X128824264Y-133304325D01*
X128134613Y-133317503D01*
X127425418Y-133611261D01*
X127265635Y-133930030D01*
X128600000Y-135264395D01*
X128614142Y-135250252D01*
X128793747Y-135429857D01*
X128779605Y-135444000D01*
X128793747Y-135458142D01*
X128614142Y-135637747D01*
X128600000Y-135623605D01*
X128420395Y-135803210D01*
X128420395Y-135444000D01*
X127086030Y-134109635D01*
X126817462Y-134244254D01*
X126817462Y-121915828D01*
X126412291Y-120935239D01*
X125662707Y-120184345D01*
X125347767Y-120053570D01*
X125347767Y-114698966D01*
X125319805Y-114148462D01*
X125162931Y-113769735D01*
X124921930Y-113701675D01*
X124742325Y-113881280D01*
X124742325Y-113522070D01*
X124674265Y-113281069D01*
X124154966Y-113096233D01*
X123604462Y-113124195D01*
X123225735Y-113281069D01*
X123157675Y-113522070D01*
X123950000Y-114314395D01*
X124742325Y-113522070D01*
X124742325Y-113881280D01*
X124129605Y-114494000D01*
X124921930Y-115286325D01*
X125162931Y-115218265D01*
X125347767Y-114698966D01*
X125347767Y-120053570D01*
X125335810Y-120048605D01*
X125335810Y-116719602D01*
X125125314Y-116210163D01*
X124735887Y-115820056D01*
X124568728Y-115750645D01*
X124674265Y-115706931D01*
X124742325Y-115465930D01*
X123950000Y-114673605D01*
X123770395Y-114853210D01*
X123770395Y-114494000D01*
X122978070Y-113701675D01*
X122737069Y-113769735D01*
X122552233Y-114289034D01*
X122580195Y-114839538D01*
X122737069Y-115218265D01*
X122978070Y-115286325D01*
X123770395Y-114494000D01*
X123770395Y-114853210D01*
X123157675Y-115465930D01*
X123225735Y-115706931D01*
X123339032Y-115747257D01*
X123166163Y-115818686D01*
X122776056Y-116208113D01*
X122564671Y-116717184D01*
X122564190Y-117268398D01*
X122774686Y-117777837D01*
X123164113Y-118167944D01*
X123673184Y-118379329D01*
X124224398Y-118379810D01*
X124733837Y-118169314D01*
X125123944Y-117779887D01*
X125335329Y-117270816D01*
X125335810Y-116719602D01*
X125335810Y-120048605D01*
X124682827Y-119777464D01*
X123621828Y-119776538D01*
X122641239Y-120181709D01*
X121890345Y-120931293D01*
X121705927Y-121375421D01*
X121705927Y-114656520D01*
X121677148Y-114126801D01*
X121529800Y-113771071D01*
X121294188Y-113709417D01*
X121114583Y-113889022D01*
X121114583Y-113529812D01*
X121052929Y-113294200D01*
X120552520Y-113118073D01*
X120022801Y-113146852D01*
X119667071Y-113294200D01*
X119605417Y-113529812D01*
X120360000Y-114284395D01*
X121114583Y-113529812D01*
X121114583Y-113889022D01*
X120539605Y-114464000D01*
X121294188Y-115218583D01*
X121529800Y-115156929D01*
X121705927Y-114656520D01*
X121705927Y-121375421D01*
X121693731Y-121404792D01*
X121693731Y-116739914D01*
X121491146Y-116249620D01*
X121116353Y-115874173D01*
X120794881Y-115740686D01*
X121052929Y-115633800D01*
X121114583Y-115398188D01*
X120360000Y-114643605D01*
X120180395Y-114823210D01*
X120180395Y-114464000D01*
X119425812Y-113709417D01*
X119190200Y-113771071D01*
X119014073Y-114271480D01*
X119042852Y-114801199D01*
X119190200Y-115156929D01*
X119425812Y-115218583D01*
X120180395Y-114464000D01*
X120180395Y-114823210D01*
X119605417Y-115398188D01*
X119667071Y-115633800D01*
X119946311Y-115732083D01*
X119605620Y-115872854D01*
X119230173Y-116247647D01*
X119026732Y-116737587D01*
X119026269Y-117268086D01*
X119228854Y-117758380D01*
X119603647Y-118133827D01*
X120093587Y-118337268D01*
X120624086Y-118337731D01*
X121114380Y-118135146D01*
X121489827Y-117760353D01*
X121693268Y-117270413D01*
X121693731Y-116739914D01*
X121693731Y-121404792D01*
X121483464Y-121911173D01*
X121482538Y-122972172D01*
X121887709Y-123952761D01*
X122637293Y-124703655D01*
X123617173Y-125110536D01*
X124678172Y-125111462D01*
X125658761Y-124706291D01*
X126409655Y-123956707D01*
X126816536Y-122976827D01*
X126817462Y-121915828D01*
X126817462Y-134244254D01*
X126767261Y-134269418D01*
X126635240Y-134606203D01*
X126635240Y-132169715D01*
X126424831Y-131660485D01*
X126035564Y-131270539D01*
X125851414Y-131194073D01*
X126033515Y-131118831D01*
X126423461Y-130729564D01*
X126634759Y-130220702D01*
X126635240Y-129669715D01*
X126424831Y-129160485D01*
X126035564Y-128770539D01*
X125526702Y-128559241D01*
X124975715Y-128558760D01*
X124466485Y-128769169D01*
X124076539Y-129158436D01*
X124049108Y-129224496D01*
X123941912Y-129331692D01*
X123941912Y-128972483D01*
X123873923Y-128731540D01*
X123354829Y-128546799D01*
X122804552Y-128574770D01*
X122426077Y-128731540D01*
X122358088Y-128972483D01*
X123150000Y-129764395D01*
X123941912Y-128972483D01*
X123941912Y-129331692D01*
X123329605Y-129944000D01*
X124048446Y-130662841D01*
X124075169Y-130727515D01*
X124464436Y-131117461D01*
X124648585Y-131193926D01*
X124466485Y-131269169D01*
X124199876Y-131535312D01*
X123935564Y-131270539D01*
X123767245Y-131200647D01*
X123873923Y-131156460D01*
X123941912Y-130915517D01*
X123150000Y-130123605D01*
X122358088Y-130915517D01*
X122426077Y-131156460D01*
X122540611Y-131197221D01*
X122366485Y-131269169D01*
X121976539Y-131658436D01*
X121849949Y-131963296D01*
X121724831Y-131660485D01*
X121344554Y-131279545D01*
X121733515Y-131118831D01*
X122123461Y-130729564D01*
X122126872Y-130721348D01*
X122178483Y-130735912D01*
X122970395Y-129944000D01*
X122178483Y-129152088D01*
X122127326Y-129166523D01*
X122124831Y-129160485D01*
X121735564Y-128770539D01*
X121226702Y-128559241D01*
X120675715Y-128558760D01*
X120166485Y-128769169D01*
X119776539Y-129158436D01*
X119700073Y-129342585D01*
X119624831Y-129160485D01*
X119235564Y-128770539D01*
X118982833Y-128665595D01*
X118982833Y-122084000D01*
X118874559Y-121539671D01*
X118566222Y-121078211D01*
X118170801Y-120813999D01*
X118566222Y-120549789D01*
X118874559Y-120088329D01*
X118982833Y-119544000D01*
X118874559Y-118999671D01*
X118566222Y-118538211D01*
X118170801Y-118273999D01*
X118566222Y-118009789D01*
X118874559Y-117548329D01*
X118982833Y-117004000D01*
X118874559Y-116459671D01*
X118566222Y-115998211D01*
X118171170Y-115734246D01*
X118187262Y-115729525D01*
X118621191Y-115379986D01*
X118888327Y-114890996D01*
X118905010Y-114811060D01*
X118782852Y-114591000D01*
X117297000Y-114591000D01*
X117297000Y-114611000D01*
X117043000Y-114611000D01*
X117043000Y-114591000D01*
X115557148Y-114591000D01*
X115434990Y-114811060D01*
X115451673Y-114890996D01*
X115718809Y-115379986D01*
X116152738Y-115729525D01*
X116168829Y-115734246D01*
X115773778Y-115998211D01*
X115465441Y-116459671D01*
X115357167Y-117004000D01*
X115465441Y-117548329D01*
X115773778Y-118009789D01*
X116169198Y-118273999D01*
X115773778Y-118538211D01*
X115465441Y-118999671D01*
X115357167Y-119544000D01*
X115465441Y-120088329D01*
X115773778Y-120549789D01*
X116169198Y-120813999D01*
X115773778Y-121078211D01*
X115465441Y-121539671D01*
X115357167Y-122084000D01*
X115465441Y-122628329D01*
X115773778Y-123089789D01*
X115941115Y-123201600D01*
X115900691Y-123201600D01*
X115667302Y-123298273D01*
X115488673Y-123476901D01*
X115392000Y-123710290D01*
X115392000Y-123962909D01*
X115392000Y-125537709D01*
X115488673Y-125771098D01*
X115667301Y-125949727D01*
X115900690Y-126046400D01*
X116153309Y-126046400D01*
X118439309Y-126046400D01*
X118672698Y-125949727D01*
X118851327Y-125771099D01*
X118948000Y-125537710D01*
X118948000Y-125285091D01*
X118948000Y-123710291D01*
X118851327Y-123476902D01*
X118672699Y-123298273D01*
X118439310Y-123201600D01*
X118398884Y-123201600D01*
X118566222Y-123089789D01*
X118874559Y-122628329D01*
X118982833Y-122084000D01*
X118982833Y-128665595D01*
X118726702Y-128559241D01*
X118175715Y-128558760D01*
X117666485Y-128769169D01*
X117276539Y-129158436D01*
X117065241Y-129667298D01*
X117064760Y-130218285D01*
X117275169Y-130727515D01*
X117664436Y-131117461D01*
X117848585Y-131193926D01*
X117666485Y-131269169D01*
X117276539Y-131658436D01*
X117065241Y-132167298D01*
X117064760Y-132718285D01*
X117275169Y-133227515D01*
X117664436Y-133617461D01*
X118173298Y-133828759D01*
X118724285Y-133829240D01*
X119233515Y-133618831D01*
X119500123Y-133352687D01*
X119764436Y-133617461D01*
X120273298Y-133828759D01*
X120824285Y-133829240D01*
X121333515Y-133618831D01*
X121723461Y-133229564D01*
X121850050Y-132924703D01*
X121975169Y-133227515D01*
X122364436Y-133617461D01*
X122873298Y-133828759D01*
X123424285Y-133829240D01*
X123933515Y-133618831D01*
X124200123Y-133352687D01*
X124464436Y-133617461D01*
X124973298Y-133828759D01*
X125524285Y-133829240D01*
X126033515Y-133618831D01*
X126423461Y-133229564D01*
X126634759Y-132720702D01*
X126635240Y-132169715D01*
X126635240Y-134606203D01*
X126457277Y-135060187D01*
X126473503Y-135909387D01*
X126767261Y-136618582D01*
X127086030Y-136778365D01*
X128420395Y-135444000D01*
X128420395Y-135803210D01*
X127265635Y-136957970D01*
X127425418Y-137276739D01*
X128216187Y-137586723D01*
X129065387Y-137570497D01*
X129265000Y-137487814D01*
X129265000Y-138144000D01*
X129265000Y-138244000D01*
X129265000Y-138344000D01*
X129265000Y-138659000D01*
X129265000Y-138659000D01*
G37*
X129265000Y-138659000D02*
X123992723Y-138659000D01*
X123992723Y-136627813D01*
X123976497Y-135778613D01*
X123682739Y-135069418D01*
X123363970Y-134909635D01*
X123184365Y-135089240D01*
X123184365Y-134730030D01*
X123024582Y-134411261D01*
X122233813Y-134101277D01*
X121384613Y-134117503D01*
X120675418Y-134411261D01*
X120515635Y-134730030D01*
X121850000Y-136064395D01*
X123184365Y-134730030D01*
X123184365Y-135089240D01*
X122029605Y-136244000D01*
X123363970Y-137578365D01*
X123682739Y-137418582D01*
X123992723Y-136627813D01*
X123992723Y-138659000D01*
X123184365Y-138659000D01*
X123184365Y-137757970D01*
X121850000Y-136423605D01*
X121670395Y-136603210D01*
X121670395Y-136244000D01*
X120336030Y-134909635D01*
X120017261Y-135069418D01*
X119707277Y-135860187D01*
X119723503Y-136709387D01*
X120017261Y-137418582D01*
X120336030Y-137578365D01*
X121670395Y-136244000D01*
X121670395Y-136603210D01*
X120515635Y-137757970D01*
X120675418Y-138076739D01*
X121466187Y-138386723D01*
X122315387Y-138370497D01*
X123024582Y-138076739D01*
X123184365Y-137757970D01*
X123184365Y-138659000D01*
X117242723Y-138659000D01*
X117242723Y-135827813D01*
X117226497Y-134978613D01*
X116932739Y-134269418D01*
X116613970Y-134109635D01*
X115279605Y-135444000D01*
X116613970Y-136778365D01*
X116932739Y-136618582D01*
X117242723Y-135827813D01*
X117242723Y-138659000D01*
X114177000Y-138659000D01*
X114177000Y-137375359D01*
X114716187Y-137586723D01*
X115565387Y-137570497D01*
X116274582Y-137276739D01*
X116434365Y-136957970D01*
X115100000Y-135623605D01*
X115085857Y-135637747D01*
X114906252Y-135458142D01*
X114920395Y-135444000D01*
X114906252Y-135429857D01*
X115085857Y-135250252D01*
X115100000Y-135264395D01*
X116434365Y-133930030D01*
X116274582Y-133611261D01*
X115483813Y-133301277D01*
X114634613Y-133317503D01*
X114177000Y-133507052D01*
X114177000Y-103129000D01*
X116369445Y-103129000D01*
X116010173Y-103487647D01*
X115806732Y-103977587D01*
X115806269Y-104508086D01*
X116008854Y-104998380D01*
X116383647Y-105373827D01*
X116589666Y-105459373D01*
X116235238Y-105529874D01*
X115773778Y-105838211D01*
X115465441Y-106299671D01*
X115357167Y-106844000D01*
X115465441Y-107388329D01*
X115773778Y-107849789D01*
X116169198Y-108113999D01*
X115773778Y-108378211D01*
X115465441Y-108839671D01*
X115357167Y-109384000D01*
X115465441Y-109928329D01*
X115773778Y-110389789D01*
X116169198Y-110653999D01*
X115773778Y-110918211D01*
X115465441Y-111379671D01*
X115357167Y-111924000D01*
X115465441Y-112468329D01*
X115773778Y-112929789D01*
X116168829Y-113193753D01*
X116152738Y-113198475D01*
X115718809Y-113548014D01*
X115451673Y-114037004D01*
X115434990Y-114116940D01*
X115557148Y-114337000D01*
X117043000Y-114337000D01*
X117043000Y-114317000D01*
X117297000Y-114317000D01*
X117297000Y-114337000D01*
X118782852Y-114337000D01*
X118905010Y-114116940D01*
X118888327Y-114037004D01*
X118621191Y-113548014D01*
X118187262Y-113198475D01*
X118171170Y-113193753D01*
X118566222Y-112929789D01*
X118874559Y-112468329D01*
X118982833Y-111924000D01*
X118874559Y-111379671D01*
X118566222Y-110918211D01*
X118170801Y-110653999D01*
X118566222Y-110389789D01*
X118874559Y-109928329D01*
X118982833Y-109384000D01*
X118874559Y-108839671D01*
X118566222Y-108378211D01*
X118170801Y-108113999D01*
X118566222Y-107849789D01*
X118874559Y-107388329D01*
X118982833Y-106844000D01*
X118874559Y-106299671D01*
X118566222Y-105838211D01*
X118104762Y-105529874D01*
X117709966Y-105451344D01*
X117894380Y-105375146D01*
X118269827Y-105000353D01*
X118473268Y-104510413D01*
X118473731Y-103979914D01*
X118271146Y-103489620D01*
X117911154Y-103129000D01*
X123989445Y-103129000D01*
X123630173Y-103487647D01*
X123426732Y-103977587D01*
X123426269Y-104508086D01*
X123628854Y-104998380D01*
X124003647Y-105373827D01*
X124493587Y-105577268D01*
X125024086Y-105577731D01*
X125514380Y-105375146D01*
X125889827Y-105000353D01*
X126093268Y-104510413D01*
X126093731Y-103979914D01*
X125891146Y-103489620D01*
X125531154Y-103129000D01*
X129265000Y-103129000D01*
X129265000Y-133411503D01*
X128983813Y-133301277D01*
X128824264Y-133304325D01*
X128824264Y-110492188D01*
X128592738Y-109931851D01*
X128164404Y-109502769D01*
X127724027Y-109319908D01*
X128074380Y-109175146D01*
X128449827Y-108800353D01*
X128653268Y-108310413D01*
X128653731Y-107779914D01*
X128451146Y-107289620D01*
X128076353Y-106914173D01*
X127586413Y-106710732D01*
X127055914Y-106710269D01*
X126565620Y-106912854D01*
X126190173Y-107287647D01*
X126056686Y-107609118D01*
X125949800Y-107351071D01*
X125714188Y-107289417D01*
X125534583Y-107469022D01*
X125534583Y-107109812D01*
X125472929Y-106874200D01*
X124972520Y-106698073D01*
X124442801Y-106726852D01*
X124087071Y-106874200D01*
X124025417Y-107109812D01*
X124780000Y-107864395D01*
X125534583Y-107109812D01*
X125534583Y-107469022D01*
X124959605Y-108044000D01*
X125714188Y-108798583D01*
X125949800Y-108736929D01*
X126048083Y-108457688D01*
X126188854Y-108798380D01*
X126563647Y-109173827D01*
X126896153Y-109311895D01*
X126437851Y-109501262D01*
X126435567Y-109503541D01*
X126298699Y-109366673D01*
X126065310Y-109270000D01*
X125812691Y-109270000D01*
X125337250Y-109270000D01*
X125472929Y-109213800D01*
X125534583Y-108978188D01*
X124780000Y-108223605D01*
X124600395Y-108403210D01*
X124600395Y-108044000D01*
X123845812Y-107289417D01*
X123610200Y-107351071D01*
X123434073Y-107851480D01*
X123462852Y-108381199D01*
X123610200Y-108736929D01*
X123845812Y-108798583D01*
X124600395Y-108044000D01*
X124600395Y-108403210D01*
X124025417Y-108978188D01*
X124087071Y-109213800D01*
X124246745Y-109270000D01*
X124034690Y-109270000D01*
X123801301Y-109366673D01*
X123664804Y-109503170D01*
X123664404Y-109502769D01*
X123104472Y-109270265D01*
X122498188Y-109269736D01*
X121937851Y-109501262D01*
X121508769Y-109929596D01*
X121276265Y-110489528D01*
X121275736Y-111095812D01*
X121507262Y-111656149D01*
X121935596Y-112085231D01*
X122495528Y-112317735D01*
X123101812Y-112318264D01*
X123662149Y-112086738D01*
X123664432Y-112084458D01*
X123801301Y-112221327D01*
X124034690Y-112318000D01*
X124287309Y-112318000D01*
X124764250Y-112318000D01*
X124923000Y-112159250D01*
X124923000Y-110921000D01*
X124903000Y-110921000D01*
X124903000Y-110667000D01*
X124923000Y-110667000D01*
X124923000Y-110647000D01*
X125177000Y-110647000D01*
X125177000Y-110667000D01*
X125197000Y-110667000D01*
X125197000Y-110921000D01*
X125177000Y-110921000D01*
X125177000Y-112159250D01*
X125335750Y-112318000D01*
X125812691Y-112318000D01*
X126065310Y-112318000D01*
X126298699Y-112221327D01*
X126435195Y-112084829D01*
X126435596Y-112085231D01*
X126995528Y-112317735D01*
X127601812Y-112318264D01*
X128162149Y-112086738D01*
X128591231Y-111658404D01*
X128823735Y-111098472D01*
X128824264Y-110492188D01*
X128824264Y-133304325D01*
X128134613Y-133317503D01*
X127425418Y-133611261D01*
X127265635Y-133930030D01*
X128600000Y-135264395D01*
X128614142Y-135250252D01*
X128793747Y-135429857D01*
X128779605Y-135444000D01*
X128793747Y-135458142D01*
X128614142Y-135637747D01*
X128600000Y-135623605D01*
X128420395Y-135803210D01*
X128420395Y-135444000D01*
X127086030Y-134109635D01*
X126817462Y-134244254D01*
X126817462Y-121915828D01*
X126412291Y-120935239D01*
X125662707Y-120184345D01*
X125347767Y-120053570D01*
X125347767Y-114698966D01*
X125319805Y-114148462D01*
X125162931Y-113769735D01*
X124921930Y-113701675D01*
X124742325Y-113881280D01*
X124742325Y-113522070D01*
X124674265Y-113281069D01*
X124154966Y-113096233D01*
X123604462Y-113124195D01*
X123225735Y-113281069D01*
X123157675Y-113522070D01*
X123950000Y-114314395D01*
X124742325Y-113522070D01*
X124742325Y-113881280D01*
X124129605Y-114494000D01*
X124921930Y-115286325D01*
X125162931Y-115218265D01*
X125347767Y-114698966D01*
X125347767Y-120053570D01*
X125335810Y-120048605D01*
X125335810Y-116719602D01*
X125125314Y-116210163D01*
X124735887Y-115820056D01*
X124568728Y-115750645D01*
X124674265Y-115706931D01*
X124742325Y-115465930D01*
X123950000Y-114673605D01*
X123770395Y-114853210D01*
X123770395Y-114494000D01*
X122978070Y-113701675D01*
X122737069Y-113769735D01*
X122552233Y-114289034D01*
X122580195Y-114839538D01*
X122737069Y-115218265D01*
X122978070Y-115286325D01*
X123770395Y-114494000D01*
X123770395Y-114853210D01*
X123157675Y-115465930D01*
X123225735Y-115706931D01*
X123339032Y-115747257D01*
X123166163Y-115818686D01*
X122776056Y-116208113D01*
X122564671Y-116717184D01*
X122564190Y-117268398D01*
X122774686Y-117777837D01*
X123164113Y-118167944D01*
X123673184Y-118379329D01*
X124224398Y-118379810D01*
X124733837Y-118169314D01*
X125123944Y-117779887D01*
X125335329Y-117270816D01*
X125335810Y-116719602D01*
X125335810Y-120048605D01*
X124682827Y-119777464D01*
X123621828Y-119776538D01*
X122641239Y-120181709D01*
X121890345Y-120931293D01*
X121705927Y-121375421D01*
X121705927Y-114656520D01*
X121677148Y-114126801D01*
X121529800Y-113771071D01*
X121294188Y-113709417D01*
X121114583Y-113889022D01*
X121114583Y-113529812D01*
X121052929Y-113294200D01*
X120552520Y-113118073D01*
X120022801Y-113146852D01*
X119667071Y-113294200D01*
X119605417Y-113529812D01*
X120360000Y-114284395D01*
X121114583Y-113529812D01*
X121114583Y-113889022D01*
X120539605Y-114464000D01*
X121294188Y-115218583D01*
X121529800Y-115156929D01*
X121705927Y-114656520D01*
X121705927Y-121375421D01*
X121693731Y-121404792D01*
X121693731Y-116739914D01*
X121491146Y-116249620D01*
X121116353Y-115874173D01*
X120794881Y-115740686D01*
X121052929Y-115633800D01*
X121114583Y-115398188D01*
X120360000Y-114643605D01*
X120180395Y-114823210D01*
X120180395Y-114464000D01*
X119425812Y-113709417D01*
X119190200Y-113771071D01*
X119014073Y-114271480D01*
X119042852Y-114801199D01*
X119190200Y-115156929D01*
X119425812Y-115218583D01*
X120180395Y-114464000D01*
X120180395Y-114823210D01*
X119605417Y-115398188D01*
X119667071Y-115633800D01*
X119946311Y-115732083D01*
X119605620Y-115872854D01*
X119230173Y-116247647D01*
X119026732Y-116737587D01*
X119026269Y-117268086D01*
X119228854Y-117758380D01*
X119603647Y-118133827D01*
X120093587Y-118337268D01*
X120624086Y-118337731D01*
X121114380Y-118135146D01*
X121489827Y-117760353D01*
X121693268Y-117270413D01*
X121693731Y-116739914D01*
X121693731Y-121404792D01*
X121483464Y-121911173D01*
X121482538Y-122972172D01*
X121887709Y-123952761D01*
X122637293Y-124703655D01*
X123617173Y-125110536D01*
X124678172Y-125111462D01*
X125658761Y-124706291D01*
X126409655Y-123956707D01*
X126816536Y-122976827D01*
X126817462Y-121915828D01*
X126817462Y-134244254D01*
X126767261Y-134269418D01*
X126635240Y-134606203D01*
X126635240Y-132169715D01*
X126424831Y-131660485D01*
X126035564Y-131270539D01*
X125851414Y-131194073D01*
X126033515Y-131118831D01*
X126423461Y-130729564D01*
X126634759Y-130220702D01*
X126635240Y-129669715D01*
X126424831Y-129160485D01*
X126035564Y-128770539D01*
X125526702Y-128559241D01*
X124975715Y-128558760D01*
X124466485Y-128769169D01*
X124076539Y-129158436D01*
X124049108Y-129224496D01*
X123941912Y-129331692D01*
X123941912Y-128972483D01*
X123873923Y-128731540D01*
X123354829Y-128546799D01*
X122804552Y-128574770D01*
X122426077Y-128731540D01*
X122358088Y-128972483D01*
X123150000Y-129764395D01*
X123941912Y-128972483D01*
X123941912Y-129331692D01*
X123329605Y-129944000D01*
X124048446Y-130662841D01*
X124075169Y-130727515D01*
X124464436Y-131117461D01*
X124648585Y-131193926D01*
X124466485Y-131269169D01*
X124199876Y-131535312D01*
X123935564Y-131270539D01*
X123767245Y-131200647D01*
X123873923Y-131156460D01*
X123941912Y-130915517D01*
X123150000Y-130123605D01*
X122358088Y-130915517D01*
X122426077Y-131156460D01*
X122540611Y-131197221D01*
X122366485Y-131269169D01*
X121976539Y-131658436D01*
X121849949Y-131963296D01*
X121724831Y-131660485D01*
X121344554Y-131279545D01*
X121733515Y-131118831D01*
X122123461Y-130729564D01*
X122126872Y-130721348D01*
X122178483Y-130735912D01*
X122970395Y-129944000D01*
X122178483Y-129152088D01*
X122127326Y-129166523D01*
X122124831Y-129160485D01*
X121735564Y-128770539D01*
X121226702Y-128559241D01*
X120675715Y-128558760D01*
X120166485Y-128769169D01*
X119776539Y-129158436D01*
X119700073Y-129342585D01*
X119624831Y-129160485D01*
X119235564Y-128770539D01*
X118982833Y-128665595D01*
X118982833Y-122084000D01*
X118874559Y-121539671D01*
X118566222Y-121078211D01*
X118170801Y-120813999D01*
X118566222Y-120549789D01*
X118874559Y-120088329D01*
X118982833Y-119544000D01*
X118874559Y-118999671D01*
X118566222Y-118538211D01*
X118170801Y-118273999D01*
X118566222Y-118009789D01*
X118874559Y-117548329D01*
X118982833Y-117004000D01*
X118874559Y-116459671D01*
X118566222Y-115998211D01*
X118171170Y-115734246D01*
X118187262Y-115729525D01*
X118621191Y-115379986D01*
X118888327Y-114890996D01*
X118905010Y-114811060D01*
X118782852Y-114591000D01*
X117297000Y-114591000D01*
X117297000Y-114611000D01*
X117043000Y-114611000D01*
X117043000Y-114591000D01*
X115557148Y-114591000D01*
X115434990Y-114811060D01*
X115451673Y-114890996D01*
X115718809Y-115379986D01*
X116152738Y-115729525D01*
X116168829Y-115734246D01*
X115773778Y-115998211D01*
X115465441Y-116459671D01*
X115357167Y-117004000D01*
X115465441Y-117548329D01*
X115773778Y-118009789D01*
X116169198Y-118273999D01*
X115773778Y-118538211D01*
X115465441Y-118999671D01*
X115357167Y-119544000D01*
X115465441Y-120088329D01*
X115773778Y-120549789D01*
X116169198Y-120813999D01*
X115773778Y-121078211D01*
X115465441Y-121539671D01*
X115357167Y-122084000D01*
X115465441Y-122628329D01*
X115773778Y-123089789D01*
X115941115Y-123201600D01*
X115900691Y-123201600D01*
X115667302Y-123298273D01*
X115488673Y-123476901D01*
X115392000Y-123710290D01*
X115392000Y-123962909D01*
X115392000Y-125537709D01*
X115488673Y-125771098D01*
X115667301Y-125949727D01*
X115900690Y-126046400D01*
X116153309Y-126046400D01*
X118439309Y-126046400D01*
X118672698Y-125949727D01*
X118851327Y-125771099D01*
X118948000Y-125537710D01*
X118948000Y-125285091D01*
X118948000Y-123710291D01*
X118851327Y-123476902D01*
X118672699Y-123298273D01*
X118439310Y-123201600D01*
X118398884Y-123201600D01*
X118566222Y-123089789D01*
X118874559Y-122628329D01*
X118982833Y-122084000D01*
X118982833Y-128665595D01*
X118726702Y-128559241D01*
X118175715Y-128558760D01*
X117666485Y-128769169D01*
X117276539Y-129158436D01*
X117065241Y-129667298D01*
X117064760Y-130218285D01*
X117275169Y-130727515D01*
X117664436Y-131117461D01*
X117848585Y-131193926D01*
X117666485Y-131269169D01*
X117276539Y-131658436D01*
X117065241Y-132167298D01*
X117064760Y-132718285D01*
X117275169Y-133227515D01*
X117664436Y-133617461D01*
X118173298Y-133828759D01*
X118724285Y-133829240D01*
X119233515Y-133618831D01*
X119500123Y-133352687D01*
X119764436Y-133617461D01*
X120273298Y-133828759D01*
X120824285Y-133829240D01*
X121333515Y-133618831D01*
X121723461Y-133229564D01*
X121850050Y-132924703D01*
X121975169Y-133227515D01*
X122364436Y-133617461D01*
X122873298Y-133828759D01*
X123424285Y-133829240D01*
X123933515Y-133618831D01*
X124200123Y-133352687D01*
X124464436Y-133617461D01*
X124973298Y-133828759D01*
X125524285Y-133829240D01*
X126033515Y-133618831D01*
X126423461Y-133229564D01*
X126634759Y-132720702D01*
X126635240Y-132169715D01*
X126635240Y-134606203D01*
X126457277Y-135060187D01*
X126473503Y-135909387D01*
X126767261Y-136618582D01*
X127086030Y-136778365D01*
X128420395Y-135444000D01*
X128420395Y-135803210D01*
X127265635Y-136957970D01*
X127425418Y-137276739D01*
X128216187Y-137586723D01*
X129065387Y-137570497D01*
X129265000Y-137487814D01*
X129265000Y-138144000D01*
X129265000Y-138244000D01*
X129265000Y-138344000D01*
X129265000Y-138659000D01*
G36*
X112523000Y-138659000D02*
X106985370Y-138659000D01*
X106985370Y-135821185D01*
X106661020Y-135036200D01*
X106060959Y-134435091D01*
X105276541Y-134109372D01*
X104427185Y-134108630D01*
X103642200Y-134432980D01*
X103041091Y-135033041D01*
X102835240Y-135528784D01*
X102835240Y-132169715D01*
X102624831Y-131660485D01*
X102235564Y-131270539D01*
X102051414Y-131194073D01*
X102233515Y-131118831D01*
X102623461Y-130729564D01*
X102834759Y-130220702D01*
X102835240Y-129669715D01*
X102624831Y-129160485D01*
X102235564Y-128770539D01*
X101726702Y-128559241D01*
X101665927Y-128559187D01*
X101665927Y-122536520D01*
X101637148Y-122006801D01*
X101489800Y-121651071D01*
X101254188Y-121589417D01*
X101074583Y-121769022D01*
X101074583Y-121409812D01*
X101012929Y-121174200D01*
X100512520Y-120998073D01*
X99982801Y-121026852D01*
X99627071Y-121174200D01*
X99565417Y-121409812D01*
X100320000Y-122164395D01*
X101074583Y-121409812D01*
X101074583Y-121769022D01*
X100499605Y-122344000D01*
X101254188Y-123098583D01*
X101489800Y-123036929D01*
X101665927Y-122536520D01*
X101665927Y-128559187D01*
X101505927Y-128559048D01*
X101505927Y-126636520D01*
X101477148Y-126106801D01*
X101329800Y-125751071D01*
X101094188Y-125689417D01*
X101074583Y-125709022D01*
X101074583Y-123278188D01*
X100320000Y-122523605D01*
X100140395Y-122703210D01*
X100140395Y-122344000D01*
X99385812Y-121589417D01*
X99150200Y-121651071D01*
X99051916Y-121930311D01*
X98911146Y-121589620D01*
X98536353Y-121214173D01*
X98415639Y-121164048D01*
X98675789Y-120990222D01*
X98984126Y-120528762D01*
X99092400Y-119984433D01*
X99092400Y-119203567D01*
X99092400Y-112364433D01*
X99092400Y-111583567D01*
X98984126Y-111039238D01*
X98675789Y-110577778D01*
X98214329Y-110269441D01*
X97670000Y-110161167D01*
X97125671Y-110269441D01*
X96664211Y-110577778D01*
X96399999Y-110973198D01*
X96273731Y-110784223D01*
X96273731Y-106279914D01*
X96071146Y-105789620D01*
X95696353Y-105414173D01*
X95206413Y-105210732D01*
X94675914Y-105210269D01*
X94185620Y-105412854D01*
X93810173Y-105787647D01*
X93606732Y-106277587D01*
X93606269Y-106808086D01*
X93808854Y-107298380D01*
X94183647Y-107673827D01*
X94673587Y-107877268D01*
X95204086Y-107877731D01*
X95694380Y-107675146D01*
X96069827Y-107300353D01*
X96273268Y-106810413D01*
X96273731Y-106279914D01*
X96273731Y-110784223D01*
X96135789Y-110577778D01*
X95674329Y-110269441D01*
X95130000Y-110161167D01*
X94585671Y-110269441D01*
X94124211Y-110577778D01*
X94085927Y-110635073D01*
X94085927Y-109136520D01*
X94057148Y-108606801D01*
X93909800Y-108251071D01*
X93674188Y-108189417D01*
X93494583Y-108369022D01*
X93494583Y-108009812D01*
X93432929Y-107774200D01*
X92932520Y-107598073D01*
X92402801Y-107626852D01*
X92047071Y-107774200D01*
X91985417Y-108009812D01*
X92740000Y-108764395D01*
X93494583Y-108009812D01*
X93494583Y-108369022D01*
X92919605Y-108944000D01*
X93674188Y-109698583D01*
X93909800Y-109636929D01*
X94085927Y-109136520D01*
X94085927Y-110635073D01*
X93859999Y-110973198D01*
X93595789Y-110577778D01*
X93134329Y-110269441D01*
X93082207Y-110259073D01*
X93432929Y-110113800D01*
X93494583Y-109878188D01*
X92740000Y-109123605D01*
X92560395Y-109303210D01*
X92560395Y-108944000D01*
X91805812Y-108189417D01*
X91570200Y-108251071D01*
X91395927Y-108746212D01*
X91395927Y-106266520D01*
X91367148Y-105736801D01*
X91219800Y-105381071D01*
X90984188Y-105319417D01*
X90804583Y-105499022D01*
X90804583Y-105139812D01*
X90742929Y-104904200D01*
X90242520Y-104728073D01*
X89712801Y-104756852D01*
X89357071Y-104904200D01*
X89295417Y-105139812D01*
X90050000Y-105894395D01*
X90804583Y-105139812D01*
X90804583Y-105499022D01*
X90229605Y-106074000D01*
X90984188Y-106828583D01*
X91219800Y-106766929D01*
X91395927Y-106266520D01*
X91395927Y-108746212D01*
X91394073Y-108751480D01*
X91422852Y-109281199D01*
X91570200Y-109636929D01*
X91805812Y-109698583D01*
X92560395Y-108944000D01*
X92560395Y-109303210D01*
X91985417Y-109878188D01*
X92047071Y-110113800D01*
X92329097Y-110213063D01*
X92045671Y-110269441D01*
X91584211Y-110577778D01*
X91383731Y-110877817D01*
X91383731Y-108349914D01*
X91181146Y-107859620D01*
X90806353Y-107484173D01*
X90484881Y-107350686D01*
X90742929Y-107243800D01*
X90804583Y-107008188D01*
X90050000Y-106253605D01*
X89870395Y-106433210D01*
X89870395Y-106074000D01*
X89115812Y-105319417D01*
X88880200Y-105381071D01*
X88704073Y-105881480D01*
X88732852Y-106411199D01*
X88880200Y-106766929D01*
X89115812Y-106828583D01*
X89870395Y-106074000D01*
X89870395Y-106433210D01*
X89295417Y-107008188D01*
X89357071Y-107243800D01*
X89636311Y-107342083D01*
X89295620Y-107482854D01*
X88920173Y-107857647D01*
X88716732Y-108347587D01*
X88716269Y-108878086D01*
X88918854Y-109368380D01*
X89293647Y-109743827D01*
X89783587Y-109947268D01*
X90314086Y-109947731D01*
X90804380Y-109745146D01*
X91179827Y-109370353D01*
X91383268Y-108880413D01*
X91383731Y-108349914D01*
X91383731Y-110877817D01*
X91320000Y-110973198D01*
X91055789Y-110577778D01*
X90594329Y-110269441D01*
X90050000Y-110161167D01*
X89505671Y-110269441D01*
X89044211Y-110577778D01*
X88735874Y-111039238D01*
X88627600Y-111583567D01*
X88627600Y-112364433D01*
X88735874Y-112908762D01*
X89044211Y-113370222D01*
X89288000Y-113533116D01*
X89288000Y-113744000D01*
X89346004Y-114035605D01*
X89511185Y-114282815D01*
X90370500Y-115142130D01*
X90370313Y-115357784D01*
X90534311Y-115754689D01*
X90837714Y-116058622D01*
X91234332Y-116223313D01*
X91663784Y-116223687D01*
X92060689Y-116059689D01*
X92364622Y-115756286D01*
X92529313Y-115359668D01*
X92529687Y-114930216D01*
X92365689Y-114533311D01*
X92062286Y-114229378D01*
X91665668Y-114064687D01*
X91448127Y-114064497D01*
X90874790Y-113491160D01*
X91055789Y-113370222D01*
X91320000Y-112974801D01*
X91584211Y-113370222D01*
X92045671Y-113678559D01*
X92590000Y-113786833D01*
X93134329Y-113678559D01*
X93595789Y-113370222D01*
X93860000Y-112974801D01*
X94124211Y-113370222D01*
X94585671Y-113678559D01*
X95130000Y-113786833D01*
X95674329Y-113678559D01*
X96135789Y-113370222D01*
X96400000Y-112974801D01*
X96664211Y-113370222D01*
X97125671Y-113678559D01*
X97670000Y-113786833D01*
X98214329Y-113678559D01*
X98675789Y-113370222D01*
X98984126Y-112908762D01*
X99092400Y-112364433D01*
X99092400Y-119203567D01*
X98984126Y-118659238D01*
X98675789Y-118197778D01*
X98214329Y-117889441D01*
X97670000Y-117781167D01*
X97125671Y-117889441D01*
X96664211Y-118197778D01*
X96399999Y-118593198D01*
X96135789Y-118197778D01*
X95674329Y-117889441D01*
X95130000Y-117781167D01*
X94585671Y-117889441D01*
X94124211Y-118197778D01*
X93859999Y-118593198D01*
X93595789Y-118197778D01*
X93134329Y-117889441D01*
X92590000Y-117781167D01*
X92045671Y-117889441D01*
X91584211Y-118197778D01*
X91472400Y-118365115D01*
X91472400Y-118324691D01*
X91375727Y-118091302D01*
X91197099Y-117912673D01*
X90963710Y-117816000D01*
X90711091Y-117816000D01*
X89136291Y-117816000D01*
X88902902Y-117912673D01*
X88724273Y-118091301D01*
X88627600Y-118324690D01*
X88627600Y-118577309D01*
X88627600Y-120863309D01*
X88724273Y-121096698D01*
X88902901Y-121275327D01*
X89136290Y-121372000D01*
X89388909Y-121372000D01*
X90875593Y-121372000D01*
X90739311Y-121428311D01*
X90435378Y-121731714D01*
X90270687Y-122128332D01*
X90270313Y-122557784D01*
X90434311Y-122954689D01*
X90737714Y-123258622D01*
X91134332Y-123423313D01*
X91563784Y-123423687D01*
X91960689Y-123259689D01*
X92114646Y-123106000D01*
X94112136Y-123106000D01*
X93930173Y-123287647D01*
X93726732Y-123777587D01*
X93726269Y-124308086D01*
X93928854Y-124798380D01*
X94303647Y-125173827D01*
X94793587Y-125377268D01*
X95324086Y-125377731D01*
X95814380Y-125175146D01*
X96189827Y-124800353D01*
X96393268Y-124310413D01*
X96393731Y-123779914D01*
X96191146Y-123289620D01*
X96007845Y-123106000D01*
X96656460Y-123106000D01*
X97023647Y-123473827D01*
X97513587Y-123677268D01*
X98044086Y-123677731D01*
X98534380Y-123475146D01*
X98909827Y-123100353D01*
X99043313Y-122778881D01*
X99150200Y-123036929D01*
X99385812Y-123098583D01*
X100140395Y-122344000D01*
X100140395Y-122703210D01*
X99565417Y-123278188D01*
X99627071Y-123513800D01*
X100127480Y-123689927D01*
X100657199Y-123661148D01*
X101012929Y-123513800D01*
X101074583Y-123278188D01*
X101074583Y-125709022D01*
X100914583Y-125869022D01*
X100914583Y-125509812D01*
X100852929Y-125274200D01*
X100352520Y-125098073D01*
X99822801Y-125126852D01*
X99467071Y-125274200D01*
X99405417Y-125509812D01*
X100160000Y-126264395D01*
X100914583Y-125509812D01*
X100914583Y-125869022D01*
X100339605Y-126444000D01*
X101094188Y-127198583D01*
X101329800Y-127136929D01*
X101505927Y-126636520D01*
X101505927Y-128559048D01*
X101175715Y-128558760D01*
X100914583Y-128666657D01*
X100914583Y-127378188D01*
X100160000Y-126623605D01*
X99980395Y-126803210D01*
X99980395Y-126444000D01*
X99225812Y-125689417D01*
X98990200Y-125751071D01*
X98814073Y-126251480D01*
X98842852Y-126781199D01*
X98990200Y-127136929D01*
X99225812Y-127198583D01*
X99980395Y-126444000D01*
X99980395Y-126803210D01*
X99405417Y-127378188D01*
X99467071Y-127613800D01*
X99967480Y-127789927D01*
X100497199Y-127761148D01*
X100852929Y-127613800D01*
X100914583Y-127378188D01*
X100914583Y-128666657D01*
X100666485Y-128769169D01*
X100276539Y-129158436D01*
X100065241Y-129667298D01*
X100064760Y-130218285D01*
X100275169Y-130727515D01*
X100664436Y-131117461D01*
X100848585Y-131193926D01*
X100666485Y-131269169D01*
X100276539Y-131658436D01*
X100065241Y-132167298D01*
X100064760Y-132718285D01*
X100275169Y-133227515D01*
X100664436Y-133617461D01*
X101173298Y-133828759D01*
X101724285Y-133829240D01*
X102233515Y-133618831D01*
X102623461Y-133229564D01*
X102834759Y-132720702D01*
X102835240Y-132169715D01*
X102835240Y-135528784D01*
X102715372Y-135817459D01*
X102714630Y-136666815D01*
X103038980Y-137451800D01*
X103639041Y-138052909D01*
X104423459Y-138378628D01*
X105272815Y-138379370D01*
X106057800Y-138055020D01*
X106658909Y-137454959D01*
X106984628Y-136670541D01*
X106985370Y-135821185D01*
X106985370Y-138659000D01*
X100235370Y-138659000D01*
X100235370Y-135021185D01*
X99911020Y-134236200D01*
X99310959Y-133635091D01*
X98526541Y-133309372D01*
X97677185Y-133308630D01*
X96892200Y-133632980D01*
X96381036Y-134143252D01*
X96313970Y-134109635D01*
X96134365Y-134289240D01*
X96134365Y-133930030D01*
X95974582Y-133611261D01*
X95183813Y-133301277D01*
X94334613Y-133317503D01*
X93873731Y-133508406D01*
X93873731Y-126179914D01*
X93671146Y-125689620D01*
X93296353Y-125314173D01*
X92806413Y-125110732D01*
X92275914Y-125110269D01*
X91785620Y-125312854D01*
X91410173Y-125687647D01*
X91206732Y-126177587D01*
X91206269Y-126708086D01*
X91408854Y-127198380D01*
X91783647Y-127573827D01*
X92273587Y-127777268D01*
X92804086Y-127777731D01*
X93294380Y-127575146D01*
X93669827Y-127200353D01*
X93873268Y-126710413D01*
X93873731Y-126179914D01*
X93873731Y-133508406D01*
X93625418Y-133611261D01*
X93465635Y-133930030D01*
X94800000Y-135264395D01*
X96134365Y-133930030D01*
X96134365Y-134289240D01*
X94979605Y-135444000D01*
X96313970Y-136778365D01*
X96381522Y-136744504D01*
X96889041Y-137252909D01*
X97673459Y-137578628D01*
X98522815Y-137579370D01*
X99307800Y-137255020D01*
X99908909Y-136654959D01*
X100234628Y-135870541D01*
X100235370Y-135021185D01*
X100235370Y-138659000D01*
X96134365Y-138659000D01*
X96134365Y-136957970D01*
X94800000Y-135623605D01*
X94620395Y-135803210D01*
X94620395Y-135444000D01*
X93286030Y-134109635D01*
X92967261Y-134269418D01*
X92847201Y-134575690D01*
X92847201Y-132648829D01*
X92835240Y-132413518D01*
X92835240Y-129669715D01*
X92624831Y-129160485D01*
X92235564Y-128770539D01*
X91726702Y-128559241D01*
X91175715Y-128558760D01*
X90666485Y-128769169D01*
X90276539Y-129158436D01*
X90065241Y-129667298D01*
X90064760Y-130218285D01*
X90275169Y-130727515D01*
X90664436Y-131117461D01*
X90832754Y-131187352D01*
X90726077Y-131231540D01*
X90658088Y-131472483D01*
X91450000Y-132264395D01*
X92241912Y-131472483D01*
X92173923Y-131231540D01*
X92059388Y-131190778D01*
X92233515Y-131118831D01*
X92623461Y-130729564D01*
X92834759Y-130220702D01*
X92835240Y-129669715D01*
X92835240Y-132413518D01*
X92819230Y-132098552D01*
X92662460Y-131720077D01*
X92421517Y-131652088D01*
X91629605Y-132444000D01*
X92421517Y-133235912D01*
X92662460Y-133167923D01*
X92847201Y-132648829D01*
X92847201Y-134575690D01*
X92657277Y-135060187D01*
X92673503Y-135909387D01*
X92967261Y-136618582D01*
X93286030Y-136778365D01*
X94620395Y-135444000D01*
X94620395Y-135803210D01*
X93465635Y-136957970D01*
X93625418Y-137276739D01*
X94416187Y-137586723D01*
X95265387Y-137570497D01*
X95974582Y-137276739D01*
X96134365Y-136957970D01*
X96134365Y-138659000D01*
X92241912Y-138659000D01*
X92241912Y-133415517D01*
X91450000Y-132623605D01*
X91270395Y-132803210D01*
X91270395Y-132444000D01*
X90478483Y-131652088D01*
X90237540Y-131720077D01*
X90052799Y-132239171D01*
X90080770Y-132789448D01*
X90237540Y-133167923D01*
X90478483Y-133235912D01*
X91270395Y-132444000D01*
X91270395Y-132803210D01*
X90658088Y-133415517D01*
X90726077Y-133656460D01*
X91245171Y-133841201D01*
X91795448Y-133813230D01*
X92173923Y-133656460D01*
X92241912Y-133415517D01*
X92241912Y-138659000D01*
X90192723Y-138659000D01*
X90192723Y-136627813D01*
X90176497Y-135778613D01*
X89882739Y-135069418D01*
X89563970Y-134909635D01*
X89384365Y-135089240D01*
X89384365Y-134730030D01*
X89224582Y-134411261D01*
X88785927Y-134239306D01*
X88785927Y-124236520D01*
X88757148Y-123706801D01*
X88609800Y-123351071D01*
X88374188Y-123289417D01*
X88194583Y-123469022D01*
X88194583Y-123109812D01*
X88132929Y-122874200D01*
X87928573Y-122802273D01*
X88029313Y-122559668D01*
X88029687Y-122130216D01*
X87865689Y-121733311D01*
X87712000Y-121579353D01*
X87712000Y-118808641D01*
X87864622Y-118656286D01*
X88029313Y-118259668D01*
X88029687Y-117830216D01*
X87865689Y-117433311D01*
X87562286Y-117129378D01*
X87165668Y-116964687D01*
X86736216Y-116964313D01*
X86547242Y-117042395D01*
X86547242Y-104767339D01*
X86335010Y-104253697D01*
X85942370Y-103860371D01*
X85429100Y-103647243D01*
X84873339Y-103646758D01*
X84359697Y-103858990D01*
X83966371Y-104251630D01*
X83753243Y-104764900D01*
X83752758Y-105320661D01*
X83964990Y-105834303D01*
X84357630Y-106227629D01*
X84870900Y-106440757D01*
X85426661Y-106441242D01*
X85940303Y-106229010D01*
X86333629Y-105836370D01*
X86546757Y-105323100D01*
X86547242Y-104767339D01*
X86547242Y-117042395D01*
X86339311Y-117128311D01*
X86274463Y-117193045D01*
X85942370Y-116860371D01*
X85429100Y-116647243D01*
X84873339Y-116646758D01*
X84359697Y-116858990D01*
X83966371Y-117251630D01*
X83753243Y-117764900D01*
X83752758Y-118320661D01*
X83964990Y-118834303D01*
X84357630Y-119227629D01*
X84870900Y-119440757D01*
X85426661Y-119441242D01*
X85940303Y-119229010D01*
X86188000Y-118981745D01*
X86188000Y-121579358D01*
X86035378Y-121731714D01*
X85870687Y-122128332D01*
X85870313Y-122557784D01*
X86034311Y-122954689D01*
X86337714Y-123258622D01*
X86448189Y-123304495D01*
X86270200Y-123351071D01*
X86094073Y-123851480D01*
X86122852Y-124381199D01*
X86270200Y-124736929D01*
X86505812Y-124798583D01*
X87260395Y-124044000D01*
X87246252Y-124029857D01*
X87425857Y-123850252D01*
X87440000Y-123864395D01*
X88194583Y-123109812D01*
X88194583Y-123469022D01*
X87619605Y-124044000D01*
X88374188Y-124798583D01*
X88609800Y-124736929D01*
X88785927Y-124236520D01*
X88785927Y-134239306D01*
X88433813Y-134101277D01*
X88194583Y-134105848D01*
X88194583Y-124978188D01*
X87440000Y-124223605D01*
X86685417Y-124978188D01*
X86747071Y-125213800D01*
X87247480Y-125389927D01*
X87777199Y-125361148D01*
X88132929Y-125213800D01*
X88194583Y-124978188D01*
X88194583Y-134105848D01*
X87584613Y-134117503D01*
X86875418Y-134411261D01*
X86715635Y-134730030D01*
X88050000Y-136064395D01*
X89384365Y-134730030D01*
X89384365Y-135089240D01*
X88229605Y-136244000D01*
X89563970Y-137578365D01*
X89882739Y-137418582D01*
X90192723Y-136627813D01*
X90192723Y-138659000D01*
X89384365Y-138659000D01*
X89384365Y-137757970D01*
X88050000Y-136423605D01*
X87870395Y-136603210D01*
X87870395Y-136244000D01*
X86536030Y-134909635D01*
X86217261Y-135069418D01*
X86047201Y-135503240D01*
X86047201Y-132648829D01*
X86035240Y-132413518D01*
X86035240Y-129669715D01*
X85824831Y-129160485D01*
X85435564Y-128770539D01*
X84926702Y-128559241D01*
X84375715Y-128558760D01*
X83866485Y-128769169D01*
X83476539Y-129158436D01*
X83265241Y-129667298D01*
X83264760Y-130218285D01*
X83475169Y-130727515D01*
X83864436Y-131117461D01*
X84032754Y-131187352D01*
X83926077Y-131231540D01*
X83858088Y-131472483D01*
X84650000Y-132264395D01*
X85441912Y-131472483D01*
X85373923Y-131231540D01*
X85259388Y-131190778D01*
X85433515Y-131118831D01*
X85823461Y-130729564D01*
X86034759Y-130220702D01*
X86035240Y-129669715D01*
X86035240Y-132413518D01*
X86019230Y-132098552D01*
X85862460Y-131720077D01*
X85621517Y-131652088D01*
X84829605Y-132444000D01*
X85621517Y-133235912D01*
X85862460Y-133167923D01*
X86047201Y-132648829D01*
X86047201Y-135503240D01*
X85907277Y-135860187D01*
X85923503Y-136709387D01*
X86217261Y-137418582D01*
X86536030Y-137578365D01*
X87870395Y-136244000D01*
X87870395Y-136603210D01*
X86715635Y-137757970D01*
X86875418Y-138076739D01*
X87666187Y-138386723D01*
X88515387Y-138370497D01*
X89224582Y-138076739D01*
X89384365Y-137757970D01*
X89384365Y-138659000D01*
X85441912Y-138659000D01*
X85441912Y-133415517D01*
X84650000Y-132623605D01*
X84470395Y-132803210D01*
X84470395Y-132444000D01*
X83678483Y-131652088D01*
X83437540Y-131720077D01*
X83252799Y-132239171D01*
X83280770Y-132789448D01*
X83437540Y-133167923D01*
X83678483Y-133235912D01*
X84470395Y-132444000D01*
X84470395Y-132803210D01*
X83858088Y-133415517D01*
X83926077Y-133656460D01*
X84445171Y-133841201D01*
X84995448Y-133813230D01*
X85373923Y-133656460D01*
X85441912Y-133415517D01*
X85441912Y-138659000D01*
X83442723Y-138659000D01*
X83442723Y-135827813D01*
X83426497Y-134978613D01*
X83132739Y-134269418D01*
X82813970Y-134109635D01*
X82634365Y-134289240D01*
X82634365Y-133930030D01*
X82474582Y-133611261D01*
X81981786Y-133418083D01*
X81981786Y-125744000D01*
X81880165Y-125233118D01*
X81653574Y-124894000D01*
X81880165Y-124554882D01*
X81981786Y-124044000D01*
X81880165Y-123533118D01*
X81653574Y-123194000D01*
X81880165Y-122854882D01*
X81981786Y-122344000D01*
X81880165Y-121833118D01*
X81653574Y-121494000D01*
X81880165Y-121154882D01*
X81981786Y-120644000D01*
X81981786Y-112494000D01*
X81880165Y-111983118D01*
X81653574Y-111644000D01*
X81880165Y-111304882D01*
X81981786Y-110794000D01*
X81880165Y-110283118D01*
X81653574Y-109944000D01*
X81880165Y-109604882D01*
X81981786Y-109094000D01*
X81880165Y-108583118D01*
X81653574Y-108244000D01*
X81880165Y-107904882D01*
X81981786Y-107394000D01*
X81880165Y-106883118D01*
X81811593Y-106780492D01*
X81838387Y-106753699D01*
X81935060Y-106520310D01*
X81935060Y-106267691D01*
X81935060Y-104867691D01*
X81838387Y-104634302D01*
X81659759Y-104455673D01*
X81426370Y-104359000D01*
X81173751Y-104359000D01*
X77673631Y-104359000D01*
X77440242Y-104455673D01*
X77261613Y-104634301D01*
X77164940Y-104867690D01*
X77164940Y-105120309D01*
X77164940Y-105551430D01*
X76811185Y-105905185D01*
X76646004Y-106152395D01*
X76588000Y-106444000D01*
X76588000Y-108744000D01*
X76646004Y-109035605D01*
X76811185Y-109282815D01*
X77161185Y-109632816D01*
X77300857Y-109726141D01*
X77446425Y-109944000D01*
X77219835Y-110283118D01*
X77118214Y-110794000D01*
X77219835Y-111304882D01*
X77446425Y-111644000D01*
X77219835Y-111983118D01*
X77118214Y-112494000D01*
X77219835Y-113004882D01*
X77509226Y-113437988D01*
X77942332Y-113727379D01*
X78453214Y-113829000D01*
X80646786Y-113829000D01*
X81157668Y-113727379D01*
X81590774Y-113437988D01*
X81880165Y-113004882D01*
X81981786Y-112494000D01*
X81981786Y-120644000D01*
X81880165Y-120133118D01*
X81811593Y-120030492D01*
X81838387Y-120003699D01*
X81935060Y-119770310D01*
X81935060Y-119517691D01*
X81935060Y-118117691D01*
X81838387Y-117884302D01*
X81659759Y-117705673D01*
X81426370Y-117609000D01*
X81173751Y-117609000D01*
X77673631Y-117609000D01*
X77440242Y-117705673D01*
X77261613Y-117884301D01*
X77164940Y-118117690D01*
X77164940Y-118370309D01*
X77164940Y-118851430D01*
X76811185Y-119205185D01*
X76646004Y-119452395D01*
X76588000Y-119744000D01*
X76588000Y-121844000D01*
X76646004Y-122135605D01*
X76811185Y-122382815D01*
X77204088Y-122775719D01*
X77219835Y-122854882D01*
X77446425Y-123194000D01*
X77219835Y-123533118D01*
X77118214Y-124044000D01*
X77219835Y-124554882D01*
X77446425Y-124894000D01*
X77219835Y-125233118D01*
X77118214Y-125744000D01*
X77219835Y-126254882D01*
X77509226Y-126687988D01*
X77942332Y-126977379D01*
X78453214Y-127079000D01*
X80646786Y-127079000D01*
X81157668Y-126977379D01*
X81590774Y-126687988D01*
X81880165Y-126254882D01*
X81981786Y-125744000D01*
X81981786Y-133418083D01*
X81683813Y-133301277D01*
X80852166Y-133317167D01*
X81233629Y-132936370D01*
X81446757Y-132423100D01*
X81447242Y-131867339D01*
X81235010Y-131353697D01*
X80842370Y-130960371D01*
X80329100Y-130747243D01*
X79773339Y-130746758D01*
X79259697Y-130958990D01*
X78866371Y-131351630D01*
X78653243Y-131864900D01*
X78652758Y-132420661D01*
X78864990Y-132934303D01*
X79257630Y-133327629D01*
X79770900Y-133540757D01*
X80294526Y-133541213D01*
X80125418Y-133611261D01*
X79965635Y-133930030D01*
X81300000Y-135264395D01*
X82634365Y-133930030D01*
X82634365Y-134289240D01*
X81479605Y-135444000D01*
X82813970Y-136778365D01*
X83132739Y-136618582D01*
X83442723Y-135827813D01*
X83442723Y-138659000D01*
X82634365Y-138659000D01*
X82634365Y-136957970D01*
X81300000Y-135623605D01*
X81120395Y-135803210D01*
X81120395Y-135444000D01*
X79786030Y-134109635D01*
X79467261Y-134269418D01*
X79157277Y-135060187D01*
X79173503Y-135909387D01*
X79467261Y-136618582D01*
X79786030Y-136778365D01*
X81120395Y-135444000D01*
X81120395Y-135803210D01*
X79965635Y-136957970D01*
X80125418Y-137276739D01*
X80916187Y-137586723D01*
X81765387Y-137570497D01*
X82474582Y-137276739D01*
X82634365Y-136957970D01*
X82634365Y-138659000D01*
X76147767Y-138659000D01*
X76147767Y-128398966D01*
X76147767Y-120098966D01*
X76147767Y-115198966D01*
X76147767Y-106798966D01*
X76119805Y-106248462D01*
X75962931Y-105869735D01*
X75721930Y-105801675D01*
X75542325Y-105981280D01*
X75542325Y-105622070D01*
X75474265Y-105381069D01*
X74954966Y-105196233D01*
X74404462Y-105224195D01*
X74025735Y-105381069D01*
X73957675Y-105622070D01*
X74750000Y-106414395D01*
X75542325Y-105622070D01*
X75542325Y-105981280D01*
X74929605Y-106594000D01*
X75721930Y-107386325D01*
X75962931Y-107318265D01*
X76147767Y-106798966D01*
X76147767Y-115198966D01*
X76135810Y-114963561D01*
X76135810Y-112219602D01*
X76135810Y-108819602D01*
X75925314Y-108310163D01*
X75535887Y-107920056D01*
X75368728Y-107850645D01*
X75474265Y-107806931D01*
X75542325Y-107565930D01*
X74750000Y-106773605D01*
X74570395Y-106953210D01*
X74570395Y-106594000D01*
X73778070Y-105801675D01*
X73537069Y-105869735D01*
X73352233Y-106389034D01*
X73380195Y-106939538D01*
X73537069Y-107318265D01*
X73778070Y-107386325D01*
X74570395Y-106594000D01*
X74570395Y-106953210D01*
X73957675Y-107565930D01*
X74025735Y-107806931D01*
X74139032Y-107847257D01*
X73966163Y-107918686D01*
X73576056Y-108308113D01*
X73364671Y-108817184D01*
X73364190Y-109368398D01*
X73574686Y-109877837D01*
X73964113Y-110267944D01*
X74473184Y-110479329D01*
X75024398Y-110479810D01*
X75533837Y-110269314D01*
X75923944Y-109879887D01*
X76135329Y-109370816D01*
X76135810Y-108819602D01*
X76135810Y-112219602D01*
X75925314Y-111710163D01*
X75535887Y-111320056D01*
X75026816Y-111108671D01*
X74475602Y-111108190D01*
X73966163Y-111318686D01*
X73576056Y-111708113D01*
X73364671Y-112217184D01*
X73364190Y-112768398D01*
X73574686Y-113277837D01*
X73964113Y-113667944D01*
X74131271Y-113737354D01*
X74025735Y-113781069D01*
X73957675Y-114022070D01*
X74750000Y-114814395D01*
X75542325Y-114022070D01*
X75474265Y-113781069D01*
X75360967Y-113740742D01*
X75533837Y-113669314D01*
X75923944Y-113279887D01*
X76135329Y-112770816D01*
X76135810Y-112219602D01*
X76135810Y-114963561D01*
X76119805Y-114648462D01*
X75962931Y-114269735D01*
X75721930Y-114201675D01*
X74929605Y-114994000D01*
X75721930Y-115786325D01*
X75962931Y-115718265D01*
X76147767Y-115198966D01*
X76147767Y-120098966D01*
X76119805Y-119548462D01*
X75962931Y-119169735D01*
X75721930Y-119101675D01*
X75542325Y-119281280D01*
X75542325Y-118922070D01*
X75542325Y-115965930D01*
X74750000Y-115173605D01*
X74570395Y-115353210D01*
X74570395Y-114994000D01*
X73778070Y-114201675D01*
X73537069Y-114269735D01*
X73352233Y-114789034D01*
X73380195Y-115339538D01*
X73537069Y-115718265D01*
X73778070Y-115786325D01*
X74570395Y-114994000D01*
X74570395Y-115353210D01*
X73957675Y-115965930D01*
X74025735Y-116206931D01*
X74545034Y-116391767D01*
X75095538Y-116363805D01*
X75474265Y-116206931D01*
X75542325Y-115965930D01*
X75542325Y-118922070D01*
X75474265Y-118681069D01*
X74954966Y-118496233D01*
X74404462Y-118524195D01*
X74025735Y-118681069D01*
X73957675Y-118922070D01*
X74750000Y-119714395D01*
X75542325Y-118922070D01*
X75542325Y-119281280D01*
X74929605Y-119894000D01*
X75721930Y-120686325D01*
X75962931Y-120618265D01*
X76147767Y-120098966D01*
X76147767Y-128398966D01*
X76135810Y-128163561D01*
X76135810Y-125419602D01*
X76135810Y-122119602D01*
X75925314Y-121610163D01*
X75535887Y-121220056D01*
X75368728Y-121150645D01*
X75474265Y-121106931D01*
X75542325Y-120865930D01*
X74750000Y-120073605D01*
X74570395Y-120253210D01*
X74570395Y-119894000D01*
X73778070Y-119101675D01*
X73537069Y-119169735D01*
X73352233Y-119689034D01*
X73380195Y-120239538D01*
X73537069Y-120618265D01*
X73778070Y-120686325D01*
X74570395Y-119894000D01*
X74570395Y-120253210D01*
X73957675Y-120865930D01*
X74025735Y-121106931D01*
X74139032Y-121147257D01*
X73966163Y-121218686D01*
X73576056Y-121608113D01*
X73364671Y-122117184D01*
X73364190Y-122668398D01*
X73574686Y-123177837D01*
X73964113Y-123567944D01*
X74473184Y-123779329D01*
X75024398Y-123779810D01*
X75533837Y-123569314D01*
X75923944Y-123179887D01*
X76135329Y-122670816D01*
X76135810Y-122119602D01*
X76135810Y-125419602D01*
X75925314Y-124910163D01*
X75535887Y-124520056D01*
X75026816Y-124308671D01*
X74475602Y-124308190D01*
X73966163Y-124518686D01*
X73576056Y-124908113D01*
X73364671Y-125417184D01*
X73364190Y-125968398D01*
X73574686Y-126477837D01*
X73964113Y-126867944D01*
X74131271Y-126937354D01*
X74025735Y-126981069D01*
X73957675Y-127222070D01*
X74750000Y-128014395D01*
X75542325Y-127222070D01*
X75474265Y-126981069D01*
X75360967Y-126940742D01*
X75533837Y-126869314D01*
X75923944Y-126479887D01*
X76135329Y-125970816D01*
X76135810Y-125419602D01*
X76135810Y-128163561D01*
X76119805Y-127848462D01*
X75962931Y-127469735D01*
X75721930Y-127401675D01*
X74929605Y-128194000D01*
X75721930Y-128986325D01*
X75962931Y-128918265D01*
X76147767Y-128398966D01*
X76147767Y-138659000D01*
X75917462Y-138659000D01*
X75917462Y-134115828D01*
X75542325Y-133207926D01*
X75542325Y-129165930D01*
X74750000Y-128373605D01*
X74570395Y-128553210D01*
X74570395Y-128194000D01*
X73778070Y-127401675D01*
X73537069Y-127469735D01*
X73352233Y-127989034D01*
X73380195Y-128539538D01*
X73537069Y-128918265D01*
X73778070Y-128986325D01*
X74570395Y-128194000D01*
X74570395Y-128553210D01*
X73957675Y-129165930D01*
X74025735Y-129406931D01*
X74545034Y-129591767D01*
X75095538Y-129563805D01*
X75474265Y-129406931D01*
X75542325Y-129165930D01*
X75542325Y-133207926D01*
X75512291Y-133135239D01*
X74762707Y-132384345D01*
X73782827Y-131977464D01*
X72721828Y-131976538D01*
X72712000Y-131980598D01*
X72712000Y-121844000D01*
X72712000Y-119744000D01*
X72653996Y-119452396D01*
X72653996Y-119452395D01*
X72512000Y-119239883D01*
X72512000Y-108644000D01*
X72512000Y-106644000D01*
X72453996Y-106352396D01*
X72453996Y-106352395D01*
X72288815Y-106105185D01*
X71935060Y-105751430D01*
X71935060Y-104867691D01*
X71838387Y-104634302D01*
X71659759Y-104455673D01*
X71426370Y-104359000D01*
X71173751Y-104359000D01*
X67673631Y-104359000D01*
X67440242Y-104455673D01*
X67261613Y-104634301D01*
X67228871Y-104713345D01*
X67169387Y-104569736D01*
X66902532Y-104471073D01*
X66722927Y-104650678D01*
X66722927Y-104291468D01*
X66624264Y-104024613D01*
X66014539Y-103798092D01*
X65364540Y-103822144D01*
X64875736Y-104024613D01*
X64777073Y-104291468D01*
X65750000Y-105264395D01*
X66722927Y-104291468D01*
X66722927Y-104650678D01*
X65929605Y-105444000D01*
X66902532Y-106416927D01*
X67164940Y-106319908D01*
X67164940Y-106520309D01*
X67261613Y-106753698D01*
X67288407Y-106780492D01*
X67219835Y-106883118D01*
X67118214Y-107394000D01*
X67219835Y-107904882D01*
X67446425Y-108244000D01*
X67219835Y-108583118D01*
X67118214Y-109094000D01*
X67219835Y-109604882D01*
X67446425Y-109944000D01*
X67219835Y-110283118D01*
X67147242Y-110648066D01*
X67147242Y-109967339D01*
X66935010Y-109453697D01*
X66722927Y-109241243D01*
X66722927Y-106596532D01*
X65750000Y-105623605D01*
X65570395Y-105803210D01*
X65570395Y-105444000D01*
X64597468Y-104471073D01*
X64330613Y-104569736D01*
X64104092Y-105179461D01*
X64128144Y-105829460D01*
X64330613Y-106318264D01*
X64597468Y-106416927D01*
X65570395Y-105444000D01*
X65570395Y-105803210D01*
X64777073Y-106596532D01*
X64875736Y-106863387D01*
X65485461Y-107089908D01*
X66135460Y-107065856D01*
X66624264Y-106863387D01*
X66722927Y-106596532D01*
X66722927Y-109241243D01*
X66542370Y-109060371D01*
X66029100Y-108847243D01*
X65473339Y-108846758D01*
X64959697Y-109058990D01*
X64566371Y-109451630D01*
X64353243Y-109964900D01*
X64352758Y-110520661D01*
X64564990Y-111034303D01*
X64957630Y-111427629D01*
X65470900Y-111640757D01*
X66026661Y-111641242D01*
X66540303Y-111429010D01*
X66933629Y-111036370D01*
X67146757Y-110523100D01*
X67147242Y-109967339D01*
X67147242Y-110648066D01*
X67118214Y-110794000D01*
X67219835Y-111304882D01*
X67446425Y-111644000D01*
X67219835Y-111983118D01*
X67118214Y-112494000D01*
X67219835Y-113004882D01*
X67509226Y-113437988D01*
X67942332Y-113727379D01*
X68453214Y-113829000D01*
X70646786Y-113829000D01*
X71157668Y-113727379D01*
X71590774Y-113437988D01*
X71880165Y-113004882D01*
X71981786Y-112494000D01*
X71880165Y-111983118D01*
X71653574Y-111644000D01*
X71880165Y-111304882D01*
X71981786Y-110794000D01*
X71880165Y-110283118D01*
X71653574Y-109944000D01*
X71880165Y-109604882D01*
X71883496Y-109588133D01*
X72288815Y-109182815D01*
X72453996Y-108935605D01*
X72511999Y-108644000D01*
X72512000Y-108644000D01*
X72512000Y-119239883D01*
X72488815Y-119205185D01*
X71935060Y-118651430D01*
X71935060Y-118117691D01*
X71838387Y-117884302D01*
X71659759Y-117705673D01*
X71426370Y-117609000D01*
X71173751Y-117609000D01*
X67673631Y-117609000D01*
X67440242Y-117705673D01*
X67261613Y-117884301D01*
X67164940Y-118117690D01*
X67164940Y-118370309D01*
X67164940Y-119346452D01*
X67077363Y-119258722D01*
X66476648Y-119009284D01*
X65826205Y-119008716D01*
X65225057Y-119257106D01*
X65035257Y-119446574D01*
X65035257Y-114949911D01*
X64809656Y-114403914D01*
X64392283Y-113985812D01*
X63846681Y-113759258D01*
X63255911Y-113758743D01*
X62709914Y-113984344D01*
X62550087Y-114143891D01*
X62392283Y-113985812D01*
X61846681Y-113759258D01*
X61255911Y-113758743D01*
X60709914Y-113984344D01*
X60291812Y-114401717D01*
X60065258Y-114947319D01*
X60064743Y-115538089D01*
X60290344Y-116084086D01*
X60707717Y-116502188D01*
X61253319Y-116728742D01*
X61844089Y-116729257D01*
X62390086Y-116503656D01*
X62549912Y-116344108D01*
X62707717Y-116502188D01*
X63253319Y-116728742D01*
X63844089Y-116729257D01*
X64390086Y-116503656D01*
X64808188Y-116086283D01*
X65034742Y-115540681D01*
X65035257Y-114949911D01*
X65035257Y-119446574D01*
X64764722Y-119716637D01*
X64515284Y-120317352D01*
X64514716Y-120967795D01*
X64763106Y-121568943D01*
X65222637Y-122029278D01*
X65823352Y-122278716D01*
X66473795Y-122279284D01*
X67074943Y-122030894D01*
X67206646Y-121899420D01*
X67118214Y-122344000D01*
X67219835Y-122854882D01*
X67446425Y-123194000D01*
X67219835Y-123533118D01*
X67118214Y-124044000D01*
X67215721Y-124534199D01*
X66942370Y-124260371D01*
X66429100Y-124047243D01*
X65873339Y-124046758D01*
X65359697Y-124258990D01*
X64966371Y-124651630D01*
X64753243Y-125164900D01*
X64752758Y-125720661D01*
X64964990Y-126234303D01*
X65357630Y-126627629D01*
X65870900Y-126840757D01*
X66426661Y-126841242D01*
X66940303Y-126629010D01*
X67257946Y-126311920D01*
X67509226Y-126687988D01*
X67942332Y-126977379D01*
X68453214Y-127079000D01*
X70646786Y-127079000D01*
X71157668Y-126977379D01*
X71590774Y-126687988D01*
X71880165Y-126254882D01*
X71981786Y-125744000D01*
X71880165Y-125233118D01*
X71653574Y-124894000D01*
X71880165Y-124554882D01*
X71981786Y-124044000D01*
X71880165Y-123533118D01*
X71653574Y-123194000D01*
X71758814Y-123036497D01*
X71758814Y-123036496D01*
X71988815Y-122882815D01*
X72488815Y-122382815D01*
X72488816Y-122382815D01*
X72587834Y-122234623D01*
X72653996Y-122135605D01*
X72653996Y-122135604D01*
X72712000Y-121844000D01*
X72712000Y-131980598D01*
X71741239Y-132381709D01*
X70990345Y-133131293D01*
X70583464Y-134111173D01*
X70582538Y-135172172D01*
X70987709Y-136152761D01*
X71737293Y-136903655D01*
X72717173Y-137310536D01*
X73778172Y-137311462D01*
X74758761Y-136906291D01*
X75509655Y-136156707D01*
X75916536Y-135176827D01*
X75917462Y-134115828D01*
X75917462Y-138659000D01*
X68447242Y-138659000D01*
X68447242Y-131867339D01*
X68235010Y-131353697D01*
X67842370Y-130960371D01*
X67329100Y-130747243D01*
X66773339Y-130746758D01*
X66259697Y-130958990D01*
X65866371Y-131351630D01*
X65653243Y-131864900D01*
X65652758Y-132420661D01*
X65864990Y-132934303D01*
X66257630Y-133327629D01*
X66770900Y-133540757D01*
X67326661Y-133541242D01*
X67840303Y-133329010D01*
X68233629Y-132936370D01*
X68446757Y-132423100D01*
X68447242Y-131867339D01*
X68447242Y-138659000D01*
X65742723Y-138659000D01*
X65742723Y-135827813D01*
X65726497Y-134978613D01*
X65432739Y-134269418D01*
X65113970Y-134109635D01*
X64934365Y-134289240D01*
X64934365Y-133930030D01*
X64774582Y-133611261D01*
X63983813Y-133301277D01*
X63134613Y-133317503D01*
X62425418Y-133611261D01*
X62265635Y-133930030D01*
X63600000Y-135264395D01*
X64934365Y-133930030D01*
X64934365Y-134289240D01*
X63779605Y-135444000D01*
X65113970Y-136778365D01*
X65432739Y-136618582D01*
X65742723Y-135827813D01*
X65742723Y-138659000D01*
X64934365Y-138659000D01*
X64934365Y-136957970D01*
X63600000Y-135623605D01*
X63420395Y-135803210D01*
X63420395Y-135444000D01*
X62086030Y-134109635D01*
X61767261Y-134269418D01*
X61647201Y-134575690D01*
X61647201Y-132648829D01*
X61635240Y-132413518D01*
X61635240Y-129669715D01*
X61424831Y-129160485D01*
X61035564Y-128770539D01*
X60526702Y-128559241D01*
X59975715Y-128558760D01*
X59466485Y-128769169D01*
X59076539Y-129158436D01*
X58865241Y-129667298D01*
X58864760Y-130218285D01*
X59075169Y-130727515D01*
X59464436Y-131117461D01*
X59632754Y-131187352D01*
X59526077Y-131231540D01*
X59458088Y-131472483D01*
X60250000Y-132264395D01*
X61041912Y-131472483D01*
X60973923Y-131231540D01*
X60859388Y-131190778D01*
X61033515Y-131118831D01*
X61423461Y-130729564D01*
X61634759Y-130220702D01*
X61635240Y-129669715D01*
X61635240Y-132413518D01*
X61619230Y-132098552D01*
X61462460Y-131720077D01*
X61221517Y-131652088D01*
X60429605Y-132444000D01*
X61221517Y-133235912D01*
X61462460Y-133167923D01*
X61647201Y-132648829D01*
X61647201Y-134575690D01*
X61457277Y-135060187D01*
X61473503Y-135909387D01*
X61767261Y-136618582D01*
X62086030Y-136778365D01*
X63420395Y-135444000D01*
X63420395Y-135803210D01*
X62265635Y-136957970D01*
X62425418Y-137276739D01*
X63216187Y-137586723D01*
X64065387Y-137570497D01*
X64774582Y-137276739D01*
X64934365Y-136957970D01*
X64934365Y-138659000D01*
X61041912Y-138659000D01*
X61041912Y-133415517D01*
X60250000Y-132623605D01*
X60070395Y-132803210D01*
X60070395Y-132444000D01*
X59278483Y-131652088D01*
X59037540Y-131720077D01*
X58852799Y-132239171D01*
X58880770Y-132789448D01*
X59037540Y-133167923D01*
X59278483Y-133235912D01*
X60070395Y-132444000D01*
X60070395Y-132803210D01*
X59458088Y-133415517D01*
X59526077Y-133656460D01*
X60045171Y-133841201D01*
X60595448Y-133813230D01*
X60973923Y-133656460D01*
X61041912Y-133415517D01*
X61041912Y-138659000D01*
X58992723Y-138659000D01*
X58992723Y-136627813D01*
X58976497Y-135778613D01*
X58682739Y-135069418D01*
X58363970Y-134909635D01*
X58184365Y-135089240D01*
X58184365Y-134730030D01*
X58024582Y-134411261D01*
X57233813Y-134101277D01*
X56384613Y-134117503D01*
X55675418Y-134411261D01*
X55515635Y-134730030D01*
X56850000Y-136064395D01*
X58184365Y-134730030D01*
X58184365Y-135089240D01*
X57029605Y-136244000D01*
X58363970Y-137578365D01*
X58682739Y-137418582D01*
X58992723Y-136627813D01*
X58992723Y-138659000D01*
X58184365Y-138659000D01*
X58184365Y-137757970D01*
X56850000Y-136423605D01*
X56670395Y-136603210D01*
X56670395Y-136244000D01*
X55336030Y-134909635D01*
X55017261Y-135069418D01*
X54847201Y-135503240D01*
X54847201Y-132648829D01*
X54835240Y-132413518D01*
X54835240Y-129669715D01*
X54624831Y-129160485D01*
X54547242Y-129082760D01*
X54547242Y-125167339D01*
X54335010Y-124653697D01*
X54235257Y-124553769D01*
X54235257Y-114949911D01*
X54147242Y-114736898D01*
X54147242Y-109967339D01*
X53935010Y-109453697D01*
X53542370Y-109060371D01*
X53029100Y-108847243D01*
X52473339Y-108846758D01*
X52385284Y-108883141D01*
X52385284Y-105120205D01*
X52136894Y-104519057D01*
X51677363Y-104058722D01*
X51076648Y-103809284D01*
X50426205Y-103808716D01*
X49825057Y-104057106D01*
X49364722Y-104516637D01*
X49115284Y-105117352D01*
X49114716Y-105767795D01*
X49363106Y-106368943D01*
X49822637Y-106829278D01*
X50423352Y-107078716D01*
X51073795Y-107079284D01*
X51674943Y-106830894D01*
X52135278Y-106371363D01*
X52384716Y-105770648D01*
X52385284Y-105120205D01*
X52385284Y-108883141D01*
X51959697Y-109058990D01*
X51566371Y-109451630D01*
X51353243Y-109964900D01*
X51352758Y-110520661D01*
X51564990Y-111034303D01*
X51957630Y-111427629D01*
X52470900Y-111640757D01*
X53026661Y-111641242D01*
X53540303Y-111429010D01*
X53933629Y-111036370D01*
X54146757Y-110523100D01*
X54147242Y-109967339D01*
X54147242Y-114736898D01*
X54009656Y-114403914D01*
X53592283Y-113985812D01*
X53046681Y-113759258D01*
X52455911Y-113758743D01*
X51909914Y-113984344D01*
X51750087Y-114143891D01*
X51592283Y-113985812D01*
X51046681Y-113759258D01*
X50455911Y-113758743D01*
X49909914Y-113984344D01*
X49491812Y-114401717D01*
X49265258Y-114947319D01*
X49264743Y-115538089D01*
X49490344Y-116084086D01*
X49907717Y-116502188D01*
X50453319Y-116728742D01*
X51044089Y-116729257D01*
X51590086Y-116503656D01*
X51749912Y-116344108D01*
X51907717Y-116502188D01*
X52453319Y-116728742D01*
X53044089Y-116729257D01*
X53590086Y-116503656D01*
X54008188Y-116086283D01*
X54234742Y-115540681D01*
X54235257Y-114949911D01*
X54235257Y-124553769D01*
X53942370Y-124260371D01*
X53429100Y-124047243D01*
X52873339Y-124046758D01*
X52795908Y-124078751D01*
X52795908Y-120908539D01*
X52771856Y-120258540D01*
X52569387Y-119769736D01*
X52302532Y-119671073D01*
X52122927Y-119850678D01*
X52122927Y-119491468D01*
X52024264Y-119224613D01*
X51414539Y-118998092D01*
X50764540Y-119022144D01*
X50275736Y-119224613D01*
X50177073Y-119491468D01*
X51150000Y-120464395D01*
X52122927Y-119491468D01*
X52122927Y-119850678D01*
X51329605Y-120644000D01*
X52302532Y-121616927D01*
X52569387Y-121518264D01*
X52795908Y-120908539D01*
X52795908Y-124078751D01*
X52359697Y-124258990D01*
X52122927Y-124495347D01*
X52122927Y-121796532D01*
X51150000Y-120823605D01*
X50970395Y-121003210D01*
X50970395Y-120644000D01*
X49997468Y-119671073D01*
X49730613Y-119769736D01*
X49504092Y-120379461D01*
X49528144Y-121029460D01*
X49730613Y-121518264D01*
X49997468Y-121616927D01*
X50970395Y-120644000D01*
X50970395Y-121003210D01*
X50177073Y-121796532D01*
X50275736Y-122063387D01*
X50885461Y-122289908D01*
X51535460Y-122265856D01*
X52024264Y-122063387D01*
X52122927Y-121796532D01*
X52122927Y-124495347D01*
X51966371Y-124651630D01*
X51753243Y-125164900D01*
X51752758Y-125720661D01*
X51964990Y-126234303D01*
X52357630Y-126627629D01*
X52870900Y-126840757D01*
X53426661Y-126841242D01*
X53940303Y-126629010D01*
X54333629Y-126236370D01*
X54546757Y-125723100D01*
X54547242Y-125167339D01*
X54547242Y-129082760D01*
X54235564Y-128770539D01*
X53726702Y-128559241D01*
X53175715Y-128558760D01*
X52666485Y-128769169D01*
X52276539Y-129158436D01*
X52065241Y-129667298D01*
X52064760Y-130218285D01*
X52275169Y-130727515D01*
X52664436Y-131117461D01*
X52832754Y-131187352D01*
X52726077Y-131231540D01*
X52658088Y-131472483D01*
X53450000Y-132264395D01*
X54241912Y-131472483D01*
X54173923Y-131231540D01*
X54059388Y-131190778D01*
X54233515Y-131118831D01*
X54623461Y-130729564D01*
X54834759Y-130220702D01*
X54835240Y-129669715D01*
X54835240Y-132413518D01*
X54819230Y-132098552D01*
X54662460Y-131720077D01*
X54421517Y-131652088D01*
X53629605Y-132444000D01*
X54421517Y-133235912D01*
X54662460Y-133167923D01*
X54847201Y-132648829D01*
X54847201Y-135503240D01*
X54707277Y-135860187D01*
X54723503Y-136709387D01*
X55017261Y-137418582D01*
X55336030Y-137578365D01*
X56670395Y-136244000D01*
X56670395Y-136603210D01*
X55515635Y-137757970D01*
X55675418Y-138076739D01*
X56466187Y-138386723D01*
X57315387Y-138370497D01*
X58024582Y-138076739D01*
X58184365Y-137757970D01*
X58184365Y-138659000D01*
X54241912Y-138659000D01*
X54241912Y-133415517D01*
X53450000Y-132623605D01*
X53270395Y-132803210D01*
X53270395Y-132444000D01*
X52478483Y-131652088D01*
X52237540Y-131720077D01*
X52052799Y-132239171D01*
X52080770Y-132789448D01*
X52237540Y-133167923D01*
X52478483Y-133235912D01*
X53270395Y-132444000D01*
X53270395Y-132803210D01*
X52658088Y-133415517D01*
X52726077Y-133656460D01*
X53245171Y-133841201D01*
X53795448Y-133813230D01*
X54173923Y-133656460D01*
X54241912Y-133415517D01*
X54241912Y-138659000D01*
X52242723Y-138659000D01*
X52242723Y-135827813D01*
X52226497Y-134978613D01*
X51932739Y-134269418D01*
X51613970Y-134109635D01*
X51434365Y-134289240D01*
X50279605Y-135444000D01*
X51613970Y-136778365D01*
X51932739Y-136618582D01*
X52242723Y-135827813D01*
X52242723Y-138659000D01*
X51434365Y-138659000D01*
X48635000Y-138659000D01*
X48635000Y-138344000D01*
X48635000Y-138244000D01*
X48635000Y-138144000D01*
X48635000Y-137053980D01*
X48652314Y-137071294D01*
X48765636Y-136957971D01*
X48925418Y-137276739D01*
X49716187Y-137586723D01*
X50565387Y-137570497D01*
X51274582Y-137276739D01*
X51434365Y-136957970D01*
X50100000Y-135623605D01*
X50085857Y-135637747D01*
X49906252Y-135458142D01*
X49920395Y-135444000D01*
X49906252Y-135429857D01*
X50085857Y-135250252D01*
X50100000Y-135264395D01*
X51434365Y-133930030D01*
X51274582Y-133611261D01*
X50483813Y-133301277D01*
X49634613Y-133317503D01*
X48925418Y-133611261D01*
X48765636Y-133930028D01*
X48652314Y-133816706D01*
X48635000Y-133834020D01*
X48635000Y-103129000D01*
X56493865Y-103129000D01*
X55790345Y-103831293D01*
X55383464Y-104811173D01*
X55382538Y-105872172D01*
X55787709Y-106852761D01*
X56537293Y-107603655D01*
X57517173Y-108010536D01*
X58578172Y-108011462D01*
X59558761Y-107606291D01*
X60309655Y-106856707D01*
X60716536Y-105876827D01*
X60717462Y-104815828D01*
X60312291Y-103835239D01*
X59607284Y-103129000D01*
X105929149Y-103129000D01*
X105895620Y-103142854D01*
X105520173Y-103517647D01*
X105316732Y-104007587D01*
X105316269Y-104538086D01*
X105518854Y-105028380D01*
X105893647Y-105403827D01*
X106231446Y-105544093D01*
X105895620Y-105682854D01*
X105520173Y-106057647D01*
X105316732Y-106547587D01*
X105316269Y-107078086D01*
X105518854Y-107568380D01*
X105893647Y-107943827D01*
X106383587Y-108147268D01*
X106914086Y-108147731D01*
X107404380Y-107945146D01*
X107779827Y-107570353D01*
X107851589Y-107397530D01*
X108153778Y-107849789D01*
X108549198Y-108113999D01*
X108153778Y-108378211D01*
X107845441Y-108839671D01*
X107737167Y-109384000D01*
X107845441Y-109928329D01*
X108153778Y-110389789D01*
X108549198Y-110653999D01*
X108153778Y-110918211D01*
X107876339Y-111333427D01*
X107829800Y-111221071D01*
X107594188Y-111159417D01*
X107414583Y-111339022D01*
X107414583Y-110979812D01*
X107352929Y-110744200D01*
X106852520Y-110568073D01*
X106322801Y-110596852D01*
X105967071Y-110744200D01*
X105905417Y-110979812D01*
X106660000Y-111734395D01*
X107414583Y-110979812D01*
X107414583Y-111339022D01*
X106839605Y-111914000D01*
X107594188Y-112668583D01*
X107829800Y-112606929D01*
X107867148Y-112500816D01*
X108153778Y-112929789D01*
X108549198Y-113193999D01*
X108153778Y-113458211D01*
X107868073Y-113885799D01*
X107791146Y-113699620D01*
X107416353Y-113324173D01*
X107094881Y-113190686D01*
X107352929Y-113083800D01*
X107414583Y-112848188D01*
X106660000Y-112093605D01*
X106480395Y-112273210D01*
X106480395Y-111914000D01*
X105725812Y-111159417D01*
X105490200Y-111221071D01*
X105314073Y-111721480D01*
X105342852Y-112251199D01*
X105490200Y-112606929D01*
X105725812Y-112668583D01*
X106480395Y-111914000D01*
X106480395Y-112273210D01*
X105905417Y-112848188D01*
X105967071Y-113083800D01*
X106246311Y-113182083D01*
X105905620Y-113322854D01*
X105530173Y-113697647D01*
X105326732Y-114187587D01*
X105326269Y-114718086D01*
X105528854Y-115208380D01*
X105903647Y-115583827D01*
X106265588Y-115734118D01*
X105905620Y-115882854D01*
X105530173Y-116257647D01*
X105326732Y-116747587D01*
X105326269Y-117278086D01*
X105528854Y-117768380D01*
X105903647Y-118143827D01*
X106225118Y-118277313D01*
X105967071Y-118384200D01*
X105905417Y-118619812D01*
X106660000Y-119374395D01*
X107414583Y-118619812D01*
X107352929Y-118384200D01*
X107073688Y-118285916D01*
X107414380Y-118145146D01*
X107789827Y-117770353D01*
X107868000Y-117582091D01*
X108153778Y-118009789D01*
X108549198Y-118273999D01*
X108153778Y-118538211D01*
X107871225Y-118961081D01*
X107829800Y-118861071D01*
X107594188Y-118799417D01*
X106839605Y-119554000D01*
X107594188Y-120308583D01*
X107829800Y-120246929D01*
X107871758Y-120127716D01*
X108153778Y-120549789D01*
X108549198Y-120813999D01*
X108153778Y-121078211D01*
X107845441Y-121539671D01*
X107737167Y-122084000D01*
X107845441Y-122628329D01*
X108153778Y-123089789D01*
X108549198Y-123353999D01*
X108153778Y-123618211D01*
X107882726Y-124023868D01*
X107761146Y-123729620D01*
X107414583Y-123382452D01*
X107414583Y-120488188D01*
X106660000Y-119733605D01*
X106480395Y-119913210D01*
X106480395Y-119554000D01*
X105725812Y-118799417D01*
X105490200Y-118861071D01*
X105314073Y-119361480D01*
X105342852Y-119891199D01*
X105490200Y-120246929D01*
X105725812Y-120308583D01*
X106480395Y-119554000D01*
X106480395Y-119913210D01*
X105905417Y-120488188D01*
X105967071Y-120723800D01*
X106467480Y-120899927D01*
X106997199Y-120871148D01*
X107352929Y-120723800D01*
X107414583Y-120488188D01*
X107414583Y-123382452D01*
X107386353Y-123354173D01*
X106896413Y-123150732D01*
X106365914Y-123150269D01*
X105875620Y-123352854D01*
X105500173Y-123727647D01*
X105359906Y-124065446D01*
X105221146Y-123729620D01*
X104846353Y-123354173D01*
X104447767Y-123188665D01*
X104447767Y-119698966D01*
X104447767Y-112098966D01*
X104419805Y-111548462D01*
X104262931Y-111169735D01*
X104021930Y-111101675D01*
X103905927Y-111217678D01*
X103905927Y-106736520D01*
X103877148Y-106206801D01*
X103729800Y-105851071D01*
X103494188Y-105789417D01*
X103314583Y-105969022D01*
X103314583Y-105609812D01*
X103252929Y-105374200D01*
X102752520Y-105198073D01*
X102222801Y-105226852D01*
X101867071Y-105374200D01*
X101805417Y-105609812D01*
X102560000Y-106364395D01*
X103314583Y-105609812D01*
X103314583Y-105969022D01*
X102739605Y-106544000D01*
X103494188Y-107298583D01*
X103729800Y-107236929D01*
X103905927Y-106736520D01*
X103905927Y-111217678D01*
X103842325Y-111281280D01*
X103842325Y-110922070D01*
X103774265Y-110681069D01*
X103314583Y-110517452D01*
X103314583Y-107478188D01*
X102560000Y-106723605D01*
X102380395Y-106903210D01*
X102380395Y-106544000D01*
X101625812Y-105789417D01*
X101390200Y-105851071D01*
X101214073Y-106351480D01*
X101242852Y-106881199D01*
X101390200Y-107236929D01*
X101625812Y-107298583D01*
X102380395Y-106544000D01*
X102380395Y-106903210D01*
X101805417Y-107478188D01*
X101867071Y-107713800D01*
X102367480Y-107889927D01*
X102897199Y-107861148D01*
X103252929Y-107713800D01*
X103314583Y-107478188D01*
X103314583Y-110517452D01*
X103254966Y-110496233D01*
X102704462Y-110524195D01*
X102325735Y-110681069D01*
X102257675Y-110922070D01*
X103050000Y-111714395D01*
X103842325Y-110922070D01*
X103842325Y-111281280D01*
X103229605Y-111894000D01*
X104021930Y-112686325D01*
X104262931Y-112618265D01*
X104447767Y-112098966D01*
X104447767Y-119698966D01*
X104435810Y-119463561D01*
X104435810Y-116719602D01*
X104225314Y-116210163D01*
X103835887Y-115820056D01*
X103532192Y-115693950D01*
X103833837Y-115569314D01*
X104223944Y-115179887D01*
X104435329Y-114670816D01*
X104435810Y-114119602D01*
X104225314Y-113610163D01*
X103835887Y-113220056D01*
X103668728Y-113150645D01*
X103774265Y-113106931D01*
X103842325Y-112865930D01*
X103050000Y-112073605D01*
X102870395Y-112253210D01*
X102870395Y-111894000D01*
X102078070Y-111101675D01*
X101837069Y-111169735D01*
X101693731Y-111572444D01*
X101693731Y-108679914D01*
X101491146Y-108189620D01*
X101116353Y-107814173D01*
X100626413Y-107610732D01*
X100095914Y-107610269D01*
X99605620Y-107812854D01*
X99230173Y-108187647D01*
X99026732Y-108677587D01*
X99026269Y-109208086D01*
X99228854Y-109698380D01*
X99603647Y-110073827D01*
X100093587Y-110277268D01*
X100624086Y-110277731D01*
X101114380Y-110075146D01*
X101489827Y-109700353D01*
X101693268Y-109210413D01*
X101693731Y-108679914D01*
X101693731Y-111572444D01*
X101652233Y-111689034D01*
X101680195Y-112239538D01*
X101837069Y-112618265D01*
X102078070Y-112686325D01*
X102870395Y-111894000D01*
X102870395Y-112253210D01*
X102257675Y-112865930D01*
X102325735Y-113106931D01*
X102439032Y-113147257D01*
X102266163Y-113218686D01*
X101876056Y-113608113D01*
X101664671Y-114117184D01*
X101664190Y-114668398D01*
X101874686Y-115177837D01*
X102264113Y-115567944D01*
X102567807Y-115694049D01*
X102266163Y-115818686D01*
X101876056Y-116208113D01*
X101664671Y-116717184D01*
X101664190Y-117268398D01*
X101874686Y-117777837D01*
X102264113Y-118167944D01*
X102431271Y-118237354D01*
X102325735Y-118281069D01*
X102257675Y-118522070D01*
X103050000Y-119314395D01*
X103842325Y-118522070D01*
X103774265Y-118281069D01*
X103660967Y-118240742D01*
X103833837Y-118169314D01*
X104223944Y-117779887D01*
X104435329Y-117270816D01*
X104435810Y-116719602D01*
X104435810Y-119463561D01*
X104419805Y-119148462D01*
X104262931Y-118769735D01*
X104021930Y-118701675D01*
X103229605Y-119494000D01*
X104021930Y-120286325D01*
X104262931Y-120218265D01*
X104447767Y-119698966D01*
X104447767Y-123188665D01*
X104356413Y-123150732D01*
X103842325Y-123150283D01*
X103842325Y-120465930D01*
X103050000Y-119673605D01*
X102870395Y-119853210D01*
X102870395Y-119494000D01*
X102078070Y-118701675D01*
X101837069Y-118769735D01*
X101652233Y-119289034D01*
X101680195Y-119839538D01*
X101837069Y-120218265D01*
X102078070Y-120286325D01*
X102870395Y-119494000D01*
X102870395Y-119853210D01*
X102257675Y-120465930D01*
X102325735Y-120706931D01*
X102845034Y-120891767D01*
X103395538Y-120863805D01*
X103774265Y-120706931D01*
X103842325Y-120465930D01*
X103842325Y-123150283D01*
X103825914Y-123150269D01*
X103335620Y-123352854D01*
X102960173Y-123727647D01*
X102756732Y-124217587D01*
X102756269Y-124748086D01*
X102958854Y-125238380D01*
X103333647Y-125613827D01*
X103823587Y-125817268D01*
X104354086Y-125817731D01*
X104844380Y-125615146D01*
X105219827Y-125240353D01*
X105360093Y-124902553D01*
X105498854Y-125238380D01*
X105873647Y-125613827D01*
X106363587Y-125817268D01*
X106894086Y-125817731D01*
X107384380Y-125615146D01*
X107759827Y-125240353D01*
X107827398Y-125077623D01*
X107845441Y-125168329D01*
X108153778Y-125629789D01*
X108615238Y-125938126D01*
X109159567Y-126046400D01*
X109940433Y-126046400D01*
X110484762Y-125938126D01*
X110946222Y-125629789D01*
X111254559Y-125168329D01*
X111362833Y-124624000D01*
X111254559Y-124079671D01*
X110946222Y-123618211D01*
X110550801Y-123353999D01*
X110946222Y-123089789D01*
X111254559Y-122628329D01*
X111362833Y-122084000D01*
X111254559Y-121539671D01*
X110946222Y-121078211D01*
X110550801Y-120813999D01*
X110946222Y-120549789D01*
X111254559Y-120088329D01*
X111362833Y-119544000D01*
X111254559Y-118999671D01*
X110946222Y-118538211D01*
X110550801Y-118273999D01*
X110946222Y-118009789D01*
X111254559Y-117548329D01*
X111362833Y-117004000D01*
X111254559Y-116459671D01*
X110946222Y-115998211D01*
X110550801Y-115733999D01*
X110946222Y-115469789D01*
X111254559Y-115008329D01*
X111362833Y-114464000D01*
X111254559Y-113919671D01*
X110946222Y-113458211D01*
X110550801Y-113193999D01*
X110946222Y-112929789D01*
X111254559Y-112468329D01*
X111362833Y-111924000D01*
X111254559Y-111379671D01*
X110946222Y-110918211D01*
X110550801Y-110653999D01*
X110946222Y-110389789D01*
X111254559Y-109928329D01*
X111362833Y-109384000D01*
X111254559Y-108839671D01*
X110946222Y-108378211D01*
X110550801Y-108113999D01*
X110946222Y-107849789D01*
X111254559Y-107388329D01*
X111362833Y-106844000D01*
X111254559Y-106299671D01*
X110946222Y-105838211D01*
X110484762Y-105529874D01*
X109940433Y-105421600D01*
X109159567Y-105421600D01*
X108615238Y-105529874D01*
X108153778Y-105838211D01*
X107867000Y-106267404D01*
X107781146Y-106059620D01*
X107406353Y-105684173D01*
X107068553Y-105543906D01*
X107404380Y-105405146D01*
X107779827Y-105030353D01*
X107983268Y-104540413D01*
X107983731Y-104009914D01*
X107781146Y-103519620D01*
X107406353Y-103144173D01*
X107369812Y-103129000D01*
X112523000Y-103129000D01*
X112523000Y-133515519D01*
X112026541Y-133309372D01*
X111177185Y-133308630D01*
X110392200Y-133632980D01*
X109791091Y-134233041D01*
X109635240Y-134608371D01*
X109635240Y-132169715D01*
X109424831Y-131660485D01*
X109035564Y-131270539D01*
X108851414Y-131194073D01*
X109033515Y-131118831D01*
X109423461Y-130729564D01*
X109634759Y-130220702D01*
X109635240Y-129669715D01*
X109424831Y-129160485D01*
X109035564Y-128770539D01*
X108526702Y-128559241D01*
X107975715Y-128558760D01*
X107466485Y-128769169D01*
X107076539Y-129158436D01*
X106865241Y-129667298D01*
X106864760Y-130218285D01*
X107075169Y-130727515D01*
X107464436Y-131117461D01*
X107648585Y-131193926D01*
X107466485Y-131269169D01*
X107076539Y-131658436D01*
X106865241Y-132167298D01*
X106864760Y-132718285D01*
X107075169Y-133227515D01*
X107464436Y-133617461D01*
X107973298Y-133828759D01*
X108524285Y-133829240D01*
X109033515Y-133618831D01*
X109423461Y-133229564D01*
X109634759Y-132720702D01*
X109635240Y-132169715D01*
X109635240Y-134608371D01*
X109465372Y-135017459D01*
X109464630Y-135866815D01*
X109788980Y-136651800D01*
X110389041Y-137252909D01*
X111173459Y-137578628D01*
X112022815Y-137579370D01*
X112523000Y-137372697D01*
X112523000Y-138659000D01*
X112523000Y-138659000D01*
G37*
X112523000Y-138659000D02*
X106985370Y-138659000D01*
X106985370Y-135821185D01*
X106661020Y-135036200D01*
X106060959Y-134435091D01*
X105276541Y-134109372D01*
X104427185Y-134108630D01*
X103642200Y-134432980D01*
X103041091Y-135033041D01*
X102835240Y-135528784D01*
X102835240Y-132169715D01*
X102624831Y-131660485D01*
X102235564Y-131270539D01*
X102051414Y-131194073D01*
X102233515Y-131118831D01*
X102623461Y-130729564D01*
X102834759Y-130220702D01*
X102835240Y-129669715D01*
X102624831Y-129160485D01*
X102235564Y-128770539D01*
X101726702Y-128559241D01*
X101665927Y-128559187D01*
X101665927Y-122536520D01*
X101637148Y-122006801D01*
X101489800Y-121651071D01*
X101254188Y-121589417D01*
X101074583Y-121769022D01*
X101074583Y-121409812D01*
X101012929Y-121174200D01*
X100512520Y-120998073D01*
X99982801Y-121026852D01*
X99627071Y-121174200D01*
X99565417Y-121409812D01*
X100320000Y-122164395D01*
X101074583Y-121409812D01*
X101074583Y-121769022D01*
X100499605Y-122344000D01*
X101254188Y-123098583D01*
X101489800Y-123036929D01*
X101665927Y-122536520D01*
X101665927Y-128559187D01*
X101505927Y-128559048D01*
X101505927Y-126636520D01*
X101477148Y-126106801D01*
X101329800Y-125751071D01*
X101094188Y-125689417D01*
X101074583Y-125709022D01*
X101074583Y-123278188D01*
X100320000Y-122523605D01*
X100140395Y-122703210D01*
X100140395Y-122344000D01*
X99385812Y-121589417D01*
X99150200Y-121651071D01*
X99051916Y-121930311D01*
X98911146Y-121589620D01*
X98536353Y-121214173D01*
X98415639Y-121164048D01*
X98675789Y-120990222D01*
X98984126Y-120528762D01*
X99092400Y-119984433D01*
X99092400Y-119203567D01*
X99092400Y-112364433D01*
X99092400Y-111583567D01*
X98984126Y-111039238D01*
X98675789Y-110577778D01*
X98214329Y-110269441D01*
X97670000Y-110161167D01*
X97125671Y-110269441D01*
X96664211Y-110577778D01*
X96399999Y-110973198D01*
X96273731Y-110784223D01*
X96273731Y-106279914D01*
X96071146Y-105789620D01*
X95696353Y-105414173D01*
X95206413Y-105210732D01*
X94675914Y-105210269D01*
X94185620Y-105412854D01*
X93810173Y-105787647D01*
X93606732Y-106277587D01*
X93606269Y-106808086D01*
X93808854Y-107298380D01*
X94183647Y-107673827D01*
X94673587Y-107877268D01*
X95204086Y-107877731D01*
X95694380Y-107675146D01*
X96069827Y-107300353D01*
X96273268Y-106810413D01*
X96273731Y-106279914D01*
X96273731Y-110784223D01*
X96135789Y-110577778D01*
X95674329Y-110269441D01*
X95130000Y-110161167D01*
X94585671Y-110269441D01*
X94124211Y-110577778D01*
X94085927Y-110635073D01*
X94085927Y-109136520D01*
X94057148Y-108606801D01*
X93909800Y-108251071D01*
X93674188Y-108189417D01*
X93494583Y-108369022D01*
X93494583Y-108009812D01*
X93432929Y-107774200D01*
X92932520Y-107598073D01*
X92402801Y-107626852D01*
X92047071Y-107774200D01*
X91985417Y-108009812D01*
X92740000Y-108764395D01*
X93494583Y-108009812D01*
X93494583Y-108369022D01*
X92919605Y-108944000D01*
X93674188Y-109698583D01*
X93909800Y-109636929D01*
X94085927Y-109136520D01*
X94085927Y-110635073D01*
X93859999Y-110973198D01*
X93595789Y-110577778D01*
X93134329Y-110269441D01*
X93082207Y-110259073D01*
X93432929Y-110113800D01*
X93494583Y-109878188D01*
X92740000Y-109123605D01*
X92560395Y-109303210D01*
X92560395Y-108944000D01*
X91805812Y-108189417D01*
X91570200Y-108251071D01*
X91395927Y-108746212D01*
X91395927Y-106266520D01*
X91367148Y-105736801D01*
X91219800Y-105381071D01*
X90984188Y-105319417D01*
X90804583Y-105499022D01*
X90804583Y-105139812D01*
X90742929Y-104904200D01*
X90242520Y-104728073D01*
X89712801Y-104756852D01*
X89357071Y-104904200D01*
X89295417Y-105139812D01*
X90050000Y-105894395D01*
X90804583Y-105139812D01*
X90804583Y-105499022D01*
X90229605Y-106074000D01*
X90984188Y-106828583D01*
X91219800Y-106766929D01*
X91395927Y-106266520D01*
X91395927Y-108746212D01*
X91394073Y-108751480D01*
X91422852Y-109281199D01*
X91570200Y-109636929D01*
X91805812Y-109698583D01*
X92560395Y-108944000D01*
X92560395Y-109303210D01*
X91985417Y-109878188D01*
X92047071Y-110113800D01*
X92329097Y-110213063D01*
X92045671Y-110269441D01*
X91584211Y-110577778D01*
X91383731Y-110877817D01*
X91383731Y-108349914D01*
X91181146Y-107859620D01*
X90806353Y-107484173D01*
X90484881Y-107350686D01*
X90742929Y-107243800D01*
X90804583Y-107008188D01*
X90050000Y-106253605D01*
X89870395Y-106433210D01*
X89870395Y-106074000D01*
X89115812Y-105319417D01*
X88880200Y-105381071D01*
X88704073Y-105881480D01*
X88732852Y-106411199D01*
X88880200Y-106766929D01*
X89115812Y-106828583D01*
X89870395Y-106074000D01*
X89870395Y-106433210D01*
X89295417Y-107008188D01*
X89357071Y-107243800D01*
X89636311Y-107342083D01*
X89295620Y-107482854D01*
X88920173Y-107857647D01*
X88716732Y-108347587D01*
X88716269Y-108878086D01*
X88918854Y-109368380D01*
X89293647Y-109743827D01*
X89783587Y-109947268D01*
X90314086Y-109947731D01*
X90804380Y-109745146D01*
X91179827Y-109370353D01*
X91383268Y-108880413D01*
X91383731Y-108349914D01*
X91383731Y-110877817D01*
X91320000Y-110973198D01*
X91055789Y-110577778D01*
X90594329Y-110269441D01*
X90050000Y-110161167D01*
X89505671Y-110269441D01*
X89044211Y-110577778D01*
X88735874Y-111039238D01*
X88627600Y-111583567D01*
X88627600Y-112364433D01*
X88735874Y-112908762D01*
X89044211Y-113370222D01*
X89288000Y-113533116D01*
X89288000Y-113744000D01*
X89346004Y-114035605D01*
X89511185Y-114282815D01*
X90370500Y-115142130D01*
X90370313Y-115357784D01*
X90534311Y-115754689D01*
X90837714Y-116058622D01*
X91234332Y-116223313D01*
X91663784Y-116223687D01*
X92060689Y-116059689D01*
X92364622Y-115756286D01*
X92529313Y-115359668D01*
X92529687Y-114930216D01*
X92365689Y-114533311D01*
X92062286Y-114229378D01*
X91665668Y-114064687D01*
X91448127Y-114064497D01*
X90874790Y-113491160D01*
X91055789Y-113370222D01*
X91320000Y-112974801D01*
X91584211Y-113370222D01*
X92045671Y-113678559D01*
X92590000Y-113786833D01*
X93134329Y-113678559D01*
X93595789Y-113370222D01*
X93860000Y-112974801D01*
X94124211Y-113370222D01*
X94585671Y-113678559D01*
X95130000Y-113786833D01*
X95674329Y-113678559D01*
X96135789Y-113370222D01*
X96400000Y-112974801D01*
X96664211Y-113370222D01*
X97125671Y-113678559D01*
X97670000Y-113786833D01*
X98214329Y-113678559D01*
X98675789Y-113370222D01*
X98984126Y-112908762D01*
X99092400Y-112364433D01*
X99092400Y-119203567D01*
X98984126Y-118659238D01*
X98675789Y-118197778D01*
X98214329Y-117889441D01*
X97670000Y-117781167D01*
X97125671Y-117889441D01*
X96664211Y-118197778D01*
X96399999Y-118593198D01*
X96135789Y-118197778D01*
X95674329Y-117889441D01*
X95130000Y-117781167D01*
X94585671Y-117889441D01*
X94124211Y-118197778D01*
X93859999Y-118593198D01*
X93595789Y-118197778D01*
X93134329Y-117889441D01*
X92590000Y-117781167D01*
X92045671Y-117889441D01*
X91584211Y-118197778D01*
X91472400Y-118365115D01*
X91472400Y-118324691D01*
X91375727Y-118091302D01*
X91197099Y-117912673D01*
X90963710Y-117816000D01*
X90711091Y-117816000D01*
X89136291Y-117816000D01*
X88902902Y-117912673D01*
X88724273Y-118091301D01*
X88627600Y-118324690D01*
X88627600Y-118577309D01*
X88627600Y-120863309D01*
X88724273Y-121096698D01*
X88902901Y-121275327D01*
X89136290Y-121372000D01*
X89388909Y-121372000D01*
X90875593Y-121372000D01*
X90739311Y-121428311D01*
X90435378Y-121731714D01*
X90270687Y-122128332D01*
X90270313Y-122557784D01*
X90434311Y-122954689D01*
X90737714Y-123258622D01*
X91134332Y-123423313D01*
X91563784Y-123423687D01*
X91960689Y-123259689D01*
X92114646Y-123106000D01*
X94112136Y-123106000D01*
X93930173Y-123287647D01*
X93726732Y-123777587D01*
X93726269Y-124308086D01*
X93928854Y-124798380D01*
X94303647Y-125173827D01*
X94793587Y-125377268D01*
X95324086Y-125377731D01*
X95814380Y-125175146D01*
X96189827Y-124800353D01*
X96393268Y-124310413D01*
X96393731Y-123779914D01*
X96191146Y-123289620D01*
X96007845Y-123106000D01*
X96656460Y-123106000D01*
X97023647Y-123473827D01*
X97513587Y-123677268D01*
X98044086Y-123677731D01*
X98534380Y-123475146D01*
X98909827Y-123100353D01*
X99043313Y-122778881D01*
X99150200Y-123036929D01*
X99385812Y-123098583D01*
X100140395Y-122344000D01*
X100140395Y-122703210D01*
X99565417Y-123278188D01*
X99627071Y-123513800D01*
X100127480Y-123689927D01*
X100657199Y-123661148D01*
X101012929Y-123513800D01*
X101074583Y-123278188D01*
X101074583Y-125709022D01*
X100914583Y-125869022D01*
X100914583Y-125509812D01*
X100852929Y-125274200D01*
X100352520Y-125098073D01*
X99822801Y-125126852D01*
X99467071Y-125274200D01*
X99405417Y-125509812D01*
X100160000Y-126264395D01*
X100914583Y-125509812D01*
X100914583Y-125869022D01*
X100339605Y-126444000D01*
X101094188Y-127198583D01*
X101329800Y-127136929D01*
X101505927Y-126636520D01*
X101505927Y-128559048D01*
X101175715Y-128558760D01*
X100914583Y-128666657D01*
X100914583Y-127378188D01*
X100160000Y-126623605D01*
X99980395Y-126803210D01*
X99980395Y-126444000D01*
X99225812Y-125689417D01*
X98990200Y-125751071D01*
X98814073Y-126251480D01*
X98842852Y-126781199D01*
X98990200Y-127136929D01*
X99225812Y-127198583D01*
X99980395Y-126444000D01*
X99980395Y-126803210D01*
X99405417Y-127378188D01*
X99467071Y-127613800D01*
X99967480Y-127789927D01*
X100497199Y-127761148D01*
X100852929Y-127613800D01*
X100914583Y-127378188D01*
X100914583Y-128666657D01*
X100666485Y-128769169D01*
X100276539Y-129158436D01*
X100065241Y-129667298D01*
X100064760Y-130218285D01*
X100275169Y-130727515D01*
X100664436Y-131117461D01*
X100848585Y-131193926D01*
X100666485Y-131269169D01*
X100276539Y-131658436D01*
X100065241Y-132167298D01*
X100064760Y-132718285D01*
X100275169Y-133227515D01*
X100664436Y-133617461D01*
X101173298Y-133828759D01*
X101724285Y-133829240D01*
X102233515Y-133618831D01*
X102623461Y-133229564D01*
X102834759Y-132720702D01*
X102835240Y-132169715D01*
X102835240Y-135528784D01*
X102715372Y-135817459D01*
X102714630Y-136666815D01*
X103038980Y-137451800D01*
X103639041Y-138052909D01*
X104423459Y-138378628D01*
X105272815Y-138379370D01*
X106057800Y-138055020D01*
X106658909Y-137454959D01*
X106984628Y-136670541D01*
X106985370Y-135821185D01*
X106985370Y-138659000D01*
X100235370Y-138659000D01*
X100235370Y-135021185D01*
X99911020Y-134236200D01*
X99310959Y-133635091D01*
X98526541Y-133309372D01*
X97677185Y-133308630D01*
X96892200Y-133632980D01*
X96381036Y-134143252D01*
X96313970Y-134109635D01*
X96134365Y-134289240D01*
X96134365Y-133930030D01*
X95974582Y-133611261D01*
X95183813Y-133301277D01*
X94334613Y-133317503D01*
X93873731Y-133508406D01*
X93873731Y-126179914D01*
X93671146Y-125689620D01*
X93296353Y-125314173D01*
X92806413Y-125110732D01*
X92275914Y-125110269D01*
X91785620Y-125312854D01*
X91410173Y-125687647D01*
X91206732Y-126177587D01*
X91206269Y-126708086D01*
X91408854Y-127198380D01*
X91783647Y-127573827D01*
X92273587Y-127777268D01*
X92804086Y-127777731D01*
X93294380Y-127575146D01*
X93669827Y-127200353D01*
X93873268Y-126710413D01*
X93873731Y-126179914D01*
X93873731Y-133508406D01*
X93625418Y-133611261D01*
X93465635Y-133930030D01*
X94800000Y-135264395D01*
X96134365Y-133930030D01*
X96134365Y-134289240D01*
X94979605Y-135444000D01*
X96313970Y-136778365D01*
X96381522Y-136744504D01*
X96889041Y-137252909D01*
X97673459Y-137578628D01*
X98522815Y-137579370D01*
X99307800Y-137255020D01*
X99908909Y-136654959D01*
X100234628Y-135870541D01*
X100235370Y-135021185D01*
X100235370Y-138659000D01*
X96134365Y-138659000D01*
X96134365Y-136957970D01*
X94800000Y-135623605D01*
X94620395Y-135803210D01*
X94620395Y-135444000D01*
X93286030Y-134109635D01*
X92967261Y-134269418D01*
X92847201Y-134575690D01*
X92847201Y-132648829D01*
X92835240Y-132413518D01*
X92835240Y-129669715D01*
X92624831Y-129160485D01*
X92235564Y-128770539D01*
X91726702Y-128559241D01*
X91175715Y-128558760D01*
X90666485Y-128769169D01*
X90276539Y-129158436D01*
X90065241Y-129667298D01*
X90064760Y-130218285D01*
X90275169Y-130727515D01*
X90664436Y-131117461D01*
X90832754Y-131187352D01*
X90726077Y-131231540D01*
X90658088Y-131472483D01*
X91450000Y-132264395D01*
X92241912Y-131472483D01*
X92173923Y-131231540D01*
X92059388Y-131190778D01*
X92233515Y-131118831D01*
X92623461Y-130729564D01*
X92834759Y-130220702D01*
X92835240Y-129669715D01*
X92835240Y-132413518D01*
X92819230Y-132098552D01*
X92662460Y-131720077D01*
X92421517Y-131652088D01*
X91629605Y-132444000D01*
X92421517Y-133235912D01*
X92662460Y-133167923D01*
X92847201Y-132648829D01*
X92847201Y-134575690D01*
X92657277Y-135060187D01*
X92673503Y-135909387D01*
X92967261Y-136618582D01*
X93286030Y-136778365D01*
X94620395Y-135444000D01*
X94620395Y-135803210D01*
X93465635Y-136957970D01*
X93625418Y-137276739D01*
X94416187Y-137586723D01*
X95265387Y-137570497D01*
X95974582Y-137276739D01*
X96134365Y-136957970D01*
X96134365Y-138659000D01*
X92241912Y-138659000D01*
X92241912Y-133415517D01*
X91450000Y-132623605D01*
X91270395Y-132803210D01*
X91270395Y-132444000D01*
X90478483Y-131652088D01*
X90237540Y-131720077D01*
X90052799Y-132239171D01*
X90080770Y-132789448D01*
X90237540Y-133167923D01*
X90478483Y-133235912D01*
X91270395Y-132444000D01*
X91270395Y-132803210D01*
X90658088Y-133415517D01*
X90726077Y-133656460D01*
X91245171Y-133841201D01*
X91795448Y-133813230D01*
X92173923Y-133656460D01*
X92241912Y-133415517D01*
X92241912Y-138659000D01*
X90192723Y-138659000D01*
X90192723Y-136627813D01*
X90176497Y-135778613D01*
X89882739Y-135069418D01*
X89563970Y-134909635D01*
X89384365Y-135089240D01*
X89384365Y-134730030D01*
X89224582Y-134411261D01*
X88785927Y-134239306D01*
X88785927Y-124236520D01*
X88757148Y-123706801D01*
X88609800Y-123351071D01*
X88374188Y-123289417D01*
X88194583Y-123469022D01*
X88194583Y-123109812D01*
X88132929Y-122874200D01*
X87928573Y-122802273D01*
X88029313Y-122559668D01*
X88029687Y-122130216D01*
X87865689Y-121733311D01*
X87712000Y-121579353D01*
X87712000Y-118808641D01*
X87864622Y-118656286D01*
X88029313Y-118259668D01*
X88029687Y-117830216D01*
X87865689Y-117433311D01*
X87562286Y-117129378D01*
X87165668Y-116964687D01*
X86736216Y-116964313D01*
X86547242Y-117042395D01*
X86547242Y-104767339D01*
X86335010Y-104253697D01*
X85942370Y-103860371D01*
X85429100Y-103647243D01*
X84873339Y-103646758D01*
X84359697Y-103858990D01*
X83966371Y-104251630D01*
X83753243Y-104764900D01*
X83752758Y-105320661D01*
X83964990Y-105834303D01*
X84357630Y-106227629D01*
X84870900Y-106440757D01*
X85426661Y-106441242D01*
X85940303Y-106229010D01*
X86333629Y-105836370D01*
X86546757Y-105323100D01*
X86547242Y-104767339D01*
X86547242Y-117042395D01*
X86339311Y-117128311D01*
X86274463Y-117193045D01*
X85942370Y-116860371D01*
X85429100Y-116647243D01*
X84873339Y-116646758D01*
X84359697Y-116858990D01*
X83966371Y-117251630D01*
X83753243Y-117764900D01*
X83752758Y-118320661D01*
X83964990Y-118834303D01*
X84357630Y-119227629D01*
X84870900Y-119440757D01*
X85426661Y-119441242D01*
X85940303Y-119229010D01*
X86188000Y-118981745D01*
X86188000Y-121579358D01*
X86035378Y-121731714D01*
X85870687Y-122128332D01*
X85870313Y-122557784D01*
X86034311Y-122954689D01*
X86337714Y-123258622D01*
X86448189Y-123304495D01*
X86270200Y-123351071D01*
X86094073Y-123851480D01*
X86122852Y-124381199D01*
X86270200Y-124736929D01*
X86505812Y-124798583D01*
X87260395Y-124044000D01*
X87246252Y-124029857D01*
X87425857Y-123850252D01*
X87440000Y-123864395D01*
X88194583Y-123109812D01*
X88194583Y-123469022D01*
X87619605Y-124044000D01*
X88374188Y-124798583D01*
X88609800Y-124736929D01*
X88785927Y-124236520D01*
X88785927Y-134239306D01*
X88433813Y-134101277D01*
X88194583Y-134105848D01*
X88194583Y-124978188D01*
X87440000Y-124223605D01*
X86685417Y-124978188D01*
X86747071Y-125213800D01*
X87247480Y-125389927D01*
X87777199Y-125361148D01*
X88132929Y-125213800D01*
X88194583Y-124978188D01*
X88194583Y-134105848D01*
X87584613Y-134117503D01*
X86875418Y-134411261D01*
X86715635Y-134730030D01*
X88050000Y-136064395D01*
X89384365Y-134730030D01*
X89384365Y-135089240D01*
X88229605Y-136244000D01*
X89563970Y-137578365D01*
X89882739Y-137418582D01*
X90192723Y-136627813D01*
X90192723Y-138659000D01*
X89384365Y-138659000D01*
X89384365Y-137757970D01*
X88050000Y-136423605D01*
X87870395Y-136603210D01*
X87870395Y-136244000D01*
X86536030Y-134909635D01*
X86217261Y-135069418D01*
X86047201Y-135503240D01*
X86047201Y-132648829D01*
X86035240Y-132413518D01*
X86035240Y-129669715D01*
X85824831Y-129160485D01*
X85435564Y-128770539D01*
X84926702Y-128559241D01*
X84375715Y-128558760D01*
X83866485Y-128769169D01*
X83476539Y-129158436D01*
X83265241Y-129667298D01*
X83264760Y-130218285D01*
X83475169Y-130727515D01*
X83864436Y-131117461D01*
X84032754Y-131187352D01*
X83926077Y-131231540D01*
X83858088Y-131472483D01*
X84650000Y-132264395D01*
X85441912Y-131472483D01*
X85373923Y-131231540D01*
X85259388Y-131190778D01*
X85433515Y-131118831D01*
X85823461Y-130729564D01*
X86034759Y-130220702D01*
X86035240Y-129669715D01*
X86035240Y-132413518D01*
X86019230Y-132098552D01*
X85862460Y-131720077D01*
X85621517Y-131652088D01*
X84829605Y-132444000D01*
X85621517Y-133235912D01*
X85862460Y-133167923D01*
X86047201Y-132648829D01*
X86047201Y-135503240D01*
X85907277Y-135860187D01*
X85923503Y-136709387D01*
X86217261Y-137418582D01*
X86536030Y-137578365D01*
X87870395Y-136244000D01*
X87870395Y-136603210D01*
X86715635Y-137757970D01*
X86875418Y-138076739D01*
X87666187Y-138386723D01*
X88515387Y-138370497D01*
X89224582Y-138076739D01*
X89384365Y-137757970D01*
X89384365Y-138659000D01*
X85441912Y-138659000D01*
X85441912Y-133415517D01*
X84650000Y-132623605D01*
X84470395Y-132803210D01*
X84470395Y-132444000D01*
X83678483Y-131652088D01*
X83437540Y-131720077D01*
X83252799Y-132239171D01*
X83280770Y-132789448D01*
X83437540Y-133167923D01*
X83678483Y-133235912D01*
X84470395Y-132444000D01*
X84470395Y-132803210D01*
X83858088Y-133415517D01*
X83926077Y-133656460D01*
X84445171Y-133841201D01*
X84995448Y-133813230D01*
X85373923Y-133656460D01*
X85441912Y-133415517D01*
X85441912Y-138659000D01*
X83442723Y-138659000D01*
X83442723Y-135827813D01*
X83426497Y-134978613D01*
X83132739Y-134269418D01*
X82813970Y-134109635D01*
X82634365Y-134289240D01*
X82634365Y-133930030D01*
X82474582Y-133611261D01*
X81981786Y-133418083D01*
X81981786Y-125744000D01*
X81880165Y-125233118D01*
X81653574Y-124894000D01*
X81880165Y-124554882D01*
X81981786Y-124044000D01*
X81880165Y-123533118D01*
X81653574Y-123194000D01*
X81880165Y-122854882D01*
X81981786Y-122344000D01*
X81880165Y-121833118D01*
X81653574Y-121494000D01*
X81880165Y-121154882D01*
X81981786Y-120644000D01*
X81981786Y-112494000D01*
X81880165Y-111983118D01*
X81653574Y-111644000D01*
X81880165Y-111304882D01*
X81981786Y-110794000D01*
X81880165Y-110283118D01*
X81653574Y-109944000D01*
X81880165Y-109604882D01*
X81981786Y-109094000D01*
X81880165Y-108583118D01*
X81653574Y-108244000D01*
X81880165Y-107904882D01*
X81981786Y-107394000D01*
X81880165Y-106883118D01*
X81811593Y-106780492D01*
X81838387Y-106753699D01*
X81935060Y-106520310D01*
X81935060Y-106267691D01*
X81935060Y-104867691D01*
X81838387Y-104634302D01*
X81659759Y-104455673D01*
X81426370Y-104359000D01*
X81173751Y-104359000D01*
X77673631Y-104359000D01*
X77440242Y-104455673D01*
X77261613Y-104634301D01*
X77164940Y-104867690D01*
X77164940Y-105120309D01*
X77164940Y-105551430D01*
X76811185Y-105905185D01*
X76646004Y-106152395D01*
X76588000Y-106444000D01*
X76588000Y-108744000D01*
X76646004Y-109035605D01*
X76811185Y-109282815D01*
X77161185Y-109632816D01*
X77300857Y-109726141D01*
X77446425Y-109944000D01*
X77219835Y-110283118D01*
X77118214Y-110794000D01*
X77219835Y-111304882D01*
X77446425Y-111644000D01*
X77219835Y-111983118D01*
X77118214Y-112494000D01*
X77219835Y-113004882D01*
X77509226Y-113437988D01*
X77942332Y-113727379D01*
X78453214Y-113829000D01*
X80646786Y-113829000D01*
X81157668Y-113727379D01*
X81590774Y-113437988D01*
X81880165Y-113004882D01*
X81981786Y-112494000D01*
X81981786Y-120644000D01*
X81880165Y-120133118D01*
X81811593Y-120030492D01*
X81838387Y-120003699D01*
X81935060Y-119770310D01*
X81935060Y-119517691D01*
X81935060Y-118117691D01*
X81838387Y-117884302D01*
X81659759Y-117705673D01*
X81426370Y-117609000D01*
X81173751Y-117609000D01*
X77673631Y-117609000D01*
X77440242Y-117705673D01*
X77261613Y-117884301D01*
X77164940Y-118117690D01*
X77164940Y-118370309D01*
X77164940Y-118851430D01*
X76811185Y-119205185D01*
X76646004Y-119452395D01*
X76588000Y-119744000D01*
X76588000Y-121844000D01*
X76646004Y-122135605D01*
X76811185Y-122382815D01*
X77204088Y-122775719D01*
X77219835Y-122854882D01*
X77446425Y-123194000D01*
X77219835Y-123533118D01*
X77118214Y-124044000D01*
X77219835Y-124554882D01*
X77446425Y-124894000D01*
X77219835Y-125233118D01*
X77118214Y-125744000D01*
X77219835Y-126254882D01*
X77509226Y-126687988D01*
X77942332Y-126977379D01*
X78453214Y-127079000D01*
X80646786Y-127079000D01*
X81157668Y-126977379D01*
X81590774Y-126687988D01*
X81880165Y-126254882D01*
X81981786Y-125744000D01*
X81981786Y-133418083D01*
X81683813Y-133301277D01*
X80852166Y-133317167D01*
X81233629Y-132936370D01*
X81446757Y-132423100D01*
X81447242Y-131867339D01*
X81235010Y-131353697D01*
X80842370Y-130960371D01*
X80329100Y-130747243D01*
X79773339Y-130746758D01*
X79259697Y-130958990D01*
X78866371Y-131351630D01*
X78653243Y-131864900D01*
X78652758Y-132420661D01*
X78864990Y-132934303D01*
X79257630Y-133327629D01*
X79770900Y-133540757D01*
X80294526Y-133541213D01*
X80125418Y-133611261D01*
X79965635Y-133930030D01*
X81300000Y-135264395D01*
X82634365Y-133930030D01*
X82634365Y-134289240D01*
X81479605Y-135444000D01*
X82813970Y-136778365D01*
X83132739Y-136618582D01*
X83442723Y-135827813D01*
X83442723Y-138659000D01*
X82634365Y-138659000D01*
X82634365Y-136957970D01*
X81300000Y-135623605D01*
X81120395Y-135803210D01*
X81120395Y-135444000D01*
X79786030Y-134109635D01*
X79467261Y-134269418D01*
X79157277Y-135060187D01*
X79173503Y-135909387D01*
X79467261Y-136618582D01*
X79786030Y-136778365D01*
X81120395Y-135444000D01*
X81120395Y-135803210D01*
X79965635Y-136957970D01*
X80125418Y-137276739D01*
X80916187Y-137586723D01*
X81765387Y-137570497D01*
X82474582Y-137276739D01*
X82634365Y-136957970D01*
X82634365Y-138659000D01*
X76147767Y-138659000D01*
X76147767Y-128398966D01*
X76147767Y-120098966D01*
X76147767Y-115198966D01*
X76147767Y-106798966D01*
X76119805Y-106248462D01*
X75962931Y-105869735D01*
X75721930Y-105801675D01*
X75542325Y-105981280D01*
X75542325Y-105622070D01*
X75474265Y-105381069D01*
X74954966Y-105196233D01*
X74404462Y-105224195D01*
X74025735Y-105381069D01*
X73957675Y-105622070D01*
X74750000Y-106414395D01*
X75542325Y-105622070D01*
X75542325Y-105981280D01*
X74929605Y-106594000D01*
X75721930Y-107386325D01*
X75962931Y-107318265D01*
X76147767Y-106798966D01*
X76147767Y-115198966D01*
X76135810Y-114963561D01*
X76135810Y-112219602D01*
X76135810Y-108819602D01*
X75925314Y-108310163D01*
X75535887Y-107920056D01*
X75368728Y-107850645D01*
X75474265Y-107806931D01*
X75542325Y-107565930D01*
X74750000Y-106773605D01*
X74570395Y-106953210D01*
X74570395Y-106594000D01*
X73778070Y-105801675D01*
X73537069Y-105869735D01*
X73352233Y-106389034D01*
X73380195Y-106939538D01*
X73537069Y-107318265D01*
X73778070Y-107386325D01*
X74570395Y-106594000D01*
X74570395Y-106953210D01*
X73957675Y-107565930D01*
X74025735Y-107806931D01*
X74139032Y-107847257D01*
X73966163Y-107918686D01*
X73576056Y-108308113D01*
X73364671Y-108817184D01*
X73364190Y-109368398D01*
X73574686Y-109877837D01*
X73964113Y-110267944D01*
X74473184Y-110479329D01*
X75024398Y-110479810D01*
X75533837Y-110269314D01*
X75923944Y-109879887D01*
X76135329Y-109370816D01*
X76135810Y-108819602D01*
X76135810Y-112219602D01*
X75925314Y-111710163D01*
X75535887Y-111320056D01*
X75026816Y-111108671D01*
X74475602Y-111108190D01*
X73966163Y-111318686D01*
X73576056Y-111708113D01*
X73364671Y-112217184D01*
X73364190Y-112768398D01*
X73574686Y-113277837D01*
X73964113Y-113667944D01*
X74131271Y-113737354D01*
X74025735Y-113781069D01*
X73957675Y-114022070D01*
X74750000Y-114814395D01*
X75542325Y-114022070D01*
X75474265Y-113781069D01*
X75360967Y-113740742D01*
X75533837Y-113669314D01*
X75923944Y-113279887D01*
X76135329Y-112770816D01*
X76135810Y-112219602D01*
X76135810Y-114963561D01*
X76119805Y-114648462D01*
X75962931Y-114269735D01*
X75721930Y-114201675D01*
X74929605Y-114994000D01*
X75721930Y-115786325D01*
X75962931Y-115718265D01*
X76147767Y-115198966D01*
X76147767Y-120098966D01*
X76119805Y-119548462D01*
X75962931Y-119169735D01*
X75721930Y-119101675D01*
X75542325Y-119281280D01*
X75542325Y-118922070D01*
X75542325Y-115965930D01*
X74750000Y-115173605D01*
X74570395Y-115353210D01*
X74570395Y-114994000D01*
X73778070Y-114201675D01*
X73537069Y-114269735D01*
X73352233Y-114789034D01*
X73380195Y-115339538D01*
X73537069Y-115718265D01*
X73778070Y-115786325D01*
X74570395Y-114994000D01*
X74570395Y-115353210D01*
X73957675Y-115965930D01*
X74025735Y-116206931D01*
X74545034Y-116391767D01*
X75095538Y-116363805D01*
X75474265Y-116206931D01*
X75542325Y-115965930D01*
X75542325Y-118922070D01*
X75474265Y-118681069D01*
X74954966Y-118496233D01*
X74404462Y-118524195D01*
X74025735Y-118681069D01*
X73957675Y-118922070D01*
X74750000Y-119714395D01*
X75542325Y-118922070D01*
X75542325Y-119281280D01*
X74929605Y-119894000D01*
X75721930Y-120686325D01*
X75962931Y-120618265D01*
X76147767Y-120098966D01*
X76147767Y-128398966D01*
X76135810Y-128163561D01*
X76135810Y-125419602D01*
X76135810Y-122119602D01*
X75925314Y-121610163D01*
X75535887Y-121220056D01*
X75368728Y-121150645D01*
X75474265Y-121106931D01*
X75542325Y-120865930D01*
X74750000Y-120073605D01*
X74570395Y-120253210D01*
X74570395Y-119894000D01*
X73778070Y-119101675D01*
X73537069Y-119169735D01*
X73352233Y-119689034D01*
X73380195Y-120239538D01*
X73537069Y-120618265D01*
X73778070Y-120686325D01*
X74570395Y-119894000D01*
X74570395Y-120253210D01*
X73957675Y-120865930D01*
X74025735Y-121106931D01*
X74139032Y-121147257D01*
X73966163Y-121218686D01*
X73576056Y-121608113D01*
X73364671Y-122117184D01*
X73364190Y-122668398D01*
X73574686Y-123177837D01*
X73964113Y-123567944D01*
X74473184Y-123779329D01*
X75024398Y-123779810D01*
X75533837Y-123569314D01*
X75923944Y-123179887D01*
X76135329Y-122670816D01*
X76135810Y-122119602D01*
X76135810Y-125419602D01*
X75925314Y-124910163D01*
X75535887Y-124520056D01*
X75026816Y-124308671D01*
X74475602Y-124308190D01*
X73966163Y-124518686D01*
X73576056Y-124908113D01*
X73364671Y-125417184D01*
X73364190Y-125968398D01*
X73574686Y-126477837D01*
X73964113Y-126867944D01*
X74131271Y-126937354D01*
X74025735Y-126981069D01*
X73957675Y-127222070D01*
X74750000Y-128014395D01*
X75542325Y-127222070D01*
X75474265Y-126981069D01*
X75360967Y-126940742D01*
X75533837Y-126869314D01*
X75923944Y-126479887D01*
X76135329Y-125970816D01*
X76135810Y-125419602D01*
X76135810Y-128163561D01*
X76119805Y-127848462D01*
X75962931Y-127469735D01*
X75721930Y-127401675D01*
X74929605Y-128194000D01*
X75721930Y-128986325D01*
X75962931Y-128918265D01*
X76147767Y-128398966D01*
X76147767Y-138659000D01*
X75917462Y-138659000D01*
X75917462Y-134115828D01*
X75542325Y-133207926D01*
X75542325Y-129165930D01*
X74750000Y-128373605D01*
X74570395Y-128553210D01*
X74570395Y-128194000D01*
X73778070Y-127401675D01*
X73537069Y-127469735D01*
X73352233Y-127989034D01*
X73380195Y-128539538D01*
X73537069Y-128918265D01*
X73778070Y-128986325D01*
X74570395Y-128194000D01*
X74570395Y-128553210D01*
X73957675Y-129165930D01*
X74025735Y-129406931D01*
X74545034Y-129591767D01*
X75095538Y-129563805D01*
X75474265Y-129406931D01*
X75542325Y-129165930D01*
X75542325Y-133207926D01*
X75512291Y-133135239D01*
X74762707Y-132384345D01*
X73782827Y-131977464D01*
X72721828Y-131976538D01*
X72712000Y-131980598D01*
X72712000Y-121844000D01*
X72712000Y-119744000D01*
X72653996Y-119452396D01*
X72653996Y-119452395D01*
X72512000Y-119239883D01*
X72512000Y-108644000D01*
X72512000Y-106644000D01*
X72453996Y-106352396D01*
X72453996Y-106352395D01*
X72288815Y-106105185D01*
X71935060Y-105751430D01*
X71935060Y-104867691D01*
X71838387Y-104634302D01*
X71659759Y-104455673D01*
X71426370Y-104359000D01*
X71173751Y-104359000D01*
X67673631Y-104359000D01*
X67440242Y-104455673D01*
X67261613Y-104634301D01*
X67228871Y-104713345D01*
X67169387Y-104569736D01*
X66902532Y-104471073D01*
X66722927Y-104650678D01*
X66722927Y-104291468D01*
X66624264Y-104024613D01*
X66014539Y-103798092D01*
X65364540Y-103822144D01*
X64875736Y-104024613D01*
X64777073Y-104291468D01*
X65750000Y-105264395D01*
X66722927Y-104291468D01*
X66722927Y-104650678D01*
X65929605Y-105444000D01*
X66902532Y-106416927D01*
X67164940Y-106319908D01*
X67164940Y-106520309D01*
X67261613Y-106753698D01*
X67288407Y-106780492D01*
X67219835Y-106883118D01*
X67118214Y-107394000D01*
X67219835Y-107904882D01*
X67446425Y-108244000D01*
X67219835Y-108583118D01*
X67118214Y-109094000D01*
X67219835Y-109604882D01*
X67446425Y-109944000D01*
X67219835Y-110283118D01*
X67147242Y-110648066D01*
X67147242Y-109967339D01*
X66935010Y-109453697D01*
X66722927Y-109241243D01*
X66722927Y-106596532D01*
X65750000Y-105623605D01*
X65570395Y-105803210D01*
X65570395Y-105444000D01*
X64597468Y-104471073D01*
X64330613Y-104569736D01*
X64104092Y-105179461D01*
X64128144Y-105829460D01*
X64330613Y-106318264D01*
X64597468Y-106416927D01*
X65570395Y-105444000D01*
X65570395Y-105803210D01*
X64777073Y-106596532D01*
X64875736Y-106863387D01*
X65485461Y-107089908D01*
X66135460Y-107065856D01*
X66624264Y-106863387D01*
X66722927Y-106596532D01*
X66722927Y-109241243D01*
X66542370Y-109060371D01*
X66029100Y-108847243D01*
X65473339Y-108846758D01*
X64959697Y-109058990D01*
X64566371Y-109451630D01*
X64353243Y-109964900D01*
X64352758Y-110520661D01*
X64564990Y-111034303D01*
X64957630Y-111427629D01*
X65470900Y-111640757D01*
X66026661Y-111641242D01*
X66540303Y-111429010D01*
X66933629Y-111036370D01*
X67146757Y-110523100D01*
X67147242Y-109967339D01*
X67147242Y-110648066D01*
X67118214Y-110794000D01*
X67219835Y-111304882D01*
X67446425Y-111644000D01*
X67219835Y-111983118D01*
X67118214Y-112494000D01*
X67219835Y-113004882D01*
X67509226Y-113437988D01*
X67942332Y-113727379D01*
X68453214Y-113829000D01*
X70646786Y-113829000D01*
X71157668Y-113727379D01*
X71590774Y-113437988D01*
X71880165Y-113004882D01*
X71981786Y-112494000D01*
X71880165Y-111983118D01*
X71653574Y-111644000D01*
X71880165Y-111304882D01*
X71981786Y-110794000D01*
X71880165Y-110283118D01*
X71653574Y-109944000D01*
X71880165Y-109604882D01*
X71883496Y-109588133D01*
X72288815Y-109182815D01*
X72453996Y-108935605D01*
X72511999Y-108644000D01*
X72512000Y-108644000D01*
X72512000Y-119239883D01*
X72488815Y-119205185D01*
X71935060Y-118651430D01*
X71935060Y-118117691D01*
X71838387Y-117884302D01*
X71659759Y-117705673D01*
X71426370Y-117609000D01*
X71173751Y-117609000D01*
X67673631Y-117609000D01*
X67440242Y-117705673D01*
X67261613Y-117884301D01*
X67164940Y-118117690D01*
X67164940Y-118370309D01*
X67164940Y-119346452D01*
X67077363Y-119258722D01*
X66476648Y-119009284D01*
X65826205Y-119008716D01*
X65225057Y-119257106D01*
X65035257Y-119446574D01*
X65035257Y-114949911D01*
X64809656Y-114403914D01*
X64392283Y-113985812D01*
X63846681Y-113759258D01*
X63255911Y-113758743D01*
X62709914Y-113984344D01*
X62550087Y-114143891D01*
X62392283Y-113985812D01*
X61846681Y-113759258D01*
X61255911Y-113758743D01*
X60709914Y-113984344D01*
X60291812Y-114401717D01*
X60065258Y-114947319D01*
X60064743Y-115538089D01*
X60290344Y-116084086D01*
X60707717Y-116502188D01*
X61253319Y-116728742D01*
X61844089Y-116729257D01*
X62390086Y-116503656D01*
X62549912Y-116344108D01*
X62707717Y-116502188D01*
X63253319Y-116728742D01*
X63844089Y-116729257D01*
X64390086Y-116503656D01*
X64808188Y-116086283D01*
X65034742Y-115540681D01*
X65035257Y-114949911D01*
X65035257Y-119446574D01*
X64764722Y-119716637D01*
X64515284Y-120317352D01*
X64514716Y-120967795D01*
X64763106Y-121568943D01*
X65222637Y-122029278D01*
X65823352Y-122278716D01*
X66473795Y-122279284D01*
X67074943Y-122030894D01*
X67206646Y-121899420D01*
X67118214Y-122344000D01*
X67219835Y-122854882D01*
X67446425Y-123194000D01*
X67219835Y-123533118D01*
X67118214Y-124044000D01*
X67215721Y-124534199D01*
X66942370Y-124260371D01*
X66429100Y-124047243D01*
X65873339Y-124046758D01*
X65359697Y-124258990D01*
X64966371Y-124651630D01*
X64753243Y-125164900D01*
X64752758Y-125720661D01*
X64964990Y-126234303D01*
X65357630Y-126627629D01*
X65870900Y-126840757D01*
X66426661Y-126841242D01*
X66940303Y-126629010D01*
X67257946Y-126311920D01*
X67509226Y-126687988D01*
X67942332Y-126977379D01*
X68453214Y-127079000D01*
X70646786Y-127079000D01*
X71157668Y-126977379D01*
X71590774Y-126687988D01*
X71880165Y-126254882D01*
X71981786Y-125744000D01*
X71880165Y-125233118D01*
X71653574Y-124894000D01*
X71880165Y-124554882D01*
X71981786Y-124044000D01*
X71880165Y-123533118D01*
X71653574Y-123194000D01*
X71758814Y-123036497D01*
X71758814Y-123036496D01*
X71988815Y-122882815D01*
X72488815Y-122382815D01*
X72488816Y-122382815D01*
X72587834Y-122234623D01*
X72653996Y-122135605D01*
X72653996Y-122135604D01*
X72712000Y-121844000D01*
X72712000Y-131980598D01*
X71741239Y-132381709D01*
X70990345Y-133131293D01*
X70583464Y-134111173D01*
X70582538Y-135172172D01*
X70987709Y-136152761D01*
X71737293Y-136903655D01*
X72717173Y-137310536D01*
X73778172Y-137311462D01*
X74758761Y-136906291D01*
X75509655Y-136156707D01*
X75916536Y-135176827D01*
X75917462Y-134115828D01*
X75917462Y-138659000D01*
X68447242Y-138659000D01*
X68447242Y-131867339D01*
X68235010Y-131353697D01*
X67842370Y-130960371D01*
X67329100Y-130747243D01*
X66773339Y-130746758D01*
X66259697Y-130958990D01*
X65866371Y-131351630D01*
X65653243Y-131864900D01*
X65652758Y-132420661D01*
X65864990Y-132934303D01*
X66257630Y-133327629D01*
X66770900Y-133540757D01*
X67326661Y-133541242D01*
X67840303Y-133329010D01*
X68233629Y-132936370D01*
X68446757Y-132423100D01*
X68447242Y-131867339D01*
X68447242Y-138659000D01*
X65742723Y-138659000D01*
X65742723Y-135827813D01*
X65726497Y-134978613D01*
X65432739Y-134269418D01*
X65113970Y-134109635D01*
X64934365Y-134289240D01*
X64934365Y-133930030D01*
X64774582Y-133611261D01*
X63983813Y-133301277D01*
X63134613Y-133317503D01*
X62425418Y-133611261D01*
X62265635Y-133930030D01*
X63600000Y-135264395D01*
X64934365Y-133930030D01*
X64934365Y-134289240D01*
X63779605Y-135444000D01*
X65113970Y-136778365D01*
X65432739Y-136618582D01*
X65742723Y-135827813D01*
X65742723Y-138659000D01*
X64934365Y-138659000D01*
X64934365Y-136957970D01*
X63600000Y-135623605D01*
X63420395Y-135803210D01*
X63420395Y-135444000D01*
X62086030Y-134109635D01*
X61767261Y-134269418D01*
X61647201Y-134575690D01*
X61647201Y-132648829D01*
X61635240Y-132413518D01*
X61635240Y-129669715D01*
X61424831Y-129160485D01*
X61035564Y-128770539D01*
X60526702Y-128559241D01*
X59975715Y-128558760D01*
X59466485Y-128769169D01*
X59076539Y-129158436D01*
X58865241Y-129667298D01*
X58864760Y-130218285D01*
X59075169Y-130727515D01*
X59464436Y-131117461D01*
X59632754Y-131187352D01*
X59526077Y-131231540D01*
X59458088Y-131472483D01*
X60250000Y-132264395D01*
X61041912Y-131472483D01*
X60973923Y-131231540D01*
X60859388Y-131190778D01*
X61033515Y-131118831D01*
X61423461Y-130729564D01*
X61634759Y-130220702D01*
X61635240Y-129669715D01*
X61635240Y-132413518D01*
X61619230Y-132098552D01*
X61462460Y-131720077D01*
X61221517Y-131652088D01*
X60429605Y-132444000D01*
X61221517Y-133235912D01*
X61462460Y-133167923D01*
X61647201Y-132648829D01*
X61647201Y-134575690D01*
X61457277Y-135060187D01*
X61473503Y-135909387D01*
X61767261Y-136618582D01*
X62086030Y-136778365D01*
X63420395Y-135444000D01*
X63420395Y-135803210D01*
X62265635Y-136957970D01*
X62425418Y-137276739D01*
X63216187Y-137586723D01*
X64065387Y-137570497D01*
X64774582Y-137276739D01*
X64934365Y-136957970D01*
X64934365Y-138659000D01*
X61041912Y-138659000D01*
X61041912Y-133415517D01*
X60250000Y-132623605D01*
X60070395Y-132803210D01*
X60070395Y-132444000D01*
X59278483Y-131652088D01*
X59037540Y-131720077D01*
X58852799Y-132239171D01*
X58880770Y-132789448D01*
X59037540Y-133167923D01*
X59278483Y-133235912D01*
X60070395Y-132444000D01*
X60070395Y-132803210D01*
X59458088Y-133415517D01*
X59526077Y-133656460D01*
X60045171Y-133841201D01*
X60595448Y-133813230D01*
X60973923Y-133656460D01*
X61041912Y-133415517D01*
X61041912Y-138659000D01*
X58992723Y-138659000D01*
X58992723Y-136627813D01*
X58976497Y-135778613D01*
X58682739Y-135069418D01*
X58363970Y-134909635D01*
X58184365Y-135089240D01*
X58184365Y-134730030D01*
X58024582Y-134411261D01*
X57233813Y-134101277D01*
X56384613Y-134117503D01*
X55675418Y-134411261D01*
X55515635Y-134730030D01*
X56850000Y-136064395D01*
X58184365Y-134730030D01*
X58184365Y-135089240D01*
X57029605Y-136244000D01*
X58363970Y-137578365D01*
X58682739Y-137418582D01*
X58992723Y-136627813D01*
X58992723Y-138659000D01*
X58184365Y-138659000D01*
X58184365Y-137757970D01*
X56850000Y-136423605D01*
X56670395Y-136603210D01*
X56670395Y-136244000D01*
X55336030Y-134909635D01*
X55017261Y-135069418D01*
X54847201Y-135503240D01*
X54847201Y-132648829D01*
X54835240Y-132413518D01*
X54835240Y-129669715D01*
X54624831Y-129160485D01*
X54547242Y-129082760D01*
X54547242Y-125167339D01*
X54335010Y-124653697D01*
X54235257Y-124553769D01*
X54235257Y-114949911D01*
X54147242Y-114736898D01*
X54147242Y-109967339D01*
X53935010Y-109453697D01*
X53542370Y-109060371D01*
X53029100Y-108847243D01*
X52473339Y-108846758D01*
X52385284Y-108883141D01*
X52385284Y-105120205D01*
X52136894Y-104519057D01*
X51677363Y-104058722D01*
X51076648Y-103809284D01*
X50426205Y-103808716D01*
X49825057Y-104057106D01*
X49364722Y-104516637D01*
X49115284Y-105117352D01*
X49114716Y-105767795D01*
X49363106Y-106368943D01*
X49822637Y-106829278D01*
X50423352Y-107078716D01*
X51073795Y-107079284D01*
X51674943Y-106830894D01*
X52135278Y-106371363D01*
X52384716Y-105770648D01*
X52385284Y-105120205D01*
X52385284Y-108883141D01*
X51959697Y-109058990D01*
X51566371Y-109451630D01*
X51353243Y-109964900D01*
X51352758Y-110520661D01*
X51564990Y-111034303D01*
X51957630Y-111427629D01*
X52470900Y-111640757D01*
X53026661Y-111641242D01*
X53540303Y-111429010D01*
X53933629Y-111036370D01*
X54146757Y-110523100D01*
X54147242Y-109967339D01*
X54147242Y-114736898D01*
X54009656Y-114403914D01*
X53592283Y-113985812D01*
X53046681Y-113759258D01*
X52455911Y-113758743D01*
X51909914Y-113984344D01*
X51750087Y-114143891D01*
X51592283Y-113985812D01*
X51046681Y-113759258D01*
X50455911Y-113758743D01*
X49909914Y-113984344D01*
X49491812Y-114401717D01*
X49265258Y-114947319D01*
X49264743Y-115538089D01*
X49490344Y-116084086D01*
X49907717Y-116502188D01*
X50453319Y-116728742D01*
X51044089Y-116729257D01*
X51590086Y-116503656D01*
X51749912Y-116344108D01*
X51907717Y-116502188D01*
X52453319Y-116728742D01*
X53044089Y-116729257D01*
X53590086Y-116503656D01*
X54008188Y-116086283D01*
X54234742Y-115540681D01*
X54235257Y-114949911D01*
X54235257Y-124553769D01*
X53942370Y-124260371D01*
X53429100Y-124047243D01*
X52873339Y-124046758D01*
X52795908Y-124078751D01*
X52795908Y-120908539D01*
X52771856Y-120258540D01*
X52569387Y-119769736D01*
X52302532Y-119671073D01*
X52122927Y-119850678D01*
X52122927Y-119491468D01*
X52024264Y-119224613D01*
X51414539Y-118998092D01*
X50764540Y-119022144D01*
X50275736Y-119224613D01*
X50177073Y-119491468D01*
X51150000Y-120464395D01*
X52122927Y-119491468D01*
X52122927Y-119850678D01*
X51329605Y-120644000D01*
X52302532Y-121616927D01*
X52569387Y-121518264D01*
X52795908Y-120908539D01*
X52795908Y-124078751D01*
X52359697Y-124258990D01*
X52122927Y-124495347D01*
X52122927Y-121796532D01*
X51150000Y-120823605D01*
X50970395Y-121003210D01*
X50970395Y-120644000D01*
X49997468Y-119671073D01*
X49730613Y-119769736D01*
X49504092Y-120379461D01*
X49528144Y-121029460D01*
X49730613Y-121518264D01*
X49997468Y-121616927D01*
X50970395Y-120644000D01*
X50970395Y-121003210D01*
X50177073Y-121796532D01*
X50275736Y-122063387D01*
X50885461Y-122289908D01*
X51535460Y-122265856D01*
X52024264Y-122063387D01*
X52122927Y-121796532D01*
X52122927Y-124495347D01*
X51966371Y-124651630D01*
X51753243Y-125164900D01*
X51752758Y-125720661D01*
X51964990Y-126234303D01*
X52357630Y-126627629D01*
X52870900Y-126840757D01*
X53426661Y-126841242D01*
X53940303Y-126629010D01*
X54333629Y-126236370D01*
X54546757Y-125723100D01*
X54547242Y-125167339D01*
X54547242Y-129082760D01*
X54235564Y-128770539D01*
X53726702Y-128559241D01*
X53175715Y-128558760D01*
X52666485Y-128769169D01*
X52276539Y-129158436D01*
X52065241Y-129667298D01*
X52064760Y-130218285D01*
X52275169Y-130727515D01*
X52664436Y-131117461D01*
X52832754Y-131187352D01*
X52726077Y-131231540D01*
X52658088Y-131472483D01*
X53450000Y-132264395D01*
X54241912Y-131472483D01*
X54173923Y-131231540D01*
X54059388Y-131190778D01*
X54233515Y-131118831D01*
X54623461Y-130729564D01*
X54834759Y-130220702D01*
X54835240Y-129669715D01*
X54835240Y-132413518D01*
X54819230Y-132098552D01*
X54662460Y-131720077D01*
X54421517Y-131652088D01*
X53629605Y-132444000D01*
X54421517Y-133235912D01*
X54662460Y-133167923D01*
X54847201Y-132648829D01*
X54847201Y-135503240D01*
X54707277Y-135860187D01*
X54723503Y-136709387D01*
X55017261Y-137418582D01*
X55336030Y-137578365D01*
X56670395Y-136244000D01*
X56670395Y-136603210D01*
X55515635Y-137757970D01*
X55675418Y-138076739D01*
X56466187Y-138386723D01*
X57315387Y-138370497D01*
X58024582Y-138076739D01*
X58184365Y-137757970D01*
X58184365Y-138659000D01*
X54241912Y-138659000D01*
X54241912Y-133415517D01*
X53450000Y-132623605D01*
X53270395Y-132803210D01*
X53270395Y-132444000D01*
X52478483Y-131652088D01*
X52237540Y-131720077D01*
X52052799Y-132239171D01*
X52080770Y-132789448D01*
X52237540Y-133167923D01*
X52478483Y-133235912D01*
X53270395Y-132444000D01*
X53270395Y-132803210D01*
X52658088Y-133415517D01*
X52726077Y-133656460D01*
X53245171Y-133841201D01*
X53795448Y-133813230D01*
X54173923Y-133656460D01*
X54241912Y-133415517D01*
X54241912Y-138659000D01*
X52242723Y-138659000D01*
X52242723Y-135827813D01*
X52226497Y-134978613D01*
X51932739Y-134269418D01*
X51613970Y-134109635D01*
X51434365Y-134289240D01*
X50279605Y-135444000D01*
X51613970Y-136778365D01*
X51932739Y-136618582D01*
X52242723Y-135827813D01*
X52242723Y-138659000D01*
X51434365Y-138659000D01*
X48635000Y-138659000D01*
X48635000Y-138344000D01*
X48635000Y-138244000D01*
X48635000Y-138144000D01*
X48635000Y-137053980D01*
X48652314Y-137071294D01*
X48765636Y-136957971D01*
X48925418Y-137276739D01*
X49716187Y-137586723D01*
X50565387Y-137570497D01*
X51274582Y-137276739D01*
X51434365Y-136957970D01*
X50100000Y-135623605D01*
X50085857Y-135637747D01*
X49906252Y-135458142D01*
X49920395Y-135444000D01*
X49906252Y-135429857D01*
X50085857Y-135250252D01*
X50100000Y-135264395D01*
X51434365Y-133930030D01*
X51274582Y-133611261D01*
X50483813Y-133301277D01*
X49634613Y-133317503D01*
X48925418Y-133611261D01*
X48765636Y-133930028D01*
X48652314Y-133816706D01*
X48635000Y-133834020D01*
X48635000Y-103129000D01*
X56493865Y-103129000D01*
X55790345Y-103831293D01*
X55383464Y-104811173D01*
X55382538Y-105872172D01*
X55787709Y-106852761D01*
X56537293Y-107603655D01*
X57517173Y-108010536D01*
X58578172Y-108011462D01*
X59558761Y-107606291D01*
X60309655Y-106856707D01*
X60716536Y-105876827D01*
X60717462Y-104815828D01*
X60312291Y-103835239D01*
X59607284Y-103129000D01*
X105929149Y-103129000D01*
X105895620Y-103142854D01*
X105520173Y-103517647D01*
X105316732Y-104007587D01*
X105316269Y-104538086D01*
X105518854Y-105028380D01*
X105893647Y-105403827D01*
X106231446Y-105544093D01*
X105895620Y-105682854D01*
X105520173Y-106057647D01*
X105316732Y-106547587D01*
X105316269Y-107078086D01*
X105518854Y-107568380D01*
X105893647Y-107943827D01*
X106383587Y-108147268D01*
X106914086Y-108147731D01*
X107404380Y-107945146D01*
X107779827Y-107570353D01*
X107851589Y-107397530D01*
X108153778Y-107849789D01*
X108549198Y-108113999D01*
X108153778Y-108378211D01*
X107845441Y-108839671D01*
X107737167Y-109384000D01*
X107845441Y-109928329D01*
X108153778Y-110389789D01*
X108549198Y-110653999D01*
X108153778Y-110918211D01*
X107876339Y-111333427D01*
X107829800Y-111221071D01*
X107594188Y-111159417D01*
X107414583Y-111339022D01*
X107414583Y-110979812D01*
X107352929Y-110744200D01*
X106852520Y-110568073D01*
X106322801Y-110596852D01*
X105967071Y-110744200D01*
X105905417Y-110979812D01*
X106660000Y-111734395D01*
X107414583Y-110979812D01*
X107414583Y-111339022D01*
X106839605Y-111914000D01*
X107594188Y-112668583D01*
X107829800Y-112606929D01*
X107867148Y-112500816D01*
X108153778Y-112929789D01*
X108549198Y-113193999D01*
X108153778Y-113458211D01*
X107868073Y-113885799D01*
X107791146Y-113699620D01*
X107416353Y-113324173D01*
X107094881Y-113190686D01*
X107352929Y-113083800D01*
X107414583Y-112848188D01*
X106660000Y-112093605D01*
X106480395Y-112273210D01*
X106480395Y-111914000D01*
X105725812Y-111159417D01*
X105490200Y-111221071D01*
X105314073Y-111721480D01*
X105342852Y-112251199D01*
X105490200Y-112606929D01*
X105725812Y-112668583D01*
X106480395Y-111914000D01*
X106480395Y-112273210D01*
X105905417Y-112848188D01*
X105967071Y-113083800D01*
X106246311Y-113182083D01*
X105905620Y-113322854D01*
X105530173Y-113697647D01*
X105326732Y-114187587D01*
X105326269Y-114718086D01*
X105528854Y-115208380D01*
X105903647Y-115583827D01*
X106265588Y-115734118D01*
X105905620Y-115882854D01*
X105530173Y-116257647D01*
X105326732Y-116747587D01*
X105326269Y-117278086D01*
X105528854Y-117768380D01*
X105903647Y-118143827D01*
X106225118Y-118277313D01*
X105967071Y-118384200D01*
X105905417Y-118619812D01*
X106660000Y-119374395D01*
X107414583Y-118619812D01*
X107352929Y-118384200D01*
X107073688Y-118285916D01*
X107414380Y-118145146D01*
X107789827Y-117770353D01*
X107868000Y-117582091D01*
X108153778Y-118009789D01*
X108549198Y-118273999D01*
X108153778Y-118538211D01*
X107871225Y-118961081D01*
X107829800Y-118861071D01*
X107594188Y-118799417D01*
X106839605Y-119554000D01*
X107594188Y-120308583D01*
X107829800Y-120246929D01*
X107871758Y-120127716D01*
X108153778Y-120549789D01*
X108549198Y-120813999D01*
X108153778Y-121078211D01*
X107845441Y-121539671D01*
X107737167Y-122084000D01*
X107845441Y-122628329D01*
X108153778Y-123089789D01*
X108549198Y-123353999D01*
X108153778Y-123618211D01*
X107882726Y-124023868D01*
X107761146Y-123729620D01*
X107414583Y-123382452D01*
X107414583Y-120488188D01*
X106660000Y-119733605D01*
X106480395Y-119913210D01*
X106480395Y-119554000D01*
X105725812Y-118799417D01*
X105490200Y-118861071D01*
X105314073Y-119361480D01*
X105342852Y-119891199D01*
X105490200Y-120246929D01*
X105725812Y-120308583D01*
X106480395Y-119554000D01*
X106480395Y-119913210D01*
X105905417Y-120488188D01*
X105967071Y-120723800D01*
X106467480Y-120899927D01*
X106997199Y-120871148D01*
X107352929Y-120723800D01*
X107414583Y-120488188D01*
X107414583Y-123382452D01*
X107386353Y-123354173D01*
X106896413Y-123150732D01*
X106365914Y-123150269D01*
X105875620Y-123352854D01*
X105500173Y-123727647D01*
X105359906Y-124065446D01*
X105221146Y-123729620D01*
X104846353Y-123354173D01*
X104447767Y-123188665D01*
X104447767Y-119698966D01*
X104447767Y-112098966D01*
X104419805Y-111548462D01*
X104262931Y-111169735D01*
X104021930Y-111101675D01*
X103905927Y-111217678D01*
X103905927Y-106736520D01*
X103877148Y-106206801D01*
X103729800Y-105851071D01*
X103494188Y-105789417D01*
X103314583Y-105969022D01*
X103314583Y-105609812D01*
X103252929Y-105374200D01*
X102752520Y-105198073D01*
X102222801Y-105226852D01*
X101867071Y-105374200D01*
X101805417Y-105609812D01*
X102560000Y-106364395D01*
X103314583Y-105609812D01*
X103314583Y-105969022D01*
X102739605Y-106544000D01*
X103494188Y-107298583D01*
X103729800Y-107236929D01*
X103905927Y-106736520D01*
X103905927Y-111217678D01*
X103842325Y-111281280D01*
X103842325Y-110922070D01*
X103774265Y-110681069D01*
X103314583Y-110517452D01*
X103314583Y-107478188D01*
X102560000Y-106723605D01*
X102380395Y-106903210D01*
X102380395Y-106544000D01*
X101625812Y-105789417D01*
X101390200Y-105851071D01*
X101214073Y-106351480D01*
X101242852Y-106881199D01*
X101390200Y-107236929D01*
X101625812Y-107298583D01*
X102380395Y-106544000D01*
X102380395Y-106903210D01*
X101805417Y-107478188D01*
X101867071Y-107713800D01*
X102367480Y-107889927D01*
X102897199Y-107861148D01*
X103252929Y-107713800D01*
X103314583Y-107478188D01*
X103314583Y-110517452D01*
X103254966Y-110496233D01*
X102704462Y-110524195D01*
X102325735Y-110681069D01*
X102257675Y-110922070D01*
X103050000Y-111714395D01*
X103842325Y-110922070D01*
X103842325Y-111281280D01*
X103229605Y-111894000D01*
X104021930Y-112686325D01*
X104262931Y-112618265D01*
X104447767Y-112098966D01*
X104447767Y-119698966D01*
X104435810Y-119463561D01*
X104435810Y-116719602D01*
X104225314Y-116210163D01*
X103835887Y-115820056D01*
X103532192Y-115693950D01*
X103833837Y-115569314D01*
X104223944Y-115179887D01*
X104435329Y-114670816D01*
X104435810Y-114119602D01*
X104225314Y-113610163D01*
X103835887Y-113220056D01*
X103668728Y-113150645D01*
X103774265Y-113106931D01*
X103842325Y-112865930D01*
X103050000Y-112073605D01*
X102870395Y-112253210D01*
X102870395Y-111894000D01*
X102078070Y-111101675D01*
X101837069Y-111169735D01*
X101693731Y-111572444D01*
X101693731Y-108679914D01*
X101491146Y-108189620D01*
X101116353Y-107814173D01*
X100626413Y-107610732D01*
X100095914Y-107610269D01*
X99605620Y-107812854D01*
X99230173Y-108187647D01*
X99026732Y-108677587D01*
X99026269Y-109208086D01*
X99228854Y-109698380D01*
X99603647Y-110073827D01*
X100093587Y-110277268D01*
X100624086Y-110277731D01*
X101114380Y-110075146D01*
X101489827Y-109700353D01*
X101693268Y-109210413D01*
X101693731Y-108679914D01*
X101693731Y-111572444D01*
X101652233Y-111689034D01*
X101680195Y-112239538D01*
X101837069Y-112618265D01*
X102078070Y-112686325D01*
X102870395Y-111894000D01*
X102870395Y-112253210D01*
X102257675Y-112865930D01*
X102325735Y-113106931D01*
X102439032Y-113147257D01*
X102266163Y-113218686D01*
X101876056Y-113608113D01*
X101664671Y-114117184D01*
X101664190Y-114668398D01*
X101874686Y-115177837D01*
X102264113Y-115567944D01*
X102567807Y-115694049D01*
X102266163Y-115818686D01*
X101876056Y-116208113D01*
X101664671Y-116717184D01*
X101664190Y-117268398D01*
X101874686Y-117777837D01*
X102264113Y-118167944D01*
X102431271Y-118237354D01*
X102325735Y-118281069D01*
X102257675Y-118522070D01*
X103050000Y-119314395D01*
X103842325Y-118522070D01*
X103774265Y-118281069D01*
X103660967Y-118240742D01*
X103833837Y-118169314D01*
X104223944Y-117779887D01*
X104435329Y-117270816D01*
X104435810Y-116719602D01*
X104435810Y-119463561D01*
X104419805Y-119148462D01*
X104262931Y-118769735D01*
X104021930Y-118701675D01*
X103229605Y-119494000D01*
X104021930Y-120286325D01*
X104262931Y-120218265D01*
X104447767Y-119698966D01*
X104447767Y-123188665D01*
X104356413Y-123150732D01*
X103842325Y-123150283D01*
X103842325Y-120465930D01*
X103050000Y-119673605D01*
X102870395Y-119853210D01*
X102870395Y-119494000D01*
X102078070Y-118701675D01*
X101837069Y-118769735D01*
X101652233Y-119289034D01*
X101680195Y-119839538D01*
X101837069Y-120218265D01*
X102078070Y-120286325D01*
X102870395Y-119494000D01*
X102870395Y-119853210D01*
X102257675Y-120465930D01*
X102325735Y-120706931D01*
X102845034Y-120891767D01*
X103395538Y-120863805D01*
X103774265Y-120706931D01*
X103842325Y-120465930D01*
X103842325Y-123150283D01*
X103825914Y-123150269D01*
X103335620Y-123352854D01*
X102960173Y-123727647D01*
X102756732Y-124217587D01*
X102756269Y-124748086D01*
X102958854Y-125238380D01*
X103333647Y-125613827D01*
X103823587Y-125817268D01*
X104354086Y-125817731D01*
X104844380Y-125615146D01*
X105219827Y-125240353D01*
X105360093Y-124902553D01*
X105498854Y-125238380D01*
X105873647Y-125613827D01*
X106363587Y-125817268D01*
X106894086Y-125817731D01*
X107384380Y-125615146D01*
X107759827Y-125240353D01*
X107827398Y-125077623D01*
X107845441Y-125168329D01*
X108153778Y-125629789D01*
X108615238Y-125938126D01*
X109159567Y-126046400D01*
X109940433Y-126046400D01*
X110484762Y-125938126D01*
X110946222Y-125629789D01*
X111254559Y-125168329D01*
X111362833Y-124624000D01*
X111254559Y-124079671D01*
X110946222Y-123618211D01*
X110550801Y-123353999D01*
X110946222Y-123089789D01*
X111254559Y-122628329D01*
X111362833Y-122084000D01*
X111254559Y-121539671D01*
X110946222Y-121078211D01*
X110550801Y-120813999D01*
X110946222Y-120549789D01*
X111254559Y-120088329D01*
X111362833Y-119544000D01*
X111254559Y-118999671D01*
X110946222Y-118538211D01*
X110550801Y-118273999D01*
X110946222Y-118009789D01*
X111254559Y-117548329D01*
X111362833Y-117004000D01*
X111254559Y-116459671D01*
X110946222Y-115998211D01*
X110550801Y-115733999D01*
X110946222Y-115469789D01*
X111254559Y-115008329D01*
X111362833Y-114464000D01*
X111254559Y-113919671D01*
X110946222Y-113458211D01*
X110550801Y-113193999D01*
X110946222Y-112929789D01*
X111254559Y-112468329D01*
X111362833Y-111924000D01*
X111254559Y-111379671D01*
X110946222Y-110918211D01*
X110550801Y-110653999D01*
X110946222Y-110389789D01*
X111254559Y-109928329D01*
X111362833Y-109384000D01*
X111254559Y-108839671D01*
X110946222Y-108378211D01*
X110550801Y-108113999D01*
X110946222Y-107849789D01*
X111254559Y-107388329D01*
X111362833Y-106844000D01*
X111254559Y-106299671D01*
X110946222Y-105838211D01*
X110484762Y-105529874D01*
X109940433Y-105421600D01*
X109159567Y-105421600D01*
X108615238Y-105529874D01*
X108153778Y-105838211D01*
X107867000Y-106267404D01*
X107781146Y-106059620D01*
X107406353Y-105684173D01*
X107068553Y-105543906D01*
X107404380Y-105405146D01*
X107779827Y-105030353D01*
X107983268Y-104540413D01*
X107983731Y-104009914D01*
X107781146Y-103519620D01*
X107406353Y-103144173D01*
X107369812Y-103129000D01*
X112523000Y-103129000D01*
X112523000Y-133515519D01*
X112026541Y-133309372D01*
X111177185Y-133308630D01*
X110392200Y-133632980D01*
X109791091Y-134233041D01*
X109635240Y-134608371D01*
X109635240Y-132169715D01*
X109424831Y-131660485D01*
X109035564Y-131270539D01*
X108851414Y-131194073D01*
X109033515Y-131118831D01*
X109423461Y-130729564D01*
X109634759Y-130220702D01*
X109635240Y-129669715D01*
X109424831Y-129160485D01*
X109035564Y-128770539D01*
X108526702Y-128559241D01*
X107975715Y-128558760D01*
X107466485Y-128769169D01*
X107076539Y-129158436D01*
X106865241Y-129667298D01*
X106864760Y-130218285D01*
X107075169Y-130727515D01*
X107464436Y-131117461D01*
X107648585Y-131193926D01*
X107466485Y-131269169D01*
X107076539Y-131658436D01*
X106865241Y-132167298D01*
X106864760Y-132718285D01*
X107075169Y-133227515D01*
X107464436Y-133617461D01*
X107973298Y-133828759D01*
X108524285Y-133829240D01*
X109033515Y-133618831D01*
X109423461Y-133229564D01*
X109634759Y-132720702D01*
X109635240Y-132169715D01*
X109635240Y-134608371D01*
X109465372Y-135017459D01*
X109464630Y-135866815D01*
X109788980Y-136651800D01*
X110389041Y-137252909D01*
X111173459Y-137578628D01*
X112022815Y-137579370D01*
X112523000Y-137372697D01*
X112523000Y-138659000D01*
M02*
