%TF.FileFunction,Legend,Bot*%
%FSLAX46Y46*%
G04 Gerber Fmt 4.6, Leading zero omitted, Abs format (unit mm)*
G04 Created by KiCad (PCBNEW (2014-08-05 BZR 5054)-product) date Mon 22 Sep 2014 09:28:56 AM PDT*
%MOMM*%
G01*
G04 APERTURE LIST*
%ADD10C,0.100000*%
%ADD11C,0.127000*%
%ADD12C,1.397000*%
%ADD13R,1.574800X2.286000*%
%ADD14O,1.574800X2.286000*%
%ADD15R,1.998980X1.998980*%
%ADD16C,1.998980*%
%ADD17R,2.032000X1.727200*%
%ADD18O,2.032000X1.727200*%
%ADD19O,3.500120X1.699260*%
%ADD20O,3.500120X1.524000*%
%ADD21R,3.500120X1.524000*%
%ADD22R,1.727200X1.727200*%
%ADD23O,1.727200X1.727200*%
%ADD24C,1.727200*%
G04 APERTURE END LIST*
D10*
D11*
X83420857Y-71923729D02*
X83312000Y-71960014D01*
X83130571Y-71960014D01*
X83058000Y-71923729D01*
X83021714Y-71887443D01*
X82985429Y-71814871D01*
X82985429Y-71742300D01*
X83021714Y-71669729D01*
X83058000Y-71633443D01*
X83130571Y-71597157D01*
X83275714Y-71560871D01*
X83348286Y-71524586D01*
X83384571Y-71488300D01*
X83420857Y-71415729D01*
X83420857Y-71343157D01*
X83384571Y-71270586D01*
X83348286Y-71234300D01*
X83275714Y-71198014D01*
X83094286Y-71198014D01*
X82985429Y-71234300D01*
X82658857Y-71452014D02*
X82658857Y-72214014D01*
X82658857Y-71488300D02*
X82586286Y-71452014D01*
X82441143Y-71452014D01*
X82368572Y-71488300D01*
X82332286Y-71524586D01*
X82296000Y-71597157D01*
X82296000Y-71814871D01*
X82332286Y-71887443D01*
X82368572Y-71923729D01*
X82441143Y-71960014D01*
X82586286Y-71960014D01*
X82658857Y-71923729D01*
X81679143Y-71923729D02*
X81751714Y-71960014D01*
X81896857Y-71960014D01*
X81969428Y-71923729D01*
X82005714Y-71851157D01*
X82005714Y-71560871D01*
X81969428Y-71488300D01*
X81896857Y-71452014D01*
X81751714Y-71452014D01*
X81679143Y-71488300D01*
X81642857Y-71560871D01*
X81642857Y-71633443D01*
X82005714Y-71706014D01*
X80989714Y-71960014D02*
X80989714Y-71560871D01*
X81026000Y-71488300D01*
X81098571Y-71452014D01*
X81243714Y-71452014D01*
X81316285Y-71488300D01*
X80989714Y-71923729D02*
X81062285Y-71960014D01*
X81243714Y-71960014D01*
X81316285Y-71923729D01*
X81352571Y-71851157D01*
X81352571Y-71778586D01*
X81316285Y-71706014D01*
X81243714Y-71669729D01*
X81062285Y-71669729D01*
X80989714Y-71633443D01*
X80626856Y-71960014D02*
X80626856Y-71198014D01*
X80554285Y-71669729D02*
X80336571Y-71960014D01*
X80336571Y-71452014D02*
X80626856Y-71742300D01*
X79719714Y-71923729D02*
X79792285Y-71960014D01*
X79937428Y-71960014D01*
X80009999Y-71923729D01*
X80046285Y-71851157D01*
X80046285Y-71560871D01*
X80009999Y-71488300D01*
X79937428Y-71452014D01*
X79792285Y-71452014D01*
X79719714Y-71488300D01*
X79683428Y-71560871D01*
X79683428Y-71633443D01*
X80046285Y-71706014D01*
X79356856Y-71960014D02*
X79356856Y-71452014D01*
X79356856Y-71597157D02*
X79320571Y-71524586D01*
X79284285Y-71488300D01*
X79211714Y-71452014D01*
X79139142Y-71452014D01*
X78304571Y-71960014D02*
X78304571Y-71198014D01*
X78123143Y-71198014D01*
X78014286Y-71234300D01*
X77941714Y-71306871D01*
X77905429Y-71379443D01*
X77869143Y-71524586D01*
X77869143Y-71633443D01*
X77905429Y-71778586D01*
X77941714Y-71851157D01*
X78014286Y-71923729D01*
X78123143Y-71960014D01*
X78304571Y-71960014D01*
X77542571Y-71960014D02*
X77542571Y-71452014D01*
X77542571Y-71597157D02*
X77506286Y-71524586D01*
X77470000Y-71488300D01*
X77397429Y-71452014D01*
X77324857Y-71452014D01*
X77070857Y-71960014D02*
X77070857Y-71452014D01*
X77070857Y-71198014D02*
X77107143Y-71234300D01*
X77070857Y-71270586D01*
X77034572Y-71234300D01*
X77070857Y-71198014D01*
X77070857Y-71270586D01*
X76780572Y-71452014D02*
X76599143Y-71960014D01*
X76417715Y-71452014D01*
X75837144Y-71923729D02*
X75909715Y-71960014D01*
X76054858Y-71960014D01*
X76127429Y-71923729D01*
X76163715Y-71851157D01*
X76163715Y-71560871D01*
X76127429Y-71488300D01*
X76054858Y-71452014D01*
X75909715Y-71452014D01*
X75837144Y-71488300D01*
X75800858Y-71560871D01*
X75800858Y-71633443D01*
X76163715Y-71706014D01*
X75474286Y-71960014D02*
X75474286Y-71452014D01*
X75474286Y-71597157D02*
X75438001Y-71524586D01*
X75401715Y-71488300D01*
X75329144Y-71452014D01*
X75256572Y-71452014D01*
X74530859Y-71198014D02*
X74276859Y-71960014D01*
X74022859Y-71198014D01*
X73369716Y-71960014D02*
X73805144Y-71960014D01*
X73587430Y-71960014D02*
X73587430Y-71198014D01*
X73660001Y-71306871D01*
X73732573Y-71379443D01*
X73805144Y-71415729D01*
X83384571Y-73153814D02*
X83384571Y-72391814D01*
X83203143Y-72391814D01*
X83094286Y-72428100D01*
X83021714Y-72500671D01*
X82985429Y-72573243D01*
X82949143Y-72718386D01*
X82949143Y-72827243D01*
X82985429Y-72972386D01*
X83021714Y-73044957D01*
X83094286Y-73117529D01*
X83203143Y-73153814D01*
X83384571Y-73153814D01*
X82332286Y-73117529D02*
X82404857Y-73153814D01*
X82550000Y-73153814D01*
X82622571Y-73117529D01*
X82658857Y-73044957D01*
X82658857Y-72754671D01*
X82622571Y-72682100D01*
X82550000Y-72645814D01*
X82404857Y-72645814D01*
X82332286Y-72682100D01*
X82296000Y-72754671D01*
X82296000Y-72827243D01*
X82658857Y-72899814D01*
X82005714Y-73117529D02*
X81933143Y-73153814D01*
X81788000Y-73153814D01*
X81715428Y-73117529D01*
X81679143Y-73044957D01*
X81679143Y-73008671D01*
X81715428Y-72936100D01*
X81788000Y-72899814D01*
X81896857Y-72899814D01*
X81969428Y-72863529D01*
X82005714Y-72790957D01*
X82005714Y-72754671D01*
X81969428Y-72682100D01*
X81896857Y-72645814D01*
X81788000Y-72645814D01*
X81715428Y-72682100D01*
X81352571Y-73153814D02*
X81352571Y-72645814D01*
X81352571Y-72391814D02*
X81388857Y-72428100D01*
X81352571Y-72464386D01*
X81316286Y-72428100D01*
X81352571Y-72391814D01*
X81352571Y-72464386D01*
X80663143Y-72645814D02*
X80663143Y-73262671D01*
X80699429Y-73335243D01*
X80735714Y-73371529D01*
X80808286Y-73407814D01*
X80917143Y-73407814D01*
X80989714Y-73371529D01*
X80663143Y-73117529D02*
X80735714Y-73153814D01*
X80880857Y-73153814D01*
X80953429Y-73117529D01*
X80989714Y-73081243D01*
X81026000Y-73008671D01*
X81026000Y-72790957D01*
X80989714Y-72718386D01*
X80953429Y-72682100D01*
X80880857Y-72645814D01*
X80735714Y-72645814D01*
X80663143Y-72682100D01*
X80300285Y-72645814D02*
X80300285Y-73153814D01*
X80300285Y-72718386D02*
X80264000Y-72682100D01*
X80191428Y-72645814D01*
X80082571Y-72645814D01*
X80010000Y-72682100D01*
X79973714Y-72754671D01*
X79973714Y-73153814D01*
X79030285Y-73153814D02*
X79030285Y-72391814D01*
X79030285Y-72682100D02*
X78957714Y-72645814D01*
X78812571Y-72645814D01*
X78740000Y-72682100D01*
X78703714Y-72718386D01*
X78667428Y-72790957D01*
X78667428Y-73008671D01*
X78703714Y-73081243D01*
X78740000Y-73117529D01*
X78812571Y-73153814D01*
X78957714Y-73153814D01*
X79030285Y-73117529D01*
X78413428Y-72645814D02*
X78231999Y-73153814D01*
X78050571Y-72645814D02*
X78231999Y-73153814D01*
X78304571Y-73335243D01*
X78340856Y-73371529D01*
X78413428Y-73407814D01*
X76925714Y-72754671D02*
X76816857Y-72790957D01*
X76780572Y-72827243D01*
X76744286Y-72899814D01*
X76744286Y-73008671D01*
X76780572Y-73081243D01*
X76816857Y-73117529D01*
X76889429Y-73153814D01*
X77179714Y-73153814D01*
X77179714Y-72391814D01*
X76925714Y-72391814D01*
X76853143Y-72428100D01*
X76816857Y-72464386D01*
X76780572Y-72536957D01*
X76780572Y-72609529D01*
X76816857Y-72682100D01*
X76853143Y-72718386D01*
X76925714Y-72754671D01*
X77179714Y-72754671D01*
X76417714Y-73153814D02*
X76417714Y-72391814D01*
X75982286Y-73153814D01*
X75982286Y-72391814D01*
X75365428Y-72754671D02*
X75256571Y-72790957D01*
X75220286Y-72827243D01*
X75184000Y-72899814D01*
X75184000Y-73008671D01*
X75220286Y-73081243D01*
X75256571Y-73117529D01*
X75329143Y-73153814D01*
X75619428Y-73153814D01*
X75619428Y-72391814D01*
X75365428Y-72391814D01*
X75292857Y-72428100D01*
X75256571Y-72464386D01*
X75220286Y-72536957D01*
X75220286Y-72609529D01*
X75256571Y-72682100D01*
X75292857Y-72718386D01*
X75365428Y-72754671D01*
X75619428Y-72754671D01*
X74059143Y-73444100D02*
X74095429Y-73407814D01*
X74168000Y-73298957D01*
X74204286Y-73226386D01*
X74240572Y-73117529D01*
X74276857Y-72936100D01*
X74276857Y-72790957D01*
X74240572Y-72609529D01*
X74204286Y-72500671D01*
X74168000Y-72428100D01*
X74095429Y-72319243D01*
X74059143Y-72282957D01*
X73623715Y-72391814D02*
X73478572Y-72391814D01*
X73406000Y-72428100D01*
X73333429Y-72500671D01*
X73297143Y-72645814D01*
X73297143Y-72899814D01*
X73333429Y-73044957D01*
X73406000Y-73117529D01*
X73478572Y-73153814D01*
X73623715Y-73153814D01*
X73696286Y-73117529D01*
X73768857Y-73044957D01*
X73805143Y-72899814D01*
X73805143Y-72645814D01*
X73768857Y-72500671D01*
X73696286Y-72428100D01*
X73623715Y-72391814D01*
X72970571Y-73153814D02*
X72970571Y-72391814D01*
X72970571Y-72754671D02*
X72535143Y-72754671D01*
X72535143Y-73153814D02*
X72535143Y-72391814D01*
X72208571Y-73117529D02*
X72099714Y-73153814D01*
X71918285Y-73153814D01*
X71845714Y-73117529D01*
X71809428Y-73081243D01*
X71773143Y-73008671D01*
X71773143Y-72936100D01*
X71809428Y-72863529D01*
X71845714Y-72827243D01*
X71918285Y-72790957D01*
X72063428Y-72754671D01*
X72136000Y-72718386D01*
X72172285Y-72682100D01*
X72208571Y-72609529D01*
X72208571Y-72536957D01*
X72172285Y-72464386D01*
X72136000Y-72428100D01*
X72063428Y-72391814D01*
X71882000Y-72391814D01*
X71773143Y-72428100D01*
X71446571Y-72391814D02*
X71446571Y-73008671D01*
X71410286Y-73081243D01*
X71374000Y-73117529D01*
X71301429Y-73153814D01*
X71156286Y-73153814D01*
X71083714Y-73117529D01*
X71047429Y-73081243D01*
X71011143Y-73008671D01*
X71011143Y-72391814D01*
X69704857Y-73153814D02*
X70067714Y-73153814D01*
X70067714Y-72391814D01*
X69196857Y-72754671D02*
X69088000Y-72790957D01*
X69051715Y-72827243D01*
X69015429Y-72899814D01*
X69015429Y-73008671D01*
X69051715Y-73081243D01*
X69088000Y-73117529D01*
X69160572Y-73153814D01*
X69450857Y-73153814D01*
X69450857Y-72391814D01*
X69196857Y-72391814D01*
X69124286Y-72428100D01*
X69088000Y-72464386D01*
X69051715Y-72536957D01*
X69051715Y-72609529D01*
X69088000Y-72682100D01*
X69124286Y-72718386D01*
X69196857Y-72754671D01*
X69450857Y-72754671D01*
X68688857Y-73153814D02*
X68688857Y-72391814D01*
X68688857Y-72754671D02*
X68253429Y-72754671D01*
X68253429Y-73153814D02*
X68253429Y-72391814D01*
X67636571Y-72754671D02*
X67527714Y-72790957D01*
X67491429Y-72827243D01*
X67455143Y-72899814D01*
X67455143Y-73008671D01*
X67491429Y-73081243D01*
X67527714Y-73117529D01*
X67600286Y-73153814D01*
X67890571Y-73153814D01*
X67890571Y-72391814D01*
X67636571Y-72391814D01*
X67564000Y-72428100D01*
X67527714Y-72464386D01*
X67491429Y-72536957D01*
X67491429Y-72609529D01*
X67527714Y-72682100D01*
X67564000Y-72718386D01*
X67636571Y-72754671D01*
X67890571Y-72754671D01*
X67201143Y-73444100D02*
X67164857Y-73407814D01*
X67092286Y-73298957D01*
X67056000Y-73226386D01*
X67019714Y-73117529D01*
X66983429Y-72936100D01*
X66983429Y-72790957D01*
X67019714Y-72609529D01*
X67056000Y-72500671D01*
X67092286Y-72428100D01*
X67164857Y-72319243D01*
X67201143Y-72282957D01*
X83384571Y-74347614D02*
X83384571Y-73585614D01*
X83384571Y-73875900D02*
X83312000Y-73839614D01*
X83166857Y-73839614D01*
X83094286Y-73875900D01*
X83058000Y-73912186D01*
X83021714Y-73984757D01*
X83021714Y-74202471D01*
X83058000Y-74275043D01*
X83094286Y-74311329D01*
X83166857Y-74347614D01*
X83312000Y-74347614D01*
X83384571Y-74311329D01*
X82695142Y-74347614D02*
X82695142Y-73585614D01*
X82695142Y-73875900D02*
X82622571Y-73839614D01*
X82477428Y-73839614D01*
X82404857Y-73875900D01*
X82368571Y-73912186D01*
X82332285Y-73984757D01*
X82332285Y-74202471D01*
X82368571Y-74275043D01*
X82404857Y-74311329D01*
X82477428Y-74347614D01*
X82622571Y-74347614D01*
X82695142Y-74311329D01*
X81679142Y-73839614D02*
X81679142Y-74347614D01*
X82005713Y-73839614D02*
X82005713Y-74238757D01*
X81969428Y-74311329D01*
X81896856Y-74347614D01*
X81787999Y-74347614D01*
X81715428Y-74311329D01*
X81679142Y-74275043D01*
X81316284Y-74347614D02*
X81316284Y-73839614D01*
X81316284Y-73984757D02*
X81279999Y-73912186D01*
X81243713Y-73875900D01*
X81171142Y-73839614D01*
X81098570Y-73839614D01*
X80517999Y-74347614D02*
X80517999Y-73948471D01*
X80554285Y-73875900D01*
X80626856Y-73839614D01*
X80771999Y-73839614D01*
X80844570Y-73875900D01*
X80517999Y-74311329D02*
X80590570Y-74347614D01*
X80771999Y-74347614D01*
X80844570Y-74311329D01*
X80880856Y-74238757D01*
X80880856Y-74166186D01*
X80844570Y-74093614D01*
X80771999Y-74057329D01*
X80590570Y-74057329D01*
X80517999Y-74021043D01*
X80155141Y-73839614D02*
X80155141Y-74347614D01*
X80155141Y-73912186D02*
X80118856Y-73875900D01*
X80046284Y-73839614D01*
X79937427Y-73839614D01*
X79864856Y-73875900D01*
X79828570Y-73948471D01*
X79828570Y-74347614D01*
X78993998Y-73984757D02*
X79030284Y-73948471D01*
X79102855Y-73912186D01*
X79175427Y-73912186D01*
X79247998Y-73948471D01*
X79284284Y-73984757D01*
X79320570Y-74057329D01*
X79320570Y-74129900D01*
X79284284Y-74202471D01*
X79247998Y-74238757D01*
X79175427Y-74275043D01*
X79102855Y-74275043D01*
X79030284Y-74238757D01*
X78993998Y-74202471D01*
X78993998Y-73912186D02*
X78993998Y-74202471D01*
X78957712Y-74238757D01*
X78921427Y-74238757D01*
X78848855Y-74202471D01*
X78812570Y-74129900D01*
X78812570Y-73948471D01*
X78885141Y-73839614D01*
X78993998Y-73767043D01*
X79139141Y-73730757D01*
X79284284Y-73767043D01*
X79393141Y-73839614D01*
X79465712Y-73948471D01*
X79501998Y-74093614D01*
X79465712Y-74238757D01*
X79393141Y-74347614D01*
X79284284Y-74420186D01*
X79139141Y-74456471D01*
X78993998Y-74420186D01*
X78885141Y-74347614D01*
X78159427Y-74347614D02*
X78159427Y-73948471D01*
X78195713Y-73875900D01*
X78268284Y-73839614D01*
X78413427Y-73839614D01*
X78485998Y-73875900D01*
X78159427Y-74311329D02*
X78231998Y-74347614D01*
X78413427Y-74347614D01*
X78485998Y-74311329D01*
X78522284Y-74238757D01*
X78522284Y-74166186D01*
X78485998Y-74093614D01*
X78413427Y-74057329D01*
X78231998Y-74057329D01*
X78159427Y-74021043D01*
X77687712Y-74347614D02*
X77760284Y-74311329D01*
X77796569Y-74238757D01*
X77796569Y-73585614D01*
X77070855Y-73839614D02*
X77070855Y-74347614D01*
X77397426Y-73839614D02*
X77397426Y-74238757D01*
X77361141Y-74311329D01*
X77288569Y-74347614D01*
X77179712Y-74347614D01*
X77107141Y-74311329D01*
X77070855Y-74275043D01*
X76707997Y-74347614D02*
X76707997Y-73839614D01*
X76707997Y-73912186D02*
X76671712Y-73875900D01*
X76599140Y-73839614D01*
X76490283Y-73839614D01*
X76417712Y-73875900D01*
X76381426Y-73948471D01*
X76381426Y-74347614D01*
X76381426Y-73948471D02*
X76345140Y-73875900D01*
X76272569Y-73839614D01*
X76163712Y-73839614D01*
X76091140Y-73875900D01*
X76054855Y-73948471D01*
X76054855Y-74347614D01*
X75691997Y-74275043D02*
X75655712Y-74311329D01*
X75691997Y-74347614D01*
X75728283Y-74311329D01*
X75691997Y-74275043D01*
X75691997Y-74347614D01*
X75329140Y-74347614D02*
X75329140Y-73839614D01*
X75329140Y-73912186D02*
X75292855Y-73875900D01*
X75220283Y-73839614D01*
X75111426Y-73839614D01*
X75038855Y-73875900D01*
X75002569Y-73948471D01*
X75002569Y-74347614D01*
X75002569Y-73948471D02*
X74966283Y-73875900D01*
X74893712Y-73839614D01*
X74784855Y-73839614D01*
X74712283Y-73875900D01*
X74675998Y-73948471D01*
X74675998Y-74347614D01*
X74313140Y-74347614D02*
X74313140Y-73839614D01*
X74313140Y-73585614D02*
X74349426Y-73621900D01*
X74313140Y-73658186D01*
X74276855Y-73621900D01*
X74313140Y-73585614D01*
X74313140Y-73658186D01*
X74059141Y-73839614D02*
X73768855Y-73839614D01*
X73950283Y-73585614D02*
X73950283Y-74238757D01*
X73913998Y-74311329D01*
X73841426Y-74347614D01*
X73768855Y-74347614D01*
X73514854Y-74275043D02*
X73478569Y-74311329D01*
X73514854Y-74347614D01*
X73551140Y-74311329D01*
X73514854Y-74275043D01*
X73514854Y-74347614D01*
X72861712Y-74311329D02*
X72934283Y-74347614D01*
X73079426Y-74347614D01*
X73151997Y-74311329D01*
X73188283Y-74238757D01*
X73188283Y-73948471D01*
X73151997Y-73875900D01*
X73079426Y-73839614D01*
X72934283Y-73839614D01*
X72861712Y-73875900D01*
X72825426Y-73948471D01*
X72825426Y-74021043D01*
X73188283Y-74093614D01*
X72172283Y-74347614D02*
X72172283Y-73585614D01*
X72172283Y-74311329D02*
X72244854Y-74347614D01*
X72389997Y-74347614D01*
X72462569Y-74311329D01*
X72498854Y-74275043D01*
X72535140Y-74202471D01*
X72535140Y-73984757D01*
X72498854Y-73912186D01*
X72462569Y-73875900D01*
X72389997Y-73839614D01*
X72244854Y-73839614D01*
X72172283Y-73875900D01*
X71482854Y-73839614D02*
X71482854Y-74347614D01*
X71809425Y-73839614D02*
X71809425Y-74238757D01*
X71773140Y-74311329D01*
X71700568Y-74347614D01*
X71591711Y-74347614D01*
X71519140Y-74311329D01*
X71482854Y-74275043D01*
X83420857Y-74851986D02*
X83384571Y-74815700D01*
X83312000Y-74779414D01*
X83130571Y-74779414D01*
X83058000Y-74815700D01*
X83021714Y-74851986D01*
X82985429Y-74924557D01*
X82985429Y-74997129D01*
X83021714Y-75105986D01*
X83457143Y-75541414D01*
X82985429Y-75541414D01*
X82513715Y-74779414D02*
X82441143Y-74779414D01*
X82368572Y-74815700D01*
X82332286Y-74851986D01*
X82296000Y-74924557D01*
X82259715Y-75069700D01*
X82259715Y-75251129D01*
X82296000Y-75396271D01*
X82332286Y-75468843D01*
X82368572Y-75505129D01*
X82441143Y-75541414D01*
X82513715Y-75541414D01*
X82586286Y-75505129D01*
X82622572Y-75468843D01*
X82658857Y-75396271D01*
X82695143Y-75251129D01*
X82695143Y-75069700D01*
X82658857Y-74924557D01*
X82622572Y-74851986D01*
X82586286Y-74815700D01*
X82513715Y-74779414D01*
X81534001Y-75541414D02*
X81969429Y-75541414D01*
X81751715Y-75541414D02*
X81751715Y-74779414D01*
X81824286Y-74888271D01*
X81896858Y-74960843D01*
X81969429Y-74997129D01*
X80880858Y-75033414D02*
X80880858Y-75541414D01*
X81062287Y-74743129D02*
X81243715Y-75287414D01*
X80772001Y-75287414D01*
X80481715Y-75468843D02*
X80445430Y-75505129D01*
X80481715Y-75541414D01*
X80518001Y-75505129D01*
X80481715Y-75468843D01*
X80481715Y-75541414D01*
X79973716Y-74779414D02*
X79901144Y-74779414D01*
X79828573Y-74815700D01*
X79792287Y-74851986D01*
X79756001Y-74924557D01*
X79719716Y-75069700D01*
X79719716Y-75251129D01*
X79756001Y-75396271D01*
X79792287Y-75468843D01*
X79828573Y-75505129D01*
X79901144Y-75541414D01*
X79973716Y-75541414D01*
X80046287Y-75505129D01*
X80082573Y-75468843D01*
X80118858Y-75396271D01*
X80155144Y-75251129D01*
X80155144Y-75069700D01*
X80118858Y-74924557D01*
X80082573Y-74851986D01*
X80046287Y-74815700D01*
X79973716Y-74779414D01*
X79356859Y-75541414D02*
X79211716Y-75541414D01*
X79139144Y-75505129D01*
X79102859Y-75468843D01*
X79030287Y-75359986D01*
X78994002Y-75214843D01*
X78994002Y-74924557D01*
X79030287Y-74851986D01*
X79066573Y-74815700D01*
X79139144Y-74779414D01*
X79284287Y-74779414D01*
X79356859Y-74815700D01*
X79393144Y-74851986D01*
X79429430Y-74924557D01*
X79429430Y-75105986D01*
X79393144Y-75178557D01*
X79356859Y-75214843D01*
X79284287Y-75251129D01*
X79139144Y-75251129D01*
X79066573Y-75214843D01*
X79030287Y-75178557D01*
X78994002Y-75105986D01*
X78667430Y-75468843D02*
X78631145Y-75505129D01*
X78667430Y-75541414D01*
X78703716Y-75505129D01*
X78667430Y-75468843D01*
X78667430Y-75541414D01*
X77905431Y-75541414D02*
X78340859Y-75541414D01*
X78123145Y-75541414D02*
X78123145Y-74779414D01*
X78195716Y-74888271D01*
X78268288Y-74960843D01*
X78340859Y-74997129D01*
X77651431Y-74779414D02*
X77143431Y-74779414D01*
X77470002Y-75541414D01*
%LPC*%
D12*
X47942500Y-59499500D03*
X47942500Y-56959500D03*
X50482500Y-56959500D03*
X50482500Y-59499500D03*
X77089000Y-38608000D03*
X74549000Y-38608000D03*
X77089000Y-43688000D03*
X74549000Y-43688000D03*
X58102500Y-57975500D03*
X55562500Y-57975500D03*
X77089000Y-68072000D03*
X74549000Y-68072000D03*
X77089000Y-62992000D03*
X74549000Y-62992000D03*
X40322500Y-57975500D03*
X42862500Y-57975500D03*
D13*
X58102500Y-45783500D03*
D14*
X55562500Y-45783500D03*
X53022500Y-45783500D03*
X50482500Y-45783500D03*
X47942500Y-45783500D03*
X45402500Y-45783500D03*
X42862500Y-45783500D03*
X40322500Y-45783500D03*
X40322500Y-53403500D03*
X42862500Y-53403500D03*
X45402500Y-53403500D03*
X47942500Y-53403500D03*
X50482500Y-53403500D03*
X53022500Y-53403500D03*
X55562500Y-53403500D03*
X58102500Y-53403500D03*
D13*
X75311000Y-49403000D03*
D14*
X72771000Y-49403000D03*
X70231000Y-49403000D03*
X67691000Y-49403000D03*
X67691000Y-57023000D03*
X70231000Y-57023000D03*
X72771000Y-57023000D03*
X75311000Y-57023000D03*
D12*
X67691000Y-43688000D03*
X67691000Y-36068000D03*
X70231000Y-38354000D03*
X70231000Y-45974000D03*
X65151000Y-36068000D03*
X65151000Y-43688000D03*
X67691000Y-62992000D03*
X67691000Y-70612000D03*
X70231000Y-67818000D03*
X70231000Y-60198000D03*
X65151000Y-70612000D03*
X65151000Y-62992000D03*
D15*
X44831000Y-42164000D03*
D16*
X44831000Y-39624000D03*
D15*
X50419000Y-42164000D03*
D16*
X50419000Y-39624000D03*
D12*
X54991000Y-42164000D03*
X54991000Y-39624000D03*
D15*
X44450000Y-65024000D03*
D16*
X44450000Y-62484000D03*
D15*
X50038000Y-65024000D03*
D16*
X50038000Y-62484000D03*
D12*
X54610000Y-65024000D03*
X54610000Y-62484000D03*
D15*
X44450000Y-70739000D03*
D16*
X44450000Y-68199000D03*
D15*
X50038000Y-70739000D03*
D16*
X50038000Y-68199000D03*
D12*
X54610000Y-70739000D03*
X54610000Y-68199000D03*
D17*
X38989000Y-37084000D03*
D18*
X38989000Y-39624000D03*
X38989000Y-42164000D03*
D17*
X38862000Y-64135000D03*
D18*
X38862000Y-66675000D03*
X38862000Y-69215000D03*
D19*
X81407000Y-62992000D03*
D20*
X81407000Y-60452000D03*
D19*
X81407000Y-65532000D03*
D21*
X81407000Y-57912000D03*
D20*
X81407000Y-68072000D03*
D19*
X81407000Y-43688000D03*
D20*
X81407000Y-46228000D03*
D19*
X81407000Y-41148000D03*
D21*
X81407000Y-48768000D03*
D20*
X81407000Y-38608000D03*
D22*
X44069000Y-29718000D03*
D23*
X44069000Y-32258000D03*
D22*
X74549000Y-77978000D03*
D23*
X66929000Y-77978000D03*
D22*
X64389000Y-77978000D03*
X61849000Y-77978000D03*
X61849000Y-80518000D03*
D23*
X56769000Y-80518000D03*
X54229000Y-77978000D03*
X51689000Y-77978000D03*
X51689000Y-80518000D03*
D22*
X49149000Y-77978000D03*
D23*
X49149000Y-80518000D03*
X46609000Y-77978000D03*
X46609000Y-80518000D03*
X44069000Y-77978000D03*
X44069000Y-80518000D03*
X41529000Y-77978000D03*
D24*
X41529000Y-80518000D03*
D23*
X54229000Y-80518000D03*
D22*
X56769000Y-77978000D03*
D23*
X59309000Y-80518000D03*
X59309000Y-77978000D03*
D22*
X64389000Y-80518000D03*
D23*
X66929000Y-80518000D03*
D22*
X69469000Y-80518000D03*
D23*
X69469000Y-77978000D03*
X72009000Y-80518000D03*
X72009000Y-77978000D03*
X74549000Y-80518000D03*
X77089000Y-80518000D03*
X77089000Y-77978000D03*
D22*
X79629000Y-80518000D03*
D23*
X79629000Y-77978000D03*
X82169000Y-80518000D03*
X82169000Y-77978000D03*
X38989000Y-32258000D03*
X38989000Y-29718000D03*
X41529000Y-32258000D03*
X41529000Y-29718000D03*
X46609000Y-32258000D03*
X46609000Y-29718000D03*
D22*
X49149000Y-32258000D03*
D23*
X49149000Y-29718000D03*
D22*
X51689000Y-32258000D03*
D23*
X51689000Y-29718000D03*
X54229000Y-32258000D03*
D22*
X54229000Y-29718000D03*
X56769000Y-32258000D03*
D23*
X56769000Y-29718000D03*
D22*
X59309000Y-32258000D03*
D23*
X59309000Y-29718000D03*
X61849000Y-32258000D03*
D22*
X61849000Y-29718000D03*
D23*
X64389000Y-32258000D03*
X64389000Y-29718000D03*
X66929000Y-32258000D03*
X66929000Y-29718000D03*
X69469000Y-32258000D03*
D22*
X69469000Y-29718000D03*
D23*
X72009000Y-32258000D03*
X72009000Y-29718000D03*
D22*
X74549000Y-32258000D03*
D23*
X74549000Y-29718000D03*
D22*
X77089000Y-32258000D03*
D23*
X77089000Y-29718000D03*
X79629000Y-32258000D03*
D22*
X79629000Y-29718000D03*
D23*
X82169000Y-32258000D03*
X82169000Y-29718000D03*
D22*
X38989000Y-80518000D03*
X38989000Y-77978000D03*
D17*
X88773000Y-49784000D03*
D18*
X88773000Y-52324000D03*
X88773000Y-54864000D03*
X88773000Y-57404000D03*
M02*
