%TF.FileFunction,Legend,Bot*%
%FSLAX46Y46*%
G04 Gerber Fmt 4.6, Leading zero omitted, Abs format (unit mm)*
G04 Created by KiCad (PCBNEW (2014-10-02 BZR 5161)-product) date 2/13/2015 2:51:55 PM*
%MOMM*%
G01*
G04 APERTURE LIST*
%ADD10C,0.100000*%
%ADD11C,0.127000*%
%ADD12C,1.524000*%
%ADD13O,3.500120X1.400000*%
%ADD14R,3.500120X1.400000*%
%ADD15R,2.286000X1.574800*%
%ADD16O,2.286000X1.574800*%
%ADD17C,2.000000*%
%ADD18C,1.397000*%
%ADD19C,1.778000*%
%ADD20R,1.778000X1.778000*%
%ADD21C,1.700000*%
%ADD22C,1.501140*%
%ADD23R,1.574800X2.286000*%
%ADD24O,1.574800X2.286000*%
%ADD25C,4.064000*%
%ADD26C,3.000000*%
%ADD27C,1.500000*%
G04 APERTURE END LIST*
D10*
D11*
X55867729Y-116289143D02*
X55904014Y-116398000D01*
X55904014Y-116579429D01*
X55867729Y-116652000D01*
X55831443Y-116688286D01*
X55758871Y-116724571D01*
X55686300Y-116724571D01*
X55613729Y-116688286D01*
X55577443Y-116652000D01*
X55541157Y-116579429D01*
X55504871Y-116434286D01*
X55468586Y-116361714D01*
X55432300Y-116325429D01*
X55359729Y-116289143D01*
X55287157Y-116289143D01*
X55214586Y-116325429D01*
X55178300Y-116361714D01*
X55142014Y-116434286D01*
X55142014Y-116615714D01*
X55178300Y-116724571D01*
X55396014Y-117051143D02*
X56158014Y-117051143D01*
X55432300Y-117051143D02*
X55396014Y-117123714D01*
X55396014Y-117268857D01*
X55432300Y-117341428D01*
X55468586Y-117377714D01*
X55541157Y-117414000D01*
X55758871Y-117414000D01*
X55831443Y-117377714D01*
X55867729Y-117341428D01*
X55904014Y-117268857D01*
X55904014Y-117123714D01*
X55867729Y-117051143D01*
X55867729Y-118030857D02*
X55904014Y-117958286D01*
X55904014Y-117813143D01*
X55867729Y-117740572D01*
X55795157Y-117704286D01*
X55504871Y-117704286D01*
X55432300Y-117740572D01*
X55396014Y-117813143D01*
X55396014Y-117958286D01*
X55432300Y-118030857D01*
X55504871Y-118067143D01*
X55577443Y-118067143D01*
X55650014Y-117704286D01*
X55904014Y-118720286D02*
X55504871Y-118720286D01*
X55432300Y-118684000D01*
X55396014Y-118611429D01*
X55396014Y-118466286D01*
X55432300Y-118393715D01*
X55867729Y-118720286D02*
X55904014Y-118647715D01*
X55904014Y-118466286D01*
X55867729Y-118393715D01*
X55795157Y-118357429D01*
X55722586Y-118357429D01*
X55650014Y-118393715D01*
X55613729Y-118466286D01*
X55613729Y-118647715D01*
X55577443Y-118720286D01*
X55904014Y-119083144D02*
X55142014Y-119083144D01*
X55613729Y-119155715D02*
X55904014Y-119373429D01*
X55396014Y-119373429D02*
X55686300Y-119083144D01*
X55867729Y-119990286D02*
X55904014Y-119917715D01*
X55904014Y-119772572D01*
X55867729Y-119700001D01*
X55795157Y-119663715D01*
X55504871Y-119663715D01*
X55432300Y-119700001D01*
X55396014Y-119772572D01*
X55396014Y-119917715D01*
X55432300Y-119990286D01*
X55504871Y-120026572D01*
X55577443Y-120026572D01*
X55650014Y-119663715D01*
X55904014Y-120353144D02*
X55396014Y-120353144D01*
X55541157Y-120353144D02*
X55468586Y-120389429D01*
X55432300Y-120425715D01*
X55396014Y-120498286D01*
X55396014Y-120570858D01*
X55904014Y-121405429D02*
X55142014Y-121405429D01*
X55142014Y-121586857D01*
X55178300Y-121695714D01*
X55250871Y-121768286D01*
X55323443Y-121804571D01*
X55468586Y-121840857D01*
X55577443Y-121840857D01*
X55722586Y-121804571D01*
X55795157Y-121768286D01*
X55867729Y-121695714D01*
X55904014Y-121586857D01*
X55904014Y-121405429D01*
X55904014Y-122167429D02*
X55396014Y-122167429D01*
X55541157Y-122167429D02*
X55468586Y-122203714D01*
X55432300Y-122240000D01*
X55396014Y-122312571D01*
X55396014Y-122385143D01*
X55904014Y-122639143D02*
X55396014Y-122639143D01*
X55142014Y-122639143D02*
X55178300Y-122602857D01*
X55214586Y-122639143D01*
X55178300Y-122675428D01*
X55142014Y-122639143D01*
X55214586Y-122639143D01*
X55396014Y-122929428D02*
X55904014Y-123110857D01*
X55396014Y-123292285D01*
X55867729Y-123872856D02*
X55904014Y-123800285D01*
X55904014Y-123655142D01*
X55867729Y-123582571D01*
X55795157Y-123546285D01*
X55504871Y-123546285D01*
X55432300Y-123582571D01*
X55396014Y-123655142D01*
X55396014Y-123800285D01*
X55432300Y-123872856D01*
X55504871Y-123909142D01*
X55577443Y-123909142D01*
X55650014Y-123546285D01*
X55904014Y-124235714D02*
X55396014Y-124235714D01*
X55541157Y-124235714D02*
X55468586Y-124271999D01*
X55432300Y-124308285D01*
X55396014Y-124380856D01*
X55396014Y-124453428D01*
X55142014Y-125179141D02*
X55904014Y-125433141D01*
X55142014Y-125687141D01*
X55214586Y-125904856D02*
X55178300Y-125941142D01*
X55142014Y-126013713D01*
X55142014Y-126195142D01*
X55178300Y-126267713D01*
X55214586Y-126303999D01*
X55287157Y-126340284D01*
X55359729Y-126340284D01*
X55468586Y-126303999D01*
X55904014Y-125868570D01*
X55904014Y-126340284D01*
X57097814Y-116325429D02*
X56335814Y-116325429D01*
X56335814Y-116506857D01*
X56372100Y-116615714D01*
X56444671Y-116688286D01*
X56517243Y-116724571D01*
X56662386Y-116760857D01*
X56771243Y-116760857D01*
X56916386Y-116724571D01*
X56988957Y-116688286D01*
X57061529Y-116615714D01*
X57097814Y-116506857D01*
X57097814Y-116325429D01*
X57061529Y-117377714D02*
X57097814Y-117305143D01*
X57097814Y-117160000D01*
X57061529Y-117087429D01*
X56988957Y-117051143D01*
X56698671Y-117051143D01*
X56626100Y-117087429D01*
X56589814Y-117160000D01*
X56589814Y-117305143D01*
X56626100Y-117377714D01*
X56698671Y-117414000D01*
X56771243Y-117414000D01*
X56843814Y-117051143D01*
X57061529Y-117704286D02*
X57097814Y-117776857D01*
X57097814Y-117922000D01*
X57061529Y-117994572D01*
X56988957Y-118030857D01*
X56952671Y-118030857D01*
X56880100Y-117994572D01*
X56843814Y-117922000D01*
X56843814Y-117813143D01*
X56807529Y-117740572D01*
X56734957Y-117704286D01*
X56698671Y-117704286D01*
X56626100Y-117740572D01*
X56589814Y-117813143D01*
X56589814Y-117922000D01*
X56626100Y-117994572D01*
X57097814Y-118357429D02*
X56589814Y-118357429D01*
X56335814Y-118357429D02*
X56372100Y-118321143D01*
X56408386Y-118357429D01*
X56372100Y-118393714D01*
X56335814Y-118357429D01*
X56408386Y-118357429D01*
X56589814Y-119046857D02*
X57206671Y-119046857D01*
X57279243Y-119010571D01*
X57315529Y-118974286D01*
X57351814Y-118901714D01*
X57351814Y-118792857D01*
X57315529Y-118720286D01*
X57061529Y-119046857D02*
X57097814Y-118974286D01*
X57097814Y-118829143D01*
X57061529Y-118756571D01*
X57025243Y-118720286D01*
X56952671Y-118684000D01*
X56734957Y-118684000D01*
X56662386Y-118720286D01*
X56626100Y-118756571D01*
X56589814Y-118829143D01*
X56589814Y-118974286D01*
X56626100Y-119046857D01*
X56589814Y-119409715D02*
X57097814Y-119409715D01*
X56662386Y-119409715D02*
X56626100Y-119446000D01*
X56589814Y-119518572D01*
X56589814Y-119627429D01*
X56626100Y-119700000D01*
X56698671Y-119736286D01*
X57097814Y-119736286D01*
X57097814Y-120679715D02*
X56335814Y-120679715D01*
X56626100Y-120679715D02*
X56589814Y-120752286D01*
X56589814Y-120897429D01*
X56626100Y-120970000D01*
X56662386Y-121006286D01*
X56734957Y-121042572D01*
X56952671Y-121042572D01*
X57025243Y-121006286D01*
X57061529Y-120970000D01*
X57097814Y-120897429D01*
X57097814Y-120752286D01*
X57061529Y-120679715D01*
X56589814Y-121296572D02*
X57097814Y-121478001D01*
X56589814Y-121659429D02*
X57097814Y-121478001D01*
X57279243Y-121405429D01*
X57315529Y-121369144D01*
X57351814Y-121296572D01*
X56698671Y-122784286D02*
X56734957Y-122893143D01*
X56771243Y-122929428D01*
X56843814Y-122965714D01*
X56952671Y-122965714D01*
X57025243Y-122929428D01*
X57061529Y-122893143D01*
X57097814Y-122820571D01*
X57097814Y-122530286D01*
X56335814Y-122530286D01*
X56335814Y-122784286D01*
X56372100Y-122856857D01*
X56408386Y-122893143D01*
X56480957Y-122929428D01*
X56553529Y-122929428D01*
X56626100Y-122893143D01*
X56662386Y-122856857D01*
X56698671Y-122784286D01*
X56698671Y-122530286D01*
X57097814Y-123292286D02*
X56335814Y-123292286D01*
X57097814Y-123727714D01*
X56335814Y-123727714D01*
X56698671Y-124344572D02*
X56734957Y-124453429D01*
X56771243Y-124489714D01*
X56843814Y-124526000D01*
X56952671Y-124526000D01*
X57025243Y-124489714D01*
X57061529Y-124453429D01*
X57097814Y-124380857D01*
X57097814Y-124090572D01*
X56335814Y-124090572D01*
X56335814Y-124344572D01*
X56372100Y-124417143D01*
X56408386Y-124453429D01*
X56480957Y-124489714D01*
X56553529Y-124489714D01*
X56626100Y-124453429D01*
X56662386Y-124417143D01*
X56698671Y-124344572D01*
X56698671Y-124090572D01*
X57388100Y-125650857D02*
X57351814Y-125614571D01*
X57242957Y-125542000D01*
X57170386Y-125505714D01*
X57061529Y-125469428D01*
X56880100Y-125433143D01*
X56734957Y-125433143D01*
X56553529Y-125469428D01*
X56444671Y-125505714D01*
X56372100Y-125542000D01*
X56263243Y-125614571D01*
X56226957Y-125650857D01*
X56335814Y-126086285D02*
X56335814Y-126231428D01*
X56372100Y-126304000D01*
X56444671Y-126376571D01*
X56589814Y-126412857D01*
X56843814Y-126412857D01*
X56988957Y-126376571D01*
X57061529Y-126304000D01*
X57097814Y-126231428D01*
X57097814Y-126086285D01*
X57061529Y-126013714D01*
X56988957Y-125941143D01*
X56843814Y-125904857D01*
X56589814Y-125904857D01*
X56444671Y-125941143D01*
X56372100Y-126013714D01*
X56335814Y-126086285D01*
X57097814Y-126739429D02*
X56335814Y-126739429D01*
X56698671Y-126739429D02*
X56698671Y-127174857D01*
X57097814Y-127174857D02*
X56335814Y-127174857D01*
X57061529Y-127501429D02*
X57097814Y-127610286D01*
X57097814Y-127791715D01*
X57061529Y-127864286D01*
X57025243Y-127900572D01*
X56952671Y-127936857D01*
X56880100Y-127936857D01*
X56807529Y-127900572D01*
X56771243Y-127864286D01*
X56734957Y-127791715D01*
X56698671Y-127646572D01*
X56662386Y-127574000D01*
X56626100Y-127537715D01*
X56553529Y-127501429D01*
X56480957Y-127501429D01*
X56408386Y-127537715D01*
X56372100Y-127574000D01*
X56335814Y-127646572D01*
X56335814Y-127828000D01*
X56372100Y-127936857D01*
X56335814Y-128263429D02*
X56952671Y-128263429D01*
X57025243Y-128299714D01*
X57061529Y-128336000D01*
X57097814Y-128408571D01*
X57097814Y-128553714D01*
X57061529Y-128626286D01*
X57025243Y-128662571D01*
X56952671Y-128698857D01*
X56335814Y-128698857D01*
X57097814Y-130005143D02*
X57097814Y-129642286D01*
X56335814Y-129642286D01*
X56698671Y-130513143D02*
X56734957Y-130622000D01*
X56771243Y-130658285D01*
X56843814Y-130694571D01*
X56952671Y-130694571D01*
X57025243Y-130658285D01*
X57061529Y-130622000D01*
X57097814Y-130549428D01*
X57097814Y-130259143D01*
X56335814Y-130259143D01*
X56335814Y-130513143D01*
X56372100Y-130585714D01*
X56408386Y-130622000D01*
X56480957Y-130658285D01*
X56553529Y-130658285D01*
X56626100Y-130622000D01*
X56662386Y-130585714D01*
X56698671Y-130513143D01*
X56698671Y-130259143D01*
X57097814Y-131021143D02*
X56335814Y-131021143D01*
X56698671Y-131021143D02*
X56698671Y-131456571D01*
X57097814Y-131456571D02*
X56335814Y-131456571D01*
X56698671Y-132073429D02*
X56734957Y-132182286D01*
X56771243Y-132218571D01*
X56843814Y-132254857D01*
X56952671Y-132254857D01*
X57025243Y-132218571D01*
X57061529Y-132182286D01*
X57097814Y-132109714D01*
X57097814Y-131819429D01*
X56335814Y-131819429D01*
X56335814Y-132073429D01*
X56372100Y-132146000D01*
X56408386Y-132182286D01*
X56480957Y-132218571D01*
X56553529Y-132218571D01*
X56626100Y-132182286D01*
X56662386Y-132146000D01*
X56698671Y-132073429D01*
X56698671Y-131819429D01*
X57388100Y-132508857D02*
X57351814Y-132545143D01*
X57242957Y-132617714D01*
X57170386Y-132654000D01*
X57061529Y-132690286D01*
X56880100Y-132726571D01*
X56734957Y-132726571D01*
X56553529Y-132690286D01*
X56444671Y-132654000D01*
X56372100Y-132617714D01*
X56263243Y-132545143D01*
X56226957Y-132508857D01*
X58291614Y-116325429D02*
X57529614Y-116325429D01*
X57819900Y-116325429D02*
X57783614Y-116398000D01*
X57783614Y-116543143D01*
X57819900Y-116615714D01*
X57856186Y-116652000D01*
X57928757Y-116688286D01*
X58146471Y-116688286D01*
X58219043Y-116652000D01*
X58255329Y-116615714D01*
X58291614Y-116543143D01*
X58291614Y-116398000D01*
X58255329Y-116325429D01*
X58291614Y-117014858D02*
X57529614Y-117014858D01*
X57819900Y-117014858D02*
X57783614Y-117087429D01*
X57783614Y-117232572D01*
X57819900Y-117305143D01*
X57856186Y-117341429D01*
X57928757Y-117377715D01*
X58146471Y-117377715D01*
X58219043Y-117341429D01*
X58255329Y-117305143D01*
X58291614Y-117232572D01*
X58291614Y-117087429D01*
X58255329Y-117014858D01*
X57783614Y-118030858D02*
X58291614Y-118030858D01*
X57783614Y-117704287D02*
X58182757Y-117704287D01*
X58255329Y-117740572D01*
X58291614Y-117813144D01*
X58291614Y-117922001D01*
X58255329Y-117994572D01*
X58219043Y-118030858D01*
X58291614Y-118393716D02*
X57783614Y-118393716D01*
X57928757Y-118393716D02*
X57856186Y-118430001D01*
X57819900Y-118466287D01*
X57783614Y-118538858D01*
X57783614Y-118611430D01*
X58291614Y-119192001D02*
X57892471Y-119192001D01*
X57819900Y-119155715D01*
X57783614Y-119083144D01*
X57783614Y-118938001D01*
X57819900Y-118865430D01*
X58255329Y-119192001D02*
X58291614Y-119119430D01*
X58291614Y-118938001D01*
X58255329Y-118865430D01*
X58182757Y-118829144D01*
X58110186Y-118829144D01*
X58037614Y-118865430D01*
X58001329Y-118938001D01*
X58001329Y-119119430D01*
X57965043Y-119192001D01*
X57783614Y-119554859D02*
X58291614Y-119554859D01*
X57856186Y-119554859D02*
X57819900Y-119591144D01*
X57783614Y-119663716D01*
X57783614Y-119772573D01*
X57819900Y-119845144D01*
X57892471Y-119881430D01*
X58291614Y-119881430D01*
X57928757Y-120716002D02*
X57892471Y-120679716D01*
X57856186Y-120607145D01*
X57856186Y-120534573D01*
X57892471Y-120462002D01*
X57928757Y-120425716D01*
X58001329Y-120389430D01*
X58073900Y-120389430D01*
X58146471Y-120425716D01*
X58182757Y-120462002D01*
X58219043Y-120534573D01*
X58219043Y-120607145D01*
X58182757Y-120679716D01*
X58146471Y-120716002D01*
X57856186Y-120716002D02*
X58146471Y-120716002D01*
X58182757Y-120752288D01*
X58182757Y-120788573D01*
X58146471Y-120861145D01*
X58073900Y-120897430D01*
X57892471Y-120897430D01*
X57783614Y-120824859D01*
X57711043Y-120716002D01*
X57674757Y-120570859D01*
X57711043Y-120425716D01*
X57783614Y-120316859D01*
X57892471Y-120244288D01*
X58037614Y-120208002D01*
X58182757Y-120244288D01*
X58291614Y-120316859D01*
X58364186Y-120425716D01*
X58400471Y-120570859D01*
X58364186Y-120716002D01*
X58291614Y-120824859D01*
X58291614Y-121550573D02*
X57892471Y-121550573D01*
X57819900Y-121514287D01*
X57783614Y-121441716D01*
X57783614Y-121296573D01*
X57819900Y-121224002D01*
X58255329Y-121550573D02*
X58291614Y-121478002D01*
X58291614Y-121296573D01*
X58255329Y-121224002D01*
X58182757Y-121187716D01*
X58110186Y-121187716D01*
X58037614Y-121224002D01*
X58001329Y-121296573D01*
X58001329Y-121478002D01*
X57965043Y-121550573D01*
X58291614Y-122022288D02*
X58255329Y-121949716D01*
X58182757Y-121913431D01*
X57529614Y-121913431D01*
X57783614Y-122639145D02*
X58291614Y-122639145D01*
X57783614Y-122312574D02*
X58182757Y-122312574D01*
X58255329Y-122348859D01*
X58291614Y-122421431D01*
X58291614Y-122530288D01*
X58255329Y-122602859D01*
X58219043Y-122639145D01*
X58291614Y-123002003D02*
X57783614Y-123002003D01*
X57856186Y-123002003D02*
X57819900Y-123038288D01*
X57783614Y-123110860D01*
X57783614Y-123219717D01*
X57819900Y-123292288D01*
X57892471Y-123328574D01*
X58291614Y-123328574D01*
X57892471Y-123328574D02*
X57819900Y-123364860D01*
X57783614Y-123437431D01*
X57783614Y-123546288D01*
X57819900Y-123618860D01*
X57892471Y-123655145D01*
X58291614Y-123655145D01*
X58219043Y-124018003D02*
X58255329Y-124054288D01*
X58291614Y-124018003D01*
X58255329Y-123981717D01*
X58219043Y-124018003D01*
X58291614Y-124018003D01*
X58291614Y-124380860D02*
X57783614Y-124380860D01*
X57856186Y-124380860D02*
X57819900Y-124417145D01*
X57783614Y-124489717D01*
X57783614Y-124598574D01*
X57819900Y-124671145D01*
X57892471Y-124707431D01*
X58291614Y-124707431D01*
X57892471Y-124707431D02*
X57819900Y-124743717D01*
X57783614Y-124816288D01*
X57783614Y-124925145D01*
X57819900Y-124997717D01*
X57892471Y-125034002D01*
X58291614Y-125034002D01*
X58291614Y-125396860D02*
X57783614Y-125396860D01*
X57529614Y-125396860D02*
X57565900Y-125360574D01*
X57602186Y-125396860D01*
X57565900Y-125433145D01*
X57529614Y-125396860D01*
X57602186Y-125396860D01*
X57783614Y-125650859D02*
X57783614Y-125941145D01*
X57529614Y-125759717D02*
X58182757Y-125759717D01*
X58255329Y-125796002D01*
X58291614Y-125868574D01*
X58291614Y-125941145D01*
X58219043Y-126195146D02*
X58255329Y-126231431D01*
X58291614Y-126195146D01*
X58255329Y-126158860D01*
X58219043Y-126195146D01*
X58291614Y-126195146D01*
X58255329Y-126848288D02*
X58291614Y-126775717D01*
X58291614Y-126630574D01*
X58255329Y-126558003D01*
X58182757Y-126521717D01*
X57892471Y-126521717D01*
X57819900Y-126558003D01*
X57783614Y-126630574D01*
X57783614Y-126775717D01*
X57819900Y-126848288D01*
X57892471Y-126884574D01*
X57965043Y-126884574D01*
X58037614Y-126521717D01*
X58291614Y-127537717D02*
X57529614Y-127537717D01*
X58255329Y-127537717D02*
X58291614Y-127465146D01*
X58291614Y-127320003D01*
X58255329Y-127247431D01*
X58219043Y-127211146D01*
X58146471Y-127174860D01*
X57928757Y-127174860D01*
X57856186Y-127211146D01*
X57819900Y-127247431D01*
X57783614Y-127320003D01*
X57783614Y-127465146D01*
X57819900Y-127537717D01*
X57783614Y-128227146D02*
X58291614Y-128227146D01*
X57783614Y-127900575D02*
X58182757Y-127900575D01*
X58255329Y-127936860D01*
X58291614Y-128009432D01*
X58291614Y-128118289D01*
X58255329Y-128190860D01*
X58219043Y-128227146D01*
X58795986Y-116289143D02*
X58759700Y-116325429D01*
X58723414Y-116398000D01*
X58723414Y-116579429D01*
X58759700Y-116652000D01*
X58795986Y-116688286D01*
X58868557Y-116724571D01*
X58941129Y-116724571D01*
X59049986Y-116688286D01*
X59485414Y-116252857D01*
X59485414Y-116724571D01*
X58723414Y-117196285D02*
X58723414Y-117268857D01*
X58759700Y-117341428D01*
X58795986Y-117377714D01*
X58868557Y-117414000D01*
X59013700Y-117450285D01*
X59195129Y-117450285D01*
X59340271Y-117414000D01*
X59412843Y-117377714D01*
X59449129Y-117341428D01*
X59485414Y-117268857D01*
X59485414Y-117196285D01*
X59449129Y-117123714D01*
X59412843Y-117087428D01*
X59340271Y-117051143D01*
X59195129Y-117014857D01*
X59013700Y-117014857D01*
X58868557Y-117051143D01*
X58795986Y-117087428D01*
X58759700Y-117123714D01*
X58723414Y-117196285D01*
X59485414Y-118175999D02*
X59485414Y-117740571D01*
X59485414Y-117958285D02*
X58723414Y-117958285D01*
X58832271Y-117885714D01*
X58904843Y-117813142D01*
X58941129Y-117740571D01*
X58723414Y-118865428D02*
X58723414Y-118502571D01*
X59086271Y-118466285D01*
X59049986Y-118502571D01*
X59013700Y-118575142D01*
X59013700Y-118756571D01*
X59049986Y-118829142D01*
X59086271Y-118865428D01*
X59158843Y-118901713D01*
X59340271Y-118901713D01*
X59412843Y-118865428D01*
X59449129Y-118829142D01*
X59485414Y-118756571D01*
X59485414Y-118575142D01*
X59449129Y-118502571D01*
X59412843Y-118466285D01*
X59412843Y-119228285D02*
X59449129Y-119264570D01*
X59485414Y-119228285D01*
X59449129Y-119191999D01*
X59412843Y-119228285D01*
X59485414Y-119228285D01*
X58723414Y-119736284D02*
X58723414Y-119808856D01*
X58759700Y-119881427D01*
X58795986Y-119917713D01*
X58868557Y-119953999D01*
X59013700Y-119990284D01*
X59195129Y-119990284D01*
X59340271Y-119953999D01*
X59412843Y-119917713D01*
X59449129Y-119881427D01*
X59485414Y-119808856D01*
X59485414Y-119736284D01*
X59449129Y-119663713D01*
X59412843Y-119627427D01*
X59340271Y-119591142D01*
X59195129Y-119554856D01*
X59013700Y-119554856D01*
X58868557Y-119591142D01*
X58795986Y-119627427D01*
X58759700Y-119663713D01*
X58723414Y-119736284D01*
X58795986Y-120280570D02*
X58759700Y-120316856D01*
X58723414Y-120389427D01*
X58723414Y-120570856D01*
X58759700Y-120643427D01*
X58795986Y-120679713D01*
X58868557Y-120715998D01*
X58941129Y-120715998D01*
X59049986Y-120679713D01*
X59485414Y-120244284D01*
X59485414Y-120715998D01*
X59412843Y-121042570D02*
X59449129Y-121078855D01*
X59485414Y-121042570D01*
X59449129Y-121006284D01*
X59412843Y-121042570D01*
X59485414Y-121042570D01*
X59485414Y-121804569D02*
X59485414Y-121369141D01*
X59485414Y-121586855D02*
X58723414Y-121586855D01*
X58832271Y-121514284D01*
X58904843Y-121441712D01*
X58941129Y-121369141D01*
X58723414Y-122058569D02*
X58723414Y-122530283D01*
X59013700Y-122276283D01*
X59013700Y-122385141D01*
X59049986Y-122457712D01*
X59086271Y-122493998D01*
X59158843Y-122530283D01*
X59340271Y-122530283D01*
X59412843Y-122493998D01*
X59449129Y-122457712D01*
X59485414Y-122385141D01*
X59485414Y-122167426D01*
X59449129Y-122094855D01*
X59412843Y-122058569D01*
%LPC*%
D12*
X67050000Y-132144000D03*
X80050000Y-132144000D03*
X65750000Y-110244000D03*
X52750000Y-110244000D03*
X85150000Y-118044000D03*
X85150000Y-105044000D03*
X66150000Y-125444000D03*
X53150000Y-125444000D03*
D13*
X79550000Y-109094000D03*
X79550000Y-107394000D03*
X79550000Y-110794000D03*
D14*
X79550000Y-105694000D03*
D13*
X79550000Y-112494000D03*
X79550000Y-122344000D03*
X79550000Y-120644000D03*
X79550000Y-124044000D03*
D14*
X79550000Y-118944000D03*
D13*
X79550000Y-125744000D03*
X69550000Y-109094000D03*
X69550000Y-107394000D03*
X69550000Y-110794000D03*
D14*
X69550000Y-105694000D03*
D13*
X69550000Y-112494000D03*
X69550000Y-122344000D03*
X69550000Y-120644000D03*
X69550000Y-124044000D03*
D14*
X69550000Y-118944000D03*
D13*
X69550000Y-125744000D03*
D15*
X117170000Y-124624000D03*
D16*
X117170000Y-122084000D03*
X117170000Y-119544000D03*
X117170000Y-117004000D03*
X117170000Y-114464000D03*
X117170000Y-111924000D03*
X117170000Y-109384000D03*
X117170000Y-106844000D03*
X109550000Y-106844000D03*
X109550000Y-109384000D03*
X109550000Y-111924000D03*
X109550000Y-114464000D03*
X109550000Y-117004000D03*
X109550000Y-119544000D03*
X109550000Y-122084000D03*
X109550000Y-124624000D03*
D17*
X51150000Y-120644000D03*
X66150000Y-120644000D03*
X65750000Y-105444000D03*
X50750000Y-105444000D03*
D18*
X92540000Y-126444000D03*
X100160000Y-126444000D03*
X87440000Y-124044000D03*
X95060000Y-124044000D03*
X94940000Y-106544000D03*
X102560000Y-106544000D03*
X92740000Y-108944000D03*
X100360000Y-108944000D03*
X124760000Y-104244000D03*
X117140000Y-104244000D03*
D19*
X127300000Y-110794000D03*
D20*
X125050000Y-110794000D03*
D19*
X122800000Y-110794000D03*
D21*
X61550000Y-115244000D03*
X63550000Y-115244000D03*
X52750000Y-115244000D03*
X50750000Y-115244000D03*
D22*
X74750000Y-106594000D03*
X74750000Y-109094000D03*
X74750000Y-112494000D03*
X74750000Y-114994000D03*
X103050000Y-114394000D03*
X103050000Y-111894000D03*
X103050000Y-119494000D03*
X103050000Y-116994000D03*
X74750000Y-119894000D03*
X74750000Y-122394000D03*
X74750000Y-125694000D03*
X74750000Y-128194000D03*
X123950000Y-116994000D03*
X123950000Y-114494000D03*
D18*
X120360000Y-114464000D03*
X120360000Y-117004000D03*
X124780000Y-108044000D03*
X127320000Y-108044000D03*
X97780000Y-122344000D03*
X100320000Y-122344000D03*
X106660000Y-114454000D03*
X106660000Y-111914000D03*
X106660000Y-119554000D03*
X106660000Y-117014000D03*
X106650000Y-106814000D03*
X106650000Y-104274000D03*
X106630000Y-124484000D03*
X104090000Y-124484000D03*
X90050000Y-106074000D03*
X90050000Y-108614000D03*
D23*
X90050000Y-119594000D03*
D24*
X92590000Y-119594000D03*
X95130000Y-119594000D03*
X97670000Y-119594000D03*
X97670000Y-111974000D03*
X95130000Y-111974000D03*
X92590000Y-111974000D03*
X90050000Y-111974000D03*
D25*
X73250000Y-134644000D03*
X58050000Y-105344000D03*
X124150000Y-122444000D03*
D26*
X63600000Y-135444000D03*
X50100000Y-135444000D03*
D27*
X60250000Y-132444000D03*
X53450000Y-132444000D03*
X60250000Y-129944000D03*
X53450000Y-129944000D03*
D26*
X56850000Y-136244000D03*
X94800000Y-135444000D03*
X81300000Y-135444000D03*
D27*
X91450000Y-132444000D03*
X84650000Y-132444000D03*
X91450000Y-129944000D03*
X84650000Y-129944000D03*
D26*
X88050000Y-136244000D03*
X128600000Y-135444000D03*
X115100000Y-135444000D03*
D27*
X120950000Y-129944000D03*
X120550000Y-132444000D03*
X123150000Y-132444000D03*
X125250000Y-132444000D03*
X118450000Y-132444000D03*
X125250000Y-129944000D03*
X123150000Y-129944000D03*
X118450000Y-129944000D03*
D26*
X121850000Y-136244000D03*
X111600000Y-135444000D03*
X98100000Y-135444000D03*
D27*
X108250000Y-132444000D03*
X101450000Y-132444000D03*
X108250000Y-129944000D03*
X101450000Y-129944000D03*
D26*
X104850000Y-136244000D03*
M02*
