M48
;DRILL file {kicad (2014-08-05 BZR 5054)-product} date Thu 18 Sep 2014 01:52:22 PM PDT
;FORMAT={-:-/ absolute / inch / decimal}
FMAT,2
INCH,TZ
T1C0.025
T2C0.030
T3C0.032
T4C0.032
T5C0.039
T6C0.040
T7C0.087
%
G90
G05
M72
T1
X1.86Y-2.405
X1.86Y-2.515
X2.1359Y-2.0078
T2
X3.205Y-1.52
X3.205Y-1.82
X3.205Y-1.92
X3.205Y-2.28
X3.205Y-2.38
X3.205Y-2.68
T3
X1.75Y-2.46
X1.75Y-2.56
X1.75Y-2.685
X1.75Y-2.785
X1.765Y-1.56
X1.765Y-1.66
X1.97Y-2.46
X1.97Y-2.56
X1.97Y-2.685
X1.97Y-2.785
X1.985Y-1.56
X1.985Y-1.66
T4
X1.5875Y-1.8025
X1.5875Y-2.1025
X1.5875Y-2.2825
X1.6875Y-1.8025
X1.6875Y-2.1025
X1.6875Y-2.2825
X1.7875Y-1.8025
X1.7875Y-2.1025
X1.8875Y-1.8025
X1.8875Y-2.1025
X1.8875Y-2.2425
X1.8875Y-2.3425
X1.9875Y-1.8025
X1.9875Y-2.1025
X1.9875Y-2.2425
X1.9875Y-2.3425
X2.0875Y-1.8025
X2.0875Y-2.1025
X2.15Y-2.46
X2.15Y-2.56
X2.15Y-2.685
X2.15Y-2.785
X2.165Y-1.56
X2.165Y-1.66
X2.1875Y-1.8025
X2.1875Y-2.1025
X2.1875Y-2.2825
X2.2875Y-1.8025
X2.2875Y-2.1025
X2.2875Y-2.2825
X2.565Y-1.42
X2.565Y-1.72
X2.565Y-2.48
X2.565Y-2.78
X2.665Y-1.42
X2.665Y-1.72
X2.665Y-1.945
X2.665Y-2.245
X2.665Y-2.48
X2.665Y-2.78
X2.765Y-1.51
X2.765Y-1.81
X2.765Y-1.945
X2.765Y-2.245
X2.765Y-2.37
X2.765Y-2.67
X2.865Y-1.945
X2.865Y-2.245
X2.935Y-1.52
X2.935Y-1.72
X2.935Y-2.48
X2.935Y-2.68
X2.965Y-1.945
X2.965Y-2.245
X3.035Y-1.52
X3.035Y-1.72
X3.035Y-2.48
X3.035Y-2.68
T5
X3.205Y-1.62
X3.205Y-1.72
X3.205Y-2.48
X3.205Y-2.58
X3.4831Y-1.5216
X3.4831Y-1.62
X3.4831Y-2.4816
X3.4831Y-2.58
T6
X1.53Y-2.525
X1.53Y-2.625
X1.53Y-2.725
X1.535Y-1.17
X1.535Y-1.27
X1.535Y-1.46
X1.535Y-1.56
X1.535Y-1.66
X1.535Y-3.07
X1.535Y-3.17
X1.635Y-1.17
X1.635Y-1.27
X1.635Y-3.07
X1.635Y-3.17
X1.735Y-1.17
X1.735Y-1.27
X1.735Y-3.07
X1.735Y-3.17
X1.835Y-1.17
X1.835Y-1.27
X1.835Y-3.07
X1.835Y-3.17
X1.935Y-1.17
X1.935Y-1.27
X1.935Y-3.07
X1.935Y-3.17
X2.035Y-1.17
X2.035Y-1.27
X2.035Y-3.07
X2.035Y-3.17
X2.135Y-1.17
X2.135Y-1.27
X2.135Y-3.07
X2.135Y-3.17
X2.235Y-1.17
X2.235Y-1.27
X2.235Y-3.07
X2.235Y-3.17
X2.335Y-1.17
X2.335Y-1.27
X2.335Y-3.07
X2.335Y-3.17
X2.435Y-1.17
X2.435Y-1.27
X2.435Y-3.07
X2.435Y-3.17
X2.535Y-1.17
X2.535Y-1.27
X2.535Y-3.07
X2.535Y-3.17
X2.635Y-1.17
X2.635Y-1.27
X2.635Y-3.07
X2.635Y-3.17
X2.735Y-1.17
X2.735Y-1.27
X2.735Y-3.07
X2.735Y-3.17
X2.835Y-1.17
X2.835Y-1.27
X2.835Y-3.07
X2.835Y-3.17
X2.935Y-1.17
X2.935Y-1.27
X2.935Y-3.07
X2.935Y-3.17
X3.035Y-1.17
X3.035Y-1.27
X3.035Y-3.07
X3.035Y-3.17
X3.135Y-1.17
X3.135Y-1.27
X3.135Y-3.07
X3.135Y-3.17
X3.235Y-1.17
X3.235Y-1.27
X3.235Y-3.07
X3.235Y-3.17
T7
X3.651Y-1.4193
X3.651Y-1.8208
X3.651Y-2.3793
X3.651Y-2.7808
T0
M30
