%TF.FileFunction,Legend,Top*%
%FSLAX46Y46*%
G04 Gerber Fmt 4.6, Leading zero omitted, Abs format (unit mm)*
G04 Created by KiCad (PCBNEW (2014-10-02 BZR 5161)-product) date 2/13/2015 2:51:55 PM*
%MOMM*%
G01*
G04 APERTURE LIST*
%ADD10C,0.100000*%
%ADD11C,0.150000*%
%ADD12C,0.125000*%
%ADD13C,1.524000*%
%ADD14O,3.500120X1.400000*%
%ADD15R,3.500120X1.400000*%
%ADD16R,2.286000X1.574800*%
%ADD17O,2.286000X1.574800*%
%ADD18C,2.000000*%
%ADD19C,1.397000*%
%ADD20C,1.778000*%
%ADD21R,1.778000X1.778000*%
%ADD22C,1.700000*%
%ADD23C,1.501140*%
%ADD24R,1.574800X2.286000*%
%ADD25O,1.574800X2.286000*%
%ADD26C,4.064000*%
%ADD27C,3.000000*%
%ADD28C,1.500000*%
G04 APERTURE END LIST*
D10*
D11*
X79050000Y-132144000D02*
X78550000Y-132144000D01*
X68050000Y-132144000D02*
X68550000Y-132144000D01*
X68550000Y-130144000D02*
X78550000Y-130144000D01*
X78550000Y-130144000D02*
X78550000Y-134144000D01*
X78550000Y-134144000D02*
X68550000Y-134144000D01*
X68550000Y-134144000D02*
X68550000Y-130144000D01*
X53750000Y-110244000D02*
X54250000Y-110244000D01*
X64750000Y-110244000D02*
X64250000Y-110244000D01*
X64250000Y-112244000D02*
X54250000Y-112244000D01*
X54250000Y-112244000D02*
X54250000Y-108244000D01*
X54250000Y-108244000D02*
X64250000Y-108244000D01*
X64250000Y-108244000D02*
X64250000Y-112244000D01*
X85150000Y-106044000D02*
X85150000Y-106544000D01*
X85150000Y-117044000D02*
X85150000Y-116544000D01*
X83150000Y-116544000D02*
X83150000Y-106544000D01*
X83150000Y-106544000D02*
X87150000Y-106544000D01*
X87150000Y-106544000D02*
X87150000Y-116544000D01*
X87150000Y-116544000D02*
X83150000Y-116544000D01*
X54150000Y-125444000D02*
X54650000Y-125444000D01*
X65150000Y-125444000D02*
X64650000Y-125444000D01*
X64650000Y-127444000D02*
X54650000Y-127444000D01*
X54650000Y-127444000D02*
X54650000Y-123444000D01*
X54650000Y-123444000D02*
X64650000Y-123444000D01*
X64650000Y-123444000D02*
X64650000Y-127444000D01*
X81800000Y-104494000D02*
X82050000Y-104494000D01*
X82050000Y-104494000D02*
X82050000Y-113744000D01*
X82050000Y-113744000D02*
X81800000Y-113744000D01*
X81800000Y-104494000D02*
X77300000Y-104494000D01*
X77300000Y-104494000D02*
X77300000Y-113744000D01*
X77300000Y-113744000D02*
X81800000Y-113744000D01*
X81800000Y-104494000D02*
X81800000Y-113744000D01*
X81800000Y-117744000D02*
X82050000Y-117744000D01*
X82050000Y-117744000D02*
X82050000Y-126994000D01*
X82050000Y-126994000D02*
X81800000Y-126994000D01*
X81800000Y-117744000D02*
X77300000Y-117744000D01*
X77300000Y-117744000D02*
X77300000Y-126994000D01*
X77300000Y-126994000D02*
X81800000Y-126994000D01*
X81800000Y-117744000D02*
X81800000Y-126994000D01*
X71800000Y-104494000D02*
X72050000Y-104494000D01*
X72050000Y-104494000D02*
X72050000Y-113744000D01*
X72050000Y-113744000D02*
X71800000Y-113744000D01*
X71800000Y-104494000D02*
X67300000Y-104494000D01*
X67300000Y-104494000D02*
X67300000Y-113744000D01*
X67300000Y-113744000D02*
X71800000Y-113744000D01*
X71800000Y-104494000D02*
X71800000Y-113744000D01*
X71800000Y-117744000D02*
X72050000Y-117744000D01*
X72050000Y-117744000D02*
X72050000Y-126994000D01*
X72050000Y-126994000D02*
X71800000Y-126994000D01*
X71800000Y-117744000D02*
X67300000Y-117744000D01*
X67300000Y-117744000D02*
X67300000Y-126994000D01*
X67300000Y-126994000D02*
X71800000Y-126994000D01*
X71800000Y-117744000D02*
X71800000Y-126994000D01*
X112090000Y-127164000D02*
X112090000Y-127164000D01*
X112090000Y-127164000D02*
X112090000Y-125894000D01*
X112090000Y-125894000D02*
X114630000Y-125894000D01*
X114630000Y-125894000D02*
X114630000Y-127164000D01*
X110820000Y-127164000D02*
X110820000Y-104304000D01*
X110820000Y-104304000D02*
X115900000Y-104304000D01*
X115900000Y-104304000D02*
X115900000Y-127164000D01*
X115900000Y-127164000D02*
X110820000Y-127164000D01*
X52650000Y-118144000D02*
X52650000Y-123144000D01*
X52650000Y-123144000D02*
X64650000Y-123144000D01*
X64650000Y-123144000D02*
X64650000Y-118144000D01*
X64650000Y-118144000D02*
X52650000Y-118144000D01*
X64650000Y-120644000D02*
X65650000Y-120644000D01*
X52650000Y-120644000D02*
X51650000Y-120644000D01*
X64250000Y-107944000D02*
X64250000Y-102944000D01*
X64250000Y-102944000D02*
X52250000Y-102944000D01*
X52250000Y-102944000D02*
X52250000Y-107944000D01*
X52250000Y-107944000D02*
X64250000Y-107944000D01*
X52250000Y-105444000D02*
X51250000Y-105444000D01*
X64250000Y-105444000D02*
X65250000Y-105444000D01*
X92540000Y-126444000D02*
X93048000Y-126444000D01*
X100160000Y-126444000D02*
X99652000Y-126444000D01*
X99652000Y-126444000D02*
X99652000Y-125428000D01*
X99652000Y-125428000D02*
X93048000Y-125428000D01*
X93048000Y-125428000D02*
X93048000Y-127460000D01*
X93048000Y-127460000D02*
X99652000Y-127460000D01*
X99652000Y-127460000D02*
X99652000Y-126444000D01*
X93048000Y-125936000D02*
X93556000Y-125428000D01*
X87440000Y-124044000D02*
X87948000Y-124044000D01*
X95060000Y-124044000D02*
X94552000Y-124044000D01*
X94552000Y-124044000D02*
X94552000Y-123028000D01*
X94552000Y-123028000D02*
X87948000Y-123028000D01*
X87948000Y-123028000D02*
X87948000Y-125060000D01*
X87948000Y-125060000D02*
X94552000Y-125060000D01*
X94552000Y-125060000D02*
X94552000Y-124044000D01*
X87948000Y-123536000D02*
X88456000Y-123028000D01*
X94940000Y-106544000D02*
X95448000Y-106544000D01*
X102560000Y-106544000D02*
X102052000Y-106544000D01*
X102052000Y-106544000D02*
X102052000Y-105528000D01*
X102052000Y-105528000D02*
X95448000Y-105528000D01*
X95448000Y-105528000D02*
X95448000Y-107560000D01*
X95448000Y-107560000D02*
X102052000Y-107560000D01*
X102052000Y-107560000D02*
X102052000Y-106544000D01*
X95448000Y-106036000D02*
X95956000Y-105528000D01*
X92740000Y-108944000D02*
X93248000Y-108944000D01*
X100360000Y-108944000D02*
X99852000Y-108944000D01*
X99852000Y-108944000D02*
X99852000Y-107928000D01*
X99852000Y-107928000D02*
X93248000Y-107928000D01*
X93248000Y-107928000D02*
X93248000Y-109960000D01*
X93248000Y-109960000D02*
X99852000Y-109960000D01*
X99852000Y-109960000D02*
X99852000Y-108944000D01*
X93248000Y-108436000D02*
X93756000Y-107928000D01*
X124760000Y-104244000D02*
X124252000Y-104244000D01*
X117140000Y-104244000D02*
X117648000Y-104244000D01*
X117648000Y-104244000D02*
X117648000Y-105260000D01*
X117648000Y-105260000D02*
X124252000Y-105260000D01*
X124252000Y-105260000D02*
X124252000Y-103228000D01*
X124252000Y-103228000D02*
X117648000Y-103228000D01*
X117648000Y-103228000D02*
X117648000Y-104244000D01*
X124252000Y-104752000D02*
X123744000Y-105260000D01*
X65090000Y-115244000D02*
G75*
G03X65090000Y-115244000I-2540000J0D01*
G74*
G01*
X54290000Y-115244000D02*
G75*
G03X54290000Y-115244000I-2540000J0D01*
G74*
G01*
X76850000Y-107844000D02*
G75*
G03X76850000Y-107844000I-2100000J0D01*
G74*
G01*
X76850000Y-113744000D02*
G75*
G03X76850000Y-113744000I-2100000J0D01*
G74*
G01*
X105150000Y-113144000D02*
G75*
G03X105150000Y-113144000I-2100000J0D01*
G74*
G01*
X105150000Y-118244000D02*
G75*
G03X105150000Y-118244000I-2100000J0D01*
G74*
G01*
X76850000Y-121144000D02*
G75*
G03X76850000Y-121144000I-2100000J0D01*
G74*
G01*
X76850000Y-126944000D02*
G75*
G03X76850000Y-126944000I-2100000J0D01*
G74*
G01*
X126050000Y-115744000D02*
G75*
G03X126050000Y-115744000I-2100000J0D01*
G74*
G01*
X121630000Y-113244800D02*
X121630000Y-118274000D01*
X121630000Y-118274000D02*
X119090000Y-118274000D01*
X119090000Y-118274000D02*
X119090000Y-113194000D01*
X119090000Y-113194000D02*
X121630000Y-113194000D01*
X120995000Y-113194000D02*
X121630000Y-113829000D01*
X123560800Y-106774000D02*
X128590000Y-106774000D01*
X128590000Y-106774000D02*
X128590000Y-109314000D01*
X128590000Y-109314000D02*
X123510000Y-109314000D01*
X123510000Y-109314000D02*
X123510000Y-106774000D01*
X123510000Y-107409000D02*
X124145000Y-106774000D01*
X96560800Y-121074000D02*
X101590000Y-121074000D01*
X101590000Y-121074000D02*
X101590000Y-123614000D01*
X101590000Y-123614000D02*
X96510000Y-123614000D01*
X96510000Y-123614000D02*
X96510000Y-121074000D01*
X96510000Y-121709000D02*
X97145000Y-121074000D01*
X105390000Y-115673200D02*
X105390000Y-110644000D01*
X105390000Y-110644000D02*
X107930000Y-110644000D01*
X107930000Y-110644000D02*
X107930000Y-115724000D01*
X107930000Y-115724000D02*
X105390000Y-115724000D01*
X106025000Y-115724000D02*
X105390000Y-115089000D01*
X105390000Y-120773200D02*
X105390000Y-115744000D01*
X105390000Y-115744000D02*
X107930000Y-115744000D01*
X107930000Y-115744000D02*
X107930000Y-120824000D01*
X107930000Y-120824000D02*
X105390000Y-120824000D01*
X106025000Y-120824000D02*
X105390000Y-120189000D01*
X105380000Y-108033200D02*
X105380000Y-103004000D01*
X105380000Y-103004000D02*
X107920000Y-103004000D01*
X107920000Y-103004000D02*
X107920000Y-108084000D01*
X107920000Y-108084000D02*
X105380000Y-108084000D01*
X106015000Y-108084000D02*
X105380000Y-107449000D01*
X107849200Y-125754000D02*
X102820000Y-125754000D01*
X102820000Y-125754000D02*
X102820000Y-123214000D01*
X102820000Y-123214000D02*
X107900000Y-123214000D01*
X107900000Y-123214000D02*
X107900000Y-125754000D01*
X107900000Y-125119000D02*
X107265000Y-125754000D01*
X91320000Y-104854800D02*
X91320000Y-109884000D01*
X91320000Y-109884000D02*
X88780000Y-109884000D01*
X88780000Y-109884000D02*
X88780000Y-104804000D01*
X88780000Y-104804000D02*
X91320000Y-104804000D01*
X90685000Y-104804000D02*
X91320000Y-105439000D01*
X88780000Y-114514000D02*
X90050000Y-114514000D01*
X90050000Y-114514000D02*
X90050000Y-117054000D01*
X90050000Y-117054000D02*
X88780000Y-117054000D01*
X88780000Y-113244000D02*
X98940000Y-113244000D01*
X98940000Y-113244000D02*
X98940000Y-118324000D01*
X98940000Y-118324000D02*
X88780000Y-118324000D01*
X88780000Y-118324000D02*
X88780000Y-113244000D01*
X75536000Y-134644000D02*
G75*
G03X75536000Y-134644000I-2286000J0D01*
G74*
G01*
X60336000Y-105344000D02*
G75*
G03X60336000Y-105344000I-2286000J0D01*
G74*
G01*
X126436000Y-122444000D02*
G75*
G03X126436000Y-122444000I-2286000J0D01*
G74*
G01*
X111850000Y-138744000D02*
X111850000Y-139144000D01*
D12*
X75921429Y-131783286D02*
X75671429Y-131426143D01*
X75492857Y-131783286D02*
X75492857Y-131033286D01*
X75778572Y-131033286D01*
X75850000Y-131069000D01*
X75885715Y-131104714D01*
X75921429Y-131176143D01*
X75921429Y-131283286D01*
X75885715Y-131354714D01*
X75850000Y-131390429D01*
X75778572Y-131426143D01*
X75492857Y-131426143D01*
X76600000Y-131783286D02*
X76242857Y-131783286D01*
X76242857Y-131033286D01*
X76814286Y-131104714D02*
X76850000Y-131069000D01*
X76921429Y-131033286D01*
X77100000Y-131033286D01*
X77171429Y-131069000D01*
X77207143Y-131104714D01*
X77242858Y-131176143D01*
X77242858Y-131247571D01*
X77207143Y-131354714D01*
X76778572Y-131783286D01*
X77242858Y-131783286D01*
X70925000Y-130733286D02*
X70567857Y-130733286D01*
X70532143Y-131090429D01*
X70567857Y-131054714D01*
X70639286Y-131019000D01*
X70817857Y-131019000D01*
X70889286Y-131054714D01*
X70925000Y-131090429D01*
X70960715Y-131161857D01*
X70960715Y-131340429D01*
X70925000Y-131411857D01*
X70889286Y-131447571D01*
X70817857Y-131483286D01*
X70639286Y-131483286D01*
X70567857Y-131447571D01*
X70532143Y-131411857D01*
X71282143Y-131483286D02*
X71282143Y-130733286D01*
X71353572Y-131197571D02*
X71567858Y-131483286D01*
X71567858Y-130983286D02*
X71282143Y-131269000D01*
X57250000Y-109583286D02*
X57000000Y-109226143D01*
X56821428Y-109583286D02*
X56821428Y-108833286D01*
X57107143Y-108833286D01*
X57178571Y-108869000D01*
X57214286Y-108904714D01*
X57250000Y-108976143D01*
X57250000Y-109083286D01*
X57214286Y-109154714D01*
X57178571Y-109190429D01*
X57107143Y-109226143D01*
X56821428Y-109226143D01*
X58000000Y-109583286D02*
X57750000Y-109226143D01*
X57571428Y-109583286D02*
X57571428Y-108833286D01*
X57857143Y-108833286D01*
X57928571Y-108869000D01*
X57964286Y-108904714D01*
X58000000Y-108976143D01*
X58000000Y-109083286D01*
X57964286Y-109154714D01*
X57928571Y-109190429D01*
X57857143Y-109226143D01*
X57571428Y-109226143D01*
X58642857Y-109083286D02*
X58642857Y-109583286D01*
X58464286Y-108797571D02*
X58285714Y-109333286D01*
X58750000Y-109333286D01*
X61178571Y-110904714D02*
X61214285Y-110869000D01*
X61285714Y-110833286D01*
X61464285Y-110833286D01*
X61535714Y-110869000D01*
X61571428Y-110904714D01*
X61607143Y-110976143D01*
X61607143Y-111047571D01*
X61571428Y-111154714D01*
X61142857Y-111583286D01*
X61607143Y-111583286D01*
X61892857Y-110904714D02*
X61928571Y-110869000D01*
X62000000Y-110833286D01*
X62178571Y-110833286D01*
X62250000Y-110869000D01*
X62285714Y-110904714D01*
X62321429Y-110976143D01*
X62321429Y-111047571D01*
X62285714Y-111154714D01*
X61857143Y-111583286D01*
X62321429Y-111583286D01*
X86489286Y-110544000D02*
X86132143Y-110794000D01*
X86489286Y-110972572D02*
X85739286Y-110972572D01*
X85739286Y-110686857D01*
X85775000Y-110615429D01*
X85810714Y-110579714D01*
X85882143Y-110544000D01*
X85989286Y-110544000D01*
X86060714Y-110579714D01*
X86096429Y-110615429D01*
X86132143Y-110686857D01*
X86132143Y-110972572D01*
X86489286Y-109794000D02*
X86132143Y-110044000D01*
X86489286Y-110222572D02*
X85739286Y-110222572D01*
X85739286Y-109936857D01*
X85775000Y-109865429D01*
X85810714Y-109829714D01*
X85882143Y-109794000D01*
X85989286Y-109794000D01*
X86060714Y-109829714D01*
X86096429Y-109865429D01*
X86132143Y-109936857D01*
X86132143Y-110222572D01*
X85810714Y-109508286D02*
X85775000Y-109472572D01*
X85739286Y-109401143D01*
X85739286Y-109222572D01*
X85775000Y-109151143D01*
X85810714Y-109115429D01*
X85882143Y-109079714D01*
X85953571Y-109079714D01*
X86060714Y-109115429D01*
X86489286Y-109544000D01*
X86489286Y-109079714D01*
X83739286Y-114169000D02*
X83739286Y-114526143D01*
X84096429Y-114561857D01*
X84060714Y-114526143D01*
X84025000Y-114454714D01*
X84025000Y-114276143D01*
X84060714Y-114204714D01*
X84096429Y-114169000D01*
X84167857Y-114133285D01*
X84346429Y-114133285D01*
X84417857Y-114169000D01*
X84453571Y-114204714D01*
X84489286Y-114276143D01*
X84489286Y-114454714D01*
X84453571Y-114526143D01*
X84417857Y-114561857D01*
X84489286Y-113811857D02*
X83739286Y-113811857D01*
X84203571Y-113740428D02*
X84489286Y-113526142D01*
X83989286Y-113526142D02*
X84275000Y-113811857D01*
X57721429Y-124783286D02*
X57471429Y-124426143D01*
X57292857Y-124783286D02*
X57292857Y-124033286D01*
X57578572Y-124033286D01*
X57650000Y-124069000D01*
X57685715Y-124104714D01*
X57721429Y-124176143D01*
X57721429Y-124283286D01*
X57685715Y-124354714D01*
X57650000Y-124390429D01*
X57578572Y-124426143D01*
X57292857Y-124426143D01*
X58400000Y-124783286D02*
X58042857Y-124783286D01*
X58042857Y-124033286D01*
X58971429Y-124283286D02*
X58971429Y-124783286D01*
X58792858Y-123997571D02*
X58614286Y-124533286D01*
X59078572Y-124533286D01*
X61578571Y-126104714D02*
X61614285Y-126069000D01*
X61685714Y-126033286D01*
X61864285Y-126033286D01*
X61935714Y-126069000D01*
X61971428Y-126104714D01*
X62007143Y-126176143D01*
X62007143Y-126247571D01*
X61971428Y-126354714D01*
X61542857Y-126783286D01*
X62007143Y-126783286D01*
X62292857Y-126104714D02*
X62328571Y-126069000D01*
X62400000Y-126033286D01*
X62578571Y-126033286D01*
X62650000Y-126069000D01*
X62685714Y-126104714D01*
X62721429Y-126176143D01*
X62721429Y-126247571D01*
X62685714Y-126354714D01*
X62257143Y-126783286D01*
X62721429Y-126783286D01*
X78157143Y-103690429D02*
X78264286Y-103726143D01*
X78300001Y-103761857D01*
X78335715Y-103833286D01*
X78335715Y-103940429D01*
X78300001Y-104011857D01*
X78264286Y-104047571D01*
X78192858Y-104083286D01*
X77907143Y-104083286D01*
X77907143Y-103333286D01*
X78157143Y-103333286D01*
X78228572Y-103369000D01*
X78264286Y-103404714D01*
X78300001Y-103476143D01*
X78300001Y-103547571D01*
X78264286Y-103619000D01*
X78228572Y-103654714D01*
X78157143Y-103690429D01*
X77907143Y-103690429D01*
X78657143Y-103333286D02*
X78657143Y-103940429D01*
X78692858Y-104011857D01*
X78728572Y-104047571D01*
X78800001Y-104083286D01*
X78942858Y-104083286D01*
X79014286Y-104047571D01*
X79050001Y-104011857D01*
X79085715Y-103940429D01*
X79085715Y-103333286D01*
X79692857Y-103690429D02*
X79442857Y-103690429D01*
X79442857Y-104083286D02*
X79442857Y-103333286D01*
X79800000Y-103333286D01*
X80514286Y-104083286D02*
X80264286Y-103726143D01*
X80085714Y-104083286D02*
X80085714Y-103333286D01*
X80371429Y-103333286D01*
X80442857Y-103369000D01*
X80478572Y-103404714D01*
X80514286Y-103476143D01*
X80514286Y-103583286D01*
X80478572Y-103654714D01*
X80442857Y-103690429D01*
X80371429Y-103726143D01*
X80085714Y-103726143D01*
X80800000Y-103404714D02*
X80835714Y-103369000D01*
X80907143Y-103333286D01*
X81085714Y-103333286D01*
X81157143Y-103369000D01*
X81192857Y-103404714D01*
X81228572Y-103476143D01*
X81228572Y-103547571D01*
X81192857Y-103654714D01*
X80764286Y-104083286D01*
X81228572Y-104083286D01*
X78228571Y-116890429D02*
X78335714Y-116926143D01*
X78371429Y-116961857D01*
X78407143Y-117033286D01*
X78407143Y-117140429D01*
X78371429Y-117211857D01*
X78335714Y-117247571D01*
X78264286Y-117283286D01*
X77978571Y-117283286D01*
X77978571Y-116533286D01*
X78228571Y-116533286D01*
X78300000Y-116569000D01*
X78335714Y-116604714D01*
X78371429Y-116676143D01*
X78371429Y-116747571D01*
X78335714Y-116819000D01*
X78300000Y-116854714D01*
X78228571Y-116890429D01*
X77978571Y-116890429D01*
X78728571Y-116533286D02*
X78728571Y-117140429D01*
X78764286Y-117211857D01*
X78800000Y-117247571D01*
X78871429Y-117283286D01*
X79014286Y-117283286D01*
X79085714Y-117247571D01*
X79121429Y-117211857D01*
X79157143Y-117140429D01*
X79157143Y-116533286D01*
X79764285Y-116890429D02*
X79514285Y-116890429D01*
X79514285Y-117283286D02*
X79514285Y-116533286D01*
X79871428Y-116533286D01*
X80514285Y-117283286D02*
X80157142Y-117283286D01*
X80157142Y-116533286D01*
X80728571Y-116604714D02*
X80764285Y-116569000D01*
X80835714Y-116533286D01*
X81014285Y-116533286D01*
X81085714Y-116569000D01*
X81121428Y-116604714D01*
X81157143Y-116676143D01*
X81157143Y-116747571D01*
X81121428Y-116854714D01*
X80692857Y-117283286D01*
X81157143Y-117283286D01*
X68257143Y-103690429D02*
X68364286Y-103726143D01*
X68400001Y-103761857D01*
X68435715Y-103833286D01*
X68435715Y-103940429D01*
X68400001Y-104011857D01*
X68364286Y-104047571D01*
X68292858Y-104083286D01*
X68007143Y-104083286D01*
X68007143Y-103333286D01*
X68257143Y-103333286D01*
X68328572Y-103369000D01*
X68364286Y-103404714D01*
X68400001Y-103476143D01*
X68400001Y-103547571D01*
X68364286Y-103619000D01*
X68328572Y-103654714D01*
X68257143Y-103690429D01*
X68007143Y-103690429D01*
X68757143Y-103333286D02*
X68757143Y-103940429D01*
X68792858Y-104011857D01*
X68828572Y-104047571D01*
X68900001Y-104083286D01*
X69042858Y-104083286D01*
X69114286Y-104047571D01*
X69150001Y-104011857D01*
X69185715Y-103940429D01*
X69185715Y-103333286D01*
X69792857Y-103690429D02*
X69542857Y-103690429D01*
X69542857Y-104083286D02*
X69542857Y-103333286D01*
X69900000Y-103333286D01*
X70614286Y-104083286D02*
X70364286Y-103726143D01*
X70185714Y-104083286D02*
X70185714Y-103333286D01*
X70471429Y-103333286D01*
X70542857Y-103369000D01*
X70578572Y-103404714D01*
X70614286Y-103476143D01*
X70614286Y-103583286D01*
X70578572Y-103654714D01*
X70542857Y-103690429D01*
X70471429Y-103726143D01*
X70185714Y-103726143D01*
X71328572Y-104083286D02*
X70900000Y-104083286D01*
X71114286Y-104083286D02*
X71114286Y-103333286D01*
X71042857Y-103440429D01*
X70971429Y-103511857D01*
X70900000Y-103547571D01*
X68228571Y-116890429D02*
X68335714Y-116926143D01*
X68371429Y-116961857D01*
X68407143Y-117033286D01*
X68407143Y-117140429D01*
X68371429Y-117211857D01*
X68335714Y-117247571D01*
X68264286Y-117283286D01*
X67978571Y-117283286D01*
X67978571Y-116533286D01*
X68228571Y-116533286D01*
X68300000Y-116569000D01*
X68335714Y-116604714D01*
X68371429Y-116676143D01*
X68371429Y-116747571D01*
X68335714Y-116819000D01*
X68300000Y-116854714D01*
X68228571Y-116890429D01*
X67978571Y-116890429D01*
X68728571Y-116533286D02*
X68728571Y-117140429D01*
X68764286Y-117211857D01*
X68800000Y-117247571D01*
X68871429Y-117283286D01*
X69014286Y-117283286D01*
X69085714Y-117247571D01*
X69121429Y-117211857D01*
X69157143Y-117140429D01*
X69157143Y-116533286D01*
X69764285Y-116890429D02*
X69514285Y-116890429D01*
X69514285Y-117283286D02*
X69514285Y-116533286D01*
X69871428Y-116533286D01*
X70514285Y-117283286D02*
X70157142Y-117283286D01*
X70157142Y-116533286D01*
X71157143Y-117283286D02*
X70728571Y-117283286D01*
X70942857Y-117283286D02*
X70942857Y-116533286D01*
X70871428Y-116640429D01*
X70800000Y-116711857D01*
X70728571Y-116747571D01*
X111679286Y-123655428D02*
X112429286Y-123405428D01*
X111679286Y-123155428D01*
X112357857Y-122476857D02*
X112393571Y-122512571D01*
X112429286Y-122619714D01*
X112429286Y-122691143D01*
X112393571Y-122798286D01*
X112322143Y-122869714D01*
X112250714Y-122905429D01*
X112107857Y-122941143D01*
X112000714Y-122941143D01*
X111857857Y-122905429D01*
X111786429Y-122869714D01*
X111715000Y-122798286D01*
X111679286Y-122691143D01*
X111679286Y-122619714D01*
X111715000Y-122512571D01*
X111750714Y-122476857D01*
X111679286Y-122262571D02*
X111679286Y-121834000D01*
X112429286Y-122048286D02*
X111679286Y-122048286D01*
X112429286Y-121226857D02*
X112429286Y-121584000D01*
X111679286Y-121584000D01*
X112429286Y-120583999D02*
X112429286Y-121012571D01*
X112429286Y-120798285D02*
X111679286Y-120798285D01*
X111786429Y-120869714D01*
X111857857Y-120941142D01*
X111893571Y-121012571D01*
X114969286Y-116785429D02*
X114219286Y-116785429D01*
X114219286Y-116499714D01*
X114255000Y-116428286D01*
X114290714Y-116392571D01*
X114362143Y-116356857D01*
X114469286Y-116356857D01*
X114540714Y-116392571D01*
X114576429Y-116428286D01*
X114612143Y-116499714D01*
X114612143Y-116785429D01*
X114255000Y-115642571D02*
X114219286Y-115714000D01*
X114219286Y-115821143D01*
X114255000Y-115928286D01*
X114326429Y-115999714D01*
X114397857Y-116035429D01*
X114540714Y-116071143D01*
X114647857Y-116071143D01*
X114790714Y-116035429D01*
X114862143Y-115999714D01*
X114933571Y-115928286D01*
X114969286Y-115821143D01*
X114969286Y-115749714D01*
X114933571Y-115642571D01*
X114897857Y-115606857D01*
X114647857Y-115606857D01*
X114647857Y-115749714D01*
X114755000Y-115321143D02*
X114755000Y-114964000D01*
X114969286Y-115392571D02*
X114219286Y-115142571D01*
X114969286Y-114892571D01*
X114290714Y-114678286D02*
X114255000Y-114642572D01*
X114219286Y-114571143D01*
X114219286Y-114392572D01*
X114255000Y-114321143D01*
X114290714Y-114285429D01*
X114362143Y-114249714D01*
X114433571Y-114249714D01*
X114540714Y-114285429D01*
X114969286Y-114714000D01*
X114969286Y-114249714D01*
X114219286Y-113999714D02*
X114219286Y-113535428D01*
X114505000Y-113785428D01*
X114505000Y-113678286D01*
X114540714Y-113606857D01*
X114576429Y-113571143D01*
X114647857Y-113535428D01*
X114826429Y-113535428D01*
X114897857Y-113571143D01*
X114933571Y-113606857D01*
X114969286Y-113678286D01*
X114969286Y-113892571D01*
X114933571Y-113964000D01*
X114897857Y-113999714D01*
X114969286Y-112821142D02*
X114969286Y-113249714D01*
X114969286Y-113035428D02*
X114219286Y-113035428D01*
X114326429Y-113106857D01*
X114397857Y-113178285D01*
X114433571Y-113249714D01*
X114219286Y-112356856D02*
X114219286Y-112285428D01*
X114255000Y-112213999D01*
X114290714Y-112178285D01*
X114362143Y-112142571D01*
X114505000Y-112106856D01*
X114683571Y-112106856D01*
X114826429Y-112142571D01*
X114897857Y-112178285D01*
X114933571Y-112213999D01*
X114969286Y-112285428D01*
X114969286Y-112356856D01*
X114933571Y-112428285D01*
X114897857Y-112463999D01*
X114826429Y-112499714D01*
X114683571Y-112535428D01*
X114505000Y-112535428D01*
X114362143Y-112499714D01*
X114290714Y-112463999D01*
X114255000Y-112428285D01*
X114219286Y-112356856D01*
X54221428Y-119783286D02*
X53864285Y-119783286D01*
X53864285Y-119033286D01*
X54828571Y-119783286D02*
X54471428Y-119783286D01*
X54471428Y-119033286D01*
X55471429Y-119783286D02*
X55042857Y-119783286D01*
X55257143Y-119783286D02*
X55257143Y-119033286D01*
X55185714Y-119140429D01*
X55114286Y-119211857D01*
X55042857Y-119247571D01*
X59617858Y-122283286D02*
X59189286Y-122283286D01*
X59403572Y-122283286D02*
X59403572Y-121533286D01*
X59332143Y-121640429D01*
X59260715Y-121711857D01*
X59189286Y-121747571D01*
X60082144Y-121533286D02*
X60153572Y-121533286D01*
X60225001Y-121569000D01*
X60260715Y-121604714D01*
X60296429Y-121676143D01*
X60332144Y-121819000D01*
X60332144Y-121997571D01*
X60296429Y-122140429D01*
X60260715Y-122211857D01*
X60225001Y-122247571D01*
X60153572Y-122283286D01*
X60082144Y-122283286D01*
X60010715Y-122247571D01*
X59975001Y-122211857D01*
X59939286Y-122140429D01*
X59903572Y-121997571D01*
X59903572Y-121819000D01*
X59939286Y-121676143D01*
X59975001Y-121604714D01*
X60010715Y-121569000D01*
X60082144Y-121533286D01*
X60796430Y-121533286D02*
X60867858Y-121533286D01*
X60939287Y-121569000D01*
X60975001Y-121604714D01*
X61010715Y-121676143D01*
X61046430Y-121819000D01*
X61046430Y-121997571D01*
X61010715Y-122140429D01*
X60975001Y-122211857D01*
X60939287Y-122247571D01*
X60867858Y-122283286D01*
X60796430Y-122283286D01*
X60725001Y-122247571D01*
X60689287Y-122211857D01*
X60653572Y-122140429D01*
X60617858Y-121997571D01*
X60617858Y-121819000D01*
X60653572Y-121676143D01*
X60689287Y-121604714D01*
X60725001Y-121569000D01*
X60796430Y-121533286D01*
X61689287Y-121783286D02*
X61689287Y-122283286D01*
X61367858Y-121783286D02*
X61367858Y-122176143D01*
X61403573Y-122247571D01*
X61475001Y-122283286D01*
X61582144Y-122283286D01*
X61653573Y-122247571D01*
X61689287Y-122211857D01*
X62046429Y-122283286D02*
X62046429Y-121533286D01*
X62046429Y-121890429D02*
X62475001Y-121890429D01*
X62475001Y-122283286D02*
X62475001Y-121533286D01*
X53850000Y-104483286D02*
X53492857Y-104483286D01*
X53492857Y-103733286D01*
X54528572Y-104483286D02*
X54278572Y-104126143D01*
X54100000Y-104483286D02*
X54100000Y-103733286D01*
X54385715Y-103733286D01*
X54457143Y-103769000D01*
X54492858Y-103804714D01*
X54528572Y-103876143D01*
X54528572Y-103983286D01*
X54492858Y-104054714D01*
X54457143Y-104090429D01*
X54385715Y-104126143D01*
X54100000Y-104126143D01*
X55242858Y-104483286D02*
X54814286Y-104483286D01*
X55028572Y-104483286D02*
X55028572Y-103733286D01*
X54957143Y-103840429D01*
X54885715Y-103911857D01*
X54814286Y-103947571D01*
X61017858Y-107483286D02*
X60589286Y-107483286D01*
X60803572Y-107483286D02*
X60803572Y-106733286D01*
X60732143Y-106840429D01*
X60660715Y-106911857D01*
X60589286Y-106947571D01*
X61482144Y-106733286D02*
X61553572Y-106733286D01*
X61625001Y-106769000D01*
X61660715Y-106804714D01*
X61696429Y-106876143D01*
X61732144Y-107019000D01*
X61732144Y-107197571D01*
X61696429Y-107340429D01*
X61660715Y-107411857D01*
X61625001Y-107447571D01*
X61553572Y-107483286D01*
X61482144Y-107483286D01*
X61410715Y-107447571D01*
X61375001Y-107411857D01*
X61339286Y-107340429D01*
X61303572Y-107197571D01*
X61303572Y-107019000D01*
X61339286Y-106876143D01*
X61375001Y-106804714D01*
X61410715Y-106769000D01*
X61482144Y-106733286D01*
X62196430Y-106733286D02*
X62267858Y-106733286D01*
X62339287Y-106769000D01*
X62375001Y-106804714D01*
X62410715Y-106876143D01*
X62446430Y-107019000D01*
X62446430Y-107197571D01*
X62410715Y-107340429D01*
X62375001Y-107411857D01*
X62339287Y-107447571D01*
X62267858Y-107483286D01*
X62196430Y-107483286D01*
X62125001Y-107447571D01*
X62089287Y-107411857D01*
X62053572Y-107340429D01*
X62017858Y-107197571D01*
X62017858Y-107019000D01*
X62053572Y-106876143D01*
X62089287Y-106804714D01*
X62125001Y-106769000D01*
X62196430Y-106733286D01*
X63089287Y-106983286D02*
X63089287Y-107483286D01*
X62767858Y-106983286D02*
X62767858Y-107376143D01*
X62803573Y-107447571D01*
X62875001Y-107483286D01*
X62982144Y-107483286D01*
X63053573Y-107447571D01*
X63089287Y-107411857D01*
X63446429Y-107483286D02*
X63446429Y-106733286D01*
X63446429Y-107090429D02*
X63875001Y-107090429D01*
X63875001Y-107483286D02*
X63875001Y-106733286D01*
X97721429Y-126983286D02*
X97471429Y-126626143D01*
X97292857Y-126983286D02*
X97292857Y-126233286D01*
X97578572Y-126233286D01*
X97650000Y-126269000D01*
X97685715Y-126304714D01*
X97721429Y-126376143D01*
X97721429Y-126483286D01*
X97685715Y-126554714D01*
X97650000Y-126590429D01*
X97578572Y-126626143D01*
X97292857Y-126626143D01*
X98400000Y-126983286D02*
X98042857Y-126983286D01*
X98042857Y-126233286D01*
X99042858Y-126983286D02*
X98614286Y-126983286D01*
X98828572Y-126983286D02*
X98828572Y-126233286D01*
X98757143Y-126340429D01*
X98685715Y-126411857D01*
X98614286Y-126447571D01*
X94225000Y-126033286D02*
X93867857Y-126033286D01*
X93832143Y-126390429D01*
X93867857Y-126354714D01*
X93939286Y-126319000D01*
X94117857Y-126319000D01*
X94189286Y-126354714D01*
X94225000Y-126390429D01*
X94260715Y-126461857D01*
X94260715Y-126640429D01*
X94225000Y-126711857D01*
X94189286Y-126747571D01*
X94117857Y-126783286D01*
X93939286Y-126783286D01*
X93867857Y-126747571D01*
X93832143Y-126711857D01*
X94582143Y-126783286D02*
X94582143Y-126033286D01*
X94653572Y-126497571D02*
X94867858Y-126783286D01*
X94867858Y-126283286D02*
X94582143Y-126569000D01*
X92921429Y-124683286D02*
X92671429Y-124326143D01*
X92492857Y-124683286D02*
X92492857Y-123933286D01*
X92778572Y-123933286D01*
X92850000Y-123969000D01*
X92885715Y-124004714D01*
X92921429Y-124076143D01*
X92921429Y-124183286D01*
X92885715Y-124254714D01*
X92850000Y-124290429D01*
X92778572Y-124326143D01*
X92492857Y-124326143D01*
X93600000Y-124683286D02*
X93242857Y-124683286D01*
X93242857Y-123933286D01*
X93778572Y-123933286D02*
X94242858Y-123933286D01*
X93992858Y-124219000D01*
X94100000Y-124219000D01*
X94171429Y-124254714D01*
X94207143Y-124290429D01*
X94242858Y-124361857D01*
X94242858Y-124540429D01*
X94207143Y-124611857D01*
X94171429Y-124647571D01*
X94100000Y-124683286D01*
X93885715Y-124683286D01*
X93814286Y-124647571D01*
X93778572Y-124611857D01*
X89346429Y-124483286D02*
X88917857Y-124483286D01*
X89132143Y-124483286D02*
X89132143Y-123733286D01*
X89060714Y-123840429D01*
X88989286Y-123911857D01*
X88917857Y-123947571D01*
X89810715Y-123733286D02*
X89882143Y-123733286D01*
X89953572Y-123769000D01*
X89989286Y-123804714D01*
X90025000Y-123876143D01*
X90060715Y-124019000D01*
X90060715Y-124197571D01*
X90025000Y-124340429D01*
X89989286Y-124411857D01*
X89953572Y-124447571D01*
X89882143Y-124483286D01*
X89810715Y-124483286D01*
X89739286Y-124447571D01*
X89703572Y-124411857D01*
X89667857Y-124340429D01*
X89632143Y-124197571D01*
X89632143Y-124019000D01*
X89667857Y-123876143D01*
X89703572Y-123804714D01*
X89739286Y-123769000D01*
X89810715Y-123733286D01*
X90525001Y-123733286D02*
X90596429Y-123733286D01*
X90667858Y-123769000D01*
X90703572Y-123804714D01*
X90739286Y-123876143D01*
X90775001Y-124019000D01*
X90775001Y-124197571D01*
X90739286Y-124340429D01*
X90703572Y-124411857D01*
X90667858Y-124447571D01*
X90596429Y-124483286D01*
X90525001Y-124483286D01*
X90453572Y-124447571D01*
X90417858Y-124411857D01*
X90382143Y-124340429D01*
X90346429Y-124197571D01*
X90346429Y-124019000D01*
X90382143Y-123876143D01*
X90417858Y-123804714D01*
X90453572Y-123769000D01*
X90525001Y-123733286D01*
X91096429Y-124483286D02*
X91096429Y-123733286D01*
X91167858Y-124197571D02*
X91382144Y-124483286D01*
X91382144Y-123983286D02*
X91096429Y-124269000D01*
X100150000Y-107083286D02*
X99900000Y-106726143D01*
X99721428Y-107083286D02*
X99721428Y-106333286D01*
X100007143Y-106333286D01*
X100078571Y-106369000D01*
X100114286Y-106404714D01*
X100150000Y-106476143D01*
X100150000Y-106583286D01*
X100114286Y-106654714D01*
X100078571Y-106690429D01*
X100007143Y-106726143D01*
X99721428Y-106726143D01*
X100900000Y-107083286D02*
X100650000Y-106726143D01*
X100471428Y-107083286D02*
X100471428Y-106333286D01*
X100757143Y-106333286D01*
X100828571Y-106369000D01*
X100864286Y-106404714D01*
X100900000Y-106476143D01*
X100900000Y-106583286D01*
X100864286Y-106654714D01*
X100828571Y-106690429D01*
X100757143Y-106726143D01*
X100471428Y-106726143D01*
X101614286Y-107083286D02*
X101185714Y-107083286D01*
X101400000Y-107083286D02*
X101400000Y-106333286D01*
X101328571Y-106440429D01*
X101257143Y-106511857D01*
X101185714Y-106547571D01*
X96625000Y-106333286D02*
X96267857Y-106333286D01*
X96232143Y-106690429D01*
X96267857Y-106654714D01*
X96339286Y-106619000D01*
X96517857Y-106619000D01*
X96589286Y-106654714D01*
X96625000Y-106690429D01*
X96660715Y-106761857D01*
X96660715Y-106940429D01*
X96625000Y-107011857D01*
X96589286Y-107047571D01*
X96517857Y-107083286D01*
X96339286Y-107083286D01*
X96267857Y-107047571D01*
X96232143Y-107011857D01*
X96982143Y-107083286D02*
X96982143Y-106333286D01*
X97053572Y-106797571D02*
X97267858Y-107083286D01*
X97267858Y-106583286D02*
X96982143Y-106869000D01*
X97850000Y-109583286D02*
X97600000Y-109226143D01*
X97421428Y-109583286D02*
X97421428Y-108833286D01*
X97707143Y-108833286D01*
X97778571Y-108869000D01*
X97814286Y-108904714D01*
X97850000Y-108976143D01*
X97850000Y-109083286D01*
X97814286Y-109154714D01*
X97778571Y-109190429D01*
X97707143Y-109226143D01*
X97421428Y-109226143D01*
X98600000Y-109583286D02*
X98350000Y-109226143D01*
X98171428Y-109583286D02*
X98171428Y-108833286D01*
X98457143Y-108833286D01*
X98528571Y-108869000D01*
X98564286Y-108904714D01*
X98600000Y-108976143D01*
X98600000Y-109083286D01*
X98564286Y-109154714D01*
X98528571Y-109190429D01*
X98457143Y-109226143D01*
X98171428Y-109226143D01*
X98850000Y-108833286D02*
X99314286Y-108833286D01*
X99064286Y-109119000D01*
X99171428Y-109119000D01*
X99242857Y-109154714D01*
X99278571Y-109190429D01*
X99314286Y-109261857D01*
X99314286Y-109440429D01*
X99278571Y-109511857D01*
X99242857Y-109547571D01*
X99171428Y-109583286D01*
X98957143Y-109583286D01*
X98885714Y-109547571D01*
X98850000Y-109511857D01*
X94546429Y-109183286D02*
X94117857Y-109183286D01*
X94332143Y-109183286D02*
X94332143Y-108433286D01*
X94260714Y-108540429D01*
X94189286Y-108611857D01*
X94117857Y-108647571D01*
X95010715Y-108433286D02*
X95082143Y-108433286D01*
X95153572Y-108469000D01*
X95189286Y-108504714D01*
X95225000Y-108576143D01*
X95260715Y-108719000D01*
X95260715Y-108897571D01*
X95225000Y-109040429D01*
X95189286Y-109111857D01*
X95153572Y-109147571D01*
X95082143Y-109183286D01*
X95010715Y-109183286D01*
X94939286Y-109147571D01*
X94903572Y-109111857D01*
X94867857Y-109040429D01*
X94832143Y-108897571D01*
X94832143Y-108719000D01*
X94867857Y-108576143D01*
X94903572Y-108504714D01*
X94939286Y-108469000D01*
X95010715Y-108433286D01*
X95725001Y-108433286D02*
X95796429Y-108433286D01*
X95867858Y-108469000D01*
X95903572Y-108504714D01*
X95939286Y-108576143D01*
X95975001Y-108719000D01*
X95975001Y-108897571D01*
X95939286Y-109040429D01*
X95903572Y-109111857D01*
X95867858Y-109147571D01*
X95796429Y-109183286D01*
X95725001Y-109183286D01*
X95653572Y-109147571D01*
X95617858Y-109111857D01*
X95582143Y-109040429D01*
X95546429Y-108897571D01*
X95546429Y-108719000D01*
X95582143Y-108576143D01*
X95617858Y-108504714D01*
X95653572Y-108469000D01*
X95725001Y-108433286D01*
X96296429Y-109183286D02*
X96296429Y-108433286D01*
X96367858Y-108897571D02*
X96582144Y-109183286D01*
X96582144Y-108683286D02*
X96296429Y-108969000D01*
X122267857Y-104883286D02*
X122017857Y-104526143D01*
X121839285Y-104883286D02*
X121839285Y-104133286D01*
X122125000Y-104133286D01*
X122196428Y-104169000D01*
X122232143Y-104204714D01*
X122267857Y-104276143D01*
X122267857Y-104383286D01*
X122232143Y-104454714D01*
X122196428Y-104490429D01*
X122125000Y-104526143D01*
X121839285Y-104526143D01*
X122553571Y-104847571D02*
X122660714Y-104883286D01*
X122839285Y-104883286D01*
X122910714Y-104847571D01*
X122946428Y-104811857D01*
X122982143Y-104740429D01*
X122982143Y-104669000D01*
X122946428Y-104597571D01*
X122910714Y-104561857D01*
X122839285Y-104526143D01*
X122696428Y-104490429D01*
X122625000Y-104454714D01*
X122589285Y-104419000D01*
X122553571Y-104347571D01*
X122553571Y-104276143D01*
X122589285Y-104204714D01*
X122625000Y-104169000D01*
X122696428Y-104133286D01*
X122875000Y-104133286D01*
X122982143Y-104169000D01*
X123696429Y-104883286D02*
X123267857Y-104883286D01*
X123482143Y-104883286D02*
X123482143Y-104133286D01*
X123410714Y-104240429D01*
X123339286Y-104311857D01*
X123267857Y-104347571D01*
X118746429Y-104183286D02*
X118317857Y-104183286D01*
X118532143Y-104183286D02*
X118532143Y-103433286D01*
X118460714Y-103540429D01*
X118389286Y-103611857D01*
X118317857Y-103647571D01*
X119210715Y-103433286D02*
X119282143Y-103433286D01*
X119353572Y-103469000D01*
X119389286Y-103504714D01*
X119425000Y-103576143D01*
X119460715Y-103719000D01*
X119460715Y-103897571D01*
X119425000Y-104040429D01*
X119389286Y-104111857D01*
X119353572Y-104147571D01*
X119282143Y-104183286D01*
X119210715Y-104183286D01*
X119139286Y-104147571D01*
X119103572Y-104111857D01*
X119067857Y-104040429D01*
X119032143Y-103897571D01*
X119032143Y-103719000D01*
X119067857Y-103576143D01*
X119103572Y-103504714D01*
X119139286Y-103469000D01*
X119210715Y-103433286D01*
X119925001Y-103433286D02*
X119996429Y-103433286D01*
X120067858Y-103469000D01*
X120103572Y-103504714D01*
X120139286Y-103576143D01*
X120175001Y-103719000D01*
X120175001Y-103897571D01*
X120139286Y-104040429D01*
X120103572Y-104111857D01*
X120067858Y-104147571D01*
X119996429Y-104183286D01*
X119925001Y-104183286D01*
X119853572Y-104147571D01*
X119817858Y-104111857D01*
X119782143Y-104040429D01*
X119746429Y-103897571D01*
X119746429Y-103719000D01*
X119782143Y-103576143D01*
X119817858Y-103504714D01*
X119853572Y-103469000D01*
X119925001Y-103433286D01*
X120496429Y-104183286D02*
X120496429Y-103433286D01*
X120567858Y-103897571D02*
X120782144Y-104183286D01*
X120782144Y-103683286D02*
X120496429Y-103969000D01*
X125025000Y-112033286D02*
X125525000Y-112033286D01*
X125203571Y-112783286D01*
X125917857Y-112354714D02*
X125846429Y-112319000D01*
X125810714Y-112283286D01*
X125775000Y-112211857D01*
X125775000Y-112176143D01*
X125810714Y-112104714D01*
X125846429Y-112069000D01*
X125917857Y-112033286D01*
X126060714Y-112033286D01*
X126132143Y-112069000D01*
X126167857Y-112104714D01*
X126203572Y-112176143D01*
X126203572Y-112211857D01*
X126167857Y-112283286D01*
X126132143Y-112319000D01*
X126060714Y-112354714D01*
X125917857Y-112354714D01*
X125846429Y-112390429D01*
X125810714Y-112426143D01*
X125775000Y-112497571D01*
X125775000Y-112640429D01*
X125810714Y-112711857D01*
X125846429Y-112747571D01*
X125917857Y-112783286D01*
X126060714Y-112783286D01*
X126132143Y-112747571D01*
X126167857Y-112711857D01*
X126203572Y-112640429D01*
X126203572Y-112497571D01*
X126167857Y-112426143D01*
X126132143Y-112390429D01*
X126060714Y-112354714D01*
X126882143Y-112783286D02*
X126525000Y-112783286D01*
X126525000Y-112033286D01*
X127275001Y-112033286D02*
X127346429Y-112033286D01*
X127417858Y-112069000D01*
X127453572Y-112104714D01*
X127489286Y-112176143D01*
X127525001Y-112319000D01*
X127525001Y-112497571D01*
X127489286Y-112640429D01*
X127453572Y-112711857D01*
X127417858Y-112747571D01*
X127346429Y-112783286D01*
X127275001Y-112783286D01*
X127203572Y-112747571D01*
X127167858Y-112711857D01*
X127132143Y-112640429D01*
X127096429Y-112497571D01*
X127096429Y-112319000D01*
X127132143Y-112176143D01*
X127167858Y-112104714D01*
X127203572Y-112069000D01*
X127275001Y-112033286D01*
X128203572Y-112033286D02*
X127846429Y-112033286D01*
X127810715Y-112390429D01*
X127846429Y-112354714D01*
X127917858Y-112319000D01*
X128096429Y-112319000D01*
X128167858Y-112354714D01*
X128203572Y-112390429D01*
X128239287Y-112461857D01*
X128239287Y-112640429D01*
X128203572Y-112711857D01*
X128167858Y-112747571D01*
X128096429Y-112783286D01*
X127917858Y-112783286D01*
X127846429Y-112747571D01*
X127810715Y-112711857D01*
X62121429Y-114011857D02*
X62085715Y-114047571D01*
X61978572Y-114083286D01*
X61907143Y-114083286D01*
X61800000Y-114047571D01*
X61728572Y-113976143D01*
X61692857Y-113904714D01*
X61657143Y-113761857D01*
X61657143Y-113654714D01*
X61692857Y-113511857D01*
X61728572Y-113440429D01*
X61800000Y-113369000D01*
X61907143Y-113333286D01*
X61978572Y-113333286D01*
X62085715Y-113369000D01*
X62121429Y-113404714D01*
X62800000Y-114083286D02*
X62442857Y-114083286D01*
X62442857Y-113333286D01*
X62978572Y-113333286D02*
X63442858Y-113333286D01*
X63192858Y-113619000D01*
X63300000Y-113619000D01*
X63371429Y-113654714D01*
X63407143Y-113690429D01*
X63442858Y-113761857D01*
X63442858Y-113940429D01*
X63407143Y-114011857D01*
X63371429Y-114047571D01*
X63300000Y-114083286D01*
X63085715Y-114083286D01*
X63014286Y-114047571D01*
X62978572Y-114011857D01*
X58810714Y-116119000D02*
X58775000Y-116083286D01*
X58739286Y-116011857D01*
X58739286Y-115833286D01*
X58775000Y-115761857D01*
X58810714Y-115726143D01*
X58882143Y-115690428D01*
X58953571Y-115690428D01*
X59060714Y-115726143D01*
X59489286Y-116154714D01*
X59489286Y-115690428D01*
X58989286Y-115047571D02*
X59489286Y-115047571D01*
X58989286Y-115369000D02*
X59382143Y-115369000D01*
X59453571Y-115333285D01*
X59489286Y-115261857D01*
X59489286Y-115154714D01*
X59453571Y-115083285D01*
X59417857Y-115047571D01*
X59096429Y-114440429D02*
X59096429Y-114690429D01*
X59489286Y-114690429D02*
X58739286Y-114690429D01*
X58739286Y-114333286D01*
X51150000Y-114111857D02*
X51114286Y-114147571D01*
X51007143Y-114183286D01*
X50935714Y-114183286D01*
X50828571Y-114147571D01*
X50757143Y-114076143D01*
X50721428Y-114004714D01*
X50685714Y-113861857D01*
X50685714Y-113754714D01*
X50721428Y-113611857D01*
X50757143Y-113540429D01*
X50828571Y-113469000D01*
X50935714Y-113433286D01*
X51007143Y-113433286D01*
X51114286Y-113469000D01*
X51150000Y-113504714D01*
X51900000Y-114183286D02*
X51650000Y-113826143D01*
X51471428Y-114183286D02*
X51471428Y-113433286D01*
X51757143Y-113433286D01*
X51828571Y-113469000D01*
X51864286Y-113504714D01*
X51900000Y-113576143D01*
X51900000Y-113683286D01*
X51864286Y-113754714D01*
X51828571Y-113790429D01*
X51757143Y-113826143D01*
X51471428Y-113826143D01*
X52150000Y-113433286D02*
X52614286Y-113433286D01*
X52364286Y-113719000D01*
X52471428Y-113719000D01*
X52542857Y-113754714D01*
X52578571Y-113790429D01*
X52614286Y-113861857D01*
X52614286Y-114040429D01*
X52578571Y-114111857D01*
X52542857Y-114147571D01*
X52471428Y-114183286D01*
X52257143Y-114183286D01*
X52185714Y-114147571D01*
X52150000Y-114111857D01*
X54810714Y-116119000D02*
X54775000Y-116083286D01*
X54739286Y-116011857D01*
X54739286Y-115833286D01*
X54775000Y-115761857D01*
X54810714Y-115726143D01*
X54882143Y-115690428D01*
X54953571Y-115690428D01*
X55060714Y-115726143D01*
X55489286Y-116154714D01*
X55489286Y-115690428D01*
X54989286Y-115047571D02*
X55489286Y-115047571D01*
X54989286Y-115369000D02*
X55382143Y-115369000D01*
X55453571Y-115333285D01*
X55489286Y-115261857D01*
X55489286Y-115154714D01*
X55453571Y-115083285D01*
X55417857Y-115047571D01*
X55096429Y-114440429D02*
X55096429Y-114690429D01*
X55489286Y-114690429D02*
X54739286Y-114690429D01*
X54739286Y-114333286D01*
X74250000Y-108111857D02*
X74214286Y-108147571D01*
X74107143Y-108183286D01*
X74035714Y-108183286D01*
X73928571Y-108147571D01*
X73857143Y-108076143D01*
X73821428Y-108004714D01*
X73785714Y-107861857D01*
X73785714Y-107754714D01*
X73821428Y-107611857D01*
X73857143Y-107540429D01*
X73928571Y-107469000D01*
X74035714Y-107433286D01*
X74107143Y-107433286D01*
X74214286Y-107469000D01*
X74250000Y-107504714D01*
X75000000Y-108183286D02*
X74750000Y-107826143D01*
X74571428Y-108183286D02*
X74571428Y-107433286D01*
X74857143Y-107433286D01*
X74928571Y-107469000D01*
X74964286Y-107504714D01*
X75000000Y-107576143D01*
X75000000Y-107683286D01*
X74964286Y-107754714D01*
X74928571Y-107790429D01*
X74857143Y-107826143D01*
X74571428Y-107826143D01*
X75285714Y-107504714D02*
X75321428Y-107469000D01*
X75392857Y-107433286D01*
X75571428Y-107433286D01*
X75642857Y-107469000D01*
X75678571Y-107504714D01*
X75714286Y-107576143D01*
X75714286Y-107647571D01*
X75678571Y-107754714D01*
X75250000Y-108183286D01*
X75714286Y-108183286D01*
X73660715Y-105283286D02*
X73232143Y-105283286D01*
X73446429Y-105283286D02*
X73446429Y-104533286D01*
X73375000Y-104640429D01*
X73303572Y-104711857D01*
X73232143Y-104747571D01*
X74125001Y-104533286D02*
X74196429Y-104533286D01*
X74267858Y-104569000D01*
X74303572Y-104604714D01*
X74339286Y-104676143D01*
X74375001Y-104819000D01*
X74375001Y-104997571D01*
X74339286Y-105140429D01*
X74303572Y-105211857D01*
X74267858Y-105247571D01*
X74196429Y-105283286D01*
X74125001Y-105283286D01*
X74053572Y-105247571D01*
X74017858Y-105211857D01*
X73982143Y-105140429D01*
X73946429Y-104997571D01*
X73946429Y-104819000D01*
X73982143Y-104676143D01*
X74017858Y-104604714D01*
X74053572Y-104569000D01*
X74125001Y-104533286D01*
X75017858Y-104783286D02*
X75017858Y-105283286D01*
X74696429Y-104783286D02*
X74696429Y-105176143D01*
X74732144Y-105247571D01*
X74803572Y-105283286D01*
X74910715Y-105283286D01*
X74982144Y-105247571D01*
X75017858Y-105211857D01*
X75625000Y-104890429D02*
X75375000Y-104890429D01*
X75375000Y-105283286D02*
X75375000Y-104533286D01*
X75732143Y-104533286D01*
X75910715Y-104533286D02*
X76339286Y-104533286D01*
X76125000Y-105283286D02*
X76125000Y-104533286D01*
X74250000Y-114111857D02*
X74214286Y-114147571D01*
X74107143Y-114183286D01*
X74035714Y-114183286D01*
X73928571Y-114147571D01*
X73857143Y-114076143D01*
X73821428Y-114004714D01*
X73785714Y-113861857D01*
X73785714Y-113754714D01*
X73821428Y-113611857D01*
X73857143Y-113540429D01*
X73928571Y-113469000D01*
X74035714Y-113433286D01*
X74107143Y-113433286D01*
X74214286Y-113469000D01*
X74250000Y-113504714D01*
X75000000Y-114183286D02*
X74750000Y-113826143D01*
X74571428Y-114183286D02*
X74571428Y-113433286D01*
X74857143Y-113433286D01*
X74928571Y-113469000D01*
X74964286Y-113504714D01*
X75000000Y-113576143D01*
X75000000Y-113683286D01*
X74964286Y-113754714D01*
X74928571Y-113790429D01*
X74857143Y-113826143D01*
X74571428Y-113826143D01*
X75714286Y-114183286D02*
X75285714Y-114183286D01*
X75500000Y-114183286D02*
X75500000Y-113433286D01*
X75428571Y-113540429D01*
X75357143Y-113611857D01*
X75285714Y-113647571D01*
X73660715Y-111383286D02*
X73232143Y-111383286D01*
X73446429Y-111383286D02*
X73446429Y-110633286D01*
X73375000Y-110740429D01*
X73303572Y-110811857D01*
X73232143Y-110847571D01*
X74125001Y-110633286D02*
X74196429Y-110633286D01*
X74267858Y-110669000D01*
X74303572Y-110704714D01*
X74339286Y-110776143D01*
X74375001Y-110919000D01*
X74375001Y-111097571D01*
X74339286Y-111240429D01*
X74303572Y-111311857D01*
X74267858Y-111347571D01*
X74196429Y-111383286D01*
X74125001Y-111383286D01*
X74053572Y-111347571D01*
X74017858Y-111311857D01*
X73982143Y-111240429D01*
X73946429Y-111097571D01*
X73946429Y-110919000D01*
X73982143Y-110776143D01*
X74017858Y-110704714D01*
X74053572Y-110669000D01*
X74125001Y-110633286D01*
X75017858Y-110883286D02*
X75017858Y-111383286D01*
X74696429Y-110883286D02*
X74696429Y-111276143D01*
X74732144Y-111347571D01*
X74803572Y-111383286D01*
X74910715Y-111383286D01*
X74982144Y-111347571D01*
X75017858Y-111311857D01*
X75625000Y-110990429D02*
X75375000Y-110990429D01*
X75375000Y-111383286D02*
X75375000Y-110633286D01*
X75732143Y-110633286D01*
X75910715Y-110633286D02*
X76339286Y-110633286D01*
X76125000Y-111383286D02*
X76125000Y-110633286D01*
X102550000Y-113511857D02*
X102514286Y-113547571D01*
X102407143Y-113583286D01*
X102335714Y-113583286D01*
X102228571Y-113547571D01*
X102157143Y-113476143D01*
X102121428Y-113404714D01*
X102085714Y-113261857D01*
X102085714Y-113154714D01*
X102121428Y-113011857D01*
X102157143Y-112940429D01*
X102228571Y-112869000D01*
X102335714Y-112833286D01*
X102407143Y-112833286D01*
X102514286Y-112869000D01*
X102550000Y-112904714D01*
X102871428Y-113583286D02*
X102871428Y-112833286D01*
X103157143Y-112833286D01*
X103228571Y-112869000D01*
X103264286Y-112904714D01*
X103300000Y-112976143D01*
X103300000Y-113083286D01*
X103264286Y-113154714D01*
X103228571Y-113190429D01*
X103157143Y-113226143D01*
X102871428Y-113226143D01*
X103585714Y-112904714D02*
X103621428Y-112869000D01*
X103692857Y-112833286D01*
X103871428Y-112833286D01*
X103942857Y-112869000D01*
X103978571Y-112904714D01*
X104014286Y-112976143D01*
X104014286Y-113047571D01*
X103978571Y-113154714D01*
X103550000Y-113583286D01*
X104014286Y-113583286D01*
X100689286Y-114286856D02*
X100689286Y-114715428D01*
X100689286Y-114501142D02*
X99939286Y-114501142D01*
X100046429Y-114572571D01*
X100117857Y-114643999D01*
X100153571Y-114715428D01*
X99939286Y-113822570D02*
X99939286Y-113751142D01*
X99975000Y-113679713D01*
X100010714Y-113643999D01*
X100082143Y-113608285D01*
X100225000Y-113572570D01*
X100403571Y-113572570D01*
X100546429Y-113608285D01*
X100617857Y-113643999D01*
X100653571Y-113679713D01*
X100689286Y-113751142D01*
X100689286Y-113822570D01*
X100653571Y-113893999D01*
X100617857Y-113929713D01*
X100546429Y-113965428D01*
X100403571Y-114001142D01*
X100225000Y-114001142D01*
X100082143Y-113965428D01*
X100010714Y-113929713D01*
X99975000Y-113893999D01*
X99939286Y-113822570D01*
X100189286Y-112929713D02*
X100689286Y-112929713D01*
X100189286Y-113251142D02*
X100582143Y-113251142D01*
X100653571Y-113215427D01*
X100689286Y-113143999D01*
X100689286Y-113036856D01*
X100653571Y-112965427D01*
X100617857Y-112929713D01*
X100296429Y-112322571D02*
X100296429Y-112572571D01*
X100689286Y-112572571D02*
X99939286Y-112572571D01*
X99939286Y-112215428D01*
X100296429Y-111929714D02*
X100296429Y-111679714D01*
X100689286Y-111572571D02*
X100689286Y-111929714D01*
X99939286Y-111929714D01*
X99939286Y-111572571D01*
X102532143Y-118511857D02*
X102496429Y-118547571D01*
X102389286Y-118583286D01*
X102317857Y-118583286D01*
X102210714Y-118547571D01*
X102139286Y-118476143D01*
X102103571Y-118404714D01*
X102067857Y-118261857D01*
X102067857Y-118154714D01*
X102103571Y-118011857D01*
X102139286Y-117940429D01*
X102210714Y-117869000D01*
X102317857Y-117833286D01*
X102389286Y-117833286D01*
X102496429Y-117869000D01*
X102532143Y-117904714D01*
X102853571Y-118583286D02*
X102853571Y-117833286D01*
X103282143Y-118583286D01*
X103282143Y-117833286D01*
X103603571Y-117904714D02*
X103639285Y-117869000D01*
X103710714Y-117833286D01*
X103889285Y-117833286D01*
X103960714Y-117869000D01*
X103996428Y-117904714D01*
X104032143Y-117976143D01*
X104032143Y-118047571D01*
X103996428Y-118154714D01*
X103567857Y-118583286D01*
X104032143Y-118583286D01*
X100689286Y-119586856D02*
X100689286Y-120015428D01*
X100689286Y-119801142D02*
X99939286Y-119801142D01*
X100046429Y-119872571D01*
X100117857Y-119943999D01*
X100153571Y-120015428D01*
X99939286Y-119122570D02*
X99939286Y-119051142D01*
X99975000Y-118979713D01*
X100010714Y-118943999D01*
X100082143Y-118908285D01*
X100225000Y-118872570D01*
X100403571Y-118872570D01*
X100546429Y-118908285D01*
X100617857Y-118943999D01*
X100653571Y-118979713D01*
X100689286Y-119051142D01*
X100689286Y-119122570D01*
X100653571Y-119193999D01*
X100617857Y-119229713D01*
X100546429Y-119265428D01*
X100403571Y-119301142D01*
X100225000Y-119301142D01*
X100082143Y-119265428D01*
X100010714Y-119229713D01*
X99975000Y-119193999D01*
X99939286Y-119122570D01*
X100189286Y-118229713D02*
X100689286Y-118229713D01*
X100189286Y-118551142D02*
X100582143Y-118551142D01*
X100653571Y-118515427D01*
X100689286Y-118443999D01*
X100689286Y-118336856D01*
X100653571Y-118265427D01*
X100617857Y-118229713D01*
X100296429Y-117622571D02*
X100296429Y-117872571D01*
X100689286Y-117872571D02*
X99939286Y-117872571D01*
X99939286Y-117515428D01*
X100296429Y-117229714D02*
X100296429Y-116979714D01*
X100689286Y-116872571D02*
X100689286Y-117229714D01*
X99939286Y-117229714D01*
X99939286Y-116872571D01*
X74321429Y-121411857D02*
X74285715Y-121447571D01*
X74178572Y-121483286D01*
X74107143Y-121483286D01*
X74000000Y-121447571D01*
X73928572Y-121376143D01*
X73892857Y-121304714D01*
X73857143Y-121161857D01*
X73857143Y-121054714D01*
X73892857Y-120911857D01*
X73928572Y-120840429D01*
X74000000Y-120769000D01*
X74107143Y-120733286D01*
X74178572Y-120733286D01*
X74285715Y-120769000D01*
X74321429Y-120804714D01*
X75000000Y-121483286D02*
X74642857Y-121483286D01*
X74642857Y-120733286D01*
X75214286Y-120804714D02*
X75250000Y-120769000D01*
X75321429Y-120733286D01*
X75500000Y-120733286D01*
X75571429Y-120769000D01*
X75607143Y-120804714D01*
X75642858Y-120876143D01*
X75642858Y-120947571D01*
X75607143Y-121054714D01*
X75178572Y-121483286D01*
X75642858Y-121483286D01*
X73660715Y-118683286D02*
X73232143Y-118683286D01*
X73446429Y-118683286D02*
X73446429Y-117933286D01*
X73375000Y-118040429D01*
X73303572Y-118111857D01*
X73232143Y-118147571D01*
X74125001Y-117933286D02*
X74196429Y-117933286D01*
X74267858Y-117969000D01*
X74303572Y-118004714D01*
X74339286Y-118076143D01*
X74375001Y-118219000D01*
X74375001Y-118397571D01*
X74339286Y-118540429D01*
X74303572Y-118611857D01*
X74267858Y-118647571D01*
X74196429Y-118683286D01*
X74125001Y-118683286D01*
X74053572Y-118647571D01*
X74017858Y-118611857D01*
X73982143Y-118540429D01*
X73946429Y-118397571D01*
X73946429Y-118219000D01*
X73982143Y-118076143D01*
X74017858Y-118004714D01*
X74053572Y-117969000D01*
X74125001Y-117933286D01*
X75017858Y-118183286D02*
X75017858Y-118683286D01*
X74696429Y-118183286D02*
X74696429Y-118576143D01*
X74732144Y-118647571D01*
X74803572Y-118683286D01*
X74910715Y-118683286D01*
X74982144Y-118647571D01*
X75017858Y-118611857D01*
X75625000Y-118290429D02*
X75375000Y-118290429D01*
X75375000Y-118683286D02*
X75375000Y-117933286D01*
X75732143Y-117933286D01*
X75910715Y-117933286D02*
X76339286Y-117933286D01*
X76125000Y-118683286D02*
X76125000Y-117933286D01*
X74321429Y-127111857D02*
X74285715Y-127147571D01*
X74178572Y-127183286D01*
X74107143Y-127183286D01*
X74000000Y-127147571D01*
X73928572Y-127076143D01*
X73892857Y-127004714D01*
X73857143Y-126861857D01*
X73857143Y-126754714D01*
X73892857Y-126611857D01*
X73928572Y-126540429D01*
X74000000Y-126469000D01*
X74107143Y-126433286D01*
X74178572Y-126433286D01*
X74285715Y-126469000D01*
X74321429Y-126504714D01*
X75000000Y-127183286D02*
X74642857Y-127183286D01*
X74642857Y-126433286D01*
X75642858Y-127183286D02*
X75214286Y-127183286D01*
X75428572Y-127183286D02*
X75428572Y-126433286D01*
X75357143Y-126540429D01*
X75285715Y-126611857D01*
X75214286Y-126647571D01*
X73660715Y-124483286D02*
X73232143Y-124483286D01*
X73446429Y-124483286D02*
X73446429Y-123733286D01*
X73375000Y-123840429D01*
X73303572Y-123911857D01*
X73232143Y-123947571D01*
X74125001Y-123733286D02*
X74196429Y-123733286D01*
X74267858Y-123769000D01*
X74303572Y-123804714D01*
X74339286Y-123876143D01*
X74375001Y-124019000D01*
X74375001Y-124197571D01*
X74339286Y-124340429D01*
X74303572Y-124411857D01*
X74267858Y-124447571D01*
X74196429Y-124483286D01*
X74125001Y-124483286D01*
X74053572Y-124447571D01*
X74017858Y-124411857D01*
X73982143Y-124340429D01*
X73946429Y-124197571D01*
X73946429Y-124019000D01*
X73982143Y-123876143D01*
X74017858Y-123804714D01*
X74053572Y-123769000D01*
X74125001Y-123733286D01*
X75017858Y-123983286D02*
X75017858Y-124483286D01*
X74696429Y-123983286D02*
X74696429Y-124376143D01*
X74732144Y-124447571D01*
X74803572Y-124483286D01*
X74910715Y-124483286D01*
X74982144Y-124447571D01*
X75017858Y-124411857D01*
X75625000Y-124090429D02*
X75375000Y-124090429D01*
X75375000Y-124483286D02*
X75375000Y-123733286D01*
X75732143Y-123733286D01*
X75910715Y-123733286D02*
X76339286Y-123733286D01*
X76125000Y-124483286D02*
X76125000Y-123733286D01*
X123350000Y-116011857D02*
X123314286Y-116047571D01*
X123207143Y-116083286D01*
X123135714Y-116083286D01*
X123028571Y-116047571D01*
X122957143Y-115976143D01*
X122921428Y-115904714D01*
X122885714Y-115761857D01*
X122885714Y-115654714D01*
X122921428Y-115511857D01*
X122957143Y-115440429D01*
X123028571Y-115369000D01*
X123135714Y-115333286D01*
X123207143Y-115333286D01*
X123314286Y-115369000D01*
X123350000Y-115404714D01*
X124064286Y-115369000D02*
X123992857Y-115333286D01*
X123885714Y-115333286D01*
X123778571Y-115369000D01*
X123707143Y-115440429D01*
X123671428Y-115511857D01*
X123635714Y-115654714D01*
X123635714Y-115761857D01*
X123671428Y-115904714D01*
X123707143Y-115976143D01*
X123778571Y-116047571D01*
X123885714Y-116083286D01*
X123957143Y-116083286D01*
X124064286Y-116047571D01*
X124100000Y-116011857D01*
X124100000Y-115761857D01*
X123957143Y-115761857D01*
X124385714Y-115404714D02*
X124421428Y-115369000D01*
X124492857Y-115333286D01*
X124671428Y-115333286D01*
X124742857Y-115369000D01*
X124778571Y-115404714D01*
X124814286Y-115476143D01*
X124814286Y-115547571D01*
X124778571Y-115654714D01*
X124350000Y-116083286D01*
X124814286Y-116083286D01*
X126989286Y-116886856D02*
X126989286Y-117315428D01*
X126989286Y-117101142D02*
X126239286Y-117101142D01*
X126346429Y-117172571D01*
X126417857Y-117243999D01*
X126453571Y-117315428D01*
X126239286Y-116422570D02*
X126239286Y-116351142D01*
X126275000Y-116279713D01*
X126310714Y-116243999D01*
X126382143Y-116208285D01*
X126525000Y-116172570D01*
X126703571Y-116172570D01*
X126846429Y-116208285D01*
X126917857Y-116243999D01*
X126953571Y-116279713D01*
X126989286Y-116351142D01*
X126989286Y-116422570D01*
X126953571Y-116493999D01*
X126917857Y-116529713D01*
X126846429Y-116565428D01*
X126703571Y-116601142D01*
X126525000Y-116601142D01*
X126382143Y-116565428D01*
X126310714Y-116529713D01*
X126275000Y-116493999D01*
X126239286Y-116422570D01*
X126489286Y-115529713D02*
X126989286Y-115529713D01*
X126489286Y-115851142D02*
X126882143Y-115851142D01*
X126953571Y-115815427D01*
X126989286Y-115743999D01*
X126989286Y-115636856D01*
X126953571Y-115565427D01*
X126917857Y-115529713D01*
X126596429Y-114922571D02*
X126596429Y-115172571D01*
X126989286Y-115172571D02*
X126239286Y-115172571D01*
X126239286Y-114815428D01*
X126596429Y-114529714D02*
X126596429Y-114279714D01*
X126989286Y-114172571D02*
X126989286Y-114529714D01*
X126239286Y-114529714D01*
X126239286Y-114172571D01*
X119707143Y-119211857D02*
X119671429Y-119247571D01*
X119564286Y-119283286D01*
X119492857Y-119283286D01*
X119385714Y-119247571D01*
X119314286Y-119176143D01*
X119278571Y-119104714D01*
X119242857Y-118961857D01*
X119242857Y-118854714D01*
X119278571Y-118711857D01*
X119314286Y-118640429D01*
X119385714Y-118569000D01*
X119492857Y-118533286D01*
X119564286Y-118533286D01*
X119671429Y-118569000D01*
X119707143Y-118604714D01*
X119957143Y-118783286D02*
X120135714Y-119283286D01*
X120314286Y-118783286D01*
X120600000Y-119283286D02*
X120600000Y-118783286D01*
X120600000Y-118926143D02*
X120635715Y-118854714D01*
X120671429Y-118819000D01*
X120742858Y-118783286D01*
X120814286Y-118783286D01*
X121028572Y-118604714D02*
X121064286Y-118569000D01*
X121135715Y-118533286D01*
X121314286Y-118533286D01*
X121385715Y-118569000D01*
X121421429Y-118604714D01*
X121457144Y-118676143D01*
X121457144Y-118747571D01*
X121421429Y-118854714D01*
X120992858Y-119283286D01*
X121457144Y-119283286D01*
X119317858Y-112133286D02*
X119389286Y-112133286D01*
X119460715Y-112169000D01*
X119496429Y-112204714D01*
X119532143Y-112276143D01*
X119567858Y-112419000D01*
X119567858Y-112597571D01*
X119532143Y-112740429D01*
X119496429Y-112811857D01*
X119460715Y-112847571D01*
X119389286Y-112883286D01*
X119317858Y-112883286D01*
X119246429Y-112847571D01*
X119210715Y-112811857D01*
X119175000Y-112740429D01*
X119139286Y-112597571D01*
X119139286Y-112419000D01*
X119175000Y-112276143D01*
X119210715Y-112204714D01*
X119246429Y-112169000D01*
X119317858Y-112133286D01*
X119889286Y-112811857D02*
X119925001Y-112847571D01*
X119889286Y-112883286D01*
X119853572Y-112847571D01*
X119889286Y-112811857D01*
X119889286Y-112883286D01*
X120639287Y-112883286D02*
X120210715Y-112883286D01*
X120425001Y-112883286D02*
X120425001Y-112133286D01*
X120353572Y-112240429D01*
X120282144Y-112311857D01*
X120210715Y-112347571D01*
X121282144Y-112383286D02*
X121282144Y-112883286D01*
X120960715Y-112383286D02*
X120960715Y-112776143D01*
X120996430Y-112847571D01*
X121067858Y-112883286D01*
X121175001Y-112883286D01*
X121246430Y-112847571D01*
X121282144Y-112811857D01*
X121889286Y-112490429D02*
X121639286Y-112490429D01*
X121639286Y-112883286D02*
X121639286Y-112133286D01*
X121996429Y-112133286D01*
X126807143Y-106411857D02*
X126771429Y-106447571D01*
X126664286Y-106483286D01*
X126592857Y-106483286D01*
X126485714Y-106447571D01*
X126414286Y-106376143D01*
X126378571Y-106304714D01*
X126342857Y-106161857D01*
X126342857Y-106054714D01*
X126378571Y-105911857D01*
X126414286Y-105840429D01*
X126485714Y-105769000D01*
X126592857Y-105733286D01*
X126664286Y-105733286D01*
X126771429Y-105769000D01*
X126807143Y-105804714D01*
X127057143Y-105983286D02*
X127235714Y-106483286D01*
X127414286Y-105983286D01*
X127700000Y-106483286D02*
X127700000Y-105983286D01*
X127700000Y-106126143D02*
X127735715Y-106054714D01*
X127771429Y-106019000D01*
X127842858Y-105983286D01*
X127914286Y-105983286D01*
X128557144Y-106483286D02*
X128128572Y-106483286D01*
X128342858Y-106483286D02*
X128342858Y-105733286D01*
X128271429Y-105840429D01*
X128200001Y-105911857D01*
X128128572Y-105947571D01*
X122660715Y-105733286D02*
X122732143Y-105733286D01*
X122803572Y-105769000D01*
X122839286Y-105804714D01*
X122875000Y-105876143D01*
X122910715Y-106019000D01*
X122910715Y-106197571D01*
X122875000Y-106340429D01*
X122839286Y-106411857D01*
X122803572Y-106447571D01*
X122732143Y-106483286D01*
X122660715Y-106483286D01*
X122589286Y-106447571D01*
X122553572Y-106411857D01*
X122517857Y-106340429D01*
X122482143Y-106197571D01*
X122482143Y-106019000D01*
X122517857Y-105876143D01*
X122553572Y-105804714D01*
X122589286Y-105769000D01*
X122660715Y-105733286D01*
X123232143Y-106411857D02*
X123267858Y-106447571D01*
X123232143Y-106483286D01*
X123196429Y-106447571D01*
X123232143Y-106411857D01*
X123232143Y-106483286D01*
X123517858Y-105733286D02*
X123982144Y-105733286D01*
X123732144Y-106019000D01*
X123839286Y-106019000D01*
X123910715Y-106054714D01*
X123946429Y-106090429D01*
X123982144Y-106161857D01*
X123982144Y-106340429D01*
X123946429Y-106411857D01*
X123910715Y-106447571D01*
X123839286Y-106483286D01*
X123625001Y-106483286D01*
X123553572Y-106447571D01*
X123517858Y-106411857D01*
X124232144Y-105733286D02*
X124696430Y-105733286D01*
X124446430Y-106019000D01*
X124553572Y-106019000D01*
X124625001Y-106054714D01*
X124660715Y-106090429D01*
X124696430Y-106161857D01*
X124696430Y-106340429D01*
X124660715Y-106411857D01*
X124625001Y-106447571D01*
X124553572Y-106483286D01*
X124339287Y-106483286D01*
X124267858Y-106447571D01*
X124232144Y-106411857D01*
X125339287Y-105983286D02*
X125339287Y-106483286D01*
X125017858Y-105983286D02*
X125017858Y-106376143D01*
X125053573Y-106447571D01*
X125125001Y-106483286D01*
X125232144Y-106483286D01*
X125303573Y-106447571D01*
X125339287Y-106411857D01*
X125946429Y-106090429D02*
X125696429Y-106090429D01*
X125696429Y-106483286D02*
X125696429Y-105733286D01*
X126053572Y-105733286D01*
X99317857Y-122469000D02*
X99353571Y-122504714D01*
X99389286Y-122611857D01*
X99389286Y-122683286D01*
X99353571Y-122790429D01*
X99282143Y-122861857D01*
X99210714Y-122897572D01*
X99067857Y-122933286D01*
X98960714Y-122933286D01*
X98817857Y-122897572D01*
X98746429Y-122861857D01*
X98675000Y-122790429D01*
X98639286Y-122683286D01*
X98639286Y-122611857D01*
X98675000Y-122504714D01*
X98710714Y-122469000D01*
X98710714Y-122183286D02*
X98675000Y-122147572D01*
X98639286Y-122076143D01*
X98639286Y-121897572D01*
X98675000Y-121826143D01*
X98710714Y-121790429D01*
X98782143Y-121754714D01*
X98853571Y-121754714D01*
X98960714Y-121790429D01*
X99389286Y-122219000D01*
X99389286Y-121754714D01*
X98342858Y-124033286D02*
X98414286Y-124033286D01*
X98485715Y-124069000D01*
X98521429Y-124104714D01*
X98557143Y-124176143D01*
X98592858Y-124319000D01*
X98592858Y-124497571D01*
X98557143Y-124640429D01*
X98521429Y-124711857D01*
X98485715Y-124747571D01*
X98414286Y-124783286D01*
X98342858Y-124783286D01*
X98271429Y-124747571D01*
X98235715Y-124711857D01*
X98200000Y-124640429D01*
X98164286Y-124497571D01*
X98164286Y-124319000D01*
X98200000Y-124176143D01*
X98235715Y-124104714D01*
X98271429Y-124069000D01*
X98342858Y-124033286D01*
X98914286Y-124711857D02*
X98950001Y-124747571D01*
X98914286Y-124783286D01*
X98878572Y-124747571D01*
X98914286Y-124711857D01*
X98914286Y-124783286D01*
X99664287Y-124783286D02*
X99235715Y-124783286D01*
X99450001Y-124783286D02*
X99450001Y-124033286D01*
X99378572Y-124140429D01*
X99307144Y-124211857D01*
X99235715Y-124247571D01*
X100307144Y-124283286D02*
X100307144Y-124783286D01*
X99985715Y-124283286D02*
X99985715Y-124676143D01*
X100021430Y-124747571D01*
X100092858Y-124783286D01*
X100200001Y-124783286D01*
X100271430Y-124747571D01*
X100307144Y-124711857D01*
X100914286Y-124390429D02*
X100664286Y-124390429D01*
X100664286Y-124783286D02*
X100664286Y-124033286D01*
X101021429Y-124033286D01*
X101735715Y-124711857D02*
X101700001Y-124747571D01*
X101592858Y-124783286D01*
X101521429Y-124783286D01*
X101414286Y-124747571D01*
X101342858Y-124676143D01*
X101307143Y-124604714D01*
X101271429Y-124461857D01*
X101271429Y-124354714D01*
X101307143Y-124211857D01*
X101342858Y-124140429D01*
X101414286Y-124069000D01*
X101521429Y-124033286D01*
X101592858Y-124033286D01*
X101700001Y-124069000D01*
X101735715Y-124104714D01*
X106150000Y-113411857D02*
X106114286Y-113447571D01*
X106007143Y-113483286D01*
X105935714Y-113483286D01*
X105828571Y-113447571D01*
X105757143Y-113376143D01*
X105721428Y-113304714D01*
X105685714Y-113161857D01*
X105685714Y-113054714D01*
X105721428Y-112911857D01*
X105757143Y-112840429D01*
X105828571Y-112769000D01*
X105935714Y-112733286D01*
X106007143Y-112733286D01*
X106114286Y-112769000D01*
X106150000Y-112804714D01*
X106471428Y-113483286D02*
X106471428Y-112733286D01*
X106757143Y-112733286D01*
X106828571Y-112769000D01*
X106864286Y-112804714D01*
X106900000Y-112876143D01*
X106900000Y-112983286D01*
X106864286Y-113054714D01*
X106828571Y-113090429D01*
X106757143Y-113126143D01*
X106471428Y-113126143D01*
X107150000Y-112733286D02*
X107614286Y-112733286D01*
X107364286Y-113019000D01*
X107471428Y-113019000D01*
X107542857Y-113054714D01*
X107578571Y-113090429D01*
X107614286Y-113161857D01*
X107614286Y-113340429D01*
X107578571Y-113411857D01*
X107542857Y-113447571D01*
X107471428Y-113483286D01*
X107257143Y-113483286D01*
X107185714Y-113447571D01*
X107150000Y-113411857D01*
X104342858Y-109533286D02*
X104414286Y-109533286D01*
X104485715Y-109569000D01*
X104521429Y-109604714D01*
X104557143Y-109676143D01*
X104592858Y-109819000D01*
X104592858Y-109997571D01*
X104557143Y-110140429D01*
X104521429Y-110211857D01*
X104485715Y-110247571D01*
X104414286Y-110283286D01*
X104342858Y-110283286D01*
X104271429Y-110247571D01*
X104235715Y-110211857D01*
X104200000Y-110140429D01*
X104164286Y-109997571D01*
X104164286Y-109819000D01*
X104200000Y-109676143D01*
X104235715Y-109604714D01*
X104271429Y-109569000D01*
X104342858Y-109533286D01*
X104914286Y-110211857D02*
X104950001Y-110247571D01*
X104914286Y-110283286D01*
X104878572Y-110247571D01*
X104914286Y-110211857D01*
X104914286Y-110283286D01*
X105664287Y-110283286D02*
X105235715Y-110283286D01*
X105450001Y-110283286D02*
X105450001Y-109533286D01*
X105378572Y-109640429D01*
X105307144Y-109711857D01*
X105235715Y-109747571D01*
X106307144Y-109783286D02*
X106307144Y-110283286D01*
X105985715Y-109783286D02*
X105985715Y-110176143D01*
X106021430Y-110247571D01*
X106092858Y-110283286D01*
X106200001Y-110283286D01*
X106271430Y-110247571D01*
X106307144Y-110211857D01*
X106914286Y-109890429D02*
X106664286Y-109890429D01*
X106664286Y-110283286D02*
X106664286Y-109533286D01*
X107021429Y-109533286D01*
X107735715Y-110211857D02*
X107700001Y-110247571D01*
X107592858Y-110283286D01*
X107521429Y-110283286D01*
X107414286Y-110247571D01*
X107342858Y-110176143D01*
X107307143Y-110104714D01*
X107271429Y-109961857D01*
X107271429Y-109854714D01*
X107307143Y-109711857D01*
X107342858Y-109640429D01*
X107414286Y-109569000D01*
X107521429Y-109533286D01*
X107592858Y-109533286D01*
X107700001Y-109569000D01*
X107735715Y-109604714D01*
X106132143Y-118611857D02*
X106096429Y-118647571D01*
X105989286Y-118683286D01*
X105917857Y-118683286D01*
X105810714Y-118647571D01*
X105739286Y-118576143D01*
X105703571Y-118504714D01*
X105667857Y-118361857D01*
X105667857Y-118254714D01*
X105703571Y-118111857D01*
X105739286Y-118040429D01*
X105810714Y-117969000D01*
X105917857Y-117933286D01*
X105989286Y-117933286D01*
X106096429Y-117969000D01*
X106132143Y-118004714D01*
X106453571Y-118683286D02*
X106453571Y-117933286D01*
X106882143Y-118683286D01*
X106882143Y-117933286D01*
X107167857Y-117933286D02*
X107632143Y-117933286D01*
X107382143Y-118219000D01*
X107489285Y-118219000D01*
X107560714Y-118254714D01*
X107596428Y-118290429D01*
X107632143Y-118361857D01*
X107632143Y-118540429D01*
X107596428Y-118611857D01*
X107560714Y-118647571D01*
X107489285Y-118683286D01*
X107275000Y-118683286D01*
X107203571Y-118647571D01*
X107167857Y-118611857D01*
X104242858Y-121133286D02*
X104314286Y-121133286D01*
X104385715Y-121169000D01*
X104421429Y-121204714D01*
X104457143Y-121276143D01*
X104492858Y-121419000D01*
X104492858Y-121597571D01*
X104457143Y-121740429D01*
X104421429Y-121811857D01*
X104385715Y-121847571D01*
X104314286Y-121883286D01*
X104242858Y-121883286D01*
X104171429Y-121847571D01*
X104135715Y-121811857D01*
X104100000Y-121740429D01*
X104064286Y-121597571D01*
X104064286Y-121419000D01*
X104100000Y-121276143D01*
X104135715Y-121204714D01*
X104171429Y-121169000D01*
X104242858Y-121133286D01*
X104814286Y-121811857D02*
X104850001Y-121847571D01*
X104814286Y-121883286D01*
X104778572Y-121847571D01*
X104814286Y-121811857D01*
X104814286Y-121883286D01*
X105564287Y-121883286D02*
X105135715Y-121883286D01*
X105350001Y-121883286D02*
X105350001Y-121133286D01*
X105278572Y-121240429D01*
X105207144Y-121311857D01*
X105135715Y-121347571D01*
X106207144Y-121383286D02*
X106207144Y-121883286D01*
X105885715Y-121383286D02*
X105885715Y-121776143D01*
X105921430Y-121847571D01*
X105992858Y-121883286D01*
X106100001Y-121883286D01*
X106171430Y-121847571D01*
X106207144Y-121811857D01*
X106814286Y-121490429D02*
X106564286Y-121490429D01*
X106564286Y-121883286D02*
X106564286Y-121133286D01*
X106921429Y-121133286D01*
X107635715Y-121811857D02*
X107600001Y-121847571D01*
X107492858Y-121883286D01*
X107421429Y-121883286D01*
X107314286Y-121847571D01*
X107242858Y-121776143D01*
X107207143Y-121704714D01*
X107171429Y-121561857D01*
X107171429Y-121454714D01*
X107207143Y-121311857D01*
X107242858Y-121240429D01*
X107314286Y-121169000D01*
X107421429Y-121133286D01*
X107492858Y-121133286D01*
X107600001Y-121169000D01*
X107635715Y-121204714D01*
X104917857Y-105461857D02*
X104953571Y-105497571D01*
X104989286Y-105604714D01*
X104989286Y-105676143D01*
X104953571Y-105783286D01*
X104882143Y-105854714D01*
X104810714Y-105890429D01*
X104667857Y-105926143D01*
X104560714Y-105926143D01*
X104417857Y-105890429D01*
X104346429Y-105854714D01*
X104275000Y-105783286D01*
X104239286Y-105676143D01*
X104239286Y-105604714D01*
X104275000Y-105497571D01*
X104310714Y-105461857D01*
X104989286Y-104711857D02*
X104632143Y-104961857D01*
X104989286Y-105140429D02*
X104239286Y-105140429D01*
X104239286Y-104854714D01*
X104275000Y-104783286D01*
X104310714Y-104747571D01*
X104382143Y-104711857D01*
X104489286Y-104711857D01*
X104560714Y-104747571D01*
X104596429Y-104783286D01*
X104632143Y-104854714D01*
X104632143Y-105140429D01*
X104989286Y-104390429D02*
X104489286Y-104390429D01*
X104239286Y-104390429D02*
X104275000Y-104426143D01*
X104310714Y-104390429D01*
X104275000Y-104354714D01*
X104239286Y-104390429D01*
X104310714Y-104390429D01*
X104489286Y-104033286D02*
X104989286Y-104033286D01*
X104560714Y-104033286D02*
X104525000Y-103997571D01*
X104489286Y-103926143D01*
X104489286Y-103819000D01*
X104525000Y-103747571D01*
X104596429Y-103711857D01*
X104989286Y-103711857D01*
X104989286Y-102961857D02*
X104989286Y-103390429D01*
X104989286Y-103176143D02*
X104239286Y-103176143D01*
X104346429Y-103247572D01*
X104417857Y-103319000D01*
X104453571Y-103390429D01*
X104989286Y-107790428D02*
X104989286Y-108219000D01*
X104989286Y-108004714D02*
X104239286Y-108004714D01*
X104346429Y-108076143D01*
X104417857Y-108147571D01*
X104453571Y-108219000D01*
X104489286Y-107147571D02*
X104989286Y-107147571D01*
X104489286Y-107469000D02*
X104882143Y-107469000D01*
X104953571Y-107433285D01*
X104989286Y-107361857D01*
X104989286Y-107254714D01*
X104953571Y-107183285D01*
X104917857Y-107147571D01*
X104596429Y-106540429D02*
X104596429Y-106790429D01*
X104989286Y-106790429D02*
X104239286Y-106790429D01*
X104239286Y-106433286D01*
X103203572Y-126611857D02*
X103167858Y-126647571D01*
X103060715Y-126683286D01*
X102989286Y-126683286D01*
X102882143Y-126647571D01*
X102810715Y-126576143D01*
X102775000Y-126504714D01*
X102739286Y-126361857D01*
X102739286Y-126254714D01*
X102775000Y-126111857D01*
X102810715Y-126040429D01*
X102882143Y-125969000D01*
X102989286Y-125933286D01*
X103060715Y-125933286D01*
X103167858Y-125969000D01*
X103203572Y-126004714D01*
X103882143Y-126683286D02*
X103525000Y-126683286D01*
X103525000Y-125933286D01*
X104132143Y-126683286D02*
X104132143Y-126183286D01*
X104132143Y-125933286D02*
X104096429Y-125969000D01*
X104132143Y-126004714D01*
X104167858Y-125969000D01*
X104132143Y-125933286D01*
X104132143Y-126004714D01*
X104489286Y-126183286D02*
X104489286Y-126683286D01*
X104489286Y-126254714D02*
X104525001Y-126219000D01*
X104596429Y-126183286D01*
X104703572Y-126183286D01*
X104775001Y-126219000D01*
X104810715Y-126290429D01*
X104810715Y-126683286D01*
X105560715Y-126683286D02*
X105132143Y-126683286D01*
X105346429Y-126683286D02*
X105346429Y-125933286D01*
X105275000Y-126040429D01*
X105203572Y-126111857D01*
X105132143Y-126147571D01*
X106713572Y-126823286D02*
X106285000Y-126823286D01*
X106499286Y-126823286D02*
X106499286Y-126073286D01*
X106427857Y-126180429D01*
X106356429Y-126251857D01*
X106285000Y-126287571D01*
X107356429Y-126323286D02*
X107356429Y-126823286D01*
X107035000Y-126323286D02*
X107035000Y-126716143D01*
X107070715Y-126787571D01*
X107142143Y-126823286D01*
X107249286Y-126823286D01*
X107320715Y-126787571D01*
X107356429Y-126751857D01*
X107963571Y-126430429D02*
X107713571Y-126430429D01*
X107713571Y-126823286D02*
X107713571Y-126073286D01*
X108070714Y-126073286D01*
X89925000Y-107511857D02*
X89889286Y-107547571D01*
X89782143Y-107583286D01*
X89710714Y-107583286D01*
X89603571Y-107547571D01*
X89532143Y-107476143D01*
X89496428Y-107404714D01*
X89460714Y-107261857D01*
X89460714Y-107154714D01*
X89496428Y-107011857D01*
X89532143Y-106940429D01*
X89603571Y-106869000D01*
X89710714Y-106833286D01*
X89782143Y-106833286D01*
X89889286Y-106869000D01*
X89925000Y-106904714D01*
X90639286Y-107583286D02*
X90210714Y-107583286D01*
X90425000Y-107583286D02*
X90425000Y-106833286D01*
X90353571Y-106940429D01*
X90282143Y-107011857D01*
X90210714Y-107047571D01*
X89042858Y-103633286D02*
X89114286Y-103633286D01*
X89185715Y-103669000D01*
X89221429Y-103704714D01*
X89257143Y-103776143D01*
X89292858Y-103919000D01*
X89292858Y-104097571D01*
X89257143Y-104240429D01*
X89221429Y-104311857D01*
X89185715Y-104347571D01*
X89114286Y-104383286D01*
X89042858Y-104383286D01*
X88971429Y-104347571D01*
X88935715Y-104311857D01*
X88900000Y-104240429D01*
X88864286Y-104097571D01*
X88864286Y-103919000D01*
X88900000Y-103776143D01*
X88935715Y-103704714D01*
X88971429Y-103669000D01*
X89042858Y-103633286D01*
X89614286Y-104311857D02*
X89650001Y-104347571D01*
X89614286Y-104383286D01*
X89578572Y-104347571D01*
X89614286Y-104311857D01*
X89614286Y-104383286D01*
X90364287Y-104383286D02*
X89935715Y-104383286D01*
X90150001Y-104383286D02*
X90150001Y-103633286D01*
X90078572Y-103740429D01*
X90007144Y-103811857D01*
X89935715Y-103847571D01*
X91007144Y-103883286D02*
X91007144Y-104383286D01*
X90685715Y-103883286D02*
X90685715Y-104276143D01*
X90721430Y-104347571D01*
X90792858Y-104383286D01*
X90900001Y-104383286D01*
X90971430Y-104347571D01*
X91007144Y-104311857D01*
X91614286Y-103990429D02*
X91364286Y-103990429D01*
X91364286Y-104383286D02*
X91364286Y-103633286D01*
X91721429Y-103633286D01*
X92435715Y-104311857D02*
X92400001Y-104347571D01*
X92292858Y-104383286D01*
X92221429Y-104383286D01*
X92114286Y-104347571D01*
X92042858Y-104276143D01*
X92007143Y-104204714D01*
X91971429Y-104061857D01*
X91971429Y-103954714D01*
X92007143Y-103811857D01*
X92042858Y-103740429D01*
X92114286Y-103669000D01*
X92221429Y-103633286D01*
X92292858Y-103633286D01*
X92400001Y-103669000D01*
X92435715Y-103704714D01*
X91663572Y-115373286D02*
X91806429Y-115373286D01*
X91877857Y-115409000D01*
X91949286Y-115480429D01*
X91985000Y-115623286D01*
X91985000Y-115873286D01*
X91949286Y-116016143D01*
X91877857Y-116087571D01*
X91806429Y-116123286D01*
X91663572Y-116123286D01*
X91592143Y-116087571D01*
X91520714Y-116016143D01*
X91485000Y-115873286D01*
X91485000Y-115623286D01*
X91520714Y-115480429D01*
X91592143Y-115409000D01*
X91663572Y-115373286D01*
X92306428Y-116123286D02*
X92306428Y-115373286D01*
X92592143Y-115373286D01*
X92663571Y-115409000D01*
X92699286Y-115444714D01*
X92735000Y-115516143D01*
X92735000Y-115623286D01*
X92699286Y-115694714D01*
X92663571Y-115730429D01*
X92592143Y-115766143D01*
X92306428Y-115766143D01*
X93020714Y-115909000D02*
X93377857Y-115909000D01*
X92949286Y-116123286D02*
X93199286Y-115373286D01*
X93449286Y-116123286D01*
X93663571Y-115444714D02*
X93699285Y-115409000D01*
X93770714Y-115373286D01*
X93949285Y-115373286D01*
X94020714Y-115409000D01*
X94056428Y-115444714D01*
X94092143Y-115516143D01*
X94092143Y-115587571D01*
X94056428Y-115694714D01*
X93627857Y-116123286D01*
X94092143Y-116123286D01*
X94806429Y-116123286D02*
X94377857Y-116123286D01*
X94592143Y-116123286D02*
X94592143Y-115373286D01*
X94520714Y-115480429D01*
X94449286Y-115551857D01*
X94377857Y-115587571D01*
X95056429Y-115373286D02*
X95520715Y-115373286D01*
X95270715Y-115659000D01*
X95377857Y-115659000D01*
X95449286Y-115694714D01*
X95485000Y-115730429D01*
X95520715Y-115801857D01*
X95520715Y-115980429D01*
X95485000Y-116051857D01*
X95449286Y-116087571D01*
X95377857Y-116123286D01*
X95163572Y-116123286D01*
X95092143Y-116087571D01*
X95056429Y-116051857D01*
X96163572Y-115623286D02*
X96163572Y-116123286D01*
X95985001Y-115337571D02*
X95806429Y-115873286D01*
X96270715Y-115873286D01*
%LPC*%
D13*
X67050000Y-132144000D03*
X80050000Y-132144000D03*
X65750000Y-110244000D03*
X52750000Y-110244000D03*
X85150000Y-118044000D03*
X85150000Y-105044000D03*
X66150000Y-125444000D03*
X53150000Y-125444000D03*
D14*
X79550000Y-109094000D03*
X79550000Y-107394000D03*
X79550000Y-110794000D03*
D15*
X79550000Y-105694000D03*
D14*
X79550000Y-112494000D03*
X79550000Y-122344000D03*
X79550000Y-120644000D03*
X79550000Y-124044000D03*
D15*
X79550000Y-118944000D03*
D14*
X79550000Y-125744000D03*
X69550000Y-109094000D03*
X69550000Y-107394000D03*
X69550000Y-110794000D03*
D15*
X69550000Y-105694000D03*
D14*
X69550000Y-112494000D03*
X69550000Y-122344000D03*
X69550000Y-120644000D03*
X69550000Y-124044000D03*
D15*
X69550000Y-118944000D03*
D14*
X69550000Y-125744000D03*
D16*
X117170000Y-124624000D03*
D17*
X117170000Y-122084000D03*
X117170000Y-119544000D03*
X117170000Y-117004000D03*
X117170000Y-114464000D03*
X117170000Y-111924000D03*
X117170000Y-109384000D03*
X117170000Y-106844000D03*
X109550000Y-106844000D03*
X109550000Y-109384000D03*
X109550000Y-111924000D03*
X109550000Y-114464000D03*
X109550000Y-117004000D03*
X109550000Y-119544000D03*
X109550000Y-122084000D03*
X109550000Y-124624000D03*
D18*
X51150000Y-120644000D03*
X66150000Y-120644000D03*
X65750000Y-105444000D03*
X50750000Y-105444000D03*
D19*
X92540000Y-126444000D03*
X100160000Y-126444000D03*
X87440000Y-124044000D03*
X95060000Y-124044000D03*
X94940000Y-106544000D03*
X102560000Y-106544000D03*
X92740000Y-108944000D03*
X100360000Y-108944000D03*
X124760000Y-104244000D03*
X117140000Y-104244000D03*
D20*
X127300000Y-110794000D03*
D21*
X125050000Y-110794000D03*
D20*
X122800000Y-110794000D03*
D22*
X61550000Y-115244000D03*
X63550000Y-115244000D03*
X52750000Y-115244000D03*
X50750000Y-115244000D03*
D23*
X74750000Y-106594000D03*
X74750000Y-109094000D03*
X74750000Y-112494000D03*
X74750000Y-114994000D03*
X103050000Y-114394000D03*
X103050000Y-111894000D03*
X103050000Y-119494000D03*
X103050000Y-116994000D03*
X74750000Y-119894000D03*
X74750000Y-122394000D03*
X74750000Y-125694000D03*
X74750000Y-128194000D03*
X123950000Y-116994000D03*
X123950000Y-114494000D03*
D19*
X120360000Y-114464000D03*
X120360000Y-117004000D03*
X124780000Y-108044000D03*
X127320000Y-108044000D03*
X97780000Y-122344000D03*
X100320000Y-122344000D03*
X106660000Y-114454000D03*
X106660000Y-111914000D03*
X106660000Y-119554000D03*
X106660000Y-117014000D03*
X106650000Y-106814000D03*
X106650000Y-104274000D03*
X106630000Y-124484000D03*
X104090000Y-124484000D03*
X90050000Y-106074000D03*
X90050000Y-108614000D03*
D24*
X90050000Y-119594000D03*
D25*
X92590000Y-119594000D03*
X95130000Y-119594000D03*
X97670000Y-119594000D03*
X97670000Y-111974000D03*
X95130000Y-111974000D03*
X92590000Y-111974000D03*
X90050000Y-111974000D03*
D26*
X73250000Y-134644000D03*
X58050000Y-105344000D03*
X124150000Y-122444000D03*
D27*
X63600000Y-135444000D03*
X50100000Y-135444000D03*
D28*
X60250000Y-132444000D03*
X53450000Y-132444000D03*
X60250000Y-129944000D03*
X53450000Y-129944000D03*
D27*
X56850000Y-136244000D03*
X94800000Y-135444000D03*
X81300000Y-135444000D03*
D28*
X91450000Y-132444000D03*
X84650000Y-132444000D03*
X91450000Y-129944000D03*
X84650000Y-129944000D03*
D27*
X88050000Y-136244000D03*
X128600000Y-135444000D03*
X115100000Y-135444000D03*
D28*
X120950000Y-129944000D03*
X120550000Y-132444000D03*
X123150000Y-132444000D03*
X125250000Y-132444000D03*
X118450000Y-132444000D03*
X125250000Y-129944000D03*
X123150000Y-129944000D03*
X118450000Y-129944000D03*
D27*
X121850000Y-136244000D03*
X111600000Y-135444000D03*
X98100000Y-135444000D03*
D28*
X108250000Y-132444000D03*
X101450000Y-132444000D03*
X108250000Y-129944000D03*
X101450000Y-129944000D03*
D27*
X104850000Y-136244000D03*
M02*
