%TF.FileFunction,Copper,L2,Bot,Signal*%
%FSLAX46Y46*%
G04 Gerber Fmt 4.6, Leading zero omitted, Abs format (unit mm)*
G04 Created by KiCad (PCBNEW (2014-08-05 BZR 5054)-product) date Mon 22 Sep 2014 09:28:56 AM PDT*
%MOMM*%
G01*
G04 APERTURE LIST*
%ADD10C,0.100000*%
%ADD11C,1.397000*%
%ADD12R,1.574800X2.286000*%
%ADD13O,1.574800X2.286000*%
%ADD14R,1.998980X1.998980*%
%ADD15C,1.998980*%
%ADD16R,2.032000X1.727200*%
%ADD17O,2.032000X1.727200*%
%ADD18O,3.500120X1.699260*%
%ADD19O,3.500120X1.524000*%
%ADD20R,3.500120X1.524000*%
%ADD21R,1.727200X1.727200*%
%ADD22O,1.727200X1.727200*%
%ADD23C,1.727200*%
%ADD24C,0.889000*%
%ADD25C,0.635000*%
%ADD26C,0.254000*%
G04 APERTURE END LIST*
D10*
D11*
X47942500Y-59499500D03*
X47942500Y-56959500D03*
X50482500Y-56959500D03*
X50482500Y-59499500D03*
X77089000Y-38608000D03*
X74549000Y-38608000D03*
X77089000Y-43688000D03*
X74549000Y-43688000D03*
X58102500Y-57975500D03*
X55562500Y-57975500D03*
X77089000Y-68072000D03*
X74549000Y-68072000D03*
X77089000Y-62992000D03*
X74549000Y-62992000D03*
X40322500Y-57975500D03*
X42862500Y-57975500D03*
D12*
X58102500Y-45783500D03*
D13*
X55562500Y-45783500D03*
X53022500Y-45783500D03*
X50482500Y-45783500D03*
X47942500Y-45783500D03*
X45402500Y-45783500D03*
X42862500Y-45783500D03*
X40322500Y-45783500D03*
X40322500Y-53403500D03*
X42862500Y-53403500D03*
X45402500Y-53403500D03*
X47942500Y-53403500D03*
X50482500Y-53403500D03*
X53022500Y-53403500D03*
X55562500Y-53403500D03*
X58102500Y-53403500D03*
D12*
X75311000Y-49403000D03*
D13*
X72771000Y-49403000D03*
X70231000Y-49403000D03*
X67691000Y-49403000D03*
X67691000Y-57023000D03*
X70231000Y-57023000D03*
X72771000Y-57023000D03*
X75311000Y-57023000D03*
D11*
X67691000Y-43688000D03*
X67691000Y-36068000D03*
X70231000Y-38354000D03*
X70231000Y-45974000D03*
X65151000Y-36068000D03*
X65151000Y-43688000D03*
X67691000Y-62992000D03*
X67691000Y-70612000D03*
X70231000Y-67818000D03*
X70231000Y-60198000D03*
X65151000Y-70612000D03*
X65151000Y-62992000D03*
D14*
X44831000Y-42164000D03*
D15*
X44831000Y-39624000D03*
D14*
X50419000Y-42164000D03*
D15*
X50419000Y-39624000D03*
D11*
X54991000Y-42164000D03*
X54991000Y-39624000D03*
D14*
X44450000Y-65024000D03*
D15*
X44450000Y-62484000D03*
D14*
X50038000Y-65024000D03*
D15*
X50038000Y-62484000D03*
D11*
X54610000Y-65024000D03*
X54610000Y-62484000D03*
D14*
X44450000Y-70739000D03*
D15*
X44450000Y-68199000D03*
D14*
X50038000Y-70739000D03*
D15*
X50038000Y-68199000D03*
D11*
X54610000Y-70739000D03*
X54610000Y-68199000D03*
D16*
X38989000Y-37084000D03*
D17*
X38989000Y-39624000D03*
X38989000Y-42164000D03*
D16*
X38862000Y-64135000D03*
D17*
X38862000Y-66675000D03*
X38862000Y-69215000D03*
D18*
X81407000Y-62992000D03*
D19*
X81407000Y-60452000D03*
D18*
X81407000Y-65532000D03*
D20*
X81407000Y-57912000D03*
D19*
X81407000Y-68072000D03*
D18*
X81407000Y-43688000D03*
D19*
X81407000Y-46228000D03*
D18*
X81407000Y-41148000D03*
D20*
X81407000Y-48768000D03*
D19*
X81407000Y-38608000D03*
D21*
X44069000Y-29718000D03*
D22*
X44069000Y-32258000D03*
D21*
X74549000Y-77978000D03*
D22*
X66929000Y-77978000D03*
D21*
X64389000Y-77978000D03*
X61849000Y-77978000D03*
X61849000Y-80518000D03*
D22*
X56769000Y-80518000D03*
X54229000Y-77978000D03*
X51689000Y-77978000D03*
X51689000Y-80518000D03*
D21*
X49149000Y-77978000D03*
D22*
X49149000Y-80518000D03*
X46609000Y-77978000D03*
X46609000Y-80518000D03*
X44069000Y-77978000D03*
X44069000Y-80518000D03*
X41529000Y-77978000D03*
D23*
X41529000Y-80518000D03*
D22*
X54229000Y-80518000D03*
D21*
X56769000Y-77978000D03*
D22*
X59309000Y-80518000D03*
X59309000Y-77978000D03*
D21*
X64389000Y-80518000D03*
D22*
X66929000Y-80518000D03*
D21*
X69469000Y-80518000D03*
D22*
X69469000Y-77978000D03*
X72009000Y-80518000D03*
X72009000Y-77978000D03*
X74549000Y-80518000D03*
X77089000Y-80518000D03*
X77089000Y-77978000D03*
D21*
X79629000Y-80518000D03*
D22*
X79629000Y-77978000D03*
X82169000Y-80518000D03*
X82169000Y-77978000D03*
X38989000Y-32258000D03*
X38989000Y-29718000D03*
X41529000Y-32258000D03*
X41529000Y-29718000D03*
X46609000Y-32258000D03*
X46609000Y-29718000D03*
D21*
X49149000Y-32258000D03*
D22*
X49149000Y-29718000D03*
D21*
X51689000Y-32258000D03*
D22*
X51689000Y-29718000D03*
X54229000Y-32258000D03*
D21*
X54229000Y-29718000D03*
X56769000Y-32258000D03*
D22*
X56769000Y-29718000D03*
D21*
X59309000Y-32258000D03*
D22*
X59309000Y-29718000D03*
X61849000Y-32258000D03*
D21*
X61849000Y-29718000D03*
D22*
X64389000Y-32258000D03*
X64389000Y-29718000D03*
X66929000Y-32258000D03*
X66929000Y-29718000D03*
X69469000Y-32258000D03*
D21*
X69469000Y-29718000D03*
D22*
X72009000Y-32258000D03*
X72009000Y-29718000D03*
D21*
X74549000Y-32258000D03*
D22*
X74549000Y-29718000D03*
D21*
X77089000Y-32258000D03*
D22*
X77089000Y-29718000D03*
X79629000Y-32258000D03*
D21*
X79629000Y-29718000D03*
D22*
X82169000Y-32258000D03*
X82169000Y-29718000D03*
D21*
X38989000Y-80518000D03*
X38989000Y-77978000D03*
D16*
X88773000Y-49784000D03*
D17*
X88773000Y-52324000D03*
X88773000Y-54864000D03*
X88773000Y-57404000D03*
D24*
X47244000Y-61087000D03*
X47244000Y-63881000D03*
X86487000Y-41148000D03*
X86487000Y-65532000D03*
X54251100Y-50999100D03*
D25*
X47244000Y-63881000D02*
X47244000Y-61087000D01*
X77089000Y-68072000D02*
X81407000Y-68072000D01*
X81280000Y-67945000D02*
X81407000Y-68072000D01*
X77089000Y-38608000D02*
X81407000Y-38608000D01*
X85090000Y-54229000D02*
X85090000Y-52705000D01*
X81407000Y-62992000D02*
X83693000Y-62992000D01*
X83693000Y-62992000D02*
X85090000Y-61595000D01*
X85090000Y-61595000D02*
X85090000Y-54229000D01*
X67691000Y-49403000D02*
X67691000Y-50165000D01*
X67691000Y-50165000D02*
X69088000Y-51562000D01*
X69088000Y-51562000D02*
X78613000Y-51562000D01*
X78613000Y-51562000D02*
X81407000Y-48768000D01*
X77089000Y-62992000D02*
X81407000Y-62992000D01*
X81407000Y-48768000D02*
X84455000Y-48768000D01*
X84455000Y-48768000D02*
X85090000Y-49403000D01*
X81407000Y-43688000D02*
X83058000Y-43688000D01*
X83058000Y-43688000D02*
X85090000Y-45720000D01*
X85090000Y-45720000D02*
X85090000Y-49403000D01*
X85090000Y-54229000D02*
X81407000Y-57912000D01*
X85090000Y-49403000D02*
X85090000Y-52705000D01*
X85090000Y-52705000D02*
X85090000Y-54229000D01*
X77089000Y-43688000D02*
X81407000Y-43688000D01*
X67691000Y-49403000D02*
X51689000Y-49403000D01*
X51689000Y-49403000D02*
X50482500Y-50609500D01*
X50482500Y-50609500D02*
X50482500Y-53403500D01*
D26*
X81407000Y-46228000D02*
X78486000Y-46228000D01*
X78486000Y-46228000D02*
X75311000Y-49403000D01*
X81407000Y-41148000D02*
X86487000Y-41148000D01*
X81407000Y-60452000D02*
X76200000Y-60452000D01*
X76200000Y-60452000D02*
X72771000Y-57023000D01*
X81407000Y-65532000D02*
X86487000Y-65532000D01*
X46609000Y-29718000D02*
X47853900Y-29718000D01*
X47853900Y-29718000D02*
X47853900Y-30184900D01*
X47853900Y-30184900D02*
X48631900Y-30962900D01*
X48631900Y-30962900D02*
X50130800Y-30962900D01*
X50130800Y-30962900D02*
X50394000Y-31226100D01*
X50394000Y-31226100D02*
X50394000Y-33258300D01*
X50394000Y-33258300D02*
X52656700Y-35521000D01*
X52656700Y-35521000D02*
X54768900Y-35521000D01*
X54768900Y-35521000D02*
X60198800Y-40950900D01*
X60198800Y-40950900D02*
X60198800Y-45149600D01*
X60198800Y-45149600D02*
X59564900Y-45783500D01*
X59564900Y-45783500D02*
X58102500Y-45783500D01*
X56731200Y-46952200D02*
X57086900Y-47307900D01*
X57175400Y-47307900D02*
X59097000Y-47307900D01*
X59097000Y-47307900D02*
X61849000Y-44555900D01*
X61849000Y-44555900D02*
X61849000Y-32258000D01*
X57086900Y-47307900D02*
X55562500Y-45783500D01*
X57175400Y-47307900D02*
X57086900Y-47307900D01*
X59315300Y-47820400D02*
X54681700Y-47820400D01*
X63119000Y-44016700D02*
X59315300Y-47820400D01*
X63119000Y-31700900D02*
X63119000Y-44016700D01*
X62431100Y-31013000D02*
X63119000Y-31700900D01*
X60877400Y-31013000D02*
X62431100Y-31013000D01*
X60553900Y-30689500D02*
X60877400Y-31013000D01*
X60553900Y-29718000D02*
X60553900Y-30689500D01*
X59309000Y-29718000D02*
X60553900Y-29718000D01*
X53022500Y-46161200D02*
X54681700Y-47820400D01*
X53022500Y-45783500D02*
X53022500Y-46161200D01*
X64389000Y-32258000D02*
X64389000Y-33502900D01*
X64389000Y-33502900D02*
X63627400Y-34264500D01*
X63627400Y-34264500D02*
X63627400Y-44233900D01*
X63627400Y-44233900D02*
X59522300Y-48339000D01*
X59522300Y-48339000D02*
X47958000Y-48339000D01*
X47958000Y-48339000D02*
X45402500Y-45783500D01*
X70231000Y-45974000D02*
X69977000Y-45974000D01*
X69977000Y-45974000D02*
X67691000Y-43688000D01*
X72771000Y-49403000D02*
X72771000Y-48514000D01*
X72771000Y-48514000D02*
X70231000Y-45974000D01*
X67691000Y-62992000D02*
X67691000Y-62738000D01*
X67691000Y-62738000D02*
X70231000Y-60198000D01*
X70231000Y-60198000D02*
X70231000Y-57023000D01*
X66522300Y-57023000D02*
X60498400Y-50999100D01*
X60498400Y-50999100D02*
X54251100Y-50999100D01*
X67691000Y-57023000D02*
X66522300Y-57023000D01*
X67691000Y-57023000D02*
X67691000Y-60452000D01*
X67691000Y-60452000D02*
X65151000Y-62992000D01*
X70231000Y-49403000D02*
X70231000Y-48768000D01*
X70231000Y-48768000D02*
X65151000Y-43688000D01*
D25*
X74549000Y-68453000D02*
X74549000Y-69596000D01*
X74549000Y-69596000D02*
X73533000Y-70612000D01*
X74549000Y-68072000D02*
X74549000Y-68453000D01*
X74549000Y-38608000D02*
X74549000Y-36957000D01*
X74549000Y-36957000D02*
X75438000Y-36068000D01*
X67691000Y-36068000D02*
X75438000Y-36068000D01*
X75438000Y-36068000D02*
X83439000Y-36068000D01*
X65151000Y-36068000D02*
X67691000Y-36068000D01*
X67691000Y-36068000D02*
X67818000Y-35941000D01*
X74549000Y-38608000D02*
X74549000Y-43688000D01*
X74549000Y-68072000D02*
X74549000Y-68453000D01*
X67691000Y-70612000D02*
X65151000Y-70612000D01*
X73533000Y-70612000D02*
X67691000Y-70612000D01*
X74549000Y-68072000D02*
X74549000Y-62992000D01*
X61849000Y-77978000D02*
X61849000Y-73914000D01*
X61849000Y-73914000D02*
X65151000Y-70612000D01*
X84709000Y-70612000D02*
X73533000Y-70612000D01*
X88773000Y-66548000D02*
X84709000Y-70612000D01*
X88773000Y-57404000D02*
X88773000Y-66548000D01*
X87376000Y-57404000D02*
X88773000Y-57404000D01*
X86487000Y-56515000D02*
X87376000Y-57404000D01*
X86487000Y-54229000D02*
X86487000Y-56515000D01*
X88392000Y-52324000D02*
X86487000Y-54229000D01*
X88773000Y-52324000D02*
X88392000Y-52324000D01*
X86487000Y-43688000D02*
X88265000Y-41910000D01*
X88265000Y-41910000D02*
X88265000Y-40894000D01*
X88265000Y-40894000D02*
X83439000Y-36068000D01*
X86487000Y-54229000D02*
X86487000Y-43688000D01*
D26*
X39471900Y-77495100D02*
X38989000Y-77978000D01*
X39760100Y-77495100D02*
X39471900Y-77495100D01*
X39471900Y-77495100D02*
X39212100Y-77495100D01*
G36*
X59690000Y-59436000D02*
X59436231Y-59436000D01*
X59436231Y-57711414D01*
X59233646Y-57221120D01*
X58858853Y-56845673D01*
X58368913Y-56642232D01*
X57838414Y-56641769D01*
X57348120Y-56844354D01*
X56972673Y-57219147D01*
X56832406Y-57556946D01*
X56693646Y-57221120D01*
X56318853Y-56845673D01*
X55828913Y-56642232D01*
X55298414Y-56641769D01*
X54808120Y-56844354D01*
X54432673Y-57219147D01*
X54229232Y-57709087D01*
X54228769Y-58239586D01*
X54431354Y-58729880D01*
X54806147Y-59105327D01*
X55296087Y-59308768D01*
X55826586Y-59309231D01*
X56316880Y-59106646D01*
X56692327Y-58731853D01*
X56832593Y-58394053D01*
X56971354Y-58729880D01*
X57346147Y-59105327D01*
X57836087Y-59308768D01*
X58366586Y-59309231D01*
X58856880Y-59106646D01*
X59232327Y-58731853D01*
X59435768Y-58241913D01*
X59436231Y-57711414D01*
X59436231Y-59436000D01*
X56388000Y-59436000D01*
X56388000Y-72390000D01*
X55955927Y-72390000D01*
X55955927Y-68391520D01*
X55955927Y-65216520D01*
X55943731Y-64992035D01*
X55943731Y-62219914D01*
X55741146Y-61729620D01*
X55366353Y-61354173D01*
X54876413Y-61150732D01*
X54345914Y-61150269D01*
X53855620Y-61352854D01*
X53480173Y-61727647D01*
X53276732Y-62217587D01*
X53276269Y-62748086D01*
X53478854Y-63238380D01*
X53853647Y-63613827D01*
X54175118Y-63747313D01*
X53917071Y-63854200D01*
X53855417Y-64089812D01*
X54610000Y-64844395D01*
X55364583Y-64089812D01*
X55302929Y-63854200D01*
X55023688Y-63755916D01*
X55364380Y-63615146D01*
X55739827Y-63240353D01*
X55943268Y-62750413D01*
X55943731Y-62219914D01*
X55943731Y-64992035D01*
X55927148Y-64686801D01*
X55779800Y-64331071D01*
X55544188Y-64269417D01*
X54789605Y-65024000D01*
X55544188Y-65778583D01*
X55779800Y-65716929D01*
X55955927Y-65216520D01*
X55955927Y-68391520D01*
X55927148Y-67861801D01*
X55779800Y-67506071D01*
X55544188Y-67444417D01*
X55364583Y-67624022D01*
X55364583Y-67264812D01*
X55364583Y-65958188D01*
X54610000Y-65203605D01*
X54430395Y-65383210D01*
X54430395Y-65024000D01*
X53675812Y-64269417D01*
X53440200Y-64331071D01*
X53264073Y-64831480D01*
X53292852Y-65361199D01*
X53440200Y-65716929D01*
X53675812Y-65778583D01*
X54430395Y-65024000D01*
X54430395Y-65383210D01*
X53855417Y-65958188D01*
X53917071Y-66193800D01*
X54417480Y-66369927D01*
X54947199Y-66341148D01*
X55302929Y-66193800D01*
X55364583Y-65958188D01*
X55364583Y-67264812D01*
X55302929Y-67029200D01*
X54802520Y-66853073D01*
X54272801Y-66881852D01*
X53917071Y-67029200D01*
X53855417Y-67264812D01*
X54610000Y-68019395D01*
X55364583Y-67264812D01*
X55364583Y-67624022D01*
X54789605Y-68199000D01*
X55544188Y-68953583D01*
X55779800Y-68891929D01*
X55955927Y-68391520D01*
X55955927Y-72390000D01*
X55943731Y-72390000D01*
X55943731Y-70474914D01*
X55741146Y-69984620D01*
X55366353Y-69609173D01*
X55044881Y-69475686D01*
X55302929Y-69368800D01*
X55364583Y-69133188D01*
X54610000Y-68378605D01*
X54430395Y-68558210D01*
X54430395Y-68199000D01*
X53675812Y-67444417D01*
X53440200Y-67506071D01*
X53264073Y-68006480D01*
X53292852Y-68536199D01*
X53440200Y-68891929D01*
X53675812Y-68953583D01*
X54430395Y-68199000D01*
X54430395Y-68558210D01*
X53855417Y-69133188D01*
X53917071Y-69368800D01*
X54196311Y-69467083D01*
X53855620Y-69607854D01*
X53480173Y-69982647D01*
X53276732Y-70472587D01*
X53276269Y-71003086D01*
X53478854Y-71493380D01*
X53853647Y-71868827D01*
X54343587Y-72072268D01*
X54874086Y-72072731D01*
X55364380Y-71870146D01*
X55739827Y-71495353D01*
X55943268Y-71005413D01*
X55943731Y-70474914D01*
X55943731Y-72390000D01*
X51828427Y-72390000D01*
X51828427Y-59692020D01*
X51816231Y-59467535D01*
X51816231Y-56695414D01*
X51613646Y-56205120D01*
X51238853Y-55829673D01*
X50748913Y-55626232D01*
X50218414Y-55625769D01*
X49728120Y-55828354D01*
X49352673Y-56203147D01*
X49212406Y-56540946D01*
X49073646Y-56205120D01*
X48698853Y-55829673D01*
X48208913Y-55626232D01*
X47678414Y-55625769D01*
X47188120Y-55828354D01*
X46812673Y-56203147D01*
X46609232Y-56693087D01*
X46608769Y-57223586D01*
X46811354Y-57713880D01*
X47186147Y-58089327D01*
X47507618Y-58222813D01*
X47249571Y-58329700D01*
X47187917Y-58565312D01*
X47942500Y-59319895D01*
X48697083Y-58565312D01*
X48635429Y-58329700D01*
X48356188Y-58231416D01*
X48696880Y-58090646D01*
X49072327Y-57715853D01*
X49212593Y-57378053D01*
X49351354Y-57713880D01*
X49726147Y-58089327D01*
X50047618Y-58222813D01*
X49789571Y-58329700D01*
X49727917Y-58565312D01*
X50482500Y-59319895D01*
X51237083Y-58565312D01*
X51175429Y-58329700D01*
X50896188Y-58231416D01*
X51236880Y-58090646D01*
X51612327Y-57715853D01*
X51815768Y-57225913D01*
X51816231Y-56695414D01*
X51816231Y-59467535D01*
X51799648Y-59162301D01*
X51652300Y-58806571D01*
X51416688Y-58744917D01*
X50662105Y-59499500D01*
X51416688Y-60254083D01*
X51652300Y-60192429D01*
X51828427Y-59692020D01*
X51828427Y-72390000D01*
X51683401Y-72390000D01*
X51683401Y-68463418D01*
X51672774Y-68176411D01*
X51672774Y-62160306D01*
X51424462Y-61559345D01*
X51237083Y-61371638D01*
X51237083Y-60433688D01*
X50482500Y-59679105D01*
X50302895Y-59858710D01*
X50302895Y-59499500D01*
X49548312Y-58744917D01*
X49312700Y-58806571D01*
X49220640Y-59068128D01*
X49112300Y-58806571D01*
X48876688Y-58744917D01*
X48122105Y-59499500D01*
X48876688Y-60254083D01*
X49112300Y-60192429D01*
X49204359Y-59930871D01*
X49312700Y-60192429D01*
X49548312Y-60254083D01*
X50302895Y-59499500D01*
X50302895Y-59858710D01*
X49727917Y-60433688D01*
X49789571Y-60669300D01*
X50289980Y-60845427D01*
X50819699Y-60816648D01*
X51175429Y-60669300D01*
X51237083Y-60433688D01*
X51237083Y-61371638D01*
X50965073Y-61099154D01*
X50364547Y-60849794D01*
X49714306Y-60849226D01*
X49113345Y-61097538D01*
X48697083Y-61513074D01*
X48697083Y-60433688D01*
X47942500Y-59679105D01*
X47928357Y-59693247D01*
X47748752Y-59513642D01*
X47762895Y-59499500D01*
X47008312Y-58744917D01*
X46772700Y-58806571D01*
X46596573Y-59306980D01*
X46625352Y-59836699D01*
X46744860Y-60125219D01*
X46633311Y-60171311D01*
X46329378Y-60474714D01*
X46164687Y-60871332D01*
X46164313Y-61300784D01*
X46291500Y-61608599D01*
X46291500Y-63359933D01*
X46164687Y-63665332D01*
X46164313Y-64094784D01*
X46328311Y-64491689D01*
X46631714Y-64795622D01*
X47028332Y-64960313D01*
X47457784Y-64960687D01*
X47854689Y-64796689D01*
X48158622Y-64493286D01*
X48323313Y-64096668D01*
X48323687Y-63667216D01*
X48196500Y-63359400D01*
X48196500Y-61608066D01*
X48323313Y-61302668D01*
X48323687Y-60873216D01*
X48297300Y-60809357D01*
X48635429Y-60669300D01*
X48697083Y-60433688D01*
X48697083Y-61513074D01*
X48653154Y-61556927D01*
X48403794Y-62157453D01*
X48403226Y-62807694D01*
X48651538Y-63408655D01*
X48714269Y-63471496D01*
X48678812Y-63486183D01*
X48500183Y-63664811D01*
X48403510Y-63898200D01*
X48403510Y-64150819D01*
X48403510Y-64738250D01*
X48562260Y-64897000D01*
X49911000Y-64897000D01*
X49911000Y-64877000D01*
X50165000Y-64877000D01*
X50165000Y-64897000D01*
X51513740Y-64897000D01*
X51672490Y-64738250D01*
X51672490Y-64150819D01*
X51672490Y-63898200D01*
X51575817Y-63664811D01*
X51397188Y-63486183D01*
X51362145Y-63471667D01*
X51422846Y-63411073D01*
X51672206Y-62810547D01*
X51672774Y-62160306D01*
X51672774Y-68176411D01*
X51672490Y-68168741D01*
X51672490Y-66149800D01*
X51672490Y-65897181D01*
X51672490Y-65309750D01*
X51513740Y-65151000D01*
X50165000Y-65151000D01*
X50165000Y-65171000D01*
X49911000Y-65171000D01*
X49911000Y-65151000D01*
X48562260Y-65151000D01*
X48403510Y-65309750D01*
X48403510Y-65897181D01*
X48403510Y-66149800D01*
X48500183Y-66383189D01*
X48678812Y-66561817D01*
X48912201Y-66658490D01*
X49457478Y-66658490D01*
X49164042Y-66780035D01*
X49065443Y-67046837D01*
X50038000Y-68019395D01*
X51010557Y-67046837D01*
X50911958Y-66780035D01*
X50584772Y-66658490D01*
X51163799Y-66658490D01*
X51397188Y-66561817D01*
X51575817Y-66383189D01*
X51672490Y-66149800D01*
X51672490Y-68168741D01*
X51659341Y-67813623D01*
X51456965Y-67325042D01*
X51190163Y-67226443D01*
X50217605Y-68199000D01*
X50231747Y-68213142D01*
X50052142Y-68392747D01*
X50038000Y-68378605D01*
X50023857Y-68392747D01*
X49844252Y-68213142D01*
X49858395Y-68199000D01*
X48885837Y-67226443D01*
X48619035Y-67325042D01*
X48392599Y-67934582D01*
X48416659Y-68584377D01*
X48619035Y-69072958D01*
X48814226Y-69145092D01*
X48678812Y-69201183D01*
X48500183Y-69379811D01*
X48403510Y-69613200D01*
X48403510Y-69865819D01*
X48403510Y-71864799D01*
X48500183Y-72098188D01*
X48678811Y-72276817D01*
X48912200Y-72373490D01*
X49164819Y-72373490D01*
X51163799Y-72373490D01*
X51397188Y-72276817D01*
X51575817Y-72098189D01*
X51672490Y-71864800D01*
X51672490Y-71612181D01*
X51672490Y-69613201D01*
X51575817Y-69379812D01*
X51397189Y-69201183D01*
X51261774Y-69145092D01*
X51456965Y-69072958D01*
X51683401Y-68463418D01*
X51683401Y-72390000D01*
X43232605Y-72390000D01*
X43139653Y-72297048D01*
X43324200Y-72373490D01*
X43576819Y-72373490D01*
X45575799Y-72373490D01*
X45809188Y-72276817D01*
X45987817Y-72098189D01*
X46084490Y-71864800D01*
X46084490Y-71612181D01*
X46084490Y-69613201D01*
X45987817Y-69379812D01*
X45809189Y-69201183D01*
X45673774Y-69145092D01*
X45868965Y-69072958D01*
X46095401Y-68463418D01*
X46084774Y-68176411D01*
X46084774Y-62160306D01*
X45836462Y-61559345D01*
X45377073Y-61099154D01*
X44776547Y-60849794D01*
X44196231Y-60849287D01*
X44196231Y-57711414D01*
X43993646Y-57221120D01*
X43618853Y-56845673D01*
X43128913Y-56642232D01*
X42598414Y-56641769D01*
X42108120Y-56844354D01*
X41732673Y-57219147D01*
X41592406Y-57556946D01*
X41453646Y-57221120D01*
X41078853Y-56845673D01*
X40588913Y-56642232D01*
X40058414Y-56641769D01*
X39568120Y-56844354D01*
X39192673Y-57219147D01*
X38989232Y-57709087D01*
X38988769Y-58239586D01*
X39191354Y-58729880D01*
X39566147Y-59105327D01*
X40056087Y-59308768D01*
X40586586Y-59309231D01*
X41076880Y-59106646D01*
X41452327Y-58731853D01*
X41592593Y-58394053D01*
X41731354Y-58729880D01*
X42106147Y-59105327D01*
X42596087Y-59308768D01*
X43126586Y-59309231D01*
X43616880Y-59106646D01*
X43992327Y-58731853D01*
X44195768Y-58241913D01*
X44196231Y-57711414D01*
X44196231Y-60849287D01*
X44126306Y-60849226D01*
X43525345Y-61097538D01*
X43065154Y-61556927D01*
X42815794Y-62157453D01*
X42815226Y-62807694D01*
X43063538Y-63408655D01*
X43126269Y-63471496D01*
X43090812Y-63486183D01*
X42912183Y-63664811D01*
X42815510Y-63898200D01*
X42815510Y-64150819D01*
X42815510Y-64738250D01*
X42974260Y-64897000D01*
X44323000Y-64897000D01*
X44323000Y-64877000D01*
X44577000Y-64877000D01*
X44577000Y-64897000D01*
X45925740Y-64897000D01*
X46084490Y-64738250D01*
X46084490Y-64150819D01*
X46084490Y-63898200D01*
X45987817Y-63664811D01*
X45809188Y-63486183D01*
X45774145Y-63471667D01*
X45834846Y-63411073D01*
X46084206Y-62810547D01*
X46084774Y-62160306D01*
X46084774Y-68176411D01*
X46084490Y-68168741D01*
X46084490Y-66149800D01*
X46084490Y-65897181D01*
X46084490Y-65309750D01*
X45925740Y-65151000D01*
X44577000Y-65151000D01*
X44577000Y-65171000D01*
X44323000Y-65171000D01*
X44323000Y-65151000D01*
X42974260Y-65151000D01*
X42815510Y-65309750D01*
X42815510Y-65897181D01*
X42815510Y-66149800D01*
X42912183Y-66383189D01*
X43090812Y-66561817D01*
X43324201Y-66658490D01*
X43869478Y-66658490D01*
X43576042Y-66780035D01*
X43477443Y-67046837D01*
X44450000Y-68019395D01*
X45422557Y-67046837D01*
X45323958Y-66780035D01*
X44996772Y-66658490D01*
X45575799Y-66658490D01*
X45809188Y-66561817D01*
X45987817Y-66383189D01*
X46084490Y-66149800D01*
X46084490Y-68168741D01*
X46071341Y-67813623D01*
X45868965Y-67325042D01*
X45602163Y-67226443D01*
X44629605Y-68199000D01*
X44643747Y-68213142D01*
X44464142Y-68392747D01*
X44450000Y-68378605D01*
X44435857Y-68392747D01*
X44256252Y-68213142D01*
X44270395Y-68199000D01*
X43297837Y-67226443D01*
X43031035Y-67325042D01*
X42804599Y-67934582D01*
X42828659Y-68584377D01*
X43031035Y-69072958D01*
X43226226Y-69145092D01*
X43090812Y-69201183D01*
X42912183Y-69379811D01*
X42815510Y-69613200D01*
X42815510Y-69865819D01*
X42815510Y-71864799D01*
X42891952Y-72049347D01*
X41581605Y-70739000D01*
X38150000Y-70739000D01*
X38150000Y-70608722D01*
X38677255Y-70713600D01*
X39046745Y-70713600D01*
X39620234Y-70599526D01*
X40106415Y-70274670D01*
X40431271Y-69788489D01*
X40545345Y-69215000D01*
X40431271Y-68641511D01*
X40106415Y-68155330D01*
X39796930Y-67948539D01*
X40212732Y-67577036D01*
X40466709Y-67049791D01*
X40469358Y-67034026D01*
X40348217Y-66802000D01*
X38989000Y-66802000D01*
X38989000Y-66822000D01*
X38735000Y-66822000D01*
X38735000Y-66802000D01*
X38715000Y-66802000D01*
X38715000Y-66548000D01*
X38735000Y-66548000D01*
X38735000Y-66528000D01*
X38989000Y-66528000D01*
X38989000Y-66548000D01*
X40348217Y-66548000D01*
X40469358Y-66315974D01*
X40466709Y-66300209D01*
X40212732Y-65772964D01*
X40040139Y-65618758D01*
X40237698Y-65536927D01*
X40416327Y-65358299D01*
X40513000Y-65124910D01*
X40513000Y-64872291D01*
X40513000Y-63145091D01*
X40416327Y-62911702D01*
X40237699Y-62733073D01*
X40004310Y-62636400D01*
X39751691Y-62636400D01*
X38150000Y-62636400D01*
X38150000Y-52578000D01*
X38986640Y-52578000D01*
X38900100Y-53013067D01*
X38900100Y-53793933D01*
X39008374Y-54338262D01*
X39316711Y-54799722D01*
X39778171Y-55108059D01*
X40322500Y-55216333D01*
X40866829Y-55108059D01*
X41328289Y-54799722D01*
X41592253Y-54404670D01*
X41596975Y-54420762D01*
X41946514Y-54854691D01*
X42435504Y-55121827D01*
X42515440Y-55138510D01*
X42735500Y-55016352D01*
X42735500Y-53530500D01*
X42715500Y-53530500D01*
X42715500Y-53276500D01*
X42735500Y-53276500D01*
X42735500Y-53256500D01*
X42989500Y-53256500D01*
X42989500Y-53276500D01*
X43009500Y-53276500D01*
X43009500Y-53530500D01*
X42989500Y-53530500D01*
X42989500Y-55016352D01*
X43209560Y-55138510D01*
X43289496Y-55121827D01*
X43778486Y-54854691D01*
X44128025Y-54420762D01*
X44132746Y-54404670D01*
X44396711Y-54799722D01*
X44858171Y-55108059D01*
X45402500Y-55216333D01*
X45946829Y-55108059D01*
X46408289Y-54799722D01*
X46672500Y-54404301D01*
X46936711Y-54799722D01*
X47398171Y-55108059D01*
X47942500Y-55216333D01*
X48486829Y-55108059D01*
X48948289Y-54799722D01*
X49212500Y-54404301D01*
X49476711Y-54799722D01*
X49938171Y-55108059D01*
X50482500Y-55216333D01*
X51026829Y-55108059D01*
X51488289Y-54799722D01*
X51752500Y-54404301D01*
X52016711Y-54799722D01*
X52478171Y-55108059D01*
X53022500Y-55216333D01*
X53566829Y-55108059D01*
X54028289Y-54799722D01*
X54292253Y-54404670D01*
X54296975Y-54420762D01*
X54646514Y-54854691D01*
X55135504Y-55121827D01*
X55215440Y-55138510D01*
X55435500Y-55016352D01*
X55435500Y-53530500D01*
X55415500Y-53530500D01*
X55415500Y-53276500D01*
X55435500Y-53276500D01*
X55435500Y-53256500D01*
X55689500Y-53256500D01*
X55689500Y-53276500D01*
X55709500Y-53276500D01*
X55709500Y-53530500D01*
X55689500Y-53530500D01*
X55689500Y-55016352D01*
X55909560Y-55138510D01*
X55989496Y-55121827D01*
X56478486Y-54854691D01*
X56828025Y-54420762D01*
X56832746Y-54404670D01*
X57096711Y-54799722D01*
X57558171Y-55108059D01*
X58102500Y-55216333D01*
X58646829Y-55108059D01*
X59108289Y-54799722D01*
X59416626Y-54338262D01*
X59524900Y-53793933D01*
X59524900Y-53013067D01*
X59438359Y-52578000D01*
X59690000Y-52578000D01*
X59690000Y-59436000D01*
X59690000Y-59436000D01*
G37*
X59690000Y-59436000D02*
X59436231Y-59436000D01*
X59436231Y-57711414D01*
X59233646Y-57221120D01*
X58858853Y-56845673D01*
X58368913Y-56642232D01*
X57838414Y-56641769D01*
X57348120Y-56844354D01*
X56972673Y-57219147D01*
X56832406Y-57556946D01*
X56693646Y-57221120D01*
X56318853Y-56845673D01*
X55828913Y-56642232D01*
X55298414Y-56641769D01*
X54808120Y-56844354D01*
X54432673Y-57219147D01*
X54229232Y-57709087D01*
X54228769Y-58239586D01*
X54431354Y-58729880D01*
X54806147Y-59105327D01*
X55296087Y-59308768D01*
X55826586Y-59309231D01*
X56316880Y-59106646D01*
X56692327Y-58731853D01*
X56832593Y-58394053D01*
X56971354Y-58729880D01*
X57346147Y-59105327D01*
X57836087Y-59308768D01*
X58366586Y-59309231D01*
X58856880Y-59106646D01*
X59232327Y-58731853D01*
X59435768Y-58241913D01*
X59436231Y-57711414D01*
X59436231Y-59436000D01*
X56388000Y-59436000D01*
X56388000Y-72390000D01*
X55955927Y-72390000D01*
X55955927Y-68391520D01*
X55955927Y-65216520D01*
X55943731Y-64992035D01*
X55943731Y-62219914D01*
X55741146Y-61729620D01*
X55366353Y-61354173D01*
X54876413Y-61150732D01*
X54345914Y-61150269D01*
X53855620Y-61352854D01*
X53480173Y-61727647D01*
X53276732Y-62217587D01*
X53276269Y-62748086D01*
X53478854Y-63238380D01*
X53853647Y-63613827D01*
X54175118Y-63747313D01*
X53917071Y-63854200D01*
X53855417Y-64089812D01*
X54610000Y-64844395D01*
X55364583Y-64089812D01*
X55302929Y-63854200D01*
X55023688Y-63755916D01*
X55364380Y-63615146D01*
X55739827Y-63240353D01*
X55943268Y-62750413D01*
X55943731Y-62219914D01*
X55943731Y-64992035D01*
X55927148Y-64686801D01*
X55779800Y-64331071D01*
X55544188Y-64269417D01*
X54789605Y-65024000D01*
X55544188Y-65778583D01*
X55779800Y-65716929D01*
X55955927Y-65216520D01*
X55955927Y-68391520D01*
X55927148Y-67861801D01*
X55779800Y-67506071D01*
X55544188Y-67444417D01*
X55364583Y-67624022D01*
X55364583Y-67264812D01*
X55364583Y-65958188D01*
X54610000Y-65203605D01*
X54430395Y-65383210D01*
X54430395Y-65024000D01*
X53675812Y-64269417D01*
X53440200Y-64331071D01*
X53264073Y-64831480D01*
X53292852Y-65361199D01*
X53440200Y-65716929D01*
X53675812Y-65778583D01*
X54430395Y-65024000D01*
X54430395Y-65383210D01*
X53855417Y-65958188D01*
X53917071Y-66193800D01*
X54417480Y-66369927D01*
X54947199Y-66341148D01*
X55302929Y-66193800D01*
X55364583Y-65958188D01*
X55364583Y-67264812D01*
X55302929Y-67029200D01*
X54802520Y-66853073D01*
X54272801Y-66881852D01*
X53917071Y-67029200D01*
X53855417Y-67264812D01*
X54610000Y-68019395D01*
X55364583Y-67264812D01*
X55364583Y-67624022D01*
X54789605Y-68199000D01*
X55544188Y-68953583D01*
X55779800Y-68891929D01*
X55955927Y-68391520D01*
X55955927Y-72390000D01*
X55943731Y-72390000D01*
X55943731Y-70474914D01*
X55741146Y-69984620D01*
X55366353Y-69609173D01*
X55044881Y-69475686D01*
X55302929Y-69368800D01*
X55364583Y-69133188D01*
X54610000Y-68378605D01*
X54430395Y-68558210D01*
X54430395Y-68199000D01*
X53675812Y-67444417D01*
X53440200Y-67506071D01*
X53264073Y-68006480D01*
X53292852Y-68536199D01*
X53440200Y-68891929D01*
X53675812Y-68953583D01*
X54430395Y-68199000D01*
X54430395Y-68558210D01*
X53855417Y-69133188D01*
X53917071Y-69368800D01*
X54196311Y-69467083D01*
X53855620Y-69607854D01*
X53480173Y-69982647D01*
X53276732Y-70472587D01*
X53276269Y-71003086D01*
X53478854Y-71493380D01*
X53853647Y-71868827D01*
X54343587Y-72072268D01*
X54874086Y-72072731D01*
X55364380Y-71870146D01*
X55739827Y-71495353D01*
X55943268Y-71005413D01*
X55943731Y-70474914D01*
X55943731Y-72390000D01*
X51828427Y-72390000D01*
X51828427Y-59692020D01*
X51816231Y-59467535D01*
X51816231Y-56695414D01*
X51613646Y-56205120D01*
X51238853Y-55829673D01*
X50748913Y-55626232D01*
X50218414Y-55625769D01*
X49728120Y-55828354D01*
X49352673Y-56203147D01*
X49212406Y-56540946D01*
X49073646Y-56205120D01*
X48698853Y-55829673D01*
X48208913Y-55626232D01*
X47678414Y-55625769D01*
X47188120Y-55828354D01*
X46812673Y-56203147D01*
X46609232Y-56693087D01*
X46608769Y-57223586D01*
X46811354Y-57713880D01*
X47186147Y-58089327D01*
X47507618Y-58222813D01*
X47249571Y-58329700D01*
X47187917Y-58565312D01*
X47942500Y-59319895D01*
X48697083Y-58565312D01*
X48635429Y-58329700D01*
X48356188Y-58231416D01*
X48696880Y-58090646D01*
X49072327Y-57715853D01*
X49212593Y-57378053D01*
X49351354Y-57713880D01*
X49726147Y-58089327D01*
X50047618Y-58222813D01*
X49789571Y-58329700D01*
X49727917Y-58565312D01*
X50482500Y-59319895D01*
X51237083Y-58565312D01*
X51175429Y-58329700D01*
X50896188Y-58231416D01*
X51236880Y-58090646D01*
X51612327Y-57715853D01*
X51815768Y-57225913D01*
X51816231Y-56695414D01*
X51816231Y-59467535D01*
X51799648Y-59162301D01*
X51652300Y-58806571D01*
X51416688Y-58744917D01*
X50662105Y-59499500D01*
X51416688Y-60254083D01*
X51652300Y-60192429D01*
X51828427Y-59692020D01*
X51828427Y-72390000D01*
X51683401Y-72390000D01*
X51683401Y-68463418D01*
X51672774Y-68176411D01*
X51672774Y-62160306D01*
X51424462Y-61559345D01*
X51237083Y-61371638D01*
X51237083Y-60433688D01*
X50482500Y-59679105D01*
X50302895Y-59858710D01*
X50302895Y-59499500D01*
X49548312Y-58744917D01*
X49312700Y-58806571D01*
X49220640Y-59068128D01*
X49112300Y-58806571D01*
X48876688Y-58744917D01*
X48122105Y-59499500D01*
X48876688Y-60254083D01*
X49112300Y-60192429D01*
X49204359Y-59930871D01*
X49312700Y-60192429D01*
X49548312Y-60254083D01*
X50302895Y-59499500D01*
X50302895Y-59858710D01*
X49727917Y-60433688D01*
X49789571Y-60669300D01*
X50289980Y-60845427D01*
X50819699Y-60816648D01*
X51175429Y-60669300D01*
X51237083Y-60433688D01*
X51237083Y-61371638D01*
X50965073Y-61099154D01*
X50364547Y-60849794D01*
X49714306Y-60849226D01*
X49113345Y-61097538D01*
X48697083Y-61513074D01*
X48697083Y-60433688D01*
X47942500Y-59679105D01*
X47928357Y-59693247D01*
X47748752Y-59513642D01*
X47762895Y-59499500D01*
X47008312Y-58744917D01*
X46772700Y-58806571D01*
X46596573Y-59306980D01*
X46625352Y-59836699D01*
X46744860Y-60125219D01*
X46633311Y-60171311D01*
X46329378Y-60474714D01*
X46164687Y-60871332D01*
X46164313Y-61300784D01*
X46291500Y-61608599D01*
X46291500Y-63359933D01*
X46164687Y-63665332D01*
X46164313Y-64094784D01*
X46328311Y-64491689D01*
X46631714Y-64795622D01*
X47028332Y-64960313D01*
X47457784Y-64960687D01*
X47854689Y-64796689D01*
X48158622Y-64493286D01*
X48323313Y-64096668D01*
X48323687Y-63667216D01*
X48196500Y-63359400D01*
X48196500Y-61608066D01*
X48323313Y-61302668D01*
X48323687Y-60873216D01*
X48297300Y-60809357D01*
X48635429Y-60669300D01*
X48697083Y-60433688D01*
X48697083Y-61513074D01*
X48653154Y-61556927D01*
X48403794Y-62157453D01*
X48403226Y-62807694D01*
X48651538Y-63408655D01*
X48714269Y-63471496D01*
X48678812Y-63486183D01*
X48500183Y-63664811D01*
X48403510Y-63898200D01*
X48403510Y-64150819D01*
X48403510Y-64738250D01*
X48562260Y-64897000D01*
X49911000Y-64897000D01*
X49911000Y-64877000D01*
X50165000Y-64877000D01*
X50165000Y-64897000D01*
X51513740Y-64897000D01*
X51672490Y-64738250D01*
X51672490Y-64150819D01*
X51672490Y-63898200D01*
X51575817Y-63664811D01*
X51397188Y-63486183D01*
X51362145Y-63471667D01*
X51422846Y-63411073D01*
X51672206Y-62810547D01*
X51672774Y-62160306D01*
X51672774Y-68176411D01*
X51672490Y-68168741D01*
X51672490Y-66149800D01*
X51672490Y-65897181D01*
X51672490Y-65309750D01*
X51513740Y-65151000D01*
X50165000Y-65151000D01*
X50165000Y-65171000D01*
X49911000Y-65171000D01*
X49911000Y-65151000D01*
X48562260Y-65151000D01*
X48403510Y-65309750D01*
X48403510Y-65897181D01*
X48403510Y-66149800D01*
X48500183Y-66383189D01*
X48678812Y-66561817D01*
X48912201Y-66658490D01*
X49457478Y-66658490D01*
X49164042Y-66780035D01*
X49065443Y-67046837D01*
X50038000Y-68019395D01*
X51010557Y-67046837D01*
X50911958Y-66780035D01*
X50584772Y-66658490D01*
X51163799Y-66658490D01*
X51397188Y-66561817D01*
X51575817Y-66383189D01*
X51672490Y-66149800D01*
X51672490Y-68168741D01*
X51659341Y-67813623D01*
X51456965Y-67325042D01*
X51190163Y-67226443D01*
X50217605Y-68199000D01*
X50231747Y-68213142D01*
X50052142Y-68392747D01*
X50038000Y-68378605D01*
X50023857Y-68392747D01*
X49844252Y-68213142D01*
X49858395Y-68199000D01*
X48885837Y-67226443D01*
X48619035Y-67325042D01*
X48392599Y-67934582D01*
X48416659Y-68584377D01*
X48619035Y-69072958D01*
X48814226Y-69145092D01*
X48678812Y-69201183D01*
X48500183Y-69379811D01*
X48403510Y-69613200D01*
X48403510Y-69865819D01*
X48403510Y-71864799D01*
X48500183Y-72098188D01*
X48678811Y-72276817D01*
X48912200Y-72373490D01*
X49164819Y-72373490D01*
X51163799Y-72373490D01*
X51397188Y-72276817D01*
X51575817Y-72098189D01*
X51672490Y-71864800D01*
X51672490Y-71612181D01*
X51672490Y-69613201D01*
X51575817Y-69379812D01*
X51397189Y-69201183D01*
X51261774Y-69145092D01*
X51456965Y-69072958D01*
X51683401Y-68463418D01*
X51683401Y-72390000D01*
X43232605Y-72390000D01*
X43139653Y-72297048D01*
X43324200Y-72373490D01*
X43576819Y-72373490D01*
X45575799Y-72373490D01*
X45809188Y-72276817D01*
X45987817Y-72098189D01*
X46084490Y-71864800D01*
X46084490Y-71612181D01*
X46084490Y-69613201D01*
X45987817Y-69379812D01*
X45809189Y-69201183D01*
X45673774Y-69145092D01*
X45868965Y-69072958D01*
X46095401Y-68463418D01*
X46084774Y-68176411D01*
X46084774Y-62160306D01*
X45836462Y-61559345D01*
X45377073Y-61099154D01*
X44776547Y-60849794D01*
X44196231Y-60849287D01*
X44196231Y-57711414D01*
X43993646Y-57221120D01*
X43618853Y-56845673D01*
X43128913Y-56642232D01*
X42598414Y-56641769D01*
X42108120Y-56844354D01*
X41732673Y-57219147D01*
X41592406Y-57556946D01*
X41453646Y-57221120D01*
X41078853Y-56845673D01*
X40588913Y-56642232D01*
X40058414Y-56641769D01*
X39568120Y-56844354D01*
X39192673Y-57219147D01*
X38989232Y-57709087D01*
X38988769Y-58239586D01*
X39191354Y-58729880D01*
X39566147Y-59105327D01*
X40056087Y-59308768D01*
X40586586Y-59309231D01*
X41076880Y-59106646D01*
X41452327Y-58731853D01*
X41592593Y-58394053D01*
X41731354Y-58729880D01*
X42106147Y-59105327D01*
X42596087Y-59308768D01*
X43126586Y-59309231D01*
X43616880Y-59106646D01*
X43992327Y-58731853D01*
X44195768Y-58241913D01*
X44196231Y-57711414D01*
X44196231Y-60849287D01*
X44126306Y-60849226D01*
X43525345Y-61097538D01*
X43065154Y-61556927D01*
X42815794Y-62157453D01*
X42815226Y-62807694D01*
X43063538Y-63408655D01*
X43126269Y-63471496D01*
X43090812Y-63486183D01*
X42912183Y-63664811D01*
X42815510Y-63898200D01*
X42815510Y-64150819D01*
X42815510Y-64738250D01*
X42974260Y-64897000D01*
X44323000Y-64897000D01*
X44323000Y-64877000D01*
X44577000Y-64877000D01*
X44577000Y-64897000D01*
X45925740Y-64897000D01*
X46084490Y-64738250D01*
X46084490Y-64150819D01*
X46084490Y-63898200D01*
X45987817Y-63664811D01*
X45809188Y-63486183D01*
X45774145Y-63471667D01*
X45834846Y-63411073D01*
X46084206Y-62810547D01*
X46084774Y-62160306D01*
X46084774Y-68176411D01*
X46084490Y-68168741D01*
X46084490Y-66149800D01*
X46084490Y-65897181D01*
X46084490Y-65309750D01*
X45925740Y-65151000D01*
X44577000Y-65151000D01*
X44577000Y-65171000D01*
X44323000Y-65171000D01*
X44323000Y-65151000D01*
X42974260Y-65151000D01*
X42815510Y-65309750D01*
X42815510Y-65897181D01*
X42815510Y-66149800D01*
X42912183Y-66383189D01*
X43090812Y-66561817D01*
X43324201Y-66658490D01*
X43869478Y-66658490D01*
X43576042Y-66780035D01*
X43477443Y-67046837D01*
X44450000Y-68019395D01*
X45422557Y-67046837D01*
X45323958Y-66780035D01*
X44996772Y-66658490D01*
X45575799Y-66658490D01*
X45809188Y-66561817D01*
X45987817Y-66383189D01*
X46084490Y-66149800D01*
X46084490Y-68168741D01*
X46071341Y-67813623D01*
X45868965Y-67325042D01*
X45602163Y-67226443D01*
X44629605Y-68199000D01*
X44643747Y-68213142D01*
X44464142Y-68392747D01*
X44450000Y-68378605D01*
X44435857Y-68392747D01*
X44256252Y-68213142D01*
X44270395Y-68199000D01*
X43297837Y-67226443D01*
X43031035Y-67325042D01*
X42804599Y-67934582D01*
X42828659Y-68584377D01*
X43031035Y-69072958D01*
X43226226Y-69145092D01*
X43090812Y-69201183D01*
X42912183Y-69379811D01*
X42815510Y-69613200D01*
X42815510Y-69865819D01*
X42815510Y-71864799D01*
X42891952Y-72049347D01*
X41581605Y-70739000D01*
X38150000Y-70739000D01*
X38150000Y-70608722D01*
X38677255Y-70713600D01*
X39046745Y-70713600D01*
X39620234Y-70599526D01*
X40106415Y-70274670D01*
X40431271Y-69788489D01*
X40545345Y-69215000D01*
X40431271Y-68641511D01*
X40106415Y-68155330D01*
X39796930Y-67948539D01*
X40212732Y-67577036D01*
X40466709Y-67049791D01*
X40469358Y-67034026D01*
X40348217Y-66802000D01*
X38989000Y-66802000D01*
X38989000Y-66822000D01*
X38735000Y-66822000D01*
X38735000Y-66802000D01*
X38715000Y-66802000D01*
X38715000Y-66548000D01*
X38735000Y-66548000D01*
X38735000Y-66528000D01*
X38989000Y-66528000D01*
X38989000Y-66548000D01*
X40348217Y-66548000D01*
X40469358Y-66315974D01*
X40466709Y-66300209D01*
X40212732Y-65772964D01*
X40040139Y-65618758D01*
X40237698Y-65536927D01*
X40416327Y-65358299D01*
X40513000Y-65124910D01*
X40513000Y-64872291D01*
X40513000Y-63145091D01*
X40416327Y-62911702D01*
X40237699Y-62733073D01*
X40004310Y-62636400D01*
X39751691Y-62636400D01*
X38150000Y-62636400D01*
X38150000Y-52578000D01*
X38986640Y-52578000D01*
X38900100Y-53013067D01*
X38900100Y-53793933D01*
X39008374Y-54338262D01*
X39316711Y-54799722D01*
X39778171Y-55108059D01*
X40322500Y-55216333D01*
X40866829Y-55108059D01*
X41328289Y-54799722D01*
X41592253Y-54404670D01*
X41596975Y-54420762D01*
X41946514Y-54854691D01*
X42435504Y-55121827D01*
X42515440Y-55138510D01*
X42735500Y-55016352D01*
X42735500Y-53530500D01*
X42715500Y-53530500D01*
X42715500Y-53276500D01*
X42735500Y-53276500D01*
X42735500Y-53256500D01*
X42989500Y-53256500D01*
X42989500Y-53276500D01*
X43009500Y-53276500D01*
X43009500Y-53530500D01*
X42989500Y-53530500D01*
X42989500Y-55016352D01*
X43209560Y-55138510D01*
X43289496Y-55121827D01*
X43778486Y-54854691D01*
X44128025Y-54420762D01*
X44132746Y-54404670D01*
X44396711Y-54799722D01*
X44858171Y-55108059D01*
X45402500Y-55216333D01*
X45946829Y-55108059D01*
X46408289Y-54799722D01*
X46672500Y-54404301D01*
X46936711Y-54799722D01*
X47398171Y-55108059D01*
X47942500Y-55216333D01*
X48486829Y-55108059D01*
X48948289Y-54799722D01*
X49212500Y-54404301D01*
X49476711Y-54799722D01*
X49938171Y-55108059D01*
X50482500Y-55216333D01*
X51026829Y-55108059D01*
X51488289Y-54799722D01*
X51752500Y-54404301D01*
X52016711Y-54799722D01*
X52478171Y-55108059D01*
X53022500Y-55216333D01*
X53566829Y-55108059D01*
X54028289Y-54799722D01*
X54292253Y-54404670D01*
X54296975Y-54420762D01*
X54646514Y-54854691D01*
X55135504Y-55121827D01*
X55215440Y-55138510D01*
X55435500Y-55016352D01*
X55435500Y-53530500D01*
X55415500Y-53530500D01*
X55415500Y-53276500D01*
X55435500Y-53276500D01*
X55435500Y-53256500D01*
X55689500Y-53256500D01*
X55689500Y-53276500D01*
X55709500Y-53276500D01*
X55709500Y-53530500D01*
X55689500Y-53530500D01*
X55689500Y-55016352D01*
X55909560Y-55138510D01*
X55989496Y-55121827D01*
X56478486Y-54854691D01*
X56828025Y-54420762D01*
X56832746Y-54404670D01*
X57096711Y-54799722D01*
X57558171Y-55108059D01*
X58102500Y-55216333D01*
X58646829Y-55108059D01*
X59108289Y-54799722D01*
X59416626Y-54338262D01*
X59524900Y-53793933D01*
X59524900Y-53013067D01*
X59438359Y-52578000D01*
X59690000Y-52578000D01*
X59690000Y-59436000D01*
G36*
X59436800Y-44301499D02*
X59428227Y-44280802D01*
X59249599Y-44102173D01*
X59016210Y-44005500D01*
X58763591Y-44005500D01*
X57188791Y-44005500D01*
X56955402Y-44102173D01*
X56776773Y-44280801D01*
X56680100Y-44514190D01*
X56680100Y-44554615D01*
X56568289Y-44387278D01*
X56336927Y-44232687D01*
X56336927Y-39816520D01*
X56308148Y-39286801D01*
X56160800Y-38931071D01*
X55925188Y-38869417D01*
X55745583Y-39049022D01*
X55745583Y-38689812D01*
X55683929Y-38454200D01*
X55183520Y-38278073D01*
X54653801Y-38306852D01*
X54298071Y-38454200D01*
X54236417Y-38689812D01*
X54991000Y-39444395D01*
X55745583Y-38689812D01*
X55745583Y-39049022D01*
X55170605Y-39624000D01*
X55925188Y-40378583D01*
X56160800Y-40316929D01*
X56336927Y-39816520D01*
X56336927Y-44232687D01*
X56324731Y-44224538D01*
X56324731Y-41899914D01*
X56122146Y-41409620D01*
X55747353Y-41034173D01*
X55425881Y-40900686D01*
X55683929Y-40793800D01*
X55745583Y-40558188D01*
X54991000Y-39803605D01*
X54811395Y-39983210D01*
X54811395Y-39624000D01*
X54056812Y-38869417D01*
X53821200Y-38931071D01*
X53645073Y-39431480D01*
X53673852Y-39961199D01*
X53821200Y-40316929D01*
X54056812Y-40378583D01*
X54811395Y-39624000D01*
X54811395Y-39983210D01*
X54236417Y-40558188D01*
X54298071Y-40793800D01*
X54577311Y-40892083D01*
X54236620Y-41032854D01*
X53861173Y-41407647D01*
X53657732Y-41897587D01*
X53657269Y-42428086D01*
X53859854Y-42918380D01*
X54234647Y-43293827D01*
X54724587Y-43497268D01*
X55255086Y-43497731D01*
X55745380Y-43295146D01*
X56120827Y-42920353D01*
X56324268Y-42430413D01*
X56324731Y-41899914D01*
X56324731Y-44224538D01*
X56106829Y-44078941D01*
X55562500Y-43970667D01*
X55018171Y-44078941D01*
X54556711Y-44387278D01*
X54292500Y-44782698D01*
X54028289Y-44387278D01*
X53566829Y-44078941D01*
X53022500Y-43970667D01*
X52478171Y-44078941D01*
X52064401Y-44355412D01*
X52064401Y-39888418D01*
X52040341Y-39238623D01*
X51837965Y-38750042D01*
X51571163Y-38651443D01*
X51391557Y-38831048D01*
X51391557Y-38471837D01*
X51292958Y-38205035D01*
X50683418Y-37978599D01*
X50033623Y-38002659D01*
X49545042Y-38205035D01*
X49446443Y-38471837D01*
X50419000Y-39444395D01*
X51391557Y-38471837D01*
X51391557Y-38831048D01*
X50598605Y-39624000D01*
X50612747Y-39638142D01*
X50433142Y-39817747D01*
X50419000Y-39803605D01*
X50404857Y-39817747D01*
X50225252Y-39638142D01*
X50239395Y-39624000D01*
X49266837Y-38651443D01*
X49000035Y-38750042D01*
X48773599Y-39359582D01*
X48797659Y-40009377D01*
X49000035Y-40497958D01*
X49195226Y-40570092D01*
X49059812Y-40626183D01*
X48881183Y-40804811D01*
X48784510Y-41038200D01*
X48784510Y-41290819D01*
X48784510Y-43289799D01*
X48881183Y-43523188D01*
X49059811Y-43701817D01*
X49293200Y-43798490D01*
X49545819Y-43798490D01*
X51544799Y-43798490D01*
X51778188Y-43701817D01*
X51956817Y-43523189D01*
X52053490Y-43289800D01*
X52053490Y-43037181D01*
X52053490Y-41038201D01*
X51956817Y-40804812D01*
X51778189Y-40626183D01*
X51642774Y-40570092D01*
X51837965Y-40497958D01*
X52064401Y-39888418D01*
X52064401Y-44355412D01*
X52016711Y-44387278D01*
X51752500Y-44782698D01*
X51488289Y-44387278D01*
X51026829Y-44078941D01*
X50482500Y-43970667D01*
X49938171Y-44078941D01*
X49476711Y-44387278D01*
X49212746Y-44782329D01*
X49208025Y-44766238D01*
X48858486Y-44332309D01*
X48369496Y-44065173D01*
X48289560Y-44048490D01*
X48069500Y-44170648D01*
X48069500Y-45656500D01*
X48089500Y-45656500D01*
X48089500Y-45910500D01*
X48069500Y-45910500D01*
X48069500Y-45930500D01*
X47815500Y-45930500D01*
X47815500Y-45910500D01*
X47795500Y-45910500D01*
X47795500Y-45656500D01*
X47815500Y-45656500D01*
X47815500Y-44170648D01*
X47595440Y-44048490D01*
X47515504Y-44065173D01*
X47026514Y-44332309D01*
X46676975Y-44766238D01*
X46672253Y-44782329D01*
X46476401Y-44489215D01*
X46476401Y-39888418D01*
X46452341Y-39238623D01*
X46249965Y-38750042D01*
X45983163Y-38651443D01*
X45803557Y-38831048D01*
X45803557Y-38471837D01*
X45704958Y-38205035D01*
X45095418Y-37978599D01*
X44445623Y-38002659D01*
X43957042Y-38205035D01*
X43858443Y-38471837D01*
X44831000Y-39444395D01*
X45803557Y-38471837D01*
X45803557Y-38831048D01*
X45010605Y-39624000D01*
X45024747Y-39638142D01*
X44845142Y-39817747D01*
X44831000Y-39803605D01*
X44816857Y-39817747D01*
X44637252Y-39638142D01*
X44651395Y-39624000D01*
X43678837Y-38651443D01*
X43412035Y-38750042D01*
X43185599Y-39359582D01*
X43209659Y-40009377D01*
X43412035Y-40497958D01*
X43607226Y-40570092D01*
X43471812Y-40626183D01*
X43293183Y-40804811D01*
X43196510Y-41038200D01*
X43196510Y-41290819D01*
X43196510Y-43289799D01*
X43293183Y-43523188D01*
X43471811Y-43701817D01*
X43705200Y-43798490D01*
X43957819Y-43798490D01*
X45956799Y-43798490D01*
X46190188Y-43701817D01*
X46368817Y-43523189D01*
X46465490Y-43289800D01*
X46465490Y-43037181D01*
X46465490Y-41038201D01*
X46368817Y-40804812D01*
X46190189Y-40626183D01*
X46054774Y-40570092D01*
X46249965Y-40497958D01*
X46476401Y-39888418D01*
X46476401Y-44489215D01*
X46408289Y-44387278D01*
X45946829Y-44078941D01*
X45402500Y-43970667D01*
X44858171Y-44078941D01*
X44396711Y-44387278D01*
X44132500Y-44782698D01*
X43868289Y-44387278D01*
X43406829Y-44078941D01*
X42862500Y-43970667D01*
X42318171Y-44078941D01*
X41856711Y-44387278D01*
X41592500Y-44782698D01*
X41328289Y-44387278D01*
X40866829Y-44078941D01*
X40322500Y-43970667D01*
X39778171Y-44078941D01*
X39316711Y-44387278D01*
X39008374Y-44848738D01*
X38900100Y-45393067D01*
X38900100Y-46173933D01*
X38986640Y-46609000D01*
X38150000Y-46609000D01*
X38150000Y-43494559D01*
X38230766Y-43548526D01*
X38804255Y-43662600D01*
X39173745Y-43662600D01*
X39747234Y-43548526D01*
X40233415Y-43223670D01*
X40558271Y-42737489D01*
X40672345Y-42164000D01*
X40558271Y-41590511D01*
X40233415Y-41104330D01*
X39923930Y-40897539D01*
X40339732Y-40526036D01*
X40593709Y-39998791D01*
X40596358Y-39983026D01*
X40475217Y-39751000D01*
X39116000Y-39751000D01*
X39116000Y-39771000D01*
X38862000Y-39771000D01*
X38862000Y-39751000D01*
X38842000Y-39751000D01*
X38842000Y-39497000D01*
X38862000Y-39497000D01*
X38862000Y-39477000D01*
X39116000Y-39477000D01*
X39116000Y-39497000D01*
X40475217Y-39497000D01*
X40596358Y-39264974D01*
X40593709Y-39249209D01*
X40339732Y-38721964D01*
X40167139Y-38567758D01*
X40364698Y-38485927D01*
X40543327Y-38307299D01*
X40640000Y-38073910D01*
X40640000Y-37821291D01*
X40640000Y-36094091D01*
X40543327Y-35860702D01*
X40364699Y-35682073D01*
X40131310Y-35585400D01*
X39878691Y-35585400D01*
X38150000Y-35585400D01*
X38150000Y-35560000D01*
X40456217Y-35560000D01*
X42615217Y-37973000D01*
X56143269Y-37973000D01*
X56388000Y-38217730D01*
X56388000Y-43815000D01*
X59436800Y-43815000D01*
X59436800Y-44301499D01*
X59436800Y-44301499D01*
G37*
X59436800Y-44301499D02*
X59428227Y-44280802D01*
X59249599Y-44102173D01*
X59016210Y-44005500D01*
X58763591Y-44005500D01*
X57188791Y-44005500D01*
X56955402Y-44102173D01*
X56776773Y-44280801D01*
X56680100Y-44514190D01*
X56680100Y-44554615D01*
X56568289Y-44387278D01*
X56336927Y-44232687D01*
X56336927Y-39816520D01*
X56308148Y-39286801D01*
X56160800Y-38931071D01*
X55925188Y-38869417D01*
X55745583Y-39049022D01*
X55745583Y-38689812D01*
X55683929Y-38454200D01*
X55183520Y-38278073D01*
X54653801Y-38306852D01*
X54298071Y-38454200D01*
X54236417Y-38689812D01*
X54991000Y-39444395D01*
X55745583Y-38689812D01*
X55745583Y-39049022D01*
X55170605Y-39624000D01*
X55925188Y-40378583D01*
X56160800Y-40316929D01*
X56336927Y-39816520D01*
X56336927Y-44232687D01*
X56324731Y-44224538D01*
X56324731Y-41899914D01*
X56122146Y-41409620D01*
X55747353Y-41034173D01*
X55425881Y-40900686D01*
X55683929Y-40793800D01*
X55745583Y-40558188D01*
X54991000Y-39803605D01*
X54811395Y-39983210D01*
X54811395Y-39624000D01*
X54056812Y-38869417D01*
X53821200Y-38931071D01*
X53645073Y-39431480D01*
X53673852Y-39961199D01*
X53821200Y-40316929D01*
X54056812Y-40378583D01*
X54811395Y-39624000D01*
X54811395Y-39983210D01*
X54236417Y-40558188D01*
X54298071Y-40793800D01*
X54577311Y-40892083D01*
X54236620Y-41032854D01*
X53861173Y-41407647D01*
X53657732Y-41897587D01*
X53657269Y-42428086D01*
X53859854Y-42918380D01*
X54234647Y-43293827D01*
X54724587Y-43497268D01*
X55255086Y-43497731D01*
X55745380Y-43295146D01*
X56120827Y-42920353D01*
X56324268Y-42430413D01*
X56324731Y-41899914D01*
X56324731Y-44224538D01*
X56106829Y-44078941D01*
X55562500Y-43970667D01*
X55018171Y-44078941D01*
X54556711Y-44387278D01*
X54292500Y-44782698D01*
X54028289Y-44387278D01*
X53566829Y-44078941D01*
X53022500Y-43970667D01*
X52478171Y-44078941D01*
X52064401Y-44355412D01*
X52064401Y-39888418D01*
X52040341Y-39238623D01*
X51837965Y-38750042D01*
X51571163Y-38651443D01*
X51391557Y-38831048D01*
X51391557Y-38471837D01*
X51292958Y-38205035D01*
X50683418Y-37978599D01*
X50033623Y-38002659D01*
X49545042Y-38205035D01*
X49446443Y-38471837D01*
X50419000Y-39444395D01*
X51391557Y-38471837D01*
X51391557Y-38831048D01*
X50598605Y-39624000D01*
X50612747Y-39638142D01*
X50433142Y-39817747D01*
X50419000Y-39803605D01*
X50404857Y-39817747D01*
X50225252Y-39638142D01*
X50239395Y-39624000D01*
X49266837Y-38651443D01*
X49000035Y-38750042D01*
X48773599Y-39359582D01*
X48797659Y-40009377D01*
X49000035Y-40497958D01*
X49195226Y-40570092D01*
X49059812Y-40626183D01*
X48881183Y-40804811D01*
X48784510Y-41038200D01*
X48784510Y-41290819D01*
X48784510Y-43289799D01*
X48881183Y-43523188D01*
X49059811Y-43701817D01*
X49293200Y-43798490D01*
X49545819Y-43798490D01*
X51544799Y-43798490D01*
X51778188Y-43701817D01*
X51956817Y-43523189D01*
X52053490Y-43289800D01*
X52053490Y-43037181D01*
X52053490Y-41038201D01*
X51956817Y-40804812D01*
X51778189Y-40626183D01*
X51642774Y-40570092D01*
X51837965Y-40497958D01*
X52064401Y-39888418D01*
X52064401Y-44355412D01*
X52016711Y-44387278D01*
X51752500Y-44782698D01*
X51488289Y-44387278D01*
X51026829Y-44078941D01*
X50482500Y-43970667D01*
X49938171Y-44078941D01*
X49476711Y-44387278D01*
X49212746Y-44782329D01*
X49208025Y-44766238D01*
X48858486Y-44332309D01*
X48369496Y-44065173D01*
X48289560Y-44048490D01*
X48069500Y-44170648D01*
X48069500Y-45656500D01*
X48089500Y-45656500D01*
X48089500Y-45910500D01*
X48069500Y-45910500D01*
X48069500Y-45930500D01*
X47815500Y-45930500D01*
X47815500Y-45910500D01*
X47795500Y-45910500D01*
X47795500Y-45656500D01*
X47815500Y-45656500D01*
X47815500Y-44170648D01*
X47595440Y-44048490D01*
X47515504Y-44065173D01*
X47026514Y-44332309D01*
X46676975Y-44766238D01*
X46672253Y-44782329D01*
X46476401Y-44489215D01*
X46476401Y-39888418D01*
X46452341Y-39238623D01*
X46249965Y-38750042D01*
X45983163Y-38651443D01*
X45803557Y-38831048D01*
X45803557Y-38471837D01*
X45704958Y-38205035D01*
X45095418Y-37978599D01*
X44445623Y-38002659D01*
X43957042Y-38205035D01*
X43858443Y-38471837D01*
X44831000Y-39444395D01*
X45803557Y-38471837D01*
X45803557Y-38831048D01*
X45010605Y-39624000D01*
X45024747Y-39638142D01*
X44845142Y-39817747D01*
X44831000Y-39803605D01*
X44816857Y-39817747D01*
X44637252Y-39638142D01*
X44651395Y-39624000D01*
X43678837Y-38651443D01*
X43412035Y-38750042D01*
X43185599Y-39359582D01*
X43209659Y-40009377D01*
X43412035Y-40497958D01*
X43607226Y-40570092D01*
X43471812Y-40626183D01*
X43293183Y-40804811D01*
X43196510Y-41038200D01*
X43196510Y-41290819D01*
X43196510Y-43289799D01*
X43293183Y-43523188D01*
X43471811Y-43701817D01*
X43705200Y-43798490D01*
X43957819Y-43798490D01*
X45956799Y-43798490D01*
X46190188Y-43701817D01*
X46368817Y-43523189D01*
X46465490Y-43289800D01*
X46465490Y-43037181D01*
X46465490Y-41038201D01*
X46368817Y-40804812D01*
X46190189Y-40626183D01*
X46054774Y-40570092D01*
X46249965Y-40497958D01*
X46476401Y-39888418D01*
X46476401Y-44489215D01*
X46408289Y-44387278D01*
X45946829Y-44078941D01*
X45402500Y-43970667D01*
X44858171Y-44078941D01*
X44396711Y-44387278D01*
X44132500Y-44782698D01*
X43868289Y-44387278D01*
X43406829Y-44078941D01*
X42862500Y-43970667D01*
X42318171Y-44078941D01*
X41856711Y-44387278D01*
X41592500Y-44782698D01*
X41328289Y-44387278D01*
X40866829Y-44078941D01*
X40322500Y-43970667D01*
X39778171Y-44078941D01*
X39316711Y-44387278D01*
X39008374Y-44848738D01*
X38900100Y-45393067D01*
X38900100Y-46173933D01*
X38986640Y-46609000D01*
X38150000Y-46609000D01*
X38150000Y-43494559D01*
X38230766Y-43548526D01*
X38804255Y-43662600D01*
X39173745Y-43662600D01*
X39747234Y-43548526D01*
X40233415Y-43223670D01*
X40558271Y-42737489D01*
X40672345Y-42164000D01*
X40558271Y-41590511D01*
X40233415Y-41104330D01*
X39923930Y-40897539D01*
X40339732Y-40526036D01*
X40593709Y-39998791D01*
X40596358Y-39983026D01*
X40475217Y-39751000D01*
X39116000Y-39751000D01*
X39116000Y-39771000D01*
X38862000Y-39771000D01*
X38862000Y-39751000D01*
X38842000Y-39751000D01*
X38842000Y-39497000D01*
X38862000Y-39497000D01*
X38862000Y-39477000D01*
X39116000Y-39477000D01*
X39116000Y-39497000D01*
X40475217Y-39497000D01*
X40596358Y-39264974D01*
X40593709Y-39249209D01*
X40339732Y-38721964D01*
X40167139Y-38567758D01*
X40364698Y-38485927D01*
X40543327Y-38307299D01*
X40640000Y-38073910D01*
X40640000Y-37821291D01*
X40640000Y-36094091D01*
X40543327Y-35860702D01*
X40364699Y-35682073D01*
X40131310Y-35585400D01*
X39878691Y-35585400D01*
X38150000Y-35585400D01*
X38150000Y-35560000D01*
X40456217Y-35560000D01*
X42615217Y-37973000D01*
X56143269Y-37973000D01*
X56388000Y-38217730D01*
X56388000Y-43815000D01*
X59436800Y-43815000D01*
X59436800Y-44301499D01*
M02*
